<svg width="144" height="24" viewBox="0 0 144 24" fill="none" xmlns="http://www.w3.org/2000/svg">
<path d="M8.05219 22.2301C5.57752 22.2301 3.61682 21.5459 2.17009 20.1776C0.723365 18.7903 0 16.8139 0 14.2483V9.45928C0 6.89372 0.723365 4.92679 2.17009 3.55849C3.61682 2.17119 5.57752 1.47754 8.05219 1.47754C10.5078 1.47754 12.4019 2.15219 13.7344 3.50148C15.086 4.83177 15.7617 6.66567 15.7617 9.00318V9.17422H12.0497V8.88916C12.0497 7.7109 11.7166 6.74169 11.0503 5.98152C10.4031 5.22136 9.40374 4.84127 8.05219 4.84127C6.71968 4.84127 5.6727 5.24986 4.91127 6.06704C4.14983 6.88422 3.76911 7.99596 3.76911 9.40227V14.3053C3.76911 15.6926 4.14983 16.8044 4.91127 17.6406C5.6727 18.4577 6.71968 18.8663 8.05219 18.8663C9.40374 18.8663 10.4031 18.4863 11.0503 17.7261C11.7166 16.9469 12.0497 15.9777 12.0497 14.8184V14.3053H15.7617V14.7044C15.7617 17.0419 15.086 18.8853 13.7344 20.2346C12.4019 21.5649 10.5078 22.2301 8.05219 22.2301Z" fill="white"/>
<path d="M24.2581 22.2301C22.8494 22.2301 21.5835 21.945 20.4604 21.3749C19.3373 20.8048 18.4521 19.9781 17.8049 18.8948C17.1577 17.8116 16.8341 16.5098 16.8341 14.9895V14.5334C16.8341 13.0131 17.1577 11.7113 17.8049 10.628C18.4521 9.5448 19.3373 8.71812 20.4604 8.14799C21.5835 7.57787 22.8494 7.29281 24.2581 7.29281C25.6667 7.29281 26.9326 7.57787 28.0557 8.14799C29.1789 8.71812 30.064 9.5448 30.7112 10.628C31.3585 11.7113 31.6821 13.0131 31.6821 14.5334V14.9895C31.6821 16.5098 31.3585 17.8116 30.7112 18.8948C30.064 19.9781 29.1789 20.8048 28.0557 21.3749C26.9326 21.945 25.6667 22.2301 24.2581 22.2301ZM24.2581 19.0374C25.3622 19.0374 26.2759 18.6858 26.9992 17.9826C27.7226 17.2605 28.0843 16.2343 28.0843 14.904V14.6189C28.0843 13.2886 27.7226 12.2719 26.9992 11.5687C26.2949 10.8466 25.3812 10.4855 24.2581 10.4855C23.154 10.4855 22.2403 10.8466 21.5169 11.5687C20.7935 12.2719 20.4319 13.2886 20.4319 14.6189V14.904C20.4319 16.2343 20.7935 17.2605 21.5169 17.9826C22.2403 18.6858 23.154 19.0374 24.2581 19.0374Z" fill="white"/>
<path d="M33.5753 21.831V1.87663H37.1731V21.831H33.5753Z" fill="white"/>
<path d="M39.7323 21.831V1.87663H43.3301V21.831H39.7323Z" fill="white"/>
<path d="M50.2865 22.2301C49.2776 22.2301 48.3734 22.059 47.5739 21.717C46.7744 21.3559 46.1367 20.8428 45.6608 20.1776C45.2039 19.4935 44.9755 18.6668 44.9755 17.6976C44.9755 16.7284 45.2039 15.9207 45.6608 15.2745C46.1367 14.6094 46.7839 14.1153 47.6024 13.7922C48.44 13.4502 49.3918 13.2791 50.4578 13.2791H54.3411V12.4809C54.3411 11.8158 54.1317 11.2742 53.7129 10.8561C53.2942 10.419 52.6279 10.2004 51.7142 10.2004C50.8195 10.2004 50.1532 10.4095 49.7154 10.8276C49.2776 11.2267 48.992 11.7493 48.8588 12.3954L45.5465 11.2837C45.775 10.5615 46.1367 9.90588 46.6316 9.31675C47.1456 8.70862 47.8213 8.22401 48.6589 7.86293C49.5155 7.48285 50.553 7.29281 51.7713 7.29281C53.6368 7.29281 55.1121 7.75841 56.1971 8.68961C57.2822 9.62082 57.8247 10.9701 57.8247 12.7375V18.0111C57.8247 18.5813 58.0912 18.8663 58.6242 18.8663H59.7664V21.831H57.3678C56.6635 21.831 56.0829 21.6599 55.6261 21.3179C55.1692 20.9758 54.9408 20.5197 54.9408 19.9496V19.9211H54.3982C54.3221 20.1491 54.1508 20.4532 53.8843 20.8333C53.6178 21.1943 53.199 21.5174 52.6279 21.8025C52.0568 22.0875 51.2764 22.2301 50.2865 22.2301ZM50.9147 19.3224C51.9236 19.3224 52.7421 19.0469 53.3703 18.4958C54.0175 17.9256 54.3411 17.175 54.3411 16.2438V15.9587H50.7148C50.0485 15.9587 49.525 16.1012 49.1443 16.3863C48.7636 16.6714 48.5732 17.0704 48.5732 17.5836C48.5732 18.0967 48.7731 18.5148 49.1729 18.8378C49.5726 19.1609 50.1532 19.3224 50.9147 19.3224Z" fill="white"/>
<path d="M69.4783 22.2301C68.2029 22.2301 67.2225 22.0115 66.5372 21.5744C65.8519 21.1373 65.3475 20.6527 65.0238 20.1206H64.5099V21.831H60.9692V1.87663H64.567V9.31675H65.081C65.2904 8.97468 65.5664 8.65161 65.909 8.34754C66.2707 8.04347 66.7371 7.79642 67.3082 7.60638C67.8983 7.39733 68.6216 7.29281 69.4783 7.29281C70.6204 7.29281 71.6769 7.57787 72.6477 8.14799C73.6186 8.69911 74.399 9.51629 74.9892 10.5995C75.5793 11.6828 75.8743 12.9941 75.8743 14.5334V14.9895C75.8743 16.5288 75.5793 17.8401 74.9892 18.9233C74.399 20.0066 73.6186 20.8333 72.6477 21.4034C71.6769 21.9545 70.6204 22.2301 69.4783 22.2301ZM68.3932 19.0944C69.4973 19.0944 70.4205 18.7428 71.1629 18.0397C71.9053 17.3175 72.2765 16.2723 72.2765 14.904V14.6189C72.2765 13.2506 71.9053 12.2149 71.1629 11.5117C70.4396 10.7896 69.5163 10.4285 68.3932 10.4285C67.2891 10.4285 66.3659 10.7896 65.6235 11.5117C64.8811 12.2149 64.5099 13.2506 64.5099 14.6189V14.904C64.5099 16.2723 64.8811 17.3175 65.6235 18.0397C66.3659 18.7428 67.2891 19.0944 68.3932 19.0944Z" fill="white"/>
<path d="M77.636 21.831V1.87663H81.4051V9.80136H81.919L88.4008 1.87663H93.2264L84.8886 11.7113L93.5119 21.831H88.5435L81.919 13.7352H81.4051V21.831H77.636Z" fill="white"/>
<path d="M94.1965 21.831V7.6919H97.7943V21.831H94.1965ZM95.9954 6.03853C95.3482 6.03853 94.7962 5.82949 94.3393 5.4114C93.9015 4.99331 93.6826 4.44219 93.6826 3.75804C93.6826 3.07389 93.9015 2.52277 94.3393 2.10468C94.7962 1.68658 95.3482 1.47754 95.9954 1.47754C96.6617 1.47754 97.2137 1.68658 97.6516 2.10468C98.0894 2.52277 98.3083 3.07389 98.3083 3.75804C98.3083 4.44219 98.0894 4.99331 97.6516 5.4114C97.2137 5.82949 96.6617 6.03853 95.9954 6.03853Z" fill="white"/>
<path d="M105.779 21.831C104.846 21.831 104.084 21.5459 103.494 20.9758C102.923 20.3867 102.638 19.6075 102.638 18.6383V10.6565H99.0971V7.6919H102.638V3.30194H106.236V7.6919H110.119V10.6565H106.236V18.0111C106.236 18.5813 106.502 18.8663 107.035 18.8663H109.776V21.831H105.779Z" fill="white"/>
</svg>
