<svg width="390" height="448" viewBox="0 0 390 448" fill="none" xmlns="http://www.w3.org/2000/svg">
<path d="M57.8271 255.431L52.0166 257.618L57.8271 259.785V261.036L50.6016 258.179V257.044L57.8271 254.187V255.431ZM219.312 285.431V284.187L226.538 287.044V288.179L219.312 291.036V289.785L225.123 287.618L219.312 285.431ZM74.6982 319.431L68.8877 321.618L74.6982 323.785V325.036L67.4727 322.179V321.044L74.6982 318.187V319.431ZM57.8271 383.431L52.0166 385.618L57.8271 387.785V389.036L50.6016 386.179V385.044L57.8271 382.187V383.431ZM64.5127 379.794H65.8115L60.4385 391.299H59.1328L64.5127 379.794ZM219.312 383.431V382.187L226.538 385.044V386.179L219.312 389.036V387.785L225.123 385.618L219.312 383.431Z" fill="#5995CC"/>
<path d="M65.7705 261.638C65.4196 261.825 65.0596 261.964 64.6904 262.055C64.3213 262.15 63.9294 262.198 63.5146 262.198C62.2067 262.198 61.1904 261.736 60.4658 260.811C59.7458 259.885 59.3857 258.584 59.3857 256.907C59.3857 255.239 59.748 253.94 60.4727 253.011C61.2018 252.076 62.2158 251.609 63.5146 251.609C63.9294 251.609 64.3213 251.657 64.6904 251.753C65.0596 251.844 65.4196 251.983 65.7705 252.17V253.585C65.4333 253.307 65.071 253.095 64.6836 252.949C64.2962 252.803 63.9066 252.73 63.5146 252.73C62.6169 252.73 61.9447 253.077 61.498 253.77C61.0514 254.462 60.8281 255.508 60.8281 256.907C60.8281 258.302 61.0514 259.345 61.498 260.038C61.9447 260.731 62.6169 261.077 63.5146 261.077C63.9157 261.077 64.3076 261.004 64.6904 260.858C65.0778 260.713 65.4378 260.501 65.7705 260.223V261.638ZM71.082 255.226C70.444 255.226 69.9609 255.474 69.6328 255.971C69.3047 256.467 69.1406 257.203 69.1406 258.179C69.1406 259.149 69.3047 259.885 69.6328 260.387C69.9609 260.883 70.444 261.132 71.082 261.132C71.7246 261.132 72.21 260.883 72.5381 260.387C72.8662 259.885 73.0303 259.149 73.0303 258.179C73.0303 257.203 72.8662 256.467 72.5381 255.971C72.21 255.474 71.7246 255.226 71.082 255.226ZM71.082 254.159C72.1439 254.159 72.9551 254.503 73.5156 255.191C74.0807 255.88 74.3633 256.875 74.3633 258.179C74.3633 259.487 74.083 260.485 73.5225 261.173C72.9619 261.856 72.1484 262.198 71.082 262.198C70.0202 262.198 69.209 261.856 68.6484 261.173C68.0879 260.485 67.8076 259.487 67.8076 258.179C67.8076 256.875 68.0879 255.88 68.6484 255.191C69.209 254.503 70.0202 254.159 71.082 254.159ZM80.2217 259.231C80.2217 259.797 80.3242 260.223 80.5293 260.51C80.7389 260.797 81.0465 260.94 81.4521 260.94H82.9219V262H81.3291C80.5771 262 79.9938 261.761 79.5791 261.282C79.1689 260.799 78.9639 260.116 78.9639 259.231V252.307H76.9473V251.322H80.2217V259.231ZM88.6572 259.231C88.6572 259.797 88.7598 260.223 88.9648 260.51C89.1745 260.797 89.4821 260.94 89.8877 260.94H91.3574V262H89.7646C89.0127 262 88.4294 261.761 88.0146 261.282C87.6045 260.799 87.3994 260.116 87.3994 259.231V252.307H85.3828V251.322H88.6572V259.231ZM96.9766 258.151H96.5596C95.8258 258.151 95.2721 258.281 94.8984 258.541C94.5293 258.796 94.3447 259.179 94.3447 259.689C94.3447 260.15 94.4837 260.507 94.7617 260.763C95.0397 261.018 95.4248 261.146 95.917 261.146C96.6097 261.146 97.1543 260.906 97.5508 260.428C97.9473 259.945 98.1478 259.279 98.1523 258.432V258.151H96.9766ZM99.417 257.632V262H98.1523V260.865C97.8835 261.321 97.5439 261.658 97.1338 261.877C96.7282 262.091 96.2337 262.198 95.6504 262.198C94.8711 262.198 94.249 261.979 93.7842 261.542C93.3193 261.1 93.0869 260.51 93.0869 259.771C93.0869 258.919 93.3717 258.272 93.9414 257.83C94.5156 257.388 95.3564 257.167 96.4639 257.167H98.1523V256.969C98.1478 256.358 97.9928 255.916 97.6875 255.643C97.3822 255.365 96.8945 255.226 96.2246 255.226C95.7962 255.226 95.3633 255.287 94.9258 255.41C94.4883 255.533 94.0622 255.713 93.6475 255.95V254.692C94.1123 254.515 94.5566 254.382 94.9805 254.296C95.4089 254.205 95.8236 254.159 96.2246 254.159C96.8581 254.159 97.3981 254.253 97.8447 254.439C98.2959 254.626 98.6605 254.907 98.9385 255.28C99.1117 255.508 99.2347 255.791 99.3076 256.128C99.3805 256.461 99.417 256.962 99.417 257.632ZM106.889 258.179C106.889 257.203 106.734 256.467 106.424 255.971C106.114 255.474 105.656 255.226 105.05 255.226C104.439 255.226 103.977 255.476 103.662 255.978C103.348 256.474 103.19 257.208 103.19 258.179C103.19 259.145 103.348 259.879 103.662 260.38C103.977 260.881 104.439 261.132 105.05 261.132C105.656 261.132 106.114 260.883 106.424 260.387C106.734 259.89 106.889 259.154 106.889 258.179ZM103.19 255.321C103.391 254.948 103.667 254.66 104.018 254.46C104.373 254.259 104.783 254.159 105.248 254.159C106.169 254.159 106.893 254.515 107.422 255.226C107.951 255.932 108.215 256.907 108.215 258.151C108.215 259.414 107.948 260.405 107.415 261.125C106.886 261.84 106.16 262.198 105.234 262.198C104.779 262.198 104.375 262.1 104.024 261.904C103.678 261.704 103.4 261.414 103.19 261.036V262H101.933V251.363H103.19V255.321ZM109.985 251.794H111.373V256.333L115.687 251.794H117.307L113.335 255.964L117.423 262H115.755L112.426 256.887L111.373 258.008V262H109.985V251.794ZM119.645 254.371H122.864V261.022H125.359V262H119.111V261.022H121.606V255.349H119.645V254.371ZM121.606 251.397H122.864V252.983H121.606V251.397ZM130.117 252.17V254.344H132.975V255.321H130.117V259.478C130.117 260.043 130.224 260.437 130.438 260.66C130.653 260.883 131.026 260.995 131.56 260.995H132.975V262H131.437C130.493 262 129.828 261.811 129.44 261.433C129.053 261.054 128.859 260.403 128.859 259.478V255.321H126.815V254.344H128.859V252.17H130.117ZM137.015 259.238H139.421V262H137.015V259.238ZM145.519 252.929V256.764H147.118C147.756 256.764 148.253 256.595 148.608 256.258C148.968 255.921 149.148 255.449 149.148 254.843C149.148 254.237 148.971 253.767 148.615 253.435C148.26 253.097 147.761 252.929 147.118 252.929H145.519ZM144.138 251.794H147.118C148.257 251.794 149.121 252.054 149.709 252.573C150.297 253.088 150.591 253.845 150.591 254.843C150.591 255.85 150.297 256.611 149.709 257.126C149.126 257.641 148.262 257.898 147.118 257.898H145.519V262H144.138V251.794ZM159.122 255.923C158.853 255.713 158.58 255.561 158.302 255.465C158.024 255.369 157.718 255.321 157.386 255.321C156.602 255.321 156.003 255.567 155.588 256.06C155.173 256.552 154.966 257.263 154.966 258.192V262H153.701V254.344H154.966V255.841C155.175 255.299 155.497 254.884 155.93 254.597C156.367 254.305 156.884 254.159 157.481 254.159C157.791 254.159 158.081 254.198 158.35 254.275C158.618 254.353 158.876 254.474 159.122 254.638V255.923ZM163.873 255.226C163.235 255.226 162.752 255.474 162.424 255.971C162.096 256.467 161.932 257.203 161.932 258.179C161.932 259.149 162.096 259.885 162.424 260.387C162.752 260.883 163.235 261.132 163.873 261.132C164.516 261.132 165.001 260.883 165.329 260.387C165.657 259.885 165.821 259.149 165.821 258.179C165.821 257.203 165.657 256.467 165.329 255.971C165.001 255.474 164.516 255.226 163.873 255.226ZM163.873 254.159C164.935 254.159 165.746 254.503 166.307 255.191C166.872 255.88 167.154 256.875 167.154 258.179C167.154 259.487 166.874 260.485 166.313 261.173C165.753 261.856 164.939 262.198 163.873 262.198C162.811 262.198 162 261.856 161.439 261.173C160.879 260.485 160.599 259.487 160.599 258.179C160.599 256.875 160.879 255.88 161.439 255.191C162 254.503 162.811 254.159 163.873 254.159ZM168.781 254.344H170.087L172.309 260.77L174.537 254.344H175.843L173.122 262H171.502L168.781 254.344ZM178.693 254.371H181.913V261.022H184.408V262H178.16V261.022H180.655V255.349H178.693V254.371ZM180.655 251.397H181.913V252.983H180.655V251.397ZM190.834 255.321V251.363H192.092V262H190.834V261.036C190.624 261.414 190.344 261.704 189.993 261.904C189.647 262.1 189.246 262.198 188.79 262.198C187.865 262.198 187.136 261.84 186.603 261.125C186.074 260.405 185.81 259.414 185.81 258.151C185.81 256.907 186.076 255.932 186.609 255.226C187.143 254.515 187.869 254.159 188.79 254.159C189.25 254.159 189.656 254.259 190.007 254.46C190.358 254.656 190.633 254.943 190.834 255.321ZM187.136 258.179C187.136 259.154 187.291 259.89 187.601 260.387C187.91 260.883 188.368 261.132 188.975 261.132C189.581 261.132 190.041 260.881 190.355 260.38C190.674 259.879 190.834 259.145 190.834 258.179C190.834 257.208 190.674 256.474 190.355 255.978C190.041 255.476 189.581 255.226 188.975 255.226C188.368 255.226 187.91 255.474 187.601 255.971C187.291 256.467 187.136 257.203 187.136 258.179ZM201.061 257.543V258.158H195.612V258.199C195.576 259.243 195.774 259.993 196.207 260.448C196.645 260.904 197.26 261.132 198.053 261.132C198.454 261.132 198.873 261.068 199.311 260.94C199.748 260.813 200.215 260.619 200.712 260.359V261.61C200.233 261.806 199.771 261.952 199.324 262.048C198.882 262.148 198.454 262.198 198.039 262.198C196.85 262.198 195.92 261.843 195.25 261.132C194.58 260.416 194.245 259.432 194.245 258.179C194.245 256.957 194.573 255.982 195.229 255.253C195.886 254.524 196.761 254.159 197.854 254.159C198.83 254.159 199.598 254.49 200.158 255.15C200.723 255.811 201.024 256.609 201.061 257.543ZM199.803 257.174C199.748 256.645 199.554 256.189 199.222 255.807C198.894 255.419 198.42 255.226 197.8 255.226C197.194 255.226 196.695 255.426 196.303 255.827C195.911 256.228 195.697 256.679 195.66 257.181L199.803 257.174ZM209.735 255.923C209.466 255.713 209.193 255.561 208.915 255.465C208.637 255.369 208.332 255.321 207.999 255.321C207.215 255.321 206.616 255.567 206.201 256.06C205.786 256.552 205.579 257.263 205.579 258.192V262H204.314V254.344H205.579V255.841C205.789 255.299 206.11 254.884 206.543 254.597C206.98 254.305 207.498 254.159 208.095 254.159C208.405 254.159 208.694 254.198 208.963 254.275C209.232 254.353 209.489 254.474 209.735 254.638V255.923ZM82.6416 325.638C82.2907 325.825 81.9307 325.964 81.5615 326.055C81.1924 326.15 80.8005 326.198 80.3857 326.198C79.0778 326.198 78.0615 325.736 77.3369 324.811C76.6169 323.885 76.2568 322.584 76.2568 320.907C76.2568 319.239 76.6191 317.94 77.3438 317.011C78.0729 316.076 79.0869 315.609 80.3857 315.609C80.8005 315.609 81.1924 315.657 81.5615 315.753C81.9307 315.844 82.2907 315.983 82.6416 316.17V317.585C82.3044 317.307 81.9421 317.095 81.5547 316.949C81.1673 316.803 80.7777 316.73 80.3857 316.73C79.488 316.73 78.8158 317.077 78.3691 317.77C77.9225 318.462 77.6992 319.508 77.6992 320.907C77.6992 322.302 77.9225 323.345 78.3691 324.038C78.8158 324.731 79.488 325.077 80.3857 325.077C80.7868 325.077 81.1787 325.004 81.5615 324.858C81.9489 324.713 82.3089 324.501 82.6416 324.223V325.638ZM87.9531 319.226C87.3151 319.226 86.832 319.474 86.5039 319.971C86.1758 320.467 86.0117 321.203 86.0117 322.179C86.0117 323.149 86.1758 323.885 86.5039 324.387C86.832 324.883 87.3151 325.132 87.9531 325.132C88.5957 325.132 89.0811 324.883 89.4092 324.387C89.7373 323.885 89.9014 323.149 89.9014 322.179C89.9014 321.203 89.7373 320.467 89.4092 319.971C89.0811 319.474 88.5957 319.226 87.9531 319.226ZM87.9531 318.159C89.015 318.159 89.8262 318.503 90.3867 319.191C90.9518 319.88 91.2344 320.875 91.2344 322.179C91.2344 323.487 90.9541 324.485 90.3936 325.173C89.833 325.856 89.0195 326.198 87.9531 326.198C86.8913 326.198 86.0801 325.856 85.5195 325.173C84.959 324.485 84.6787 323.487 84.6787 322.179C84.6787 320.875 84.959 319.88 85.5195 319.191C86.0801 318.503 86.8913 318.159 87.9531 318.159ZM97.0928 323.231C97.0928 323.797 97.1953 324.223 97.4004 324.51C97.61 324.797 97.9176 324.94 98.3232 324.94H99.793V326H98.2002C97.4482 326 96.8649 325.761 96.4502 325.282C96.04 324.799 95.835 324.116 95.835 323.231V316.307H93.8184V315.322H97.0928V323.231ZM105.528 323.231C105.528 323.797 105.631 324.223 105.836 324.51C106.046 324.797 106.353 324.94 106.759 324.94H108.229V326H106.636C105.884 326 105.3 325.761 104.886 325.282C104.476 324.799 104.271 324.116 104.271 323.231V316.307H102.254V315.322H105.528V323.231ZM113.848 322.151H113.431C112.697 322.151 112.143 322.281 111.77 322.541C111.4 322.796 111.216 323.179 111.216 323.689C111.216 324.15 111.355 324.507 111.633 324.763C111.911 325.018 112.296 325.146 112.788 325.146C113.481 325.146 114.025 324.906 114.422 324.428C114.818 323.945 115.019 323.279 115.023 322.432V322.151H113.848ZM116.288 321.632V326H115.023V324.865C114.755 325.321 114.415 325.658 114.005 325.877C113.599 326.091 113.105 326.198 112.521 326.198C111.742 326.198 111.12 325.979 110.655 325.542C110.19 325.1 109.958 324.51 109.958 323.771C109.958 322.919 110.243 322.272 110.812 321.83C111.387 321.388 112.228 321.167 113.335 321.167H115.023V320.969C115.019 320.358 114.864 319.916 114.559 319.643C114.253 319.365 113.766 319.226 113.096 319.226C112.667 319.226 112.234 319.287 111.797 319.41C111.359 319.533 110.933 319.713 110.519 319.95V318.692C110.983 318.515 111.428 318.382 111.852 318.296C112.28 318.205 112.695 318.159 113.096 318.159C113.729 318.159 114.269 318.253 114.716 318.439C115.167 318.626 115.532 318.907 115.81 319.28C115.983 319.508 116.106 319.791 116.179 320.128C116.252 320.461 116.288 320.962 116.288 321.632ZM123.76 322.179C123.76 321.203 123.605 320.467 123.295 319.971C122.985 319.474 122.527 319.226 121.921 319.226C121.31 319.226 120.848 319.476 120.533 319.978C120.219 320.474 120.062 321.208 120.062 322.179C120.062 323.145 120.219 323.879 120.533 324.38C120.848 324.881 121.31 325.132 121.921 325.132C122.527 325.132 122.985 324.883 123.295 324.387C123.605 323.89 123.76 323.154 123.76 322.179ZM120.062 319.321C120.262 318.948 120.538 318.66 120.889 318.46C121.244 318.259 121.654 318.159 122.119 318.159C123.04 318.159 123.764 318.515 124.293 319.226C124.822 319.932 125.086 320.907 125.086 322.151C125.086 323.414 124.819 324.405 124.286 325.125C123.757 325.84 123.031 326.198 122.105 326.198C121.65 326.198 121.246 326.1 120.896 325.904C120.549 325.704 120.271 325.414 120.062 325.036V326H118.804V315.363H120.062V319.321ZM126.856 315.794H128.244V320.333L132.558 315.794H134.178L130.206 319.964L134.294 326H132.626L129.297 320.887L128.244 322.008V326H126.856V315.794ZM136.516 318.371H139.735V325.022H142.23V326H135.982V325.022H138.478V319.349H136.516V318.371ZM138.478 315.397H139.735V316.983H138.478V315.397ZM146.988 316.17V318.344H149.846V319.321H146.988V323.478C146.988 324.043 147.095 324.437 147.31 324.66C147.524 324.883 147.897 324.995 148.431 324.995H149.846V326H148.308C147.364 326 146.699 325.811 146.312 325.433C145.924 325.054 145.73 324.403 145.73 323.478V319.321H143.687V318.344H145.73V316.17H146.988ZM153.886 323.238H156.292V326H153.886V323.238ZM159.983 315.794H167.77V316.956H164.577V326H163.189V316.956H159.983V315.794ZM175.282 321.256V326H174.018V321.256C174.018 320.568 173.897 320.062 173.655 319.738C173.414 319.415 173.035 319.253 172.521 319.253C171.933 319.253 171.479 319.463 171.16 319.882C170.846 320.297 170.688 320.894 170.688 321.673V326H169.431V315.363H170.688V319.492C170.912 319.055 171.215 318.724 171.598 318.501C171.98 318.273 172.434 318.159 172.958 318.159C173.737 318.159 174.318 318.417 174.701 318.932C175.089 319.442 175.282 320.217 175.282 321.256ZM184.429 319.923C184.16 319.713 183.886 319.561 183.608 319.465C183.33 319.369 183.025 319.321 182.692 319.321C181.909 319.321 181.309 319.567 180.895 320.06C180.48 320.552 180.272 321.263 180.272 322.192V326H179.008V318.344H180.272V319.841C180.482 319.299 180.803 318.884 181.236 318.597C181.674 318.305 182.191 318.159 182.788 318.159C183.098 318.159 183.387 318.198 183.656 318.275C183.925 318.353 184.183 318.474 184.429 318.638V319.923ZM192.625 321.543V322.158H187.177V322.199C187.14 323.243 187.339 323.993 187.771 324.448C188.209 324.904 188.824 325.132 189.617 325.132C190.018 325.132 190.438 325.068 190.875 324.94C191.312 324.813 191.78 324.619 192.276 324.359V325.61C191.798 325.806 191.335 325.952 190.889 326.048C190.447 326.148 190.018 326.198 189.604 326.198C188.414 326.198 187.484 325.843 186.814 325.132C186.145 324.416 185.81 323.432 185.81 322.179C185.81 320.957 186.138 319.982 186.794 319.253C187.45 318.524 188.325 318.159 189.419 318.159C190.394 318.159 191.162 318.49 191.723 319.15C192.288 319.811 192.589 320.609 192.625 321.543ZM191.367 321.174C191.312 320.645 191.119 320.189 190.786 319.807C190.458 319.419 189.984 319.226 189.364 319.226C188.758 319.226 188.259 319.426 187.867 319.827C187.475 320.228 187.261 320.679 187.225 321.181L191.367 321.174ZM198.203 322.151H197.786C197.052 322.151 196.499 322.281 196.125 322.541C195.756 322.796 195.571 323.179 195.571 323.689C195.571 324.15 195.71 324.507 195.988 324.763C196.266 325.018 196.651 325.146 197.144 325.146C197.836 325.146 198.381 324.906 198.777 324.428C199.174 323.945 199.374 323.279 199.379 322.432V322.151H198.203ZM200.644 321.632V326H199.379V324.865C199.11 325.321 198.771 325.658 198.36 325.877C197.955 326.091 197.46 326.198 196.877 326.198C196.098 326.198 195.476 325.979 195.011 325.542C194.546 325.1 194.313 324.51 194.313 323.771C194.313 322.919 194.598 322.272 195.168 321.83C195.742 321.388 196.583 321.167 197.69 321.167H199.379V320.969C199.374 320.358 199.219 319.916 198.914 319.643C198.609 319.365 198.121 319.226 197.451 319.226C197.023 319.226 196.59 319.287 196.152 319.41C195.715 319.533 195.289 319.713 194.874 319.95V318.692C195.339 318.515 195.783 318.382 196.207 318.296C196.635 318.205 197.05 318.159 197.451 318.159C198.085 318.159 198.625 318.253 199.071 318.439C199.522 318.626 199.887 318.907 200.165 319.28C200.338 319.508 200.461 319.791 200.534 320.128C200.607 320.461 200.644 320.962 200.644 321.632ZM207.705 319.321V315.363H208.963V326H207.705V325.036C207.495 325.414 207.215 325.704 206.864 325.904C206.518 326.1 206.117 326.198 205.661 326.198C204.736 326.198 204.007 325.84 203.474 325.125C202.945 324.405 202.681 323.414 202.681 322.151C202.681 320.907 202.947 319.932 203.48 319.226C204.014 318.515 204.741 318.159 205.661 318.159C206.121 318.159 206.527 318.259 206.878 318.46C207.229 318.656 207.505 318.943 207.705 319.321ZM204.007 322.179C204.007 323.154 204.162 323.89 204.472 324.387C204.782 324.883 205.24 325.132 205.846 325.132C206.452 325.132 206.912 324.881 207.227 324.38C207.546 323.879 207.705 323.145 207.705 322.179C207.705 321.208 207.546 320.474 207.227 319.978C206.912 319.476 206.452 319.226 205.846 319.226C205.24 319.226 204.782 319.474 204.472 319.971C204.162 320.467 204.007 321.203 204.007 322.179ZM74.2061 389.638C73.8551 389.825 73.4951 389.964 73.126 390.055C72.7568 390.15 72.3649 390.198 71.9502 390.198C70.6423 390.198 69.626 389.736 68.9014 388.811C68.1813 387.885 67.8213 386.584 67.8213 384.907C67.8213 383.239 68.1836 381.94 68.9082 381.011C69.6374 380.076 70.6514 379.609 71.9502 379.609C72.3649 379.609 72.7568 379.657 73.126 379.753C73.4951 379.844 73.8551 379.983 74.2061 380.17V381.585C73.8688 381.307 73.5065 381.095 73.1191 380.949C72.7318 380.803 72.3421 380.73 71.9502 380.73C71.0524 380.73 70.3802 381.077 69.9336 381.77C69.487 382.462 69.2637 383.508 69.2637 384.907C69.2637 386.302 69.487 387.345 69.9336 388.038C70.3802 388.731 71.0524 389.077 71.9502 389.077C72.3512 389.077 72.7432 389.004 73.126 388.858C73.5133 388.713 73.8734 388.501 74.2061 388.223V389.638ZM79.5176 383.226C78.8796 383.226 78.3965 383.474 78.0684 383.971C77.7402 384.467 77.5762 385.203 77.5762 386.179C77.5762 387.149 77.7402 387.885 78.0684 388.387C78.3965 388.883 78.8796 389.132 79.5176 389.132C80.1602 389.132 80.6455 388.883 80.9736 388.387C81.3018 387.885 81.4658 387.149 81.4658 386.179C81.4658 385.203 81.3018 384.467 80.9736 383.971C80.6455 383.474 80.1602 383.226 79.5176 383.226ZM79.5176 382.159C80.5794 382.159 81.3906 382.503 81.9512 383.191C82.5163 383.88 82.7988 384.875 82.7988 386.179C82.7988 387.487 82.5186 388.485 81.958 389.173C81.3975 389.856 80.584 390.198 79.5176 390.198C78.4557 390.198 77.6445 389.856 77.084 389.173C76.5234 388.485 76.2432 387.487 76.2432 386.179C76.2432 384.875 76.5234 383.88 77.084 383.191C77.6445 382.503 78.4557 382.159 79.5176 382.159ZM88.6572 387.231C88.6572 387.797 88.7598 388.223 88.9648 388.51C89.1745 388.797 89.4821 388.94 89.8877 388.94H91.3574V390H89.7646C89.0127 390 88.4294 389.761 88.0146 389.282C87.6045 388.799 87.3994 388.116 87.3994 387.231V380.307H85.3828V379.322H88.6572V387.231ZM97.0928 387.231C97.0928 387.797 97.1953 388.223 97.4004 388.51C97.61 388.797 97.9176 388.94 98.3232 388.94H99.793V390H98.2002C97.4482 390 96.8649 389.761 96.4502 389.282C96.04 388.799 95.835 388.116 95.835 387.231V380.307H93.8184V379.322H97.0928V387.231ZM105.412 386.151H104.995C104.261 386.151 103.708 386.281 103.334 386.541C102.965 386.796 102.78 387.179 102.78 387.689C102.78 388.15 102.919 388.507 103.197 388.763C103.475 389.018 103.86 389.146 104.353 389.146C105.045 389.146 105.59 388.906 105.986 388.428C106.383 387.945 106.583 387.279 106.588 386.432V386.151H105.412ZM107.853 385.632V390H106.588V388.865C106.319 389.321 105.979 389.658 105.569 389.877C105.164 390.091 104.669 390.198 104.086 390.198C103.307 390.198 102.685 389.979 102.22 389.542C101.755 389.1 101.522 388.51 101.522 387.771C101.522 386.919 101.807 386.272 102.377 385.83C102.951 385.388 103.792 385.167 104.899 385.167H106.588V384.969C106.583 384.358 106.428 383.916 106.123 383.643C105.818 383.365 105.33 383.226 104.66 383.226C104.232 383.226 103.799 383.287 103.361 383.41C102.924 383.533 102.498 383.713 102.083 383.95V382.692C102.548 382.515 102.992 382.382 103.416 382.296C103.844 382.205 104.259 382.159 104.66 382.159C105.294 382.159 105.834 382.253 106.28 382.439C106.731 382.626 107.096 382.907 107.374 383.28C107.547 383.508 107.67 383.791 107.743 384.128C107.816 384.461 107.853 384.962 107.853 385.632ZM115.324 386.179C115.324 385.203 115.169 384.467 114.859 383.971C114.549 383.474 114.091 383.226 113.485 383.226C112.875 383.226 112.412 383.476 112.098 383.978C111.783 384.474 111.626 385.208 111.626 386.179C111.626 387.145 111.783 387.879 112.098 388.38C112.412 388.881 112.875 389.132 113.485 389.132C114.091 389.132 114.549 388.883 114.859 388.387C115.169 387.89 115.324 387.154 115.324 386.179ZM111.626 383.321C111.826 382.948 112.102 382.66 112.453 382.46C112.809 382.259 113.219 382.159 113.684 382.159C114.604 382.159 115.329 382.515 115.857 383.226C116.386 383.932 116.65 384.907 116.65 386.151C116.65 387.414 116.384 388.405 115.851 389.125C115.322 389.84 114.595 390.198 113.67 390.198C113.214 390.198 112.811 390.1 112.46 389.904C112.114 389.704 111.836 389.414 111.626 389.036V390H110.368V379.363H111.626V383.321ZM118.421 379.794H119.809V384.333L124.122 379.794H125.742L121.771 383.964L125.858 390H124.19L120.861 384.887L119.809 386.008V390H118.421V379.794ZM128.08 382.371H131.3V389.022H133.795V390H127.547V389.022H130.042V383.349H128.08V382.371ZM130.042 379.397H131.3V380.983H130.042V379.397ZM138.553 380.17V382.344H141.41V383.321H138.553V387.478C138.553 388.043 138.66 388.437 138.874 388.66C139.088 388.883 139.462 388.995 139.995 388.995H141.41V390H139.872C138.929 390 138.263 389.811 137.876 389.433C137.489 389.054 137.295 388.403 137.295 387.478V383.321H135.251V382.344H137.295V380.17H138.553ZM145.45 387.238H147.856V390H145.45V387.238ZM153.954 380.929V384.764H155.554C156.192 384.764 156.688 384.595 157.044 384.258C157.404 383.921 157.584 383.449 157.584 382.843C157.584 382.237 157.406 381.767 157.051 381.435C156.695 381.097 156.196 380.929 155.554 380.929H153.954ZM152.573 379.794H155.554C156.693 379.794 157.557 380.054 158.145 380.573C158.732 381.088 159.026 381.845 159.026 382.843C159.026 383.85 158.732 384.611 158.145 385.126C157.561 385.641 156.698 385.898 155.554 385.898H153.954V390H152.573V379.794ZM167.558 383.923C167.289 383.713 167.015 383.561 166.737 383.465C166.459 383.369 166.154 383.321 165.821 383.321C165.037 383.321 164.438 383.567 164.023 384.06C163.609 384.552 163.401 385.263 163.401 386.192V390H162.137V382.344H163.401V383.841C163.611 383.299 163.932 382.884 164.365 382.597C164.803 382.305 165.32 382.159 165.917 382.159C166.227 382.159 166.516 382.198 166.785 382.275C167.054 382.353 167.312 382.474 167.558 382.638V383.923ZM172.309 383.226C171.671 383.226 171.188 383.474 170.859 383.971C170.531 384.467 170.367 385.203 170.367 386.179C170.367 387.149 170.531 387.885 170.859 388.387C171.188 388.883 171.671 389.132 172.309 389.132C172.951 389.132 173.437 388.883 173.765 388.387C174.093 387.885 174.257 387.149 174.257 386.179C174.257 385.203 174.093 384.467 173.765 383.971C173.437 383.474 172.951 383.226 172.309 383.226ZM172.309 382.159C173.37 382.159 174.182 382.503 174.742 383.191C175.307 383.88 175.59 384.875 175.59 386.179C175.59 387.487 175.31 388.485 174.749 389.173C174.188 389.856 173.375 390.198 172.309 390.198C171.247 390.198 170.436 389.856 169.875 389.173C169.314 388.485 169.034 387.487 169.034 386.179C169.034 384.875 169.314 383.88 169.875 383.191C170.436 382.503 171.247 382.159 172.309 382.159ZM177.217 382.344H178.522L180.744 388.77L182.973 382.344H184.278L181.558 390H179.938L177.217 382.344ZM187.129 382.371H190.349V389.022H192.844V390H186.596V389.022H189.091V383.349H187.129V382.371ZM189.091 379.397H190.349V380.983H189.091V379.397ZM199.27 383.321V379.363H200.527V390H199.27V389.036C199.06 389.414 198.78 389.704 198.429 389.904C198.082 390.1 197.681 390.198 197.226 390.198C196.3 390.198 195.571 389.84 195.038 389.125C194.509 388.405 194.245 387.414 194.245 386.151C194.245 384.907 194.512 383.932 195.045 383.226C195.578 382.515 196.305 382.159 197.226 382.159C197.686 382.159 198.091 382.259 198.442 382.46C198.793 382.656 199.069 382.943 199.27 383.321ZM195.571 386.179C195.571 387.154 195.726 387.89 196.036 388.387C196.346 388.883 196.804 389.132 197.41 389.132C198.016 389.132 198.477 388.881 198.791 388.38C199.11 387.879 199.27 387.145 199.27 386.179C199.27 385.208 199.11 384.474 198.791 383.978C198.477 383.476 198.016 383.226 197.41 383.226C196.804 383.226 196.346 383.474 196.036 383.971C195.726 384.467 195.571 385.203 195.571 386.179ZM209.496 385.543V386.158H204.048V386.199C204.011 387.243 204.21 387.993 204.643 388.448C205.08 388.904 205.695 389.132 206.488 389.132C206.889 389.132 207.309 389.068 207.746 388.94C208.184 388.813 208.651 388.619 209.147 388.359V389.61C208.669 389.806 208.206 389.952 207.76 390.048C207.318 390.148 206.889 390.198 206.475 390.198C205.285 390.198 204.355 389.843 203.686 389.132C203.016 388.416 202.681 387.432 202.681 386.179C202.681 384.957 203.009 383.982 203.665 383.253C204.321 382.524 205.196 382.159 206.29 382.159C207.265 382.159 208.033 382.49 208.594 383.15C209.159 383.811 209.46 384.609 209.496 385.543ZM208.238 385.174C208.184 384.645 207.99 384.189 207.657 383.807C207.329 383.419 206.855 383.226 206.235 383.226C205.629 383.226 205.13 383.426 204.738 383.827C204.346 384.228 204.132 384.679 204.096 385.181L208.238 385.174ZM218.171 383.923C217.902 383.713 217.629 383.561 217.351 383.465C217.073 383.369 216.767 383.321 216.435 383.321C215.651 383.321 215.051 383.567 214.637 384.06C214.222 384.552 214.015 385.263 214.015 386.192V390H212.75V382.344H214.015V383.841C214.224 383.299 214.546 382.884 214.979 382.597C215.416 382.305 215.933 382.159 216.53 382.159C216.84 382.159 217.13 382.198 217.398 382.275C217.667 382.353 217.925 382.474 218.171 382.638V383.923Z" fill="#A477A2"/>
<path d="M223.51 258.151H223.093C222.359 258.151 221.805 258.281 221.432 258.541C221.062 258.796 220.878 259.179 220.878 259.689C220.878 260.15 221.017 260.507 221.295 260.763C221.573 261.018 221.958 261.146 222.45 261.146C223.143 261.146 223.688 260.906 224.084 260.428C224.48 259.945 224.681 259.279 224.686 258.432V258.151H223.51ZM225.95 257.632V262H224.686V260.865C224.417 261.321 224.077 261.658 223.667 261.877C223.261 262.091 222.767 262.198 222.184 262.198C221.404 262.198 220.782 261.979 220.317 261.542C219.853 261.1 219.62 260.51 219.62 259.771C219.62 258.919 219.905 258.272 220.475 257.83C221.049 257.388 221.89 257.167 222.997 257.167H224.686V256.969C224.681 256.358 224.526 255.916 224.221 255.643C223.915 255.365 223.428 255.226 222.758 255.226C222.329 255.226 221.896 255.287 221.459 255.41C221.021 255.533 220.595 255.713 220.181 255.95V254.692C220.646 254.515 221.09 254.382 221.514 254.296C221.942 254.205 222.357 254.159 222.758 254.159C223.391 254.159 223.931 254.253 224.378 254.439C224.829 254.626 225.194 254.907 225.472 255.28C225.645 255.508 225.768 255.791 225.841 256.128C225.914 256.461 225.95 256.962 225.95 257.632ZM229.71 261.036V264.912H228.445V254.344H229.71V255.321C229.92 254.943 230.198 254.656 230.544 254.46C230.895 254.259 231.298 254.159 231.754 254.159C232.679 254.159 233.404 254.517 233.928 255.232C234.456 255.948 234.721 256.939 234.721 258.206C234.721 259.45 234.456 260.428 233.928 261.139C233.399 261.845 232.674 262.198 231.754 262.198C231.289 262.198 230.881 262.1 230.53 261.904C230.184 261.704 229.91 261.414 229.71 261.036ZM233.401 258.179C233.401 257.203 233.246 256.467 232.937 255.971C232.631 255.474 232.175 255.226 231.569 255.226C230.959 255.226 230.496 255.476 230.182 255.978C229.867 256.474 229.71 257.208 229.71 258.179C229.71 259.145 229.867 259.879 230.182 260.38C230.496 260.881 230.959 261.132 231.569 261.132C232.175 261.132 232.631 260.883 232.937 260.387C233.246 259.89 233.401 259.154 233.401 258.179ZM238.146 261.036V264.912H236.881V254.344H238.146V255.321C238.355 254.943 238.633 254.656 238.979 254.46C239.33 254.259 239.734 254.159 240.189 254.159C241.115 254.159 241.839 254.517 242.363 255.232C242.892 255.948 243.156 256.939 243.156 258.206C243.156 259.45 242.892 260.428 242.363 261.139C241.835 261.845 241.11 262.198 240.189 262.198C239.725 262.198 239.317 262.1 238.966 261.904C238.619 261.704 238.346 261.414 238.146 261.036ZM241.837 258.179C241.837 257.203 241.682 256.467 241.372 255.971C241.067 255.474 240.611 255.226 240.005 255.226C239.394 255.226 238.932 255.476 238.617 255.978C238.303 256.474 238.146 257.208 238.146 258.179C238.146 259.145 238.303 259.879 238.617 260.38C238.932 260.881 239.394 261.132 240.005 261.132C240.611 261.132 241.067 260.883 241.372 260.387C241.682 259.89 241.837 259.154 241.837 258.179ZM245.392 251.794H251.059V252.956H248.919V260.838H251.059V262H245.392V260.838H247.531V252.956H245.392V251.794ZM258.318 255.321V251.363H259.576V262H258.318V261.036C258.109 261.414 257.828 261.704 257.478 261.904C257.131 262.1 256.73 262.198 256.274 262.198C255.349 262.198 254.62 261.84 254.087 261.125C253.558 260.405 253.294 259.414 253.294 258.151C253.294 256.907 253.561 255.932 254.094 255.226C254.627 254.515 255.354 254.159 256.274 254.159C256.735 254.159 257.14 254.259 257.491 254.46C257.842 254.656 258.118 254.943 258.318 255.321ZM254.62 258.179C254.62 259.154 254.775 259.89 255.085 260.387C255.395 260.883 255.853 261.132 256.459 261.132C257.065 261.132 257.525 260.881 257.84 260.38C258.159 259.879 258.318 259.145 258.318 258.179C258.318 257.208 258.159 256.474 257.84 255.978C257.525 255.476 257.065 255.226 256.459 255.226C255.853 255.226 255.395 255.474 255.085 255.971C254.775 256.467 254.62 257.203 254.62 258.179ZM282.832 251.35V255.608H281.301V251.35H282.832ZM341.881 251.35V255.608H340.35V251.35H341.881ZM347.22 262.349C347.858 262.349 348.272 262.251 348.464 262.055C348.66 261.859 348.758 261.435 348.758 260.783V259.354C348.758 258.575 348.922 258.037 349.25 257.741C349.578 257.44 350.184 257.238 351.068 257.133C350.157 257.01 349.544 256.812 349.229 256.538C348.915 256.26 348.758 255.72 348.758 254.918V253.086C348.758 252.439 348.66 252.017 348.464 251.821C348.272 251.621 347.858 251.521 347.22 251.521H346.741V250.543H347.179C348.313 250.543 349.072 250.712 349.455 251.049C349.842 251.382 350.036 252.051 350.036 253.059V254.836C350.036 255.428 350.161 255.877 350.412 256.183C350.667 256.488 351.116 256.641 351.759 256.641H352.593V257.618H351.759C351.171 257.618 350.736 257.798 350.453 258.158C350.175 258.518 350.036 258.947 350.036 259.443V260.811C350.036 261.818 349.842 262.49 349.455 262.827C349.072 263.164 348.313 263.333 347.179 263.333H346.741V262.349H347.22ZM54.1973 282.17V284.344H57.0547V285.321H54.1973V289.478C54.1973 290.043 54.3044 290.437 54.5186 290.66C54.7327 290.883 55.1064 290.995 55.6396 290.995H57.0547V292H55.5166C54.5732 292 53.9079 291.811 53.5205 291.433C53.1331 291.054 52.9395 290.403 52.9395 289.478V285.321H50.8955V284.344H52.9395V282.17H54.1973ZM62.6465 285.226C62.0085 285.226 61.5254 285.474 61.1973 285.971C60.8691 286.467 60.7051 287.203 60.7051 288.179C60.7051 289.149 60.8691 289.885 61.1973 290.387C61.5254 290.883 62.0085 291.132 62.6465 291.132C63.2891 291.132 63.7744 290.883 64.1025 290.387C64.4307 289.885 64.5947 289.149 64.5947 288.179C64.5947 287.203 64.4307 286.467 64.1025 285.971C63.7744 285.474 63.2891 285.226 62.6465 285.226ZM62.6465 284.159C63.7083 284.159 64.5195 284.503 65.0801 285.191C65.6452 285.88 65.9277 286.875 65.9277 288.179C65.9277 289.487 65.6475 290.485 65.0869 291.173C64.5264 291.856 63.7129 292.198 62.6465 292.198C61.5846 292.198 60.7734 291.856 60.2129 291.173C59.6523 290.485 59.3721 289.487 59.3721 288.179C59.3721 286.875 59.6523 285.88 60.2129 285.191C60.7734 284.503 61.5846 284.159 62.6465 284.159ZM68.4844 281.363H69.7832V287.522L73.085 284.344H74.6162L71.6016 287.229L75.0879 292H73.5498L70.7197 288.049L69.7832 288.931V292H68.4844V281.363ZM82.9629 287.543V288.158H77.5146V288.199C77.4782 289.243 77.6764 289.993 78.1094 290.448C78.5469 290.904 79.1621 291.132 79.9551 291.132C80.3561 291.132 80.7754 291.068 81.2129 290.94C81.6504 290.813 82.1175 290.619 82.6143 290.359V291.61C82.1357 291.806 81.6732 291.952 81.2266 292.048C80.7845 292.148 80.3561 292.198 79.9414 292.198C78.752 292.198 77.8223 291.843 77.1523 291.132C76.4824 290.416 76.1475 289.432 76.1475 288.179C76.1475 286.957 76.4756 285.982 77.1318 285.253C77.7881 284.524 78.6631 284.159 79.7568 284.159C80.7321 284.159 81.5 284.49 82.0605 285.15C82.6257 285.811 82.9264 286.609 82.9629 287.543ZM81.7051 287.174C81.6504 286.645 81.4567 286.189 81.124 285.807C80.7959 285.419 80.3219 285.226 79.7021 285.226C79.096 285.226 78.597 285.426 78.2051 285.827C77.8132 286.228 77.599 286.679 77.5625 287.181L81.7051 287.174ZM90.9268 287.256V292H89.6621V287.256C89.6621 286.568 89.5413 286.062 89.2998 285.738C89.0583 285.415 88.68 285.253 88.165 285.253C87.5771 285.253 87.1237 285.463 86.8047 285.882C86.4902 286.297 86.333 286.894 86.333 287.673V292H85.0752V284.344H86.333V285.492C86.5563 285.055 86.8594 284.724 87.2422 284.501C87.625 284.273 88.0785 284.159 88.6025 284.159C89.3818 284.159 89.9629 284.417 90.3457 284.932C90.7331 285.442 90.9268 286.217 90.9268 287.256ZM114.121 281.35V285.608H112.59V281.35H114.121ZM206.912 281.35V285.608H205.381V281.35H206.912ZM222.908 316.17V318.344H225.766V319.321H222.908V323.478C222.908 324.043 223.015 324.437 223.229 324.66C223.444 324.883 223.817 324.995 224.351 324.995H225.766V326H224.228C223.284 326 222.619 325.811 222.231 325.433C221.844 325.054 221.65 324.403 221.65 323.478V319.321H219.606V318.344H221.65V316.17H222.908ZM234.331 321.256V326H233.066V321.256C233.066 320.568 232.946 320.062 232.704 319.738C232.463 319.415 232.084 319.253 231.569 319.253C230.981 319.253 230.528 319.463 230.209 319.882C229.895 320.297 229.737 320.894 229.737 321.673V326H228.479V315.363H229.737V319.492C229.961 319.055 230.264 318.724 230.646 318.501C231.029 318.273 231.483 318.159 232.007 318.159C232.786 318.159 233.367 318.417 233.75 318.932C234.137 319.442 234.331 320.217 234.331 321.256ZM243.478 319.923C243.209 319.713 242.935 319.561 242.657 319.465C242.379 319.369 242.074 319.321 241.741 319.321C240.957 319.321 240.358 319.567 239.943 320.06C239.529 320.552 239.321 321.263 239.321 322.192V326H238.057V318.344H239.321V319.841C239.531 319.299 239.852 318.884 240.285 318.597C240.723 318.305 241.24 318.159 241.837 318.159C242.147 318.159 242.436 318.198 242.705 318.275C242.974 318.353 243.231 318.474 243.478 318.638V319.923ZM251.674 321.543V322.158H246.226V322.199C246.189 323.243 246.387 323.993 246.82 324.448C247.258 324.904 247.873 325.132 248.666 325.132C249.067 325.132 249.486 325.068 249.924 324.94C250.361 324.813 250.828 324.619 251.325 324.359V325.61C250.847 325.806 250.384 325.952 249.938 326.048C249.495 326.148 249.067 326.198 248.652 326.198C247.463 326.198 246.533 325.843 245.863 325.132C245.193 324.416 244.858 323.432 244.858 322.179C244.858 320.957 245.187 319.982 245.843 319.253C246.499 318.524 247.374 318.159 248.468 318.159C249.443 318.159 250.211 318.49 250.771 319.15C251.337 319.811 251.637 320.609 251.674 321.543ZM250.416 321.174C250.361 320.645 250.168 320.189 249.835 319.807C249.507 319.419 249.033 319.226 248.413 319.226C247.807 319.226 247.308 319.426 246.916 319.827C246.524 320.228 246.31 320.679 246.273 321.181L250.416 321.174ZM257.252 322.151H256.835C256.101 322.151 255.548 322.281 255.174 322.541C254.805 322.796 254.62 323.179 254.62 323.689C254.62 324.15 254.759 324.507 255.037 324.763C255.315 325.018 255.7 325.146 256.192 325.146C256.885 325.146 257.43 324.906 257.826 324.428C258.223 323.945 258.423 323.279 258.428 322.432V322.151H257.252ZM259.692 321.632V326H258.428V324.865C258.159 325.321 257.819 325.658 257.409 325.877C257.004 326.091 256.509 326.198 255.926 326.198C255.146 326.198 254.524 325.979 254.06 325.542C253.595 325.1 253.362 324.51 253.362 323.771C253.362 322.919 253.647 322.272 254.217 321.83C254.791 321.388 255.632 321.167 256.739 321.167H258.428V320.969C258.423 320.358 258.268 319.916 257.963 319.643C257.658 319.365 257.17 319.226 256.5 319.226C256.072 319.226 255.639 319.287 255.201 319.41C254.764 319.533 254.338 319.713 253.923 319.95V318.692C254.388 318.515 254.832 318.382 255.256 318.296C255.684 318.205 256.099 318.159 256.5 318.159C257.133 318.159 257.674 318.253 258.12 318.439C258.571 318.626 258.936 318.907 259.214 319.28C259.387 319.508 259.51 319.791 259.583 320.128C259.656 320.461 259.692 320.962 259.692 321.632ZM266.754 319.321V315.363H268.012V326H266.754V325.036C266.544 325.414 266.264 325.704 265.913 325.904C265.567 326.1 265.166 326.198 264.71 326.198C263.785 326.198 263.056 325.84 262.522 325.125C261.994 324.405 261.729 323.414 261.729 322.151C261.729 320.907 261.996 319.932 262.529 319.226C263.062 318.515 263.789 318.159 264.71 318.159C265.17 318.159 265.576 318.259 265.927 318.46C266.278 318.656 266.553 318.943 266.754 319.321ZM263.056 322.179C263.056 323.154 263.211 323.89 263.521 324.387C263.83 324.883 264.288 325.132 264.895 325.132C265.501 325.132 265.961 324.881 266.275 324.38C266.594 323.879 266.754 323.145 266.754 322.179C266.754 321.208 266.594 320.474 266.275 319.978C265.961 319.476 265.501 319.226 264.895 319.226C264.288 319.226 263.83 319.474 263.521 319.971C263.211 320.467 263.056 321.203 263.056 322.179ZM270.698 315.794H276.365V316.956H274.226V324.838H276.365V326H270.698V324.838H272.838V316.956H270.698V315.794ZM283.625 319.321V315.363H284.883V326H283.625V325.036C283.415 325.414 283.135 325.704 282.784 325.904C282.438 326.1 282.037 326.198 281.581 326.198C280.656 326.198 279.927 325.84 279.394 325.125C278.865 324.405 278.601 323.414 278.601 322.151C278.601 320.907 278.867 319.932 279.4 319.226C279.934 318.515 280.66 318.159 281.581 318.159C282.041 318.159 282.447 318.259 282.798 318.46C283.149 318.656 283.424 318.943 283.625 319.321ZM279.927 322.179C279.927 323.154 280.082 323.89 280.392 324.387C280.701 324.883 281.16 325.132 281.766 325.132C282.372 325.132 282.832 324.881 283.146 324.38C283.465 323.879 283.625 323.145 283.625 322.179C283.625 321.208 283.465 320.474 283.146 319.978C282.832 319.476 282.372 319.226 281.766 319.226C281.16 319.226 280.701 319.474 280.392 319.971C280.082 320.467 279.927 321.203 279.927 322.179ZM301.686 326.349V327.333H301.248C300.113 327.333 299.352 327.164 298.965 326.827C298.582 326.49 298.391 325.818 298.391 324.811V323.443C298.391 322.947 298.249 322.518 297.967 322.158C297.689 321.798 297.256 321.618 296.668 321.618H295.834V320.641H296.668C297.311 320.641 297.757 320.488 298.008 320.183C298.263 319.877 298.391 319.428 298.391 318.836V317.059C298.391 316.051 298.582 315.382 298.965 315.049C299.352 314.712 300.113 314.543 301.248 314.543H301.686V315.521H301.207C300.569 315.521 300.152 315.621 299.956 315.821C299.765 316.017 299.669 316.439 299.669 317.086V318.918C299.669 319.72 299.512 320.26 299.197 320.538C298.883 320.812 298.27 321.01 297.358 321.133C298.243 321.238 298.849 321.44 299.177 321.741C299.505 322.037 299.669 322.575 299.669 323.354V324.783C299.669 325.435 299.765 325.859 299.956 326.055C300.152 326.251 300.569 326.349 301.207 326.349H301.686ZM308.139 315.35V319.608H306.607V315.35H308.139ZM161.638 356.349C162.276 356.349 162.69 356.251 162.882 356.055C163.078 355.859 163.176 355.435 163.176 354.783V353.354C163.176 352.575 163.34 352.037 163.668 351.741C163.996 351.44 164.602 351.238 165.486 351.133C164.575 351.01 163.962 350.812 163.647 350.538C163.333 350.26 163.176 349.72 163.176 348.918V347.086C163.176 346.439 163.078 346.017 162.882 345.821C162.69 345.621 162.276 345.521 161.638 345.521H161.159V344.543H161.597C162.731 344.543 163.49 344.712 163.873 345.049C164.26 345.382 164.454 346.051 164.454 347.059V348.836C164.454 349.428 164.579 349.877 164.83 350.183C165.085 350.488 165.534 350.641 166.177 350.641H167.011V351.618H166.177C165.589 351.618 165.154 351.798 164.871 352.158C164.593 352.518 164.454 352.947 164.454 353.443V354.811C164.454 355.818 164.26 356.49 163.873 356.827C163.49 357.164 162.731 357.333 161.597 357.333H161.159V356.349H161.638ZM182.61 345.794H183.909L178.536 357.299H177.23L182.61 345.794ZM185.57 349.431V348.187L192.796 351.044V352.179L185.57 355.036V353.785L191.381 351.618L185.57 349.431Z" fill="#D7D5A5"/>
<path d="M261.49 258.582H268.716V259.737H261.49V258.582ZM261.49 255.362H268.716V256.518H261.49V255.362ZM92.7793 288.582H100.005V289.737H92.7793V288.582ZM92.7793 285.362H100.005V286.518H92.7793V285.362ZM286.797 322.582H294.022V323.737H286.797V322.582ZM286.797 319.362H294.022V320.518H286.797V319.362Z" fill="#5B4A79"/>
<path d="M276.379 262.349V263.333H275.941C274.807 263.333 274.046 263.164 273.658 262.827C273.275 262.49 273.084 261.818 273.084 260.811V259.443C273.084 258.947 272.943 258.518 272.66 258.158C272.382 257.798 271.949 257.618 271.361 257.618H270.527V256.641H271.361C272.004 256.641 272.451 256.488 272.701 256.183C272.956 255.877 273.084 255.428 273.084 254.836V253.059C273.084 252.051 273.275 251.382 273.658 251.049C274.046 250.712 274.807 250.543 275.941 250.543H276.379V251.521H275.9C275.262 251.521 274.845 251.621 274.649 251.821C274.458 252.017 274.362 252.439 274.362 253.086V254.918C274.362 255.72 274.205 256.26 273.891 256.538C273.576 256.812 272.963 257.01 272.052 257.133C272.936 257.238 273.542 257.44 273.87 257.741C274.198 258.037 274.362 258.575 274.362 259.354V260.783C274.362 261.435 274.458 261.859 274.649 262.055C274.845 262.251 275.262 262.349 275.9 262.349H276.379ZM107.668 292.349V293.333H107.23C106.096 293.333 105.335 293.164 104.947 292.827C104.564 292.49 104.373 291.818 104.373 290.811V289.443C104.373 288.947 104.232 288.518 103.949 288.158C103.671 287.798 103.238 287.618 102.65 287.618H101.816V286.641H102.65C103.293 286.641 103.74 286.488 103.99 286.183C104.245 285.877 104.373 285.428 104.373 284.836V283.059C104.373 282.051 104.564 281.382 104.947 281.049C105.335 280.712 106.096 280.543 107.23 280.543H107.668V281.521H107.189C106.551 281.521 106.134 281.621 105.938 281.821C105.747 282.017 105.651 282.439 105.651 283.086V284.918C105.651 285.72 105.494 286.26 105.18 286.538C104.865 286.812 104.252 287.01 103.341 287.133C104.225 287.238 104.831 287.44 105.159 287.741C105.487 288.037 105.651 288.575 105.651 289.354V290.783C105.651 291.435 105.747 291.859 105.938 292.055C106.134 292.251 106.551 292.349 107.189 292.349H107.668ZM212.251 292.349C212.889 292.349 213.304 292.251 213.495 292.055C213.691 291.859 213.789 291.435 213.789 290.783V289.354C213.789 288.575 213.953 288.037 214.281 287.741C214.609 287.44 215.215 287.238 216.1 287.133C215.188 287.01 214.575 286.812 214.261 286.538C213.946 286.26 213.789 285.72 213.789 284.918V283.086C213.789 282.439 213.691 282.017 213.495 281.821C213.304 281.621 212.889 281.521 212.251 281.521H211.772V280.543H212.21C213.345 280.543 214.104 280.712 214.486 281.049C214.874 281.382 215.067 282.051 215.067 283.059V284.836C215.067 285.428 215.193 285.877 215.443 286.183C215.699 286.488 216.147 286.641 216.79 286.641H217.624V287.618H216.79C216.202 287.618 215.767 287.798 215.484 288.158C215.206 288.518 215.067 288.947 215.067 289.443V290.811C215.067 291.818 214.874 292.49 214.486 292.827C214.104 293.164 213.345 293.333 212.21 293.333H211.772V292.349H212.251Z" fill="#CBCCCB"/>
<path d="M290.406 253.011L288.95 258.233H291.862L290.406 253.011ZM289.572 251.794H291.247L294.371 262H292.942L292.19 259.341H288.615L287.877 262H286.448L289.572 251.794ZM297.358 252.929V256.764H298.958C299.596 256.764 300.093 256.595 300.448 256.258C300.808 255.921 300.988 255.449 300.988 254.843C300.988 254.237 300.811 253.767 300.455 253.435C300.1 253.097 299.601 252.929 298.958 252.929H297.358ZM295.978 251.794H298.958C300.097 251.794 300.961 252.054 301.549 252.573C302.137 253.088 302.431 253.845 302.431 254.843C302.431 255.85 302.137 256.611 301.549 257.126C300.965 257.641 300.102 257.898 298.958 257.898H297.358V262H295.978V251.794ZM305.794 252.929V256.764H307.394C308.032 256.764 308.528 256.595 308.884 256.258C309.244 255.921 309.424 255.449 309.424 254.843C309.424 254.237 309.246 253.767 308.891 253.435C308.535 253.097 308.036 252.929 307.394 252.929H305.794ZM304.413 251.794H307.394C308.533 251.794 309.396 252.054 309.984 252.573C310.572 253.088 310.866 253.845 310.866 254.843C310.866 255.85 310.572 256.611 309.984 257.126C309.401 257.641 308.537 257.898 307.394 257.898H305.794V262H304.413V251.794ZM319.869 263.299V264.461H311.502V263.299H319.869ZM321.312 251.794H326.979V252.956H324.839V260.838H326.979V262H321.312V260.838H323.451V252.956H321.312V251.794ZM331.354 260.865C332.516 260.865 333.327 260.58 333.787 260.011C334.247 259.437 334.478 258.402 334.478 256.907C334.478 255.399 334.247 254.36 333.787 253.79C333.331 253.216 332.52 252.929 331.354 252.929H330.697V260.865H331.354ZM331.381 251.794C332.939 251.794 334.088 252.209 334.826 253.038C335.564 253.868 335.934 255.157 335.934 256.907C335.934 258.648 335.564 259.933 334.826 260.763C334.088 261.588 332.939 262 331.381 262H329.31V251.794H331.381Z" fill="#CCEB65"/>
<path d="M118.489 288.083V281.794H119.877V288.712C119.877 289.209 119.891 289.564 119.918 289.778C119.945 289.988 119.993 290.15 120.062 290.264C120.207 290.533 120.417 290.735 120.69 290.872C120.968 291.009 121.303 291.077 121.695 291.077C122.092 291.077 122.427 291.009 122.7 290.872C122.974 290.735 123.186 290.533 123.336 290.264C123.404 290.15 123.452 289.988 123.479 289.778C123.507 289.569 123.521 289.218 123.521 288.726V281.794H124.901V288.083C124.901 289.127 124.835 289.869 124.703 290.312C124.576 290.749 124.352 291.111 124.033 291.398C123.732 291.667 123.388 291.868 123.001 292C122.614 292.132 122.178 292.198 121.695 292.198C121.217 292.198 120.784 292.132 120.396 292C120.009 291.868 119.663 291.667 119.357 291.398C119.043 291.116 118.82 290.751 118.688 290.305C118.555 289.854 118.489 289.113 118.489 288.083ZM132.838 282.143V283.544C132.419 283.275 131.997 283.072 131.573 282.936C131.154 282.799 130.73 282.73 130.302 282.73C129.65 282.73 129.135 282.883 128.757 283.188C128.379 283.489 128.189 283.897 128.189 284.412C128.189 284.863 128.312 285.207 128.559 285.444C128.809 285.681 129.274 285.88 129.953 286.039L130.678 286.203C131.635 286.426 132.332 286.777 132.77 287.256C133.207 287.734 133.426 288.386 133.426 289.211C133.426 290.182 133.125 290.922 132.523 291.433C131.922 291.943 131.047 292.198 129.898 292.198C129.42 292.198 128.939 292.146 128.456 292.041C127.973 291.941 127.488 291.788 127 291.583V290.113C127.524 290.446 128.019 290.69 128.483 290.845C128.953 291 129.424 291.077 129.898 291.077C130.596 291.077 131.138 290.922 131.525 290.612C131.913 290.298 132.106 289.86 132.106 289.3C132.106 288.789 131.972 288.4 131.703 288.131C131.439 287.862 130.976 287.655 130.315 287.509L129.577 287.338C128.629 287.124 127.941 286.8 127.513 286.367C127.084 285.934 126.87 285.353 126.87 284.624C126.87 283.713 127.175 282.983 127.786 282.437C128.401 281.885 129.217 281.609 130.233 281.609C130.625 281.609 131.038 281.655 131.471 281.746C131.904 281.833 132.359 281.965 132.838 282.143ZM135.702 281.794H141.759V282.956H137.083V285.704H141.554V286.866H137.083V290.838H141.889V292H135.702V281.794ZM147.986 287.181C148.342 287.272 148.645 287.445 148.896 287.7C149.146 287.951 149.458 288.454 149.832 289.211L151.22 292H149.736L148.52 289.423C148.169 288.689 147.852 288.217 147.569 288.008C147.291 287.794 146.927 287.687 146.476 287.687H145.156V292H143.769V281.794H146.612C147.733 281.794 148.592 282.047 149.189 282.553C149.786 283.059 150.085 283.79 150.085 284.747C150.085 285.422 149.9 285.973 149.531 286.401C149.167 286.825 148.652 287.085 147.986 287.181ZM145.156 282.929V286.552H146.667C147.328 286.552 147.82 286.404 148.144 286.107C148.467 285.811 148.629 285.358 148.629 284.747C148.629 284.159 148.456 283.71 148.109 283.4C147.768 283.086 147.269 282.929 146.612 282.929H145.156ZM159.594 293.299V294.461H151.227V293.299H159.594ZM159.983 281.794H167.77V282.956H164.577V292H163.189V282.956H159.983V281.794ZM174.284 286.907C174.284 285.408 174.129 284.337 173.819 283.694C173.514 283.052 173.01 282.73 172.309 282.73C171.611 282.73 171.108 283.052 170.798 283.694C170.493 284.337 170.34 285.408 170.34 286.907C170.34 288.402 170.493 289.471 170.798 290.113C171.108 290.756 171.611 291.077 172.309 291.077C173.01 291.077 173.514 290.758 173.819 290.12C174.129 289.478 174.284 288.407 174.284 286.907ZM175.727 286.907C175.727 288.685 175.444 290.011 174.879 290.886C174.318 291.761 173.462 292.198 172.309 292.198C171.156 292.198 170.299 291.763 169.738 290.893C169.178 290.022 168.897 288.694 168.897 286.907C168.897 285.125 169.178 283.797 169.738 282.922C170.303 282.047 171.16 281.609 172.309 281.609C173.462 281.609 174.318 282.047 174.879 282.922C175.444 283.797 175.727 285.125 175.727 286.907ZM177.47 281.794H178.857V286.333L183.171 281.794H184.791L180.819 285.964L184.907 292H183.239L179.91 286.887L178.857 288.008V292H177.47V281.794ZM186.315 281.794H192.372V282.956H187.696V285.704H192.167V286.866H187.696V290.838H192.502V292H186.315V281.794ZM193.534 281.828H195.421L199.413 290.202V281.828H200.883V292H198.996L195.004 283.626V292H193.534V281.828ZM317.367 323.539C317.158 324.072 316.891 324.774 316.567 325.645C316.116 326.848 315.813 327.581 315.658 327.846C315.449 328.201 315.187 328.468 314.872 328.646C314.558 328.823 314.191 328.912 313.771 328.912H312.76V327.859H313.505C313.874 327.859 314.163 327.752 314.373 327.538C314.583 327.324 314.849 326.77 315.173 325.877L312.213 318.344H313.546L315.815 324.332L318.051 318.344H319.384L317.367 323.539ZM324.148 319.226C323.51 319.226 323.027 319.474 322.699 319.971C322.371 320.467 322.207 321.203 322.207 322.179C322.207 323.149 322.371 323.885 322.699 324.387C323.027 324.883 323.51 325.132 324.148 325.132C324.791 325.132 325.276 324.883 325.604 324.387C325.933 323.885 326.097 323.149 326.097 322.179C326.097 321.203 325.933 320.467 325.604 319.971C325.276 319.474 324.791 319.226 324.148 319.226ZM324.148 318.159C325.21 318.159 326.021 318.503 326.582 319.191C327.147 319.88 327.43 320.875 327.43 322.179C327.43 323.487 327.149 324.485 326.589 325.173C326.028 325.856 325.215 326.198 324.148 326.198C323.087 326.198 322.275 325.856 321.715 325.173C321.154 324.485 320.874 323.487 320.874 322.179C320.874 320.875 321.154 319.88 321.715 319.191C322.275 318.503 323.087 318.159 324.148 318.159ZM329.706 323.102V318.357H330.964V323.102C330.964 323.79 331.085 324.296 331.326 324.619C331.572 324.943 331.951 325.104 332.461 325.104C333.053 325.104 333.507 324.897 333.821 324.482C334.136 324.063 334.293 323.464 334.293 322.685V318.357H335.558V326H334.293V324.852C334.07 325.294 333.764 325.629 333.377 325.856C332.994 326.084 332.545 326.198 332.03 326.198C331.246 326.198 330.663 325.943 330.28 325.433C329.897 324.918 329.706 324.141 329.706 323.102ZM344.704 319.923C344.435 319.713 344.162 319.561 343.884 319.465C343.606 319.369 343.3 319.321 342.968 319.321C342.184 319.321 341.585 319.567 341.17 320.06C340.755 320.552 340.548 321.263 340.548 322.192V326H339.283V318.344H340.548V319.841C340.757 319.299 341.079 318.884 341.512 318.597C341.949 318.305 342.466 318.159 343.063 318.159C343.373 318.159 343.663 318.198 343.932 318.275C344.201 318.353 344.458 318.474 344.704 318.638V319.923ZM345.941 321.051H353.188V322.206H345.941V321.051ZM57.2666 345.363V346.409H55.8379C55.3867 346.409 55.0723 346.503 54.8945 346.689C54.7214 346.872 54.6348 347.198 54.6348 347.667V348.344H57.2666V349.321H54.6348V356H53.377V349.321H51.333V348.344H53.377V347.811C53.377 346.972 53.5684 346.354 53.9512 345.958C54.3385 345.562 54.9401 345.363 55.7559 345.363H57.2666ZM60.5957 348.371H63.8154V355.022H66.3105V356H60.0625V355.022H62.5576V349.349H60.5957V348.371ZM62.5576 345.397H63.8154V346.983H62.5576V345.397ZM74.7666 349.923C74.4977 349.713 74.2243 349.561 73.9463 349.465C73.6683 349.369 73.363 349.321 73.0303 349.321C72.2464 349.321 71.6471 349.567 71.2324 350.06C70.8177 350.552 70.6104 351.263 70.6104 352.192V356H69.3457V348.344H70.6104V349.841C70.82 349.299 71.1413 348.884 71.5742 348.597C72.0117 348.305 72.529 348.159 73.126 348.159C73.4359 348.159 73.7253 348.198 73.9941 348.275C74.263 348.353 74.5205 348.474 74.7666 348.638V349.923ZM81.958 348.61V349.841C81.598 349.631 81.2357 349.474 80.8711 349.369C80.5065 349.264 80.1351 349.212 79.7568 349.212C79.1872 349.212 78.7611 349.305 78.4785 349.492C78.2005 349.674 78.0615 349.955 78.0615 350.333C78.0615 350.675 78.1663 350.93 78.376 351.099C78.5856 351.267 79.1074 351.431 79.9414 351.591L80.4473 351.687C81.0716 351.805 81.5433 352.042 81.8623 352.397C82.1859 352.753 82.3477 353.215 82.3477 353.785C82.3477 354.542 82.0788 355.134 81.541 355.562C81.0033 355.986 80.2559 356.198 79.2988 356.198C78.9206 356.198 78.5241 356.157 78.1094 356.075C77.6947 355.998 77.2458 355.879 76.7627 355.72V354.421C77.2321 354.662 77.681 354.845 78.1094 354.968C78.5378 355.086 78.9434 355.146 79.3262 355.146C79.8822 355.146 80.3128 355.034 80.6182 354.811C80.9235 354.583 81.0762 354.266 81.0762 353.86C81.0762 353.277 80.5179 352.874 79.4014 352.65L79.3467 352.637L78.875 352.541C78.1504 352.4 77.6217 352.163 77.2891 351.83C76.9564 351.493 76.79 351.035 76.79 350.456C76.79 349.722 77.0384 349.157 77.5352 348.761C78.0319 348.36 78.7406 348.159 79.6611 348.159C80.0713 348.159 80.4655 348.198 80.8438 348.275C81.222 348.348 81.5934 348.46 81.958 348.61ZM87.9395 346.17V348.344H90.7969V349.321H87.9395V353.478C87.9395 354.043 88.0465 354.437 88.2607 354.66C88.4749 354.883 88.8486 354.995 89.3818 354.995H90.7969V356H89.2588C88.3154 356 87.6501 355.811 87.2627 355.433C86.8753 355.054 86.6816 354.403 86.6816 353.478V349.321H84.6377V348.344H86.6816V346.17H87.9395ZM92.875 351.051H100.121V352.206H92.875V351.051ZM104.811 346.17V348.344H107.668V349.321H104.811V353.478C104.811 354.043 104.918 354.437 105.132 354.66C105.346 354.883 105.72 354.995 106.253 354.995H107.668V356H106.13C105.187 356 104.521 355.811 104.134 355.433C103.746 355.054 103.553 354.403 103.553 353.478V349.321H101.509V348.344H103.553V346.17H104.811ZM116.233 351.256V356H114.969V351.256C114.969 350.568 114.848 350.062 114.606 349.738C114.365 349.415 113.987 349.253 113.472 349.253C112.884 349.253 112.43 349.463 112.111 349.882C111.797 350.297 111.64 350.894 111.64 351.673V356H110.382V345.363H111.64V349.492C111.863 349.055 112.166 348.724 112.549 348.501C112.932 348.273 113.385 348.159 113.909 348.159C114.688 348.159 115.27 348.417 115.652 348.932C116.04 349.442 116.233 350.217 116.233 351.256ZM125.38 349.923C125.111 349.713 124.838 349.561 124.56 349.465C124.282 349.369 123.976 349.321 123.644 349.321C122.86 349.321 122.26 349.567 121.846 350.06C121.431 350.552 121.224 351.263 121.224 352.192V356H119.959V348.344H121.224V349.841C121.433 349.299 121.755 348.884 122.188 348.597C122.625 348.305 123.142 348.159 123.739 348.159C124.049 348.159 124.339 348.198 124.607 348.275C124.876 348.353 125.134 348.474 125.38 348.638V349.923ZM133.576 351.543V352.158H128.128V352.199C128.091 353.243 128.29 353.993 128.723 354.448C129.16 354.904 129.775 355.132 130.568 355.132C130.969 355.132 131.389 355.068 131.826 354.94C132.264 354.813 132.731 354.619 133.228 354.359V355.61C132.749 355.806 132.286 355.952 131.84 356.048C131.398 356.148 130.969 356.198 130.555 356.198C129.365 356.198 128.436 355.843 127.766 355.132C127.096 354.416 126.761 353.432 126.761 352.179C126.761 350.957 127.089 349.982 127.745 349.253C128.401 348.524 129.276 348.159 130.37 348.159C131.345 348.159 132.113 348.49 132.674 349.15C133.239 349.811 133.54 350.609 133.576 351.543ZM132.318 351.174C132.264 350.645 132.07 350.189 131.737 349.807C131.409 349.419 130.935 349.226 130.315 349.226C129.709 349.226 129.21 349.426 128.818 349.827C128.426 350.228 128.212 350.679 128.176 351.181L132.318 351.174ZM139.154 352.151H138.737C138.004 352.151 137.45 352.281 137.076 352.541C136.707 352.796 136.522 353.179 136.522 353.689C136.522 354.15 136.661 354.507 136.939 354.763C137.217 355.018 137.603 355.146 138.095 355.146C138.787 355.146 139.332 354.906 139.729 354.428C140.125 353.945 140.326 353.279 140.33 352.432V352.151H139.154ZM141.595 351.632V356H140.33V354.865C140.061 355.321 139.722 355.658 139.312 355.877C138.906 356.091 138.411 356.198 137.828 356.198C137.049 356.198 136.427 355.979 135.962 355.542C135.497 355.1 135.265 354.51 135.265 353.771C135.265 352.919 135.549 352.272 136.119 351.83C136.693 351.388 137.534 351.167 138.642 351.167H140.33V350.969C140.326 350.358 140.171 349.916 139.865 349.643C139.56 349.365 139.072 349.226 138.402 349.226C137.974 349.226 137.541 349.287 137.104 349.41C136.666 349.533 136.24 349.713 135.825 349.95V348.692C136.29 348.515 136.734 348.382 137.158 348.296C137.587 348.205 138.001 348.159 138.402 348.159C139.036 348.159 139.576 348.253 140.022 348.439C140.474 348.626 140.838 348.907 141.116 349.28C141.289 349.508 141.412 349.791 141.485 350.128C141.558 350.461 141.595 350.962 141.595 351.632ZM148.656 349.321V345.363H149.914V356H148.656V355.036C148.447 355.414 148.166 355.704 147.815 355.904C147.469 356.1 147.068 356.198 146.612 356.198C145.687 356.198 144.958 355.84 144.425 355.125C143.896 354.405 143.632 353.414 143.632 352.151C143.632 350.907 143.898 349.932 144.432 349.226C144.965 348.515 145.692 348.159 146.612 348.159C147.073 348.159 147.478 348.259 147.829 348.46C148.18 348.656 148.456 348.943 148.656 349.321ZM144.958 352.179C144.958 353.154 145.113 353.89 145.423 354.387C145.733 354.883 146.191 355.132 146.797 355.132C147.403 355.132 147.863 354.881 148.178 354.38C148.497 353.879 148.656 353.145 148.656 352.179C148.656 351.208 148.497 350.474 148.178 349.978C147.863 349.476 147.403 349.226 146.797 349.226C146.191 349.226 145.733 349.474 145.423 349.971C145.113 350.467 144.958 351.203 144.958 352.179ZM156.299 345.35V349.608H154.768V345.35H156.299Z" fill="#C9EB59"/>
<path d="M52.1602 186.371H55.3799V193.022H57.875V194H51.627V193.022H54.1221V187.349H52.1602V186.371ZM54.1221 183.397H55.3799V184.983H54.1221V183.397ZM63.0566 187.123C63.2116 186.795 63.4076 186.553 63.6445 186.398C63.8861 186.239 64.1755 186.159 64.5127 186.159C65.1279 186.159 65.5609 186.398 65.8115 186.877C66.0667 187.351 66.1943 188.246 66.1943 189.563V194H65.0459V189.618C65.0459 188.538 64.9844 187.868 64.8613 187.608C64.7428 187.344 64.5241 187.212 64.2051 187.212C63.8405 187.212 63.5898 187.353 63.4531 187.636C63.321 187.914 63.2549 188.575 63.2549 189.618V194H62.1064V189.618C62.1064 188.524 62.0404 187.85 61.9082 187.595C61.7806 187.34 61.5482 187.212 61.2109 187.212C60.8783 187.212 60.6458 187.353 60.5137 187.636C60.3861 187.914 60.3223 188.575 60.3223 189.618V194H59.1807V186.344H60.3223V187C60.4727 186.727 60.6595 186.519 60.8828 186.378C61.1107 186.232 61.3682 186.159 61.6553 186.159C62.0016 186.159 62.2887 186.239 62.5166 186.398C62.749 186.558 62.929 186.799 63.0566 187.123ZM69.4346 193.036V196.912H68.1699V186.344H69.4346V187.321C69.6442 186.943 69.9222 186.656 70.2686 186.46C70.6195 186.259 71.0228 186.159 71.4785 186.159C72.4036 186.159 73.1283 186.517 73.6523 187.232C74.181 187.948 74.4453 188.939 74.4453 190.206C74.4453 191.45 74.181 192.428 73.6523 193.139C73.1237 193.845 72.3991 194.198 71.4785 194.198C71.0137 194.198 70.6058 194.1 70.2549 193.904C69.9085 193.704 69.6351 193.414 69.4346 193.036ZM73.126 190.179C73.126 189.203 72.971 188.467 72.6611 187.971C72.3558 187.474 71.9001 187.226 71.2939 187.226C70.6833 187.226 70.2207 187.476 69.9062 187.978C69.5918 188.474 69.4346 189.208 69.4346 190.179C69.4346 191.145 69.5918 191.879 69.9062 192.38C70.2207 192.881 70.6833 193.132 71.2939 193.132C71.9001 193.132 72.3558 192.883 72.6611 192.387C72.971 191.89 73.126 191.154 73.126 190.179ZM79.5176 187.226C78.8796 187.226 78.3965 187.474 78.0684 187.971C77.7402 188.467 77.5762 189.203 77.5762 190.179C77.5762 191.149 77.7402 191.885 78.0684 192.387C78.3965 192.883 78.8796 193.132 79.5176 193.132C80.1602 193.132 80.6455 192.883 80.9736 192.387C81.3018 191.885 81.4658 191.149 81.4658 190.179C81.4658 189.203 81.3018 188.467 80.9736 187.971C80.6455 187.474 80.1602 187.226 79.5176 187.226ZM79.5176 186.159C80.5794 186.159 81.3906 186.503 81.9512 187.191C82.5163 187.88 82.7988 188.875 82.7988 190.179C82.7988 191.487 82.5186 192.485 81.958 193.173C81.3975 193.856 80.584 194.198 79.5176 194.198C78.4557 194.198 77.6445 193.856 77.084 193.173C76.5234 192.485 76.2432 191.487 76.2432 190.179C76.2432 188.875 76.5234 187.88 77.084 187.191C77.6445 186.503 78.4557 186.159 79.5176 186.159ZM91.6377 187.923C91.3688 187.713 91.0954 187.561 90.8174 187.465C90.5394 187.369 90.234 187.321 89.9014 187.321C89.1175 187.321 88.5182 187.567 88.1035 188.06C87.6888 188.552 87.4814 189.263 87.4814 190.192V194H86.2168V186.344H87.4814V187.841C87.6911 187.299 88.0124 186.884 88.4453 186.597C88.8828 186.305 89.4001 186.159 89.9971 186.159C90.307 186.159 90.5964 186.198 90.8652 186.275C91.1341 186.353 91.3916 186.474 91.6377 186.638V187.923ZM96.375 184.17V186.344H99.2324V187.321H96.375V191.478C96.375 192.043 96.4821 192.437 96.6963 192.66C96.9105 192.883 97.2842 192.995 97.8174 192.995H99.2324V194H97.6943C96.751 194 96.0856 193.811 95.6982 193.433C95.3109 193.054 95.1172 192.403 95.1172 191.478V187.321H93.0732V186.344H95.1172V184.17H96.375Z" fill="#CBCCCB" fill-opacity="0.7"/>
<path d="M158.562 193.638C158.211 193.825 157.851 193.964 157.481 194.055C157.112 194.15 156.72 194.198 156.306 194.198C154.998 194.198 153.981 193.736 153.257 192.811C152.537 191.885 152.177 190.584 152.177 188.907C152.177 187.239 152.539 185.94 153.264 185.011C153.993 184.076 155.007 183.609 156.306 183.609C156.72 183.609 157.112 183.657 157.481 183.753C157.851 183.844 158.211 183.983 158.562 184.17V185.585C158.224 185.307 157.862 185.095 157.475 184.949C157.087 184.803 156.698 184.73 156.306 184.73C155.408 184.73 154.736 185.077 154.289 185.77C153.842 186.462 153.619 187.508 153.619 188.907C153.619 190.302 153.842 191.345 154.289 192.038C154.736 192.731 155.408 193.077 156.306 193.077C156.707 193.077 157.099 193.004 157.481 192.858C157.869 192.713 158.229 192.501 158.562 192.223V193.638ZM163.873 187.226C163.235 187.226 162.752 187.474 162.424 187.971C162.096 188.467 161.932 189.203 161.932 190.179C161.932 191.149 162.096 191.885 162.424 192.387C162.752 192.883 163.235 193.132 163.873 193.132C164.516 193.132 165.001 192.883 165.329 192.387C165.657 191.885 165.821 191.149 165.821 190.179C165.821 189.203 165.657 188.467 165.329 187.971C165.001 187.474 164.516 187.226 163.873 187.226ZM163.873 186.159C164.935 186.159 165.746 186.503 166.307 187.191C166.872 187.88 167.154 188.875 167.154 190.179C167.154 191.487 166.874 192.485 166.313 193.173C165.753 193.856 164.939 194.198 163.873 194.198C162.811 194.198 162 193.856 161.439 193.173C160.879 192.485 160.599 191.487 160.599 190.179C160.599 188.875 160.879 187.88 161.439 187.191C162 186.503 162.811 186.159 163.873 186.159ZM173.013 191.231C173.013 191.797 173.115 192.223 173.32 192.51C173.53 192.797 173.838 192.94 174.243 192.94H175.713V194H174.12C173.368 194 172.785 193.761 172.37 193.282C171.96 192.799 171.755 192.116 171.755 191.231V184.307H169.738V183.322H173.013V191.231ZM181.448 191.231C181.448 191.797 181.551 192.223 181.756 192.51C181.965 192.797 182.273 192.94 182.679 192.94H184.148V194H182.556C181.804 194 181.22 193.761 180.806 193.282C180.396 192.799 180.19 192.116 180.19 191.231V184.307H178.174V183.322H181.448V191.231ZM189.768 190.151H189.351C188.617 190.151 188.063 190.281 187.689 190.541C187.32 190.796 187.136 191.179 187.136 191.689C187.136 192.15 187.275 192.507 187.553 192.763C187.831 193.018 188.216 193.146 188.708 193.146C189.401 193.146 189.945 192.906 190.342 192.428C190.738 191.945 190.939 191.279 190.943 190.432V190.151H189.768ZM192.208 189.632V194H190.943V192.865C190.674 193.321 190.335 193.658 189.925 193.877C189.519 194.091 189.025 194.198 188.441 194.198C187.662 194.198 187.04 193.979 186.575 193.542C186.11 193.1 185.878 192.51 185.878 191.771C185.878 190.919 186.163 190.272 186.732 189.83C187.307 189.388 188.147 189.167 189.255 189.167H190.943V188.969C190.939 188.358 190.784 187.916 190.479 187.643C190.173 187.365 189.686 187.226 189.016 187.226C188.587 187.226 188.154 187.287 187.717 187.41C187.279 187.533 186.853 187.713 186.438 187.95V186.692C186.903 186.515 187.348 186.382 187.771 186.296C188.2 186.205 188.615 186.159 189.016 186.159C189.649 186.159 190.189 186.253 190.636 186.439C191.087 186.626 191.451 186.907 191.729 187.28C191.903 187.508 192.026 187.791 192.099 188.128C192.172 188.461 192.208 188.962 192.208 189.632ZM199.68 190.179C199.68 189.203 199.525 188.467 199.215 187.971C198.905 187.474 198.447 187.226 197.841 187.226C197.23 187.226 196.768 187.476 196.453 187.978C196.139 188.474 195.981 189.208 195.981 190.179C195.981 191.145 196.139 191.879 196.453 192.38C196.768 192.881 197.23 193.132 197.841 193.132C198.447 193.132 198.905 192.883 199.215 192.387C199.525 191.89 199.68 191.154 199.68 190.179ZM195.981 187.321C196.182 186.948 196.458 186.66 196.809 186.46C197.164 186.259 197.574 186.159 198.039 186.159C198.96 186.159 199.684 186.515 200.213 187.226C200.742 187.932 201.006 188.907 201.006 190.151C201.006 191.414 200.739 192.405 200.206 193.125C199.677 193.84 198.951 194.198 198.025 194.198C197.57 194.198 197.166 194.1 196.815 193.904C196.469 193.704 196.191 193.414 195.981 193.036V194H194.724V183.363H195.981V187.321ZM202.776 183.794H204.164V188.333L208.478 183.794H210.098L206.126 187.964L210.214 194H208.546L205.217 188.887L204.164 190.008V194H202.776V183.794ZM212.436 186.371H215.655V193.022H218.15V194H211.902V193.022H214.397V187.349H212.436V186.371ZM214.397 183.397H215.655V184.983H214.397V183.397ZM222.908 184.17V186.344H225.766V187.321H222.908V191.478C222.908 192.043 223.015 192.437 223.229 192.66C223.444 192.883 223.817 192.995 224.351 192.995H225.766V194H224.228C223.284 194 222.619 193.811 222.231 193.433C221.844 193.054 221.65 192.403 221.65 191.478V187.321H219.606V186.344H221.65V184.17H222.908Z" fill="#5995CC"/>
<path d="M117.108 188.046L114.073 189.687L117.108 191.334L116.63 192.168L113.772 190.452V193.638H112.795V190.452L109.938 192.168L109.459 191.334L112.501 189.687L109.459 188.046L109.938 187.205L112.795 188.921V185.735H113.772V188.921L116.63 187.205L117.108 188.046Z" fill="#CBCCCB"/>
<path d="M130.719 190.151H130.302C129.568 190.151 129.014 190.281 128.641 190.541C128.271 190.796 128.087 191.179 128.087 191.689C128.087 192.15 128.226 192.507 128.504 192.763C128.782 193.018 129.167 193.146 129.659 193.146C130.352 193.146 130.896 192.906 131.293 192.428C131.689 191.945 131.89 191.279 131.895 190.432V190.151H130.719ZM133.159 189.632V194H131.895V192.865C131.626 193.321 131.286 193.658 130.876 193.877C130.47 194.091 129.976 194.198 129.393 194.198C128.613 194.198 127.991 193.979 127.526 193.542C127.062 193.1 126.829 192.51 126.829 191.771C126.829 190.919 127.114 190.272 127.684 189.83C128.258 189.388 129.099 189.167 130.206 189.167H131.895V188.969C131.89 188.358 131.735 187.916 131.43 187.643C131.124 187.365 130.637 187.226 129.967 187.226C129.538 187.226 129.105 187.287 128.668 187.41C128.23 187.533 127.804 187.713 127.39 187.95V186.692C127.854 186.515 128.299 186.382 128.723 186.296C129.151 186.205 129.566 186.159 129.967 186.159C130.6 186.159 131.14 186.253 131.587 186.439C132.038 186.626 132.403 186.907 132.681 187.28C132.854 187.508 132.977 187.791 133.05 188.128C133.123 188.461 133.159 188.962 133.159 189.632ZM141.007 186.61V187.841C140.647 187.631 140.285 187.474 139.92 187.369C139.555 187.264 139.184 187.212 138.806 187.212C138.236 187.212 137.81 187.305 137.527 187.492C137.249 187.674 137.11 187.955 137.11 188.333C137.11 188.675 137.215 188.93 137.425 189.099C137.634 189.267 138.156 189.431 138.99 189.591L139.496 189.687C140.12 189.805 140.592 190.042 140.911 190.397C141.235 190.753 141.396 191.215 141.396 191.785C141.396 192.542 141.128 193.134 140.59 193.562C140.052 193.986 139.305 194.198 138.348 194.198C137.969 194.198 137.573 194.157 137.158 194.075C136.743 193.998 136.295 193.879 135.812 193.72V192.421C136.281 192.662 136.73 192.845 137.158 192.968C137.587 193.086 137.992 193.146 138.375 193.146C138.931 193.146 139.362 193.034 139.667 192.811C139.972 192.583 140.125 192.266 140.125 191.86C140.125 191.277 139.567 190.874 138.45 190.65L138.396 190.637L137.924 190.541C137.199 190.4 136.671 190.163 136.338 189.83C136.005 189.493 135.839 189.035 135.839 188.456C135.839 187.722 136.087 187.157 136.584 186.761C137.081 186.36 137.789 186.159 138.71 186.159C139.12 186.159 139.514 186.198 139.893 186.275C140.271 186.348 140.642 186.46 141.007 186.61ZM242.849 183.363V184.409H241.42C240.969 184.409 240.654 184.503 240.477 184.689C240.303 184.872 240.217 185.198 240.217 185.667V186.344H242.849V187.321H240.217V194H238.959V187.321H236.915V186.344H238.959V185.811C238.959 184.972 239.15 184.354 239.533 183.958C239.921 183.562 240.522 183.363 241.338 183.363H242.849ZM251.913 187.923C251.644 187.713 251.371 187.561 251.093 187.465C250.815 187.369 250.509 187.321 250.177 187.321C249.393 187.321 248.794 187.567 248.379 188.06C247.964 188.552 247.757 189.263 247.757 190.192V194H246.492V186.344H247.757V187.841C247.966 187.299 248.288 186.884 248.721 186.597C249.158 186.305 249.675 186.159 250.272 186.159C250.582 186.159 250.872 186.198 251.141 186.275C251.41 186.353 251.667 186.474 251.913 186.638V187.923ZM256.664 187.226C256.026 187.226 255.543 187.474 255.215 187.971C254.887 188.467 254.723 189.203 254.723 190.179C254.723 191.149 254.887 191.885 255.215 192.387C255.543 192.883 256.026 193.132 256.664 193.132C257.307 193.132 257.792 192.883 258.12 192.387C258.448 191.885 258.612 191.149 258.612 190.179C258.612 189.203 258.448 188.467 258.12 187.971C257.792 187.474 257.307 187.226 256.664 187.226ZM256.664 186.159C257.726 186.159 258.537 186.503 259.098 187.191C259.663 187.88 259.945 188.875 259.945 190.179C259.945 191.487 259.665 192.485 259.104 193.173C258.544 193.856 257.73 194.198 256.664 194.198C255.602 194.198 254.791 193.856 254.23 193.173C253.67 192.485 253.39 191.487 253.39 190.179C253.39 188.875 253.67 187.88 254.23 187.191C254.791 186.503 255.602 186.159 256.664 186.159ZM265.51 187.123C265.665 186.795 265.861 186.553 266.098 186.398C266.339 186.239 266.629 186.159 266.966 186.159C267.581 186.159 268.014 186.398 268.265 186.877C268.52 187.351 268.647 188.246 268.647 189.563V194H267.499V189.618C267.499 188.538 267.438 187.868 267.314 187.608C267.196 187.344 266.977 187.212 266.658 187.212C266.294 187.212 266.043 187.353 265.906 187.636C265.774 187.914 265.708 188.575 265.708 189.618V194H264.56V189.618C264.56 188.524 264.493 187.85 264.361 187.595C264.234 187.34 264.001 187.212 263.664 187.212C263.331 187.212 263.099 187.353 262.967 187.636C262.839 187.914 262.775 188.575 262.775 189.618V194H261.634V186.344H262.775V187C262.926 186.727 263.113 186.519 263.336 186.378C263.564 186.232 263.821 186.159 264.108 186.159C264.455 186.159 264.742 186.239 264.97 186.398C265.202 186.558 265.382 186.799 265.51 187.123Z" fill="#97959D"/>
<path d="M55.0723 213.35V217.608H53.541V213.35H55.0723ZM198.477 213.35V217.608H196.945V213.35H198.477Z" fill="#D7D5A5"/>
<path d="M65.5312 220.274C65.5312 219.687 65.3854 219.217 65.0938 218.866C64.8021 218.511 64.4124 218.333 63.9248 218.333C63.4372 218.333 63.0452 218.511 62.749 218.866C62.4574 219.217 62.3115 219.687 62.3115 220.274C62.3115 220.867 62.4574 221.341 62.749 221.696C63.0452 222.047 63.4372 222.223 63.9248 222.223C64.4124 222.223 64.8021 222.047 65.0938 221.696C65.3854 221.341 65.5312 220.867 65.5312 220.274ZM66.4883 223.077H65.5039V222.318C65.3353 222.605 65.1006 222.826 64.7998 222.981C64.5036 223.136 64.1686 223.214 63.7949 223.214C63.0612 223.214 62.4528 222.938 61.9697 222.387C61.4912 221.835 61.252 221.131 61.252 220.274C61.252 219.418 61.4912 218.714 61.9697 218.162C62.4528 217.611 63.0612 217.335 63.7949 217.335C64.1595 217.335 64.4945 217.415 64.7998 217.574C65.1051 217.734 65.3398 217.952 65.5039 218.23V217.8C65.5039 217.089 65.3034 216.517 64.9023 216.084C64.5013 215.651 63.9704 215.435 63.3096 215.435C62.1885 215.435 61.2952 215.872 60.6299 216.747C59.9691 217.618 59.6387 218.798 59.6387 220.288C59.6387 221.787 60.0146 222.981 60.7666 223.87C61.5186 224.759 62.5485 225.205 63.8564 225.21C64.1025 225.246 64.4489 225.265 64.8955 225.265C65.3421 225.265 65.7409 225.256 66.0918 225.237V226.222C65.7956 226.244 65.4128 226.256 64.9434 226.256C64.4785 226.26 64.1162 226.242 63.8564 226.201C62.2751 226.188 61.0059 225.65 60.0488 224.588C59.0964 223.526 58.6201 222.093 58.6201 220.288C58.6201 218.511 59.0485 217.096 59.9053 216.043C60.762 214.99 61.9105 214.464 63.3506 214.464C64.3031 214.464 65.0641 214.767 65.6338 215.373C66.2035 215.979 66.4883 216.793 66.4883 217.813V223.077ZM74.124 223.61C73.7868 223.806 73.4382 223.952 73.0781 224.048C72.7227 224.148 72.3581 224.198 71.9844 224.198C70.7995 224.198 69.8721 223.843 69.2021 223.132C68.5368 222.421 68.2041 221.437 68.2041 220.179C68.2041 218.921 68.5368 217.937 69.2021 217.226C69.8721 216.515 70.7995 216.159 71.9844 216.159C72.3535 216.159 72.7135 216.207 73.0645 216.303C73.4154 216.398 73.7686 216.547 74.124 216.747V218.066C73.7913 217.77 73.4564 217.556 73.1191 217.424C72.7865 217.292 72.4082 217.226 71.9844 217.226C71.196 217.226 70.5898 217.481 70.166 217.991C69.7422 218.502 69.5303 219.231 69.5303 220.179C69.5303 221.122 69.7422 221.851 70.166 222.366C70.5944 222.877 71.2005 223.132 71.9844 223.132C72.4219 223.132 72.8138 223.066 73.1602 222.934C73.5065 222.797 73.8278 222.587 74.124 222.305V223.61ZM79.5176 217.226C78.8796 217.226 78.3965 217.474 78.0684 217.971C77.7402 218.467 77.5762 219.203 77.5762 220.179C77.5762 221.149 77.7402 221.885 78.0684 222.387C78.3965 222.883 78.8796 223.132 79.5176 223.132C80.1602 223.132 80.6455 222.883 80.9736 222.387C81.3018 221.885 81.4658 221.149 81.4658 220.179C81.4658 219.203 81.3018 218.467 80.9736 217.971C80.6455 217.474 80.1602 217.226 79.5176 217.226ZM79.5176 216.159C80.5794 216.159 81.3906 216.503 81.9512 217.191C82.5163 217.88 82.7988 218.875 82.7988 220.179C82.7988 221.487 82.5186 222.485 81.958 223.173C81.3975 223.856 80.584 224.198 79.5176 224.198C78.4557 224.198 77.6445 223.856 77.084 223.173C76.5234 222.485 76.2432 221.487 76.2432 220.179C76.2432 218.875 76.5234 217.88 77.084 217.191C77.6445 216.503 78.4557 216.159 79.5176 216.159ZM88.6572 221.231C88.6572 221.797 88.7598 222.223 88.9648 222.51C89.1745 222.797 89.4821 222.94 89.8877 222.94H91.3574V224H89.7646C89.0127 224 88.4294 223.761 88.0146 223.282C87.6045 222.799 87.3994 222.116 87.3994 221.231V214.307H85.3828V213.322H88.6572V221.231ZM97.0928 221.231C97.0928 221.797 97.1953 222.223 97.4004 222.51C97.61 222.797 97.9176 222.94 98.3232 222.94H99.793V224H98.2002C97.4482 224 96.8649 223.761 96.4502 223.282C96.04 222.799 95.835 222.116 95.835 221.231V214.307H93.8184V213.322H97.0928V221.231ZM105.412 220.151H104.995C104.261 220.151 103.708 220.281 103.334 220.541C102.965 220.796 102.78 221.179 102.78 221.689C102.78 222.15 102.919 222.507 103.197 222.763C103.475 223.018 103.86 223.146 104.353 223.146C105.045 223.146 105.59 222.906 105.986 222.428C106.383 221.945 106.583 221.279 106.588 220.432V220.151H105.412ZM107.853 219.632V224H106.588V222.865C106.319 223.321 105.979 223.658 105.569 223.877C105.164 224.091 104.669 224.198 104.086 224.198C103.307 224.198 102.685 223.979 102.22 223.542C101.755 223.1 101.522 222.51 101.522 221.771C101.522 220.919 101.807 220.272 102.377 219.83C102.951 219.388 103.792 219.167 104.899 219.167H106.588V218.969C106.583 218.358 106.428 217.916 106.123 217.643C105.818 217.365 105.33 217.226 104.66 217.226C104.232 217.226 103.799 217.287 103.361 217.41C102.924 217.533 102.498 217.713 102.083 217.95V216.692C102.548 216.515 102.992 216.382 103.416 216.296C103.844 216.205 104.259 216.159 104.66 216.159C105.294 216.159 105.834 216.253 106.28 216.439C106.731 216.626 107.096 216.907 107.374 217.28C107.547 217.508 107.67 217.791 107.743 218.128C107.816 218.461 107.853 218.962 107.853 219.632ZM115.324 220.179C115.324 219.203 115.169 218.467 114.859 217.971C114.549 217.474 114.091 217.226 113.485 217.226C112.875 217.226 112.412 217.476 112.098 217.978C111.783 218.474 111.626 219.208 111.626 220.179C111.626 221.145 111.783 221.879 112.098 222.38C112.412 222.881 112.875 223.132 113.485 223.132C114.091 223.132 114.549 222.883 114.859 222.387C115.169 221.89 115.324 221.154 115.324 220.179ZM111.626 217.321C111.826 216.948 112.102 216.66 112.453 216.46C112.809 216.259 113.219 216.159 113.684 216.159C114.604 216.159 115.329 216.515 115.857 217.226C116.386 217.932 116.65 218.907 116.65 220.151C116.65 221.414 116.384 222.405 115.851 223.125C115.322 223.84 114.595 224.198 113.67 224.198C113.214 224.198 112.811 224.1 112.46 223.904C112.114 223.704 111.836 223.414 111.626 223.036V224H110.368V213.363H111.626V217.321ZM119.098 213.363H120.396V219.522L123.698 216.344H125.229L122.215 219.229L125.701 224H124.163L121.333 220.049L120.396 220.931V224H119.098V213.363ZM128.08 216.371H131.3V223.022H133.795V224H127.547V223.022H130.042V217.349H128.08V216.371ZM130.042 213.397H131.3V214.983H130.042V213.397ZM138.553 214.17V216.344H141.41V217.321H138.553V221.478C138.553 222.043 138.66 222.437 138.874 222.66C139.088 222.883 139.462 222.995 139.995 222.995H141.41V224H139.872C138.929 224 138.263 223.811 137.876 223.433C137.489 223.054 137.295 222.403 137.295 221.478V217.321H135.251V216.344H137.295V214.17H138.553ZM148.868 213.794H150.167L144.794 225.299H143.488L148.868 213.794ZM159.122 217.923C158.853 217.713 158.58 217.561 158.302 217.465C158.024 217.369 157.718 217.321 157.386 217.321C156.602 217.321 156.003 217.567 155.588 218.06C155.173 218.552 154.966 219.263 154.966 220.192V224H153.701V216.344H154.966V217.841C155.175 217.299 155.497 216.884 155.93 216.597C156.367 216.305 156.884 216.159 157.481 216.159C157.791 216.159 158.081 216.198 158.35 216.275C158.618 216.353 158.876 216.474 159.122 216.638V217.923ZM167.318 219.543V220.158H161.87V220.199C161.834 221.243 162.032 221.993 162.465 222.448C162.902 222.904 163.518 223.132 164.311 223.132C164.712 223.132 165.131 223.068 165.568 222.94C166.006 222.813 166.473 222.619 166.97 222.359V223.61C166.491 223.806 166.029 223.952 165.582 224.048C165.14 224.148 164.712 224.198 164.297 224.198C163.107 224.198 162.178 223.843 161.508 223.132C160.838 222.416 160.503 221.432 160.503 220.179C160.503 218.957 160.831 217.982 161.487 217.253C162.144 216.524 163.019 216.159 164.112 216.159C165.088 216.159 165.855 216.49 166.416 217.15C166.981 217.811 167.282 218.609 167.318 219.543ZM166.061 219.174C166.006 218.645 165.812 218.189 165.479 217.807C165.151 217.419 164.677 217.226 164.058 217.226C163.451 217.226 162.952 217.426 162.561 217.827C162.169 218.228 161.954 218.679 161.918 219.181L166.061 219.174ZM172.896 220.151H172.479C171.746 220.151 171.192 220.281 170.818 220.541C170.449 220.796 170.265 221.179 170.265 221.689C170.265 222.15 170.404 222.507 170.682 222.763C170.96 223.018 171.345 223.146 171.837 223.146C172.53 223.146 173.074 222.906 173.471 222.428C173.867 221.945 174.068 221.279 174.072 220.432V220.151H172.896ZM175.337 219.632V224H174.072V222.865C173.803 223.321 173.464 223.658 173.054 223.877C172.648 224.091 172.154 224.198 171.57 224.198C170.791 224.198 170.169 223.979 169.704 223.542C169.239 223.1 169.007 222.51 169.007 221.771C169.007 220.919 169.292 220.272 169.861 219.83C170.436 219.388 171.276 219.167 172.384 219.167H174.072V218.969C174.068 218.358 173.913 217.916 173.607 217.643C173.302 217.365 172.814 217.226 172.145 217.226C171.716 217.226 171.283 217.287 170.846 217.41C170.408 217.533 169.982 217.713 169.567 217.95V216.692C170.032 216.515 170.477 216.382 170.9 216.296C171.329 216.205 171.743 216.159 172.145 216.159C172.778 216.159 173.318 216.253 173.765 216.439C174.216 216.626 174.58 216.907 174.858 217.28C175.032 217.508 175.155 217.791 175.228 218.128C175.3 218.461 175.337 218.962 175.337 219.632ZM183.786 223.61C183.449 223.806 183.1 223.952 182.74 224.048C182.385 224.148 182.02 224.198 181.646 224.198C180.462 224.198 179.534 223.843 178.864 223.132C178.199 222.421 177.866 221.437 177.866 220.179C177.866 218.921 178.199 217.937 178.864 217.226C179.534 216.515 180.462 216.159 181.646 216.159C182.016 216.159 182.376 216.207 182.727 216.303C183.077 216.398 183.431 216.547 183.786 216.747V218.066C183.453 217.77 183.118 217.556 182.781 217.424C182.449 217.292 182.07 217.226 181.646 217.226C180.858 217.226 180.252 217.481 179.828 217.991C179.404 218.502 179.192 219.231 179.192 220.179C179.192 221.122 179.404 221.851 179.828 222.366C180.257 222.877 180.863 223.132 181.646 223.132C182.084 223.132 182.476 223.066 182.822 222.934C183.169 222.797 183.49 222.587 183.786 222.305V223.61ZM189.166 214.17V216.344H192.023V217.321H189.166V221.478C189.166 222.043 189.273 222.437 189.487 222.66C189.701 222.883 190.075 222.995 190.608 222.995H192.023V224H190.485C189.542 224 188.877 223.811 188.489 223.433C188.102 223.054 187.908 222.403 187.908 221.478V217.321H185.864V216.344H187.908V214.17H189.166Z" fill="#C9EB59"/>
<path d="M57.1846 125.256V130H55.9199V125.256C55.9199 124.568 55.7992 124.062 55.5576 123.738C55.3161 123.415 54.9378 123.253 54.4229 123.253C53.835 123.253 53.3815 123.463 53.0625 123.882C52.748 124.297 52.5908 124.894 52.5908 125.673V130H51.333V122.344H52.5908V123.492C52.8141 123.055 53.1172 122.724 53.5 122.501C53.8828 122.273 54.3363 122.159 54.8604 122.159C55.6396 122.159 56.2207 122.417 56.6035 122.932C56.9909 123.442 57.1846 124.217 57.1846 125.256ZM60.999 129.036V132.912H59.7344V122.344H60.999V123.321C61.2087 122.943 61.4867 122.656 61.833 122.46C62.1839 122.259 62.5872 122.159 63.043 122.159C63.9681 122.159 64.6927 122.517 65.2168 123.232C65.7454 123.948 66.0098 124.939 66.0098 126.206C66.0098 127.45 65.7454 128.428 65.2168 129.139C64.6882 129.845 63.9635 130.198 63.043 130.198C62.5781 130.198 62.1702 130.1 61.8193 129.904C61.473 129.704 61.1995 129.414 60.999 129.036ZM64.6904 126.179C64.6904 125.203 64.5355 124.467 64.2256 123.971C63.9202 123.474 63.4645 123.226 62.8584 123.226C62.2477 123.226 61.7852 123.476 61.4707 123.978C61.1562 124.474 60.999 125.208 60.999 126.179C60.999 127.145 61.1562 127.879 61.4707 128.38C61.7852 128.881 62.2477 129.132 62.8584 129.132C63.4645 129.132 63.9202 128.883 64.2256 128.387C64.5355 127.89 64.6904 127.154 64.6904 126.179ZM71.4922 123.123C71.6471 122.795 71.8431 122.553 72.0801 122.398C72.3216 122.239 72.611 122.159 72.9482 122.159C73.5635 122.159 73.9964 122.398 74.2471 122.877C74.5023 123.351 74.6299 124.246 74.6299 125.563V130H73.4814V125.618C73.4814 124.538 73.4199 123.868 73.2969 123.608C73.1784 123.344 72.9596 123.212 72.6406 123.212C72.276 123.212 72.0254 123.353 71.8887 123.636C71.7565 123.914 71.6904 124.575 71.6904 125.618V130H70.542V125.618C70.542 124.524 70.4759 123.85 70.3438 123.595C70.2161 123.34 69.9837 123.212 69.6465 123.212C69.3138 123.212 69.0814 123.353 68.9492 123.636C68.8216 123.914 68.7578 124.575 68.7578 125.618V130H67.6162V122.344H68.7578V123C68.9082 122.727 69.0951 122.519 69.3184 122.378C69.5462 122.232 69.8037 122.159 70.0908 122.159C70.4372 122.159 70.7243 122.239 70.9521 122.398C71.1846 122.558 71.3646 122.799 71.4922 123.123ZM85.9023 122.371H89.1221V129.022H91.6172V130H85.3691V129.022H87.8643V123.349H85.9023V122.371ZM87.8643 119.397H89.1221V120.983H87.8643V119.397ZM99.3623 125.256V130H98.0977V125.256C98.0977 124.568 97.9769 124.062 97.7354 123.738C97.4938 123.415 97.1156 123.253 96.6006 123.253C96.0127 123.253 95.5592 123.463 95.2402 123.882C94.9258 124.297 94.7686 124.894 94.7686 125.673V130H93.5107V122.344H94.7686V123.492C94.9919 123.055 95.2949 122.724 95.6777 122.501C96.0605 122.273 96.514 122.159 97.0381 122.159C97.8174 122.159 98.3984 122.417 98.7812 122.932C99.1686 123.442 99.3623 124.217 99.3623 125.256ZM107.265 122.61V123.841C106.905 123.631 106.542 123.474 106.178 123.369C105.813 123.264 105.442 123.212 105.063 123.212C104.494 123.212 104.068 123.305 103.785 123.492C103.507 123.674 103.368 123.955 103.368 124.333C103.368 124.675 103.473 124.93 103.683 125.099C103.892 125.267 104.414 125.431 105.248 125.591L105.754 125.687C106.378 125.805 106.85 126.042 107.169 126.397C107.493 126.753 107.654 127.215 107.654 127.785C107.654 128.542 107.385 129.134 106.848 129.562C106.31 129.986 105.562 130.198 104.605 130.198C104.227 130.198 103.831 130.157 103.416 130.075C103.001 129.998 102.552 129.879 102.069 129.72V128.421C102.539 128.662 102.988 128.845 103.416 128.968C103.844 129.086 104.25 129.146 104.633 129.146C105.189 129.146 105.619 129.034 105.925 128.811C106.23 128.583 106.383 128.266 106.383 127.86C106.383 127.277 105.825 126.874 104.708 126.65L104.653 126.637L104.182 126.541C103.457 126.4 102.928 126.163 102.596 125.83C102.263 125.493 102.097 125.035 102.097 124.456C102.097 123.722 102.345 123.157 102.842 122.761C103.339 122.36 104.047 122.159 104.968 122.159C105.378 122.159 105.772 122.198 106.15 122.275C106.529 122.348 106.9 122.46 107.265 122.61ZM113.246 120.17V122.344H116.104V123.321H113.246V127.478C113.246 128.043 113.353 128.437 113.567 128.66C113.782 128.883 114.155 128.995 114.688 128.995H116.104V130H114.565C113.622 130 112.957 129.811 112.569 129.433C112.182 129.054 111.988 128.403 111.988 127.478V123.321H109.944V122.344H111.988V120.17H113.246ZM122.283 126.151H121.866C121.132 126.151 120.579 126.281 120.205 126.541C119.836 126.796 119.651 127.179 119.651 127.689C119.651 128.15 119.79 128.507 120.068 128.763C120.346 129.018 120.731 129.146 121.224 129.146C121.916 129.146 122.461 128.906 122.857 128.428C123.254 127.945 123.454 127.279 123.459 126.432V126.151H122.283ZM124.724 125.632V130H123.459V128.865C123.19 129.321 122.851 129.658 122.44 129.877C122.035 130.091 121.54 130.198 120.957 130.198C120.178 130.198 119.556 129.979 119.091 129.542C118.626 129.1 118.394 128.51 118.394 127.771C118.394 126.919 118.678 126.272 119.248 125.83C119.822 125.388 120.663 125.167 121.771 125.167H123.459V124.969C123.454 124.358 123.299 123.916 122.994 123.643C122.689 123.365 122.201 123.226 121.531 123.226C121.103 123.226 120.67 123.287 120.232 123.41C119.795 123.533 119.369 123.713 118.954 123.95V122.692C119.419 122.515 119.863 122.382 120.287 122.296C120.715 122.205 121.13 122.159 121.531 122.159C122.165 122.159 122.705 122.253 123.151 122.439C123.603 122.626 123.967 122.907 124.245 123.28C124.418 123.508 124.541 123.791 124.614 124.128C124.687 124.461 124.724 124.962 124.724 125.632ZM130.835 127.231C130.835 127.797 130.938 128.223 131.143 128.51C131.352 128.797 131.66 128.94 132.065 128.94H133.535V130H131.942C131.19 130 130.607 129.761 130.192 129.282C129.782 128.799 129.577 128.116 129.577 127.231V120.307H127.561V119.322H130.835V127.231ZM139.271 127.231C139.271 127.797 139.373 128.223 139.578 128.51C139.788 128.797 140.095 128.94 140.501 128.94H141.971V130H140.378C139.626 130 139.043 129.761 138.628 129.282C138.218 128.799 138.013 128.116 138.013 127.231V120.307H135.996V119.322H139.271V127.231ZM158.322 126.274C158.322 125.687 158.176 125.217 157.885 124.866C157.593 124.511 157.203 124.333 156.716 124.333C156.228 124.333 155.836 124.511 155.54 124.866C155.248 125.217 155.103 125.687 155.103 126.274C155.103 126.867 155.248 127.341 155.54 127.696C155.836 128.047 156.228 128.223 156.716 128.223C157.203 128.223 157.593 128.047 157.885 127.696C158.176 127.341 158.322 126.867 158.322 126.274ZM159.279 129.077H158.295V128.318C158.126 128.605 157.892 128.826 157.591 128.981C157.295 129.136 156.96 129.214 156.586 129.214C155.852 129.214 155.244 128.938 154.761 128.387C154.282 127.835 154.043 127.131 154.043 126.274C154.043 125.418 154.282 124.714 154.761 124.162C155.244 123.611 155.852 123.335 156.586 123.335C156.951 123.335 157.285 123.415 157.591 123.574C157.896 123.734 158.131 123.952 158.295 124.23V123.8C158.295 123.089 158.094 122.517 157.693 122.084C157.292 121.651 156.761 121.435 156.101 121.435C154.979 121.435 154.086 121.872 153.421 122.747C152.76 123.618 152.43 124.798 152.43 126.288C152.43 127.787 152.806 128.981 153.558 129.87C154.31 130.759 155.34 131.205 156.647 131.21C156.894 131.246 157.24 131.265 157.687 131.265C158.133 131.265 158.532 131.256 158.883 131.237V132.222C158.587 132.244 158.204 132.256 157.734 132.256C157.27 132.26 156.907 132.242 156.647 132.201C155.066 132.188 153.797 131.65 152.84 130.588C151.887 129.526 151.411 128.093 151.411 126.288C151.411 124.511 151.84 123.096 152.696 122.043C153.553 120.99 154.701 120.464 156.142 120.464C157.094 120.464 157.855 120.767 158.425 121.373C158.994 121.979 159.279 122.793 159.279 123.813V129.077ZM166.915 129.61C166.578 129.806 166.229 129.952 165.869 130.048C165.514 130.148 165.149 130.198 164.775 130.198C163.59 130.198 162.663 129.843 161.993 129.132C161.328 128.421 160.995 127.437 160.995 126.179C160.995 124.921 161.328 123.937 161.993 123.226C162.663 122.515 163.59 122.159 164.775 122.159C165.145 122.159 165.505 122.207 165.855 122.303C166.206 122.398 166.56 122.547 166.915 122.747V124.066C166.582 123.77 166.247 123.556 165.91 123.424C165.577 123.292 165.199 123.226 164.775 123.226C163.987 123.226 163.381 123.481 162.957 123.991C162.533 124.502 162.321 125.231 162.321 126.179C162.321 127.122 162.533 127.851 162.957 128.366C163.385 128.877 163.992 129.132 164.775 129.132C165.213 129.132 165.605 129.066 165.951 128.934C166.298 128.797 166.619 128.587 166.915 128.305V129.61ZM172.309 123.226C171.671 123.226 171.188 123.474 170.859 123.971C170.531 124.467 170.367 125.203 170.367 126.179C170.367 127.149 170.531 127.885 170.859 128.387C171.188 128.883 171.671 129.132 172.309 129.132C172.951 129.132 173.437 128.883 173.765 128.387C174.093 127.885 174.257 127.149 174.257 126.179C174.257 125.203 174.093 124.467 173.765 123.971C173.437 123.474 172.951 123.226 172.309 123.226ZM172.309 122.159C173.37 122.159 174.182 122.503 174.742 123.191C175.307 123.88 175.59 124.875 175.59 126.179C175.59 127.487 175.31 128.485 174.749 129.173C174.188 129.856 173.375 130.198 172.309 130.198C171.247 130.198 170.436 129.856 169.875 129.173C169.314 128.485 169.034 127.487 169.034 126.179C169.034 124.875 169.314 123.88 169.875 123.191C170.436 122.503 171.247 122.159 172.309 122.159ZM181.448 127.231C181.448 127.797 181.551 128.223 181.756 128.51C181.965 128.797 182.273 128.94 182.679 128.94H184.148V130H182.556C181.804 130 181.22 129.761 180.806 129.282C180.396 128.799 180.19 128.116 180.19 127.231V120.307H178.174V119.322H181.448V127.231ZM189.884 127.231C189.884 127.797 189.986 128.223 190.191 128.51C190.401 128.797 190.709 128.94 191.114 128.94H192.584V130H190.991C190.239 130 189.656 129.761 189.241 129.282C188.831 128.799 188.626 128.116 188.626 127.231V120.307H186.609V119.322H189.884V127.231ZM198.203 126.151H197.786C197.052 126.151 196.499 126.281 196.125 126.541C195.756 126.796 195.571 127.179 195.571 127.689C195.571 128.15 195.71 128.507 195.988 128.763C196.266 129.018 196.651 129.146 197.144 129.146C197.836 129.146 198.381 128.906 198.777 128.428C199.174 127.945 199.374 127.279 199.379 126.432V126.151H198.203ZM200.644 125.632V130H199.379V128.865C199.11 129.321 198.771 129.658 198.36 129.877C197.955 130.091 197.46 130.198 196.877 130.198C196.098 130.198 195.476 129.979 195.011 129.542C194.546 129.1 194.313 128.51 194.313 127.771C194.313 126.919 194.598 126.272 195.168 125.83C195.742 125.388 196.583 125.167 197.69 125.167H199.379V124.969C199.374 124.358 199.219 123.916 198.914 123.643C198.609 123.365 198.121 123.226 197.451 123.226C197.023 123.226 196.59 123.287 196.152 123.41C195.715 123.533 195.289 123.713 194.874 123.95V122.692C195.339 122.515 195.783 122.382 196.207 122.296C196.635 122.205 197.05 122.159 197.451 122.159C198.085 122.159 198.625 122.253 199.071 122.439C199.522 122.626 199.887 122.907 200.165 123.28C200.338 123.508 200.461 123.791 200.534 124.128C200.607 124.461 200.644 124.962 200.644 125.632ZM208.115 126.179C208.115 125.203 207.96 124.467 207.65 123.971C207.34 123.474 206.882 123.226 206.276 123.226C205.666 123.226 205.203 123.476 204.889 123.978C204.574 124.474 204.417 125.208 204.417 126.179C204.417 127.145 204.574 127.879 204.889 128.38C205.203 128.881 205.666 129.132 206.276 129.132C206.882 129.132 207.34 128.883 207.65 128.387C207.96 127.89 208.115 127.154 208.115 126.179ZM204.417 123.321C204.618 122.948 204.893 122.66 205.244 122.46C205.6 122.259 206.01 122.159 206.475 122.159C207.395 122.159 208.12 122.515 208.648 123.226C209.177 123.932 209.441 124.907 209.441 126.151C209.441 127.414 209.175 128.405 208.642 129.125C208.113 129.84 207.386 130.198 206.461 130.198C206.005 130.198 205.602 130.1 205.251 129.904C204.905 129.704 204.627 129.414 204.417 129.036V130H203.159V119.363H204.417V123.321ZM211.889 119.363H213.188V125.522L216.489 122.344H218.021L215.006 125.229L218.492 130H216.954L214.124 126.049L213.188 126.931V130H211.889V119.363ZM220.871 122.371H224.091V129.022H226.586V130H220.338V129.022H222.833V123.349H220.871V122.371ZM222.833 119.397H224.091V120.983H222.833V119.397ZM231.344 120.17V122.344H234.201V123.321H231.344V127.478C231.344 128.043 231.451 128.437 231.665 128.66C231.879 128.883 232.253 128.995 232.786 128.995H234.201V130H232.663C231.72 130 231.054 129.811 230.667 129.433C230.28 129.054 230.086 128.403 230.086 127.478V123.321H228.042V122.344H230.086V120.17H231.344ZM241.659 119.794H242.958L237.585 131.299H236.279L241.659 119.794ZM251.913 123.923C251.644 123.713 251.371 123.561 251.093 123.465C250.815 123.369 250.509 123.321 250.177 123.321C249.393 123.321 248.794 123.567 248.379 124.06C247.964 124.552 247.757 125.263 247.757 126.192V130H246.492V122.344H247.757V123.841C247.966 123.299 248.288 122.884 248.721 122.597C249.158 122.305 249.675 122.159 250.272 122.159C250.582 122.159 250.872 122.198 251.141 122.275C251.41 122.353 251.667 122.474 251.913 122.638V123.923ZM260.109 125.543V126.158H254.661V126.199C254.625 127.243 254.823 127.993 255.256 128.448C255.693 128.904 256.309 129.132 257.102 129.132C257.503 129.132 257.922 129.068 258.359 128.94C258.797 128.813 259.264 128.619 259.761 128.359V129.61C259.282 129.806 258.82 129.952 258.373 130.048C257.931 130.148 257.503 130.198 257.088 130.198C255.898 130.198 254.969 129.843 254.299 129.132C253.629 128.416 253.294 127.432 253.294 126.179C253.294 124.957 253.622 123.982 254.278 123.253C254.935 122.524 255.81 122.159 256.903 122.159C257.879 122.159 258.646 122.49 259.207 123.15C259.772 123.811 260.073 124.609 260.109 125.543ZM258.852 125.174C258.797 124.645 258.603 124.189 258.271 123.807C257.942 123.419 257.468 123.226 256.849 123.226C256.243 123.226 255.743 123.426 255.352 123.827C254.96 124.228 254.745 124.679 254.709 125.181L258.852 125.174ZM265.688 126.151H265.271C264.537 126.151 263.983 126.281 263.609 126.541C263.24 126.796 263.056 127.179 263.056 127.689C263.056 128.15 263.195 128.507 263.473 128.763C263.751 129.018 264.136 129.146 264.628 129.146C265.321 129.146 265.865 128.906 266.262 128.428C266.658 127.945 266.859 127.279 266.863 126.432V126.151H265.688ZM268.128 125.632V130H266.863V128.865C266.594 129.321 266.255 129.658 265.845 129.877C265.439 130.091 264.945 130.198 264.361 130.198C263.582 130.198 262.96 129.979 262.495 129.542C262.03 129.1 261.798 128.51 261.798 127.771C261.798 126.919 262.083 126.272 262.652 125.83C263.227 125.388 264.067 125.167 265.175 125.167H266.863V124.969C266.859 124.358 266.704 123.916 266.398 123.643C266.093 123.365 265.605 123.226 264.936 123.226C264.507 123.226 264.074 123.287 263.637 123.41C263.199 123.533 262.773 123.713 262.358 123.95V122.692C262.823 122.515 263.268 122.382 263.691 122.296C264.12 122.205 264.535 122.159 264.936 122.159C265.569 122.159 266.109 122.253 266.556 122.439C267.007 122.626 267.371 122.907 267.649 123.28C267.823 123.508 267.946 123.791 268.019 124.128C268.091 124.461 268.128 124.962 268.128 125.632ZM276.577 129.61C276.24 129.806 275.891 129.952 275.531 130.048C275.176 130.148 274.811 130.198 274.438 130.198C273.253 130.198 272.325 129.843 271.655 129.132C270.99 128.421 270.657 127.437 270.657 126.179C270.657 124.921 270.99 123.937 271.655 123.226C272.325 122.515 273.253 122.159 274.438 122.159C274.807 122.159 275.167 122.207 275.518 122.303C275.868 122.398 276.222 122.547 276.577 122.747V124.066C276.244 123.77 275.91 123.556 275.572 123.424C275.24 123.292 274.861 123.226 274.438 123.226C273.649 123.226 273.043 123.481 272.619 123.991C272.195 124.502 271.983 125.231 271.983 126.179C271.983 127.122 272.195 127.851 272.619 128.366C273.048 128.877 273.654 129.132 274.438 129.132C274.875 129.132 275.267 129.066 275.613 128.934C275.96 128.797 276.281 128.587 276.577 128.305V129.61ZM281.957 120.17V122.344H284.814V123.321H281.957V127.478C281.957 128.043 282.064 128.437 282.278 128.66C282.493 128.883 282.866 128.995 283.399 128.995H284.814V130H283.276C282.333 130 281.668 129.811 281.28 129.433C280.893 129.054 280.699 128.403 280.699 127.478V123.321H278.655V122.344H280.699V120.17H281.957Z" fill="#5995CC"/>
<circle cx="195" cy="51" r="25" fill="white" fill-opacity="0.15"/>
<path d="M194.997 53.1448C196.335 53.1448 197.42 52.0613 197.42 50.7248C197.42 49.3882 196.335 48.3047 194.997 48.3047C193.659 48.3047 192.574 49.3882 192.574 50.7248C192.574 52.0613 193.659 53.1448 194.997 53.1448Z" fill="white"/>
<path d="M195 55.684C202.18 55.684 208 53.4641 208 50.7258C208 47.9874 202.18 45.7676 195 45.7676C187.82 45.7676 182 47.9874 182 50.7258C182 53.4641 187.82 55.684 195 55.684Z" stroke="white"/>
<path d="M190.7 53.2042C194.289 59.4152 199.124 63.3403 201.498 61.9711C203.872 60.6019 202.887 54.457 199.297 48.246C195.707 42.035 190.872 38.1099 188.498 39.4791C186.124 40.8483 187.11 46.9932 190.7 53.2042Z" stroke="white"/>
<path d="M190.7 48.2468C187.11 54.4578 186.124 60.6027 188.498 61.9719C190.872 63.341 195.707 59.416 199.297 53.205C202.887 46.994 203.872 40.8491 201.498 39.4799C199.124 38.1107 194.289 42.0358 190.7 48.2468Z" stroke="white"/>
</svg>
