<svg width="1000" height="1000" viewBox="0 0 1000 1000" fill="none" xmlns="http://www.w3.org/2000/svg">
<g clip-path="url(#clip0_809_15658)">
<circle cx="500" cy="500" r="500" fill="#FFEE78"/>
<path d="M503.425 736.881C657.534 736.881 750 663.395 750 540.461V528.785H606.164V540.461C606.164 592.656 581.507 613.26 505.479 613.26C412.329 613.26 386.986 591.283 386.986 499.94C386.986 408.598 412.329 386.621 505.479 386.621C581.507 386.621 606.164 407.225 606.164 459.42V471.095H750V459.42C750 336.486 657.534 263 503.425 263C343.836 263 250 356.403 250 499.94C250 643.478 343.836 736.881 503.425 736.881Z" fill="black"/>
</g>
<defs>
<clipPath id="clip0_809_15658">
<rect width="1000" height="1000" fill="white"/>
</clipPath>
</defs>
</svg>
