<svg width="16" height="16" viewBox="0 0 16 16" fill="none" xmlns="http://www.w3.org/2000/svg">
<path fill-rule="evenodd" clip-rule="evenodd" d="M12.2082 3.29185C11.6558 2.73968 11.0001 2.30166 10.2785 2.00276C9.55655 1.70372 8.78276 1.5498 8.00133 1.5498C7.21989 1.5498 6.44611 1.70372 5.72415 2.00276C5.0022 2.30181 4.34622 2.74012 3.79366 3.29268L3.79049 3.29585C3.23942 3.84774 2.80221 4.5026 2.50374 5.22318C2.2047 5.94513 2.05078 6.71891 2.05078 7.50035C2.05078 8.28178 2.2047 9.05556 2.50374 9.77752C2.80278 10.4995 3.24109 11.1554 3.79365 11.708L7.00251 14.9169C7.26741 15.1818 7.62669 15.3306 8.00133 15.3306C8.37596 15.3306 8.73525 15.1818 9.00015 14.9169L12.209 11.708C13.3249 10.5921 13.9519 9.07852 13.9519 7.50035C13.9519 5.92217 13.3249 4.40863 12.209 3.29268L12.2082 3.29185Z" fill="#E55D59"/>
<path fill-rule="evenodd" clip-rule="evenodd" d="M9.76901 9.97468L10.4761 9.26757L8.70861 7.50007L10.4762 5.73249L9.76908 5.02539L8.00151 6.79296L6.23347 5.02493L5.52637 5.73204L7.2944 7.50007L5.52644 9.26803L6.23355 9.97513L8.0015 8.20718L9.76901 9.97468Z" fill="white"/>
</svg>
