<svg width="16" height="16" viewBox="0 0 16 16" fill="none" xmlns="http://www.w3.org/2000/svg">
<path fill-rule="evenodd" clip-rule="evenodd" d="M10.2785 2.00276C11.0001 2.30166 11.6558 2.73968 12.2082 3.29185L12.209 3.29268C13.3249 4.40863 13.9519 5.92217 13.9519 7.50035C13.9519 9.07852 13.3249 10.5921 12.209 11.708L9.00015 14.9169C8.73525 15.1818 8.37596 15.3306 8.00133 15.3306C7.62669 15.3306 7.26741 15.1818 7.00251 14.9169L3.79365 11.708C3.24109 11.1554 2.80278 10.4995 2.50374 9.77752C2.2047 9.05556 2.05078 8.28178 2.05078 7.50035C2.05078 6.71891 2.2047 5.94513 2.50374 5.22318C2.80221 4.5026 3.23942 3.84774 3.79049 3.29585L3.79366 3.29268C4.34622 2.74012 5.0022 2.30181 5.72415 2.00276C6.44611 1.70372 7.21989 1.5498 8.00133 1.5498C8.78276 1.5498 9.55655 1.70372 10.2785 2.00276ZM10.5 7.5C10.5 8.88071 9.38071 10 8 10C6.61929 10 5.5 8.88071 5.5 7.5C5.5 6.11929 6.61929 5 8 5C9.38071 5 10.5 6.11929 10.5 7.5Z" fill="#3494FA"/>
</svg>
