<svg width="201" height="48" viewBox="0 0 201 48" fill="none" xmlns="http://www.w3.org/2000/svg">
<path d="M74.3588 14.181C74.3588 11.6862 76.4456 10.0692 80.0627 10.0692C83.7726 10.0692 86.2304 11.7786 87.1115 15.6594H92.6299C91.517 8.77555 86.4159 5.81871 80.2019 5.81871C73.014 5.81871 69.0258 9.88436 69.0258 14.5968C69.0258 27.2096 88.1317 20.6029 88.1317 29.4734C88.1317 32.2917 85.8594 34.1859 81.5467 34.1859C77.3267 34.1859 74.6834 32.2455 73.8023 28.688H68.3766C69.6751 35.2485 74.4979 38.4363 81.5003 38.4363C88.41 38.4363 93.4647 34.9713 93.4647 28.7804C93.4647 15.9366 74.3588 22.4509 74.3588 14.181Z" fill="white"/>
<path d="M98.1172 37.8357H103.079V23.3749C103.079 19.9561 105.305 16.6758 109.015 16.6758C112.4 16.6758 113.977 18.8473 113.977 22.4047V37.8357H118.893V21.3883C118.893 15.567 115.693 12.564 110.545 12.564C107.346 12.564 104.749 13.8576 103.079 16.491V4.57129H98.1172V37.8357Z" fill="white"/>
<path d="M129.611 21.2497C130.074 18.4777 131.79 16.722 134.99 16.722C138.793 16.722 140.462 18.6625 140.462 22.2661V22.8205C136.01 22.8667 132.671 23.1439 129.379 24.2527C125.669 25.5002 123.814 27.995 123.814 31.3676C123.814 36.0801 127.246 38.4363 132.254 38.4363C135.222 38.4363 138.422 37.1427 140.508 34.2321C140.555 35.6181 140.694 36.9117 141.065 37.8357H146.259C145.702 36.4959 145.424 34.7865 145.424 31.8296V22.2199C145.424 16.491 142.085 12.564 135.361 12.564C129.193 12.564 125.437 15.798 124.649 21.2497H129.611ZM128.822 31.1828C128.822 28.3646 130.955 26.2856 140.462 26.1932V27.302C140.462 31.2752 137.309 34.5555 133.181 34.5555C130.538 34.5555 128.822 33.2619 128.822 31.1828Z" fill="white"/>
<path d="M156.608 47.9999V35.0175C158.185 37.2813 160.503 38.4363 163.332 38.4363C169.778 38.4363 173.812 33.8163 173.812 25.454C173.812 17.4151 169.871 12.564 163.332 12.564C160.503 12.564 158.185 13.8576 156.608 16.1676V13.2108H151.646V47.9999H156.608ZM162.729 16.722C166.532 16.722 168.758 19.8637 168.758 25.454C168.758 31.1366 166.625 34.2783 162.729 34.2783C158.834 34.2783 156.608 31.0904 156.608 25.454C156.608 19.8175 158.741 16.722 162.729 16.722Z" fill="white"/>
<path d="M200.571 29.7968H195.378C194.543 32.8461 192.317 34.3245 189.164 34.3245C185.129 34.3245 182.764 31.5062 182.486 26.4704H200.386V25.2692C200.386 17.3689 196.073 12.564 188.932 12.564C181.883 12.564 177.431 17.1841 177.431 25.5464C177.431 33.5853 181.883 38.4363 189.164 38.4363C194.96 38.4363 199.227 35.5257 200.571 29.7968ZM188.932 16.6758C192.456 16.6758 194.636 18.9397 195.238 23.0977H182.625C183.228 18.9397 185.361 16.6758 188.932 16.6758Z" fill="white"/>
<path fill-rule="evenodd" clip-rule="evenodd" d="M45.4328 15.4193C46.0517 11.3518 44.7994 7.05331 41.6757 3.92076C36.7798 -0.989119 29.0276 -1.28875 23.783 3.02187L31.0118 10.2713C32.2104 9.79874 33.6265 10.0482 34.5953 11.0198C35.3758 11.8026 35.689 12.8766 35.5347 13.8931C35.4317 14.5748 35.1184 15.2307 34.595 15.7557L34.5938 15.7569L34.5929 15.756L27.5122 22.857L27.513 22.8578L23.7365 26.645L30.8173 33.746L33.652 30.9032L33.6512 30.9024L41.676 22.8547C43.766 20.7587 45.0183 18.1408 45.4328 15.4193ZM22.1269 26.9243L19.0153 23.8038L11.9368 30.9024C11.936 30.9032 11.9353 30.9039 11.9345 30.9047L14.7668 33.7451C14.7676 33.7443 14.7683 33.7435 14.7691 33.7428L15.7132 34.6896L15.7109 34.6919L15.7117 34.6927C15.7117 34.6927 15.7117 34.6927 15.7117 34.6928L22.7916 41.7929L22.794 41.7905L23.0053 42.0024C28.2342 47.0213 36.5305 46.9515 41.6741 41.7932C46.5698 36.8836 46.8688 29.11 42.5712 23.8505L35.3412 31.1011C35.8117 32.3028 35.5627 33.7222 34.5943 34.6934C33.2908 36.0006 31.1773 36.0006 29.8738 34.6934L22.1269 26.9244L22.1269 26.9243ZM0.156948 30.2784C-0.466817 34.3499 0.784849 38.6545 3.91195 41.7905C8.80663 46.6991 16.5562 46.9999 21.8007 42.6927L14.5706 35.442C13.3732 35.9118 11.9598 35.6616 10.9924 34.6915C10.2094 33.9063 9.89674 32.8279 10.0544 31.8087C10.1589 31.1304 10.4717 30.4781 10.9927 29.9556L18.7396 22.1866L18.7405 22.1874L21.8483 19.0707L14.7682 11.9704C14.768 11.9702 14.7678 11.97 14.7675 11.9698L11.9352 14.8101L11.9359 14.8108L10.9918 15.7576L10.9903 15.7561L3.91195 22.8547L3.90964 22.857C3.90978 22.8571 3.90991 22.8573 3.91005 22.8574L3.91045 22.8578C3.91043 22.8578 3.9104 22.8578 3.91038 22.8579L3.911 22.8585L3.80336 22.9664C1.78176 25.0401 0.566289 27.6092 0.156948 30.2784ZM10.2429 14.6121L3.01222 21.8634C-1.2836 16.6039 -0.984014 8.83161 3.91099 3.92266C9.12512 -1.30633 17.5789 -1.30633 22.793 3.92266L30.8179 11.9704L30.818 11.9703L33.6488 14.8093L26.5681 21.9102L22.7925 18.1238L22.7924 18.1239L15.7123 11.0236C15.7121 11.0234 15.7119 11.0232 15.7117 11.023L15.7117 11.0229L15.7112 11.0226L15.7113 11.0225C14.4078 9.71526 12.2943 9.71526 10.9908 11.0225C10.0231 11.993 9.77381 13.411 10.2429 14.6121Z" fill="white"/>
</svg>
