<svg width="16" height="16" viewBox="0 0 16 16" fill="none" xmlns="http://www.w3.org/2000/svg">
<path d="M8 10.5C9.38071 10.5 10.5 9.38071 10.5 8C10.5 6.61929 9.38071 5.5 8 5.5C6.61929 5.5 5.5 6.61929 5.5 8C5.5 9.38071 6.61929 10.5 8 10.5Z" stroke="#888888" stroke-linecap="round" stroke-linejoin="round"/>
<path d="M11.3186 13.0001C10.2047 13.7394 8.87581 14.0855 7.5428 13.9835C6.20979 13.8816 4.94901 13.3373 3.96051 12.4372C2.97201 11.5371 2.31242 10.3327 2.08639 9.01501C1.86036 7.69735 2.08084 6.34194 2.71285 5.16385C3.34485 3.98576 4.35218 3.05247 5.575 2.51207C6.79782 1.97167 8.16609 1.85511 9.4627 2.18088C10.7593 2.50665 11.91 3.2561 12.7322 4.31031C13.5543 5.36451 14.0009 6.6631 14.001 8C14.001 9.38072 13.501 10.5 12.251 10.5C11.001 10.5 10.501 9.38072 10.501 8V5.5" stroke="#888888" stroke-linecap="round" stroke-linejoin="round"/>
</svg>
