<svg width="16" height="17" viewBox="0 0 16 17" fill="none" xmlns="http://www.w3.org/2000/svg">
<path d="M8.64435 15.5611L11.8523 12.3531C12.8742 11.3312 13.4483 9.9452 13.4483 8.5C13.4483 7.0548 12.8742 5.66878 11.8523 4.64687L11.8523 4.64686C11.3463 4.14086 10.7456 3.73948 10.0845 3.46563C9.42335 3.19179 8.71476 3.05084 7.99917 3.05084C7.28358 3.05084 6.57499 3.19179 5.91387 3.46563C5.25274 3.73948 4.65203 4.14086 4.14603 4.64686L4.14602 4.64687C3.64002 5.15287 3.23864 5.75358 2.9648 6.4147C2.69095 7.07582 2.55001 7.78441 2.55 8.5C2.55 9.21559 2.69095 9.92418 2.9648 10.5853C3.23864 11.2464 3.64002 11.8471 4.14602 12.3531L7.35398 15.5611C7.5251 15.7322 7.75718 15.8283 7.99917 15.8283C8.24116 15.8283 8.47324 15.7322 8.64435 15.5611Z" fill="#888888" stroke="#888888" stroke-linecap="round" stroke-linejoin="round"/>
<rect x="7.5" y="5.5" width="1" height="6" rx="0.5" fill="white"/>
<rect x="11" y="8" width="1" height="6" rx="0.5" transform="rotate(90 11 8)" fill="white"/>
</svg>
