<svg width="370" height="340" viewBox="0 0 370 340" fill="none" xmlns="http://www.w3.org/2000/svg">
<circle cx="170" cy="170" r="170" fill="#FFEC6B"/>
<rect x="71.5" y="71.5" width="297" height="197" rx="10.5" fill="#92E4FD" stroke="#222222" stroke-width="3"/>
<rect x="73" y="103" width="294" height="2" fill="#222222"/>
<path d="M95.2628 175H93.2855L96.2983 166.273H98.6761L101.685 175H99.7074L97.5213 168.267H97.4531L95.2628 175ZM95.1392 171.57H99.8097V173.01H95.1392V171.57ZM104.516 166.273V175H102.701V166.273H104.516ZM105.971 175V168.455H107.786V175H105.971ZM106.882 167.611C106.613 167.611 106.381 167.521 106.188 167.342C105.998 167.161 105.902 166.943 105.902 166.69C105.902 166.44 105.998 166.226 106.188 166.047C106.381 165.865 106.613 165.774 106.882 165.774C107.152 165.774 107.382 165.865 107.573 166.047C107.766 166.226 107.863 166.44 107.863 166.69C107.863 166.943 107.766 167.161 107.573 167.342C107.382 167.521 107.152 167.611 106.882 167.611ZM112.197 175.128C111.527 175.128 110.95 174.986 110.467 174.702C109.987 174.415 109.618 174.017 109.359 173.509C109.104 173 108.976 172.415 108.976 171.753C108.976 171.082 109.105 170.494 109.364 169.989C109.625 169.48 109.996 169.084 110.476 168.8C110.956 168.513 111.527 168.369 112.189 168.369C112.76 168.369 113.26 168.473 113.689 168.68C114.118 168.888 114.457 169.179 114.707 169.554C114.957 169.929 115.095 170.369 115.121 170.875H113.408C113.359 170.548 113.232 170.286 113.024 170.087C112.82 169.885 112.551 169.784 112.219 169.784C111.938 169.784 111.692 169.861 111.482 170.014C111.274 170.165 111.112 170.385 110.996 170.675C110.879 170.964 110.821 171.315 110.821 171.727C110.821 172.145 110.878 172.5 110.991 172.793C111.108 173.085 111.271 173.308 111.482 173.462C111.692 173.615 111.938 173.692 112.219 173.692C112.426 173.692 112.612 173.649 112.777 173.564C112.945 173.479 113.082 173.355 113.19 173.193C113.301 173.028 113.374 172.831 113.408 172.601H115.121C115.092 173.101 114.956 173.541 114.712 173.922C114.47 174.3 114.136 174.595 113.71 174.808C113.284 175.021 112.78 175.128 112.197 175.128ZM116.283 175V168.455H118.098V175H116.283ZM117.195 167.611C116.925 167.611 116.694 167.521 116.5 167.342C116.31 167.161 116.215 166.943 116.215 166.69C116.215 166.44 116.31 166.226 116.5 166.047C116.694 165.865 116.925 165.774 117.195 165.774C117.465 165.774 117.695 165.865 117.885 166.047C118.078 166.226 118.175 166.44 118.175 166.69C118.175 166.943 118.078 167.161 117.885 167.342C117.695 167.521 117.465 167.611 117.195 167.611ZM121.419 175.124C121.001 175.124 120.629 175.051 120.303 174.906C119.976 174.759 119.717 174.541 119.527 174.254C119.339 173.964 119.246 173.604 119.246 173.172C119.246 172.808 119.313 172.503 119.446 172.256C119.58 172.009 119.761 171.81 119.991 171.659C120.222 171.509 120.483 171.395 120.776 171.318C121.071 171.241 121.381 171.188 121.705 171.156C122.085 171.116 122.392 171.08 122.625 171.045C122.858 171.009 123.027 170.955 123.132 170.884C123.237 170.812 123.29 170.707 123.29 170.568V170.543C123.29 170.273 123.205 170.064 123.034 169.916C122.866 169.768 122.628 169.695 122.318 169.695C121.991 169.695 121.732 169.767 121.538 169.912C121.345 170.054 121.217 170.233 121.155 170.449L119.476 170.312C119.561 169.915 119.729 169.571 119.979 169.281C120.229 168.989 120.551 168.764 120.946 168.608C121.344 168.449 121.804 168.369 122.327 168.369C122.69 168.369 123.038 168.412 123.371 168.497C123.706 168.582 124.003 168.714 124.261 168.893C124.523 169.072 124.729 169.303 124.879 169.584C125.03 169.862 125.105 170.196 125.105 170.585V175H123.384V174.092H123.332C123.227 174.297 123.087 174.477 122.911 174.634C122.734 174.787 122.523 174.908 122.276 174.996C122.028 175.081 121.743 175.124 121.419 175.124ZM121.939 173.871C122.206 173.871 122.442 173.818 122.646 173.713C122.851 173.605 123.011 173.46 123.128 173.278C123.244 173.097 123.303 172.891 123.303 172.661V171.966C123.246 172.003 123.168 172.037 123.068 172.068C122.972 172.097 122.862 172.124 122.74 172.149C122.618 172.172 122.496 172.193 122.374 172.213C122.251 172.23 122.141 172.246 122.041 172.26C121.828 172.291 121.642 172.341 121.483 172.409C121.324 172.477 121.2 172.57 121.112 172.686C121.024 172.8 120.98 172.942 120.98 173.112C120.98 173.359 121.07 173.548 121.249 173.679C121.43 173.807 121.661 173.871 121.939 173.871ZM131.106 166.273V175H129.291V166.273H131.106ZM135.543 175.128C134.87 175.128 134.29 174.991 133.805 174.719C133.322 174.443 132.95 174.054 132.688 173.551C132.427 173.045 132.296 172.447 132.296 171.757C132.296 171.084 132.427 170.493 132.688 169.984C132.95 169.476 133.317 169.08 133.792 168.795C134.269 168.511 134.829 168.369 135.471 168.369C135.903 168.369 136.305 168.439 136.677 168.578C137.052 168.714 137.379 168.92 137.657 169.196C137.938 169.472 138.157 169.818 138.313 170.236C138.469 170.651 138.548 171.136 138.548 171.693V172.192H133.021V171.067H136.839C136.839 170.805 136.782 170.574 136.668 170.372C136.555 170.17 136.397 170.013 136.195 169.899C135.996 169.783 135.765 169.724 135.501 169.724C135.225 169.724 134.981 169.788 134.768 169.916C134.558 170.041 134.393 170.21 134.273 170.423C134.154 170.634 134.093 170.868 134.09 171.126V172.196C134.09 172.52 134.15 172.8 134.269 173.036C134.391 173.271 134.563 173.453 134.785 173.581C135.006 173.709 135.269 173.773 135.573 173.773C135.775 173.773 135.96 173.744 136.127 173.688C136.295 173.631 136.438 173.545 136.558 173.432C136.677 173.318 136.768 173.179 136.83 173.014L138.509 173.125C138.424 173.528 138.249 173.881 137.985 174.182C137.724 174.48 137.386 174.713 136.971 174.881C136.559 175.045 136.083 175.128 135.543 175.128ZM143.252 168.455V169.818H139.212V168.455H143.252ZM140.137 175V167.982C140.137 167.507 140.229 167.114 140.414 166.801C140.602 166.489 140.857 166.254 141.181 166.098C141.505 165.942 141.873 165.864 142.285 165.864C142.563 165.864 142.817 165.885 143.048 165.928C143.281 165.97 143.454 166.009 143.567 166.043L143.244 167.406C143.173 167.384 143.085 167.362 142.979 167.342C142.877 167.322 142.772 167.312 142.664 167.312C142.397 167.312 142.211 167.375 142.106 167.5C142.001 167.622 141.948 167.794 141.948 168.016V175H140.137ZM147.843 168.455V169.818H143.901V168.455H147.843ZM144.796 166.886H146.611V172.989C146.611 173.156 146.637 173.287 146.688 173.381C146.739 173.472 146.81 173.536 146.901 173.572C146.995 173.609 147.103 173.628 147.225 173.628C147.31 173.628 147.395 173.621 147.48 173.607C147.566 173.589 147.631 173.577 147.676 173.568L147.962 174.919C147.871 174.947 147.743 174.98 147.578 175.017C147.414 175.057 147.213 175.081 146.978 175.089C146.54 175.107 146.157 175.048 145.827 174.915C145.5 174.781 145.246 174.574 145.064 174.293C144.882 174.011 144.793 173.656 144.796 173.227V166.886ZM153.669 175.124C153.251 175.124 152.879 175.051 152.553 174.906C152.226 174.759 151.967 174.541 151.777 174.254C151.589 173.964 151.496 173.604 151.496 173.172C151.496 172.808 151.563 172.503 151.696 172.256C151.83 172.009 152.011 171.81 152.241 171.659C152.472 171.509 152.733 171.395 153.026 171.318C153.321 171.241 153.631 171.188 153.955 171.156C154.335 171.116 154.642 171.08 154.875 171.045C155.108 171.009 155.277 170.955 155.382 170.884C155.487 170.812 155.54 170.707 155.54 170.568V170.543C155.54 170.273 155.455 170.064 155.284 169.916C155.116 169.768 154.878 169.695 154.568 169.695C154.241 169.695 153.982 169.767 153.788 169.912C153.595 170.054 153.467 170.233 153.405 170.449L151.726 170.312C151.811 169.915 151.979 169.571 152.229 169.281C152.479 168.989 152.801 168.764 153.196 168.608C153.594 168.449 154.054 168.369 154.577 168.369C154.94 168.369 155.288 168.412 155.621 168.497C155.956 168.582 156.253 168.714 156.511 168.893C156.773 169.072 156.979 169.303 157.129 169.584C157.28 169.862 157.355 170.196 157.355 170.585V175H155.634V174.092H155.582C155.477 174.297 155.337 174.477 155.161 174.634C154.984 174.787 154.773 174.908 154.526 174.996C154.278 175.081 153.993 175.124 153.669 175.124ZM154.189 173.871C154.456 173.871 154.692 173.818 154.896 173.713C155.101 173.605 155.261 173.46 155.378 173.278C155.494 173.097 155.553 172.891 155.553 172.661V171.966C155.496 172.003 155.418 172.037 155.318 172.068C155.222 172.097 155.112 172.124 154.99 172.149C154.868 172.172 154.746 172.193 154.624 172.213C154.501 172.23 154.391 172.246 154.291 172.26C154.078 172.291 153.892 172.341 153.733 172.409C153.574 172.477 153.45 172.57 153.362 172.686C153.274 172.8 153.23 172.942 153.23 173.112C153.23 173.359 153.32 173.548 153.499 173.679C153.68 173.807 153.911 173.871 154.189 173.871ZM164.498 175.128C163.828 175.128 163.251 174.986 162.768 174.702C162.288 174.415 161.919 174.017 161.66 173.509C161.404 173 161.277 172.415 161.277 171.753C161.277 171.082 161.406 170.494 161.664 169.989C161.926 169.48 162.297 169.084 162.777 168.8C163.257 168.513 163.828 168.369 164.49 168.369C165.061 168.369 165.561 168.473 165.99 168.68C166.419 168.888 166.758 169.179 167.008 169.554C167.258 169.929 167.396 170.369 167.422 170.875H165.708C165.66 170.548 165.532 170.286 165.325 170.087C165.12 169.885 164.852 169.784 164.52 169.784C164.238 169.784 163.993 169.861 163.782 170.014C163.575 170.165 163.413 170.385 163.297 170.675C163.18 170.964 163.122 171.315 163.122 171.727C163.122 172.145 163.179 172.5 163.292 172.793C163.409 173.085 163.572 173.308 163.782 173.462C163.993 173.615 164.238 173.692 164.52 173.692C164.727 173.692 164.913 173.649 165.078 173.564C165.245 173.479 165.383 173.355 165.491 173.193C165.602 173.028 165.674 172.831 165.708 172.601H167.422C167.393 173.101 167.257 173.541 167.012 173.922C166.771 174.3 166.437 174.595 166.011 174.808C165.585 175.021 165.081 175.128 164.498 175.128ZM171.541 175.128C170.879 175.128 170.307 174.987 169.824 174.706C169.344 174.422 168.973 174.027 168.712 173.521C168.45 173.013 168.32 172.423 168.32 171.753C168.32 171.077 168.45 170.486 168.712 169.98C168.973 169.472 169.344 169.077 169.824 168.795C170.307 168.511 170.879 168.369 171.541 168.369C172.203 168.369 172.774 168.511 173.254 168.795C173.737 169.077 174.109 169.472 174.371 169.98C174.632 170.486 174.763 171.077 174.763 171.753C174.763 172.423 174.632 173.013 174.371 173.521C174.109 174.027 173.737 174.422 173.254 174.706C172.774 174.987 172.203 175.128 171.541 175.128ZM171.55 173.722C171.851 173.722 172.102 173.636 172.304 173.466C172.506 173.293 172.658 173.057 172.76 172.759C172.865 172.46 172.918 172.121 172.918 171.74C172.918 171.359 172.865 171.02 172.76 170.722C172.658 170.423 172.506 170.187 172.304 170.014C172.102 169.841 171.851 169.754 171.55 169.754C171.246 169.754 170.99 169.841 170.783 170.014C170.578 170.187 170.423 170.423 170.318 170.722C170.216 171.02 170.165 171.359 170.165 171.74C170.165 172.121 170.216 172.46 170.318 172.759C170.423 173.057 170.578 173.293 170.783 173.466C170.99 173.636 171.246 173.722 171.55 173.722ZM175.943 175V168.455H177.673V169.609H177.75C177.886 169.226 178.114 168.923 178.432 168.702C178.75 168.48 179.131 168.369 179.574 168.369C180.023 168.369 180.405 168.482 180.72 168.706C181.036 168.928 181.246 169.229 181.351 169.609H181.419C181.553 169.234 181.794 168.935 182.143 168.71C182.496 168.483 182.912 168.369 183.392 168.369C184.003 168.369 184.499 168.564 184.879 168.953C185.263 169.339 185.455 169.888 185.455 170.598V175H183.643V170.956C183.643 170.592 183.547 170.32 183.354 170.138C183.161 169.956 182.919 169.865 182.629 169.865C182.3 169.865 182.043 169.97 181.858 170.18C181.673 170.388 181.581 170.662 181.581 171.003V175H179.821V170.918C179.821 170.597 179.729 170.341 179.544 170.151C179.362 169.96 179.122 169.865 178.824 169.865C178.622 169.865 178.44 169.916 178.278 170.018C178.119 170.118 177.993 170.259 177.899 170.44C177.805 170.619 177.759 170.83 177.759 171.071V175H175.943ZM186.888 175V168.455H188.619V169.609H188.695C188.832 169.226 189.059 168.923 189.377 168.702C189.695 168.48 190.076 168.369 190.519 168.369C190.968 168.369 191.35 168.482 191.665 168.706C191.981 168.928 192.191 169.229 192.296 169.609H192.364C192.498 169.234 192.739 168.935 193.089 168.71C193.441 168.483 193.857 168.369 194.337 168.369C194.948 168.369 195.444 168.564 195.825 168.953C196.208 169.339 196.4 169.888 196.4 170.598V175H194.589V170.956C194.589 170.592 194.492 170.32 194.299 170.138C194.106 169.956 193.864 169.865 193.575 169.865C193.245 169.865 192.988 169.97 192.803 170.18C192.619 170.388 192.526 170.662 192.526 171.003V175H190.766V170.918C190.766 170.597 190.674 170.341 190.489 170.151C190.308 169.96 190.067 169.865 189.769 169.865C189.567 169.865 189.386 169.916 189.224 170.018C189.065 170.118 188.938 170.259 188.844 170.44C188.751 170.619 188.704 170.83 188.704 171.071V175H186.888ZM200.817 175.128C200.143 175.128 199.564 174.991 199.078 174.719C198.595 174.443 198.223 174.054 197.962 173.551C197.7 173.045 197.57 172.447 197.57 171.757C197.57 171.084 197.7 170.493 197.962 169.984C198.223 169.476 198.591 169.08 199.065 168.795C199.543 168.511 200.102 168.369 200.744 168.369C201.176 168.369 201.578 168.439 201.95 168.578C202.325 168.714 202.652 168.92 202.93 169.196C203.212 169.472 203.43 169.818 203.587 170.236C203.743 170.651 203.821 171.136 203.821 171.693V172.192H198.294V171.067H202.112C202.112 170.805 202.055 170.574 201.942 170.372C201.828 170.17 201.67 170.013 201.469 169.899C201.27 169.783 201.038 169.724 200.774 169.724C200.499 169.724 200.254 169.788 200.041 169.916C199.831 170.041 199.666 170.21 199.547 170.423C199.428 170.634 199.366 170.868 199.364 171.126V172.196C199.364 172.52 199.423 172.8 199.543 173.036C199.665 173.271 199.837 173.453 200.058 173.581C200.28 173.709 200.543 173.773 200.847 173.773C201.048 173.773 201.233 173.744 201.401 173.688C201.568 173.631 201.712 173.545 201.831 173.432C201.95 173.318 202.041 173.179 202.104 173.014L203.783 173.125C203.697 173.528 203.523 173.881 203.259 174.182C202.997 174.48 202.659 174.713 202.244 174.881C201.832 175.045 201.357 175.128 200.817 175.128ZM206.821 171.216V175H205.006V168.455H206.736V169.609H206.812C206.957 169.229 207.2 168.928 207.541 168.706C207.882 168.482 208.295 168.369 208.781 168.369C209.236 168.369 209.632 168.469 209.97 168.668C210.308 168.866 210.571 169.151 210.759 169.52C210.946 169.886 211.04 170.324 211.04 170.832V175H209.224V171.156C209.227 170.756 209.125 170.443 208.918 170.219C208.71 169.991 208.425 169.878 208.061 169.878C207.817 169.878 207.601 169.93 207.413 170.036C207.229 170.141 207.084 170.294 206.979 170.496C206.876 170.695 206.824 170.935 206.821 171.216ZM215.952 168.455V169.818H212.01V168.455H215.952ZM212.905 166.886H214.721V172.989C214.721 173.156 214.746 173.287 214.797 173.381C214.848 173.472 214.919 173.536 215.01 173.572C215.104 173.609 215.212 173.628 215.334 173.628C215.419 173.628 215.505 173.621 215.59 173.607C215.675 173.589 215.74 173.577 215.786 173.568L216.071 174.919C215.98 174.947 215.853 174.98 215.688 175.017C215.523 175.057 215.323 175.081 215.087 175.089C214.65 175.107 214.266 175.048 213.936 174.915C213.61 174.781 213.355 174.574 213.174 174.293C212.992 174.011 212.902 173.656 212.905 173.227V166.886Z" fill="black"/>
<path d="M131.207 133.111H129.878C129.827 132.827 129.732 132.577 129.592 132.361C129.453 132.145 129.283 131.962 129.081 131.811C128.879 131.661 128.653 131.547 128.403 131.47C128.156 131.393 127.893 131.355 127.615 131.355C127.112 131.355 126.662 131.482 126.264 131.734C125.869 131.987 125.557 132.358 125.327 132.847C125.099 133.335 124.986 133.932 124.986 134.636C124.986 135.347 125.099 135.946 125.327 136.435C125.557 136.923 125.871 137.293 126.268 137.543C126.666 137.793 127.114 137.918 127.611 137.918C127.886 137.918 128.148 137.881 128.395 137.807C128.645 137.73 128.871 137.618 129.072 137.47C129.274 137.322 129.445 137.142 129.584 136.929C129.726 136.713 129.824 136.466 129.878 136.188L131.207 136.192C131.136 136.621 130.999 137.016 130.794 137.376C130.592 137.734 130.332 138.044 130.014 138.305C129.699 138.564 129.338 138.764 128.932 138.906C128.526 139.048 128.082 139.119 127.602 139.119C126.847 139.119 126.173 138.94 125.582 138.582C124.991 138.222 124.526 137.706 124.185 137.036C123.847 136.365 123.678 135.565 123.678 134.636C123.678 133.705 123.848 132.905 124.189 132.237C124.53 131.567 124.996 131.053 125.587 130.695C126.178 130.334 126.849 130.153 127.602 130.153C128.065 130.153 128.497 130.22 128.898 130.354C129.301 130.484 129.663 130.678 129.984 130.933C130.305 131.186 130.571 131.496 130.781 131.862C130.991 132.226 131.134 132.642 131.207 133.111ZM135.438 139.132C134.824 139.132 134.289 138.991 133.831 138.71C133.374 138.429 133.019 138.036 132.766 137.53C132.513 137.024 132.387 136.433 132.387 135.757C132.387 135.078 132.513 134.484 132.766 133.976C133.019 133.467 133.374 133.072 133.831 132.791C134.289 132.51 134.824 132.369 135.438 132.369C136.051 132.369 136.587 132.51 137.044 132.791C137.502 133.072 137.857 133.467 138.11 133.976C138.363 134.484 138.489 135.078 138.489 135.757C138.489 136.433 138.363 137.024 138.11 137.53C137.857 138.036 137.502 138.429 137.044 138.71C136.587 138.991 136.051 139.132 135.438 139.132ZM135.442 138.062C135.84 138.062 136.169 137.957 136.431 137.747C136.692 137.537 136.885 137.257 137.01 136.908C137.138 136.558 137.202 136.173 137.202 135.753C137.202 135.335 137.138 134.952 137.01 134.602C136.885 134.25 136.692 133.967 136.431 133.754C136.169 133.541 135.84 133.435 135.442 133.435C135.042 133.435 134.709 133.541 134.445 133.754C134.184 133.967 133.989 134.25 133.861 134.602C133.736 134.952 133.674 135.335 133.674 135.753C133.674 136.173 133.736 136.558 133.861 136.908C133.989 137.257 134.184 137.537 134.445 137.747C134.709 137.957 135.042 138.062 135.442 138.062ZM141.185 130.273V139H139.911V130.273H141.185ZM144.174 130.273V139H142.9V130.273H144.174ZM147.793 139.145C147.378 139.145 147.003 139.068 146.668 138.915C146.332 138.759 146.067 138.533 145.871 138.237C145.678 137.942 145.581 137.58 145.581 137.151C145.581 136.781 145.652 136.477 145.794 136.239C145.936 136 146.128 135.811 146.369 135.672C146.611 135.533 146.881 135.428 147.179 135.357C147.477 135.286 147.781 135.232 148.091 135.195C148.483 135.149 148.801 135.112 149.045 135.084C149.29 135.053 149.467 135.003 149.578 134.935C149.689 134.866 149.744 134.756 149.744 134.602V134.572C149.744 134.2 149.639 133.912 149.429 133.707C149.222 133.503 148.912 133.401 148.5 133.401C148.071 133.401 147.733 133.496 147.486 133.686C147.241 133.874 147.072 134.082 146.979 134.312L145.781 134.04C145.923 133.642 146.131 133.321 146.403 133.077C146.679 132.83 146.996 132.651 147.354 132.54C147.712 132.426 148.088 132.369 148.483 132.369C148.744 132.369 149.021 132.401 149.314 132.463C149.609 132.523 149.885 132.634 150.141 132.795C150.399 132.957 150.611 133.189 150.776 133.49C150.94 133.788 151.023 134.176 151.023 134.653V139H149.778V138.105H149.727C149.645 138.27 149.521 138.432 149.357 138.591C149.192 138.75 148.98 138.882 148.722 138.987C148.463 139.092 148.153 139.145 147.793 139.145ZM148.07 138.122C148.422 138.122 148.723 138.053 148.973 137.913C149.226 137.774 149.418 137.592 149.548 137.368C149.682 137.141 149.749 136.898 149.749 136.639V135.795C149.703 135.841 149.615 135.884 149.484 135.923C149.357 135.96 149.21 135.993 149.045 136.021C148.881 136.047 148.72 136.071 148.564 136.094C148.408 136.114 148.277 136.131 148.172 136.145C147.925 136.176 147.699 136.229 147.494 136.303C147.293 136.376 147.131 136.483 147.009 136.622C146.889 136.759 146.83 136.94 146.83 137.168C146.83 137.483 146.946 137.722 147.179 137.884C147.412 138.043 147.709 138.122 148.07 138.122ZM152.822 139V130.273H154.096V133.516H154.173C154.247 133.379 154.353 133.222 154.493 133.043C154.632 132.864 154.825 132.707 155.072 132.574C155.319 132.438 155.646 132.369 156.052 132.369C156.581 132.369 157.052 132.503 157.467 132.77C157.882 133.037 158.207 133.422 158.443 133.925C158.681 134.428 158.801 135.033 158.801 135.74C158.801 136.447 158.683 137.054 158.447 137.56C158.211 138.062 157.887 138.45 157.475 138.723C157.064 138.993 156.593 139.128 156.065 139.128C155.667 139.128 155.342 139.061 155.089 138.928C154.839 138.794 154.643 138.638 154.501 138.459C154.359 138.28 154.25 138.121 154.173 137.982H154.066V139H152.822ZM154.071 135.727C154.071 136.187 154.137 136.591 154.271 136.938C154.404 137.284 154.598 137.555 154.85 137.751C155.103 137.945 155.413 138.041 155.779 138.041C156.16 138.041 156.478 137.94 156.734 137.739C156.99 137.534 157.183 137.257 157.314 136.908C157.447 136.558 157.514 136.165 157.514 135.727C157.514 135.295 157.449 134.908 157.318 134.564C157.19 134.22 156.997 133.949 156.738 133.75C156.483 133.551 156.163 133.452 155.779 133.452C155.41 133.452 155.098 133.547 154.842 133.737C154.589 133.928 154.397 134.193 154.267 134.534C154.136 134.875 154.071 135.273 154.071 135.727ZM160.334 139V130.273H161.651V134.44H161.757L165.418 130.273H167.075L163.555 134.202L167.088 139H165.503L162.682 135.101L161.651 136.286V139H160.334ZM168.61 139V132.455H169.885V139H168.61ZM169.254 131.445C169.032 131.445 168.842 131.371 168.683 131.223C168.527 131.072 168.449 130.893 168.449 130.686C168.449 130.476 168.527 130.297 168.683 130.149C168.842 129.999 169.032 129.923 169.254 129.923C169.475 129.923 169.664 129.999 169.821 130.149C169.98 130.297 170.059 130.476 170.059 130.686C170.059 130.893 169.98 131.072 169.821 131.223C169.664 131.371 169.475 131.445 169.254 131.445ZM174.654 132.455V133.477H171.079V132.455H174.654ZM172.038 130.886H173.312V137.078C173.312 137.325 173.349 137.511 173.423 137.636C173.496 137.759 173.592 137.842 173.708 137.888C173.827 137.93 173.957 137.952 174.096 137.952C174.198 137.952 174.288 137.945 174.364 137.93C174.441 137.916 174.501 137.905 174.543 137.896L174.773 138.949C174.7 138.977 174.594 139.006 174.458 139.034C174.322 139.065 174.151 139.082 173.947 139.085C173.612 139.091 173.299 139.031 173.009 138.906C172.719 138.781 172.485 138.588 172.306 138.327C172.127 138.065 172.038 137.737 172.038 137.342V130.886Z" fill="black"/>
<path d="M96.1705 194.909V208H94.5852V194.909H96.1705ZM105.715 194.909V208H104.207V194.909H105.715ZM112.467 208.205C111.581 208.205 110.803 207.994 110.134 207.572C109.469 207.15 108.949 206.56 108.574 205.801C108.203 205.043 108.018 204.156 108.018 203.142C108.018 202.119 108.203 201.227 108.574 200.464C108.949 199.701 109.469 199.109 110.134 198.687C110.803 198.265 111.581 198.054 112.467 198.054C113.353 198.054 114.129 198.265 114.794 198.687C115.463 199.109 115.983 199.701 116.353 200.464C116.728 201.227 116.916 202.119 116.916 203.142C116.916 204.156 116.728 205.043 116.353 205.801C115.983 206.56 115.463 207.15 114.794 207.572C114.129 207.994 113.353 208.205 112.467 208.205ZM112.467 206.849C113.14 206.849 113.694 206.677 114.129 206.332C114.564 205.987 114.885 205.533 115.094 204.97C115.303 204.408 115.407 203.798 115.407 203.142C115.407 202.486 115.303 201.874 115.094 201.308C114.885 200.741 114.564 200.283 114.129 199.933C113.694 199.584 113.14 199.409 112.467 199.409C111.794 199.409 111.24 199.584 110.805 199.933C110.37 200.283 110.049 200.741 109.84 201.308C109.631 201.874 109.527 202.486 109.527 203.142C109.527 203.798 109.631 204.408 109.84 204.97C110.049 205.533 110.37 205.987 110.805 206.332C111.24 206.677 111.794 206.849 112.467 206.849ZM126.895 198.182L123.265 208H121.731L118.1 198.182H119.736L122.447 206.006H122.549L125.259 198.182H126.895ZM132.651 208.205C131.705 208.205 130.889 207.996 130.203 207.578C129.521 207.156 128.995 206.568 128.624 205.814C128.258 205.055 128.075 204.173 128.075 203.168C128.075 202.162 128.258 201.276 128.624 200.509C128.995 199.737 129.511 199.136 130.171 198.706C130.836 198.271 131.612 198.054 132.498 198.054C133.009 198.054 133.514 198.139 134.013 198.31C134.512 198.48 134.965 198.757 135.374 199.141C135.784 199.52 136.11 200.023 136.352 200.649C136.595 201.276 136.717 202.047 136.717 202.963V203.602H129.149V202.298H135.183C135.183 201.744 135.072 201.25 134.85 200.815C134.633 200.381 134.322 200.038 133.917 199.786C133.517 199.535 133.044 199.409 132.498 199.409C131.897 199.409 131.377 199.558 130.938 199.857C130.504 200.151 130.169 200.534 129.935 201.007C129.7 201.48 129.583 201.987 129.583 202.528V203.398C129.583 204.139 129.711 204.768 129.967 205.283C130.227 205.795 130.587 206.185 131.047 206.453C131.507 206.717 132.042 206.849 132.651 206.849C133.048 206.849 133.406 206.794 133.725 206.683C134.049 206.568 134.328 206.398 134.563 206.172C134.797 205.942 134.978 205.656 135.106 205.315L136.563 205.724C136.41 206.219 136.152 206.653 135.79 207.028C135.428 207.399 134.98 207.689 134.448 207.898C133.915 208.102 133.316 208.205 132.651 208.205ZM148.344 198.182V199.46H143.256V198.182H148.344ZM144.739 195.83H146.247V205.188C146.247 205.614 146.309 205.933 146.433 206.146C146.561 206.355 146.722 206.496 146.919 206.568C147.119 206.636 147.33 206.67 147.551 206.67C147.718 206.67 147.854 206.662 147.96 206.645C148.067 206.624 148.152 206.607 148.216 206.594L148.523 207.949C148.421 207.987 148.278 208.026 148.095 208.064C147.911 208.107 147.679 208.128 147.398 208.128C146.972 208.128 146.554 208.036 146.145 207.853C145.74 207.67 145.404 207.391 145.135 207.016C144.871 206.641 144.739 206.168 144.739 205.597V195.83ZM152.333 202.094V208H150.824V194.909H152.333V199.716H152.46C152.691 199.209 153.036 198.806 153.496 198.508C153.96 198.205 154.578 198.054 155.35 198.054C156.019 198.054 156.605 198.188 157.107 198.457C157.61 198.721 158 199.128 158.277 199.678C158.558 200.223 158.699 200.918 158.699 201.761V208H157.191V201.864C157.191 201.084 156.988 200.481 156.583 200.055C156.183 199.624 155.627 199.409 154.915 199.409C154.421 199.409 153.977 199.513 153.585 199.722C153.198 199.931 152.891 200.236 152.665 200.636C152.443 201.037 152.333 201.523 152.333 202.094ZM165.575 208.205C164.629 208.205 163.813 207.996 163.127 207.578C162.445 207.156 161.919 206.568 161.548 205.814C161.182 205.055 160.999 204.173 160.999 203.168C160.999 202.162 161.182 201.276 161.548 200.509C161.919 199.737 162.435 199.136 163.095 198.706C163.76 198.271 164.536 198.054 165.422 198.054C165.933 198.054 166.438 198.139 166.937 198.31C167.435 198.48 167.889 198.757 168.298 199.141C168.707 199.52 169.033 200.023 169.276 200.649C169.519 201.276 169.641 202.047 169.641 202.963V203.602H162.072V202.298H168.107C168.107 201.744 167.996 201.25 167.774 200.815C167.557 200.381 167.246 200.038 166.841 199.786C166.44 199.535 165.967 199.409 165.422 199.409C164.821 199.409 164.301 199.558 163.862 199.857C163.428 200.151 163.093 200.534 162.859 201.007C162.624 201.48 162.507 201.987 162.507 202.528V203.398C162.507 204.139 162.635 204.768 162.891 205.283C163.151 205.795 163.511 206.185 163.971 206.453C164.431 206.717 164.966 206.849 165.575 206.849C165.972 206.849 166.33 206.794 166.649 206.683C166.973 206.568 167.252 206.398 167.487 206.172C167.721 205.942 167.902 205.656 168.03 205.315L169.487 205.724C169.334 206.219 169.076 206.653 168.714 207.028C168.352 207.399 167.904 207.689 167.371 207.898C166.839 208.102 166.24 208.205 165.575 208.205ZM178.89 200.381L177.535 200.764C177.45 200.538 177.324 200.319 177.158 200.106C176.996 199.888 176.774 199.71 176.493 199.569C176.212 199.428 175.852 199.358 175.413 199.358C174.812 199.358 174.311 199.496 173.911 199.773C173.514 200.046 173.316 200.393 173.316 200.815C173.316 201.19 173.452 201.487 173.725 201.704C173.998 201.921 174.424 202.102 175.004 202.247L176.461 202.605C177.339 202.818 177.993 203.144 178.423 203.583C178.854 204.018 179.069 204.578 179.069 205.264C179.069 205.827 178.907 206.33 178.583 206.773C178.263 207.216 177.816 207.565 177.241 207.821C176.665 208.077 175.996 208.205 175.234 208.205C174.232 208.205 173.403 207.987 172.747 207.553C172.091 207.118 171.675 206.483 171.501 205.648L172.933 205.29C173.069 205.818 173.327 206.214 173.706 206.479C174.089 206.743 174.59 206.875 175.208 206.875C175.911 206.875 176.469 206.726 176.883 206.428C177.3 206.125 177.509 205.763 177.509 205.341C177.509 205 177.39 204.714 177.151 204.484C176.913 204.25 176.546 204.075 176.052 203.96L174.415 203.577C173.516 203.364 172.856 203.033 172.434 202.586C172.016 202.134 171.808 201.57 171.808 200.892C171.808 200.338 171.963 199.848 172.274 199.422C172.589 198.996 173.018 198.661 173.559 198.418C174.104 198.175 174.722 198.054 175.413 198.054C176.384 198.054 177.147 198.267 177.701 198.693C178.259 199.119 178.656 199.682 178.89 200.381ZM185.456 208.205C184.51 208.205 183.694 207.996 183.008 207.578C182.326 207.156 181.8 206.568 181.429 205.814C181.063 205.055 180.879 204.173 180.879 203.168C180.879 202.162 181.063 201.276 181.429 200.509C181.8 199.737 182.316 199.136 182.976 198.706C183.641 198.271 184.416 198.054 185.303 198.054C185.814 198.054 186.319 198.139 186.818 198.31C187.316 198.48 187.77 198.757 188.179 199.141C188.588 199.52 188.914 200.023 189.157 200.649C189.4 201.276 189.521 202.047 189.521 202.963V203.602H181.953V202.298H187.987C187.987 201.744 187.877 201.25 187.655 200.815C187.438 200.381 187.127 200.038 186.722 199.786C186.321 199.535 185.848 199.409 185.303 199.409C184.702 199.409 184.182 199.558 183.743 199.857C183.308 200.151 182.974 200.534 182.74 201.007C182.505 201.48 182.388 201.987 182.388 202.528V203.398C182.388 204.139 182.516 204.768 182.771 205.283C183.031 205.795 183.392 206.185 183.852 206.453C184.312 206.717 184.847 206.849 185.456 206.849C185.852 206.849 186.21 206.794 186.53 206.683C186.854 206.568 187.133 206.398 187.367 206.172C187.602 205.942 187.783 205.656 187.911 205.315L189.368 205.724C189.215 206.219 188.957 206.653 188.595 207.028C188.232 207.399 187.785 207.689 187.252 207.898C186.72 208.102 186.121 208.205 185.456 208.205ZM200.586 208.205C199.768 208.205 199.046 207.998 198.419 207.585C197.793 207.167 197.303 206.579 196.949 205.82C196.595 205.058 196.419 204.156 196.419 203.116C196.419 202.085 196.595 201.19 196.949 200.432C197.303 199.673 197.795 199.087 198.426 198.674C199.056 198.261 199.785 198.054 200.612 198.054C201.251 198.054 201.756 198.161 202.127 198.374C202.502 198.582 202.787 198.821 202.983 199.089C203.183 199.354 203.339 199.571 203.45 199.741H203.578V194.909H205.086V208H203.629V206.491H203.45C203.339 206.67 203.181 206.896 202.977 207.169C202.772 207.437 202.48 207.678 202.101 207.891C201.722 208.1 201.217 208.205 200.586 208.205ZM200.791 206.849C201.396 206.849 201.907 206.692 202.325 206.376C202.742 206.057 203.06 205.616 203.277 205.053C203.494 204.487 203.603 203.832 203.603 203.091C203.603 202.358 203.497 201.717 203.284 201.167C203.07 200.613 202.755 200.183 202.338 199.876C201.92 199.565 201.404 199.409 200.791 199.409C200.151 199.409 199.619 199.573 199.193 199.901C198.771 200.225 198.453 200.666 198.24 201.224C198.031 201.778 197.927 202.401 197.927 203.091C197.927 203.79 198.034 204.425 198.247 204.996C198.464 205.562 198.784 206.014 199.205 206.351C199.632 206.683 200.16 206.849 200.791 206.849ZM212.175 208.205C211.229 208.205 210.413 207.996 209.727 207.578C209.045 207.156 208.519 206.568 208.148 205.814C207.781 205.055 207.598 204.173 207.598 203.168C207.598 202.162 207.781 201.276 208.148 200.509C208.519 199.737 209.034 199.136 209.695 198.706C210.36 198.271 211.135 198.054 212.021 198.054C212.533 198.054 213.038 198.139 213.536 198.31C214.035 198.48 214.489 198.757 214.898 199.141C215.307 199.52 215.633 200.023 215.876 200.649C216.119 201.276 216.24 202.047 216.24 202.963V203.602H208.672V202.298H214.706C214.706 201.744 214.595 201.25 214.374 200.815C214.156 200.381 213.845 200.038 213.441 199.786C213.04 199.535 212.567 199.409 212.021 199.409C211.421 199.409 210.901 199.558 210.462 199.857C210.027 200.151 209.693 200.534 209.458 201.007C209.224 201.48 209.107 201.987 209.107 202.528V203.398C209.107 204.139 209.235 204.768 209.49 205.283C209.75 205.795 210.11 206.185 210.57 206.453C211.031 206.717 211.566 206.849 212.175 206.849C212.571 206.849 212.929 206.794 213.249 206.683C213.573 206.568 213.852 206.398 214.086 206.172C214.32 205.942 214.502 205.656 214.629 205.315L216.087 205.724C215.933 206.219 215.676 206.653 215.313 207.028C214.951 207.399 214.504 207.689 213.971 207.898C213.438 208.102 212.84 208.205 212.175 208.205ZM225.49 200.381L224.134 200.764C224.049 200.538 223.923 200.319 223.757 200.106C223.595 199.888 223.374 199.71 223.093 199.569C222.811 199.428 222.451 199.358 222.012 199.358C221.411 199.358 220.911 199.496 220.51 199.773C220.114 200.046 219.916 200.393 219.916 200.815C219.916 201.19 220.052 201.487 220.325 201.704C220.597 201.921 221.024 202.102 221.603 202.247L223.061 202.605C223.938 202.818 224.593 203.144 225.023 203.583C225.453 204.018 225.669 204.578 225.669 205.264C225.669 205.827 225.507 206.33 225.183 206.773C224.863 207.216 224.416 207.565 223.84 207.821C223.265 208.077 222.596 208.205 221.833 208.205C220.832 208.205 220.003 207.987 219.347 207.553C218.691 207.118 218.275 206.483 218.1 205.648L219.532 205.29C219.669 205.818 219.926 206.214 220.306 206.479C220.689 206.743 221.19 206.875 221.808 206.875C222.511 206.875 223.069 206.726 223.482 206.428C223.9 206.125 224.109 205.763 224.109 205.341C224.109 205 223.99 204.714 223.751 204.484C223.512 204.25 223.146 204.075 222.651 203.96L221.015 203.577C220.116 203.364 219.455 203.033 219.034 202.586C218.616 202.134 218.407 201.57 218.407 200.892C218.407 200.338 218.563 199.848 218.874 199.422C219.189 198.996 219.617 198.661 220.159 198.418C220.704 198.175 221.322 198.054 222.012 198.054C222.984 198.054 223.747 198.267 224.301 198.693C224.859 199.119 225.255 199.682 225.49 200.381ZM227.939 208V198.182H229.448V208H227.939ZM228.706 196.545C228.412 196.545 228.159 196.445 227.946 196.245C227.737 196.045 227.632 195.804 227.632 195.523C227.632 195.241 227.737 195.001 227.946 194.8C228.159 194.6 228.412 194.5 228.706 194.5C229 194.5 229.252 194.6 229.461 194.8C229.674 195.001 229.78 195.241 229.78 195.523C229.78 195.804 229.674 196.045 229.461 196.245C229.252 196.445 229 196.545 228.706 196.545ZM236.174 211.886C235.445 211.886 234.819 211.793 234.295 211.605C233.77 211.422 233.334 211.179 232.984 210.876C232.639 210.578 232.364 210.259 232.16 209.918L233.361 209.074C233.498 209.253 233.67 209.457 233.879 209.688C234.088 209.922 234.373 210.124 234.736 210.295C235.102 210.469 235.581 210.557 236.174 210.557C236.966 210.557 237.621 210.365 238.136 209.982C238.652 209.598 238.91 208.997 238.91 208.179V206.185H238.782C238.671 206.364 238.513 206.585 238.309 206.849C238.108 207.109 237.819 207.342 237.439 207.546C237.064 207.746 236.557 207.847 235.918 207.847C235.126 207.847 234.414 207.659 233.783 207.284C233.157 206.909 232.66 206.364 232.294 205.648C231.932 204.932 231.751 204.062 231.751 203.04C231.751 202.034 231.927 201.158 232.281 200.413C232.635 199.663 233.127 199.083 233.758 198.674C234.388 198.261 235.117 198.054 235.944 198.054C236.583 198.054 237.09 198.161 237.465 198.374C237.844 198.582 238.134 198.821 238.334 199.089C238.539 199.354 238.697 199.571 238.807 199.741H238.961V198.182H240.418V208.281C240.418 209.125 240.226 209.811 239.843 210.339C239.464 210.872 238.952 211.262 238.309 211.509C237.67 211.761 236.958 211.886 236.174 211.886ZM236.123 206.491C236.728 206.491 237.239 206.353 237.657 206.076C238.074 205.799 238.392 205.401 238.609 204.881C238.827 204.361 238.935 203.739 238.935 203.014C238.935 202.307 238.829 201.683 238.616 201.141C238.403 200.6 238.087 200.176 237.67 199.869C237.252 199.562 236.736 199.409 236.123 199.409C235.483 199.409 234.951 199.571 234.525 199.895C234.103 200.219 233.785 200.653 233.572 201.199C233.363 201.744 233.259 202.349 233.259 203.014C233.259 203.696 233.366 204.299 233.579 204.823C233.796 205.343 234.116 205.752 234.537 206.05C234.964 206.344 235.492 206.491 236.123 206.491ZM244.688 202.094V208H243.18V198.182H244.637V199.716H244.765C244.995 199.217 245.344 198.817 245.813 198.514C246.282 198.207 246.887 198.054 247.628 198.054C248.293 198.054 248.875 198.19 249.373 198.463C249.872 198.732 250.26 199.141 250.537 199.69C250.814 200.236 250.952 200.926 250.952 201.761V208H249.444V201.864C249.444 201.092 249.243 200.491 248.843 200.061C248.442 199.626 247.893 199.409 247.194 199.409C246.712 199.409 246.282 199.513 245.903 199.722C245.528 199.931 245.231 200.236 245.014 200.636C244.797 201.037 244.688 201.523 244.688 202.094ZM260.663 200.381L259.308 200.764C259.223 200.538 259.097 200.319 258.931 200.106C258.769 199.888 258.548 199.71 258.266 199.569C257.985 199.428 257.625 199.358 257.186 199.358C256.585 199.358 256.085 199.496 255.684 199.773C255.288 200.046 255.089 200.393 255.089 200.815C255.089 201.19 255.226 201.487 255.499 201.704C255.771 201.921 256.197 202.102 256.777 202.247L258.234 202.605C259.112 202.818 259.766 203.144 260.197 203.583C260.627 204.018 260.842 204.578 260.842 205.264C260.842 205.827 260.68 206.33 260.357 206.773C260.037 207.216 259.589 207.565 259.014 207.821C258.439 208.077 257.77 208.205 257.007 208.205C256.006 208.205 255.177 207.987 254.521 207.553C253.864 207.118 253.449 206.483 253.274 205.648L254.706 205.29C254.842 205.818 255.1 206.214 255.479 206.479C255.863 206.743 256.364 206.875 256.982 206.875C257.685 206.875 258.243 206.726 258.656 206.428C259.074 206.125 259.283 205.763 259.283 205.341C259.283 205 259.163 204.714 258.925 204.484C258.686 204.25 258.32 204.075 257.825 203.96L256.189 203.577C255.29 203.364 254.629 203.033 254.207 202.586C253.79 202.134 253.581 201.57 253.581 200.892C253.581 200.338 253.737 199.848 254.048 199.422C254.363 198.996 254.791 198.661 255.332 198.418C255.878 198.175 256.496 198.054 257.186 198.054C258.158 198.054 258.92 198.267 259.474 198.693C260.033 199.119 260.429 199.682 260.663 200.381ZM265.363 206.21L265.261 206.901C265.188 207.386 265.078 207.906 264.928 208.46C264.784 209.014 264.632 209.536 264.475 210.026C264.317 210.516 264.187 210.906 264.085 211.196H262.934C262.99 210.923 263.062 210.563 263.151 210.116C263.241 209.668 263.33 209.168 263.42 208.614C263.514 208.064 263.59 207.501 263.65 206.926L263.727 206.21H265.363ZM277.209 208.205C276.289 208.205 275.496 207.987 274.831 207.553C274.167 207.118 273.655 206.519 273.297 205.756C272.939 204.994 272.76 204.122 272.76 203.142C272.76 202.145 272.944 201.265 273.31 200.502C273.681 199.735 274.196 199.136 274.857 198.706C275.522 198.271 276.297 198.054 277.184 198.054C277.874 198.054 278.496 198.182 279.05 198.438C279.604 198.693 280.058 199.051 280.412 199.511C280.765 199.972 280.985 200.509 281.07 201.122H279.561C279.446 200.675 279.191 200.278 278.794 199.933C278.402 199.584 277.874 199.409 277.209 199.409C276.621 199.409 276.105 199.562 275.662 199.869C275.223 200.172 274.88 200.6 274.633 201.154C274.39 201.704 274.269 202.349 274.269 203.091C274.269 203.849 274.388 204.51 274.627 205.072C274.87 205.635 275.211 206.072 275.65 206.383C276.093 206.694 276.613 206.849 277.209 206.849C277.601 206.849 277.957 206.781 278.277 206.645C278.596 206.509 278.867 206.312 279.088 206.057C279.31 205.801 279.468 205.494 279.561 205.136H281.07C280.985 205.716 280.774 206.238 280.437 206.702C280.105 207.163 279.664 207.529 279.114 207.802C278.569 208.07 277.934 208.205 277.209 208.205ZM286.164 208.23C285.542 208.23 284.978 208.113 284.471 207.879C283.963 207.64 283.561 207.297 283.262 206.849C282.964 206.398 282.815 205.852 282.815 205.213C282.815 204.651 282.926 204.195 283.147 203.845C283.369 203.491 283.665 203.214 284.036 203.014C284.407 202.814 284.816 202.665 285.263 202.567C285.715 202.464 286.169 202.384 286.625 202.324C287.221 202.247 287.705 202.19 288.076 202.151C288.451 202.109 288.723 202.038 288.894 201.94C289.069 201.842 289.156 201.672 289.156 201.429V201.378C289.156 200.747 288.983 200.257 288.638 199.908C288.297 199.558 287.779 199.384 287.085 199.384C286.365 199.384 285.8 199.541 285.391 199.857C284.982 200.172 284.694 200.509 284.528 200.866L283.096 200.355C283.352 199.759 283.693 199.294 284.119 198.962C284.549 198.625 285.018 198.391 285.525 198.259C286.037 198.122 286.539 198.054 287.034 198.054C287.349 198.054 287.711 198.092 288.12 198.169C288.534 198.241 288.932 198.393 289.316 198.623C289.703 198.853 290.025 199.2 290.281 199.665C290.537 200.129 290.664 200.751 290.664 201.531V208H289.156V206.67H289.079C288.977 206.884 288.806 207.112 288.568 207.354C288.329 207.597 288.012 207.804 287.615 207.974C287.219 208.145 286.735 208.23 286.164 208.23ZM286.395 206.875C286.991 206.875 287.494 206.758 287.903 206.523C288.316 206.289 288.627 205.987 288.836 205.616C289.049 205.245 289.156 204.855 289.156 204.446V203.065C289.092 203.142 288.951 203.212 288.734 203.276C288.521 203.336 288.274 203.389 287.993 203.436C287.716 203.479 287.445 203.517 287.181 203.551C286.921 203.581 286.71 203.607 286.548 203.628C286.156 203.679 285.789 203.762 285.449 203.877C285.112 203.988 284.839 204.156 284.63 204.382C284.426 204.604 284.324 204.906 284.324 205.29C284.324 205.814 284.517 206.21 284.905 206.479C285.297 206.743 285.794 206.875 286.395 206.875ZM294.926 202.094V208H293.418V198.182H294.875V199.716H295.003C295.233 199.217 295.583 198.817 296.051 198.514C296.52 198.207 297.125 198.054 297.867 198.054C298.531 198.054 299.113 198.19 299.612 198.463C300.11 198.732 300.498 199.141 300.775 199.69C301.052 200.236 301.191 200.926 301.191 201.761V208H299.682V201.864C299.682 201.092 299.482 200.491 299.081 200.061C298.681 199.626 298.131 199.409 297.432 199.409C296.95 199.409 296.52 199.513 296.141 199.722C295.766 199.931 295.47 200.236 295.252 200.636C295.035 201.037 294.926 201.523 294.926 202.094ZM311.234 208L308.243 198.182H309.828L311.95 205.699H312.052L314.149 198.182H315.76L317.831 205.673H317.933L320.055 198.182H321.64L318.649 208H317.166L315.018 200.457H314.865L312.717 208H311.234ZM327.417 208.205C326.471 208.205 325.655 207.996 324.969 207.578C324.287 207.156 323.761 206.568 323.39 205.814C323.024 205.055 322.84 204.173 322.84 203.168C322.84 202.162 323.024 201.276 323.39 200.509C323.761 199.737 324.276 199.136 324.937 198.706C325.602 198.271 326.377 198.054 327.264 198.054C327.775 198.054 328.28 198.139 328.779 198.31C329.277 198.48 329.731 198.757 330.14 199.141C330.549 199.52 330.875 200.023 331.118 200.649C331.361 201.276 331.482 202.047 331.482 202.963V203.602H323.914V202.298H329.948C329.948 201.744 329.838 201.25 329.616 200.815C329.399 200.381 329.088 200.038 328.683 199.786C328.282 199.535 327.809 199.409 327.264 199.409C326.663 199.409 326.143 199.558 325.704 199.857C325.269 200.151 324.935 200.534 324.7 201.007C324.466 201.48 324.349 201.987 324.349 202.528V203.398C324.349 204.139 324.477 204.768 324.732 205.283C324.992 205.795 325.352 206.185 325.813 206.453C326.273 206.717 326.808 206.849 327.417 206.849C327.813 206.849 328.171 206.794 328.491 206.683C328.815 206.568 329.094 206.398 329.328 206.172C329.563 205.942 329.744 205.656 329.872 205.315L331.329 205.724C331.176 206.219 330.918 206.653 330.556 207.028C330.193 207.399 329.746 207.689 329.213 207.898C328.681 208.102 328.082 208.205 327.417 208.205ZM101.335 226.381L99.9801 226.764C99.8949 226.538 99.7692 226.319 99.603 226.106C99.4411 225.888 99.2195 225.71 98.9382 225.569C98.657 225.428 98.2969 225.358 97.858 225.358C97.2571 225.358 96.7564 225.496 96.3558 225.773C95.9595 226.046 95.7614 226.393 95.7614 226.815C95.7614 227.19 95.8977 227.487 96.1705 227.704C96.4432 227.921 96.8693 228.102 97.4489 228.247L98.9062 228.605C99.7841 228.818 100.438 229.144 100.869 229.583C101.299 230.018 101.514 230.578 101.514 231.264C101.514 231.827 101.352 232.33 101.028 232.773C100.709 233.216 100.261 233.565 99.6861 233.821C99.1108 234.077 98.4418 234.205 97.679 234.205C96.6776 234.205 95.8487 233.987 95.1925 233.553C94.5362 233.118 94.1207 232.483 93.946 231.648L95.3778 231.29C95.5142 231.818 95.772 232.214 96.1513 232.479C96.5348 232.743 97.0355 232.875 97.6534 232.875C98.3565 232.875 98.9148 232.726 99.3281 232.428C99.7457 232.125 99.9545 231.763 99.9545 231.341C99.9545 231 99.8352 230.714 99.5966 230.484C99.358 230.25 98.9915 230.075 98.4972 229.96L96.8608 229.577C95.9616 229.364 95.3011 229.033 94.8793 228.586C94.4616 228.134 94.2528 227.57 94.2528 226.892C94.2528 226.338 94.4084 225.848 94.7195 225.422C95.0348 224.996 95.4631 224.661 96.0043 224.418C96.5497 224.175 97.1676 224.054 97.858 224.054C98.8295 224.054 99.5923 224.267 100.146 224.693C100.705 225.119 101.101 225.682 101.335 226.381ZM107.901 234.205C106.955 234.205 106.139 233.996 105.453 233.578C104.771 233.156 104.245 232.568 103.874 231.814C103.508 231.055 103.325 230.173 103.325 229.168C103.325 228.162 103.508 227.276 103.874 226.509C104.245 225.737 104.761 225.136 105.421 224.706C106.086 224.271 106.862 224.054 107.748 224.054C108.259 224.054 108.764 224.139 109.263 224.31C109.762 224.48 110.215 224.757 110.624 225.141C111.034 225.52 111.36 226.023 111.602 226.649C111.845 227.276 111.967 228.047 111.967 228.963V229.602H104.399V228.298H110.433C110.433 227.744 110.322 227.25 110.1 226.815C109.883 226.381 109.572 226.038 109.167 225.786C108.767 225.535 108.294 225.409 107.748 225.409C107.147 225.409 106.627 225.558 106.188 225.857C105.754 226.151 105.419 226.534 105.185 227.007C104.95 227.48 104.833 227.987 104.833 228.528V229.398C104.833 230.139 104.961 230.768 105.217 231.283C105.477 231.795 105.837 232.185 106.297 232.453C106.757 232.717 107.292 232.849 107.901 232.849C108.298 232.849 108.656 232.794 108.975 232.683C109.299 232.568 109.578 232.398 109.813 232.172C110.047 231.942 110.228 231.656 110.356 231.315L111.813 231.724C111.66 232.219 111.402 232.653 111.04 233.028C110.678 233.399 110.23 233.689 109.698 233.898C109.165 234.102 108.566 234.205 107.901 234.205ZM115.77 228.094V234H114.262V224.182H115.719V225.716H115.847C116.077 225.217 116.426 224.817 116.895 224.514C117.364 224.207 117.969 224.054 118.71 224.054C119.375 224.054 119.957 224.19 120.455 224.463C120.954 224.732 121.342 225.141 121.619 225.69C121.896 226.236 122.034 226.926 122.034 227.761V234H120.526V227.864C120.526 227.092 120.325 226.491 119.925 226.061C119.524 225.626 118.975 225.409 118.276 225.409C117.794 225.409 117.364 225.513 116.985 225.722C116.61 225.931 116.313 226.236 116.096 226.636C115.879 227.037 115.77 227.523 115.77 228.094ZM128.498 234.205C127.68 234.205 126.958 233.998 126.331 233.585C125.705 233.167 125.215 232.579 124.861 231.82C124.507 231.058 124.331 230.156 124.331 229.116C124.331 228.085 124.507 227.19 124.861 226.432C125.215 225.673 125.707 225.087 126.338 224.674C126.968 224.261 127.697 224.054 128.524 224.054C129.163 224.054 129.668 224.161 130.039 224.374C130.414 224.582 130.699 224.821 130.895 225.089C131.096 225.354 131.251 225.571 131.362 225.741H131.49V220.909H132.998V234H131.541V232.491H131.362C131.251 232.67 131.093 232.896 130.889 233.169C130.684 233.437 130.392 233.678 130.013 233.891C129.634 234.1 129.129 234.205 128.498 234.205ZM128.703 232.849C129.308 232.849 129.819 232.692 130.237 232.376C130.654 232.057 130.972 231.616 131.189 231.053C131.407 230.487 131.515 229.832 131.515 229.091C131.515 228.358 131.409 227.717 131.196 227.167C130.983 226.613 130.667 226.183 130.25 225.876C129.832 225.565 129.316 225.409 128.703 225.409C128.064 225.409 127.531 225.573 127.105 225.901C126.683 226.225 126.365 226.666 126.152 227.224C125.944 227.778 125.839 228.401 125.839 229.091C125.839 229.79 125.946 230.425 126.159 230.996C126.376 231.562 126.696 232.014 127.118 232.351C127.544 232.683 128.072 232.849 128.703 232.849ZM145.303 224.182V225.46H140.215V224.182H145.303ZM141.698 221.83H143.206V231.188C143.206 231.614 143.268 231.933 143.392 232.146C143.52 232.355 143.681 232.496 143.877 232.568C144.078 232.636 144.289 232.67 144.51 232.67C144.676 232.67 144.813 232.662 144.919 232.645C145.026 232.624 145.111 232.607 145.175 232.594L145.482 233.949C145.38 233.987 145.237 234.026 145.054 234.064C144.87 234.107 144.638 234.128 144.357 234.128C143.931 234.128 143.513 234.036 143.104 233.853C142.699 233.67 142.363 233.391 142.094 233.016C141.83 232.641 141.698 232.168 141.698 231.597V221.83ZM149.292 228.094V234H147.783V220.909H149.292V225.716H149.419C149.65 225.209 149.995 224.806 150.455 224.508C150.919 224.205 151.537 224.054 152.309 224.054C152.978 224.054 153.564 224.188 154.066 224.457C154.569 224.721 154.959 225.128 155.236 225.678C155.517 226.223 155.658 226.918 155.658 227.761V234H154.15V227.864C154.15 227.084 153.947 226.481 153.542 226.055C153.142 225.624 152.586 225.409 151.874 225.409C151.38 225.409 150.936 225.513 150.544 225.722C150.157 225.931 149.85 226.236 149.624 226.636C149.402 227.037 149.292 227.523 149.292 228.094ZM162.534 234.205C161.588 234.205 160.772 233.996 160.086 233.578C159.404 233.156 158.878 232.568 158.507 231.814C158.141 231.055 157.958 230.173 157.958 229.168C157.958 228.162 158.141 227.276 158.507 226.509C158.878 225.737 159.394 225.136 160.054 224.706C160.719 224.271 161.494 224.054 162.381 224.054C162.892 224.054 163.397 224.139 163.896 224.31C164.394 224.48 164.848 224.757 165.257 225.141C165.666 225.52 165.992 226.023 166.235 226.649C166.478 227.276 166.6 228.047 166.6 228.963V229.602H159.031V228.298H165.066C165.066 227.744 164.955 227.25 164.733 226.815C164.516 226.381 164.205 226.038 163.8 225.786C163.399 225.535 162.926 225.409 162.381 225.409C161.78 225.409 161.26 225.558 160.821 225.857C160.387 226.151 160.052 226.534 159.818 227.007C159.583 227.48 159.466 227.987 159.466 228.528V229.398C159.466 230.139 159.594 230.768 159.85 231.283C160.11 231.795 160.47 232.185 160.93 232.453C161.39 232.717 161.925 232.849 162.534 232.849C162.931 232.849 163.289 232.794 163.608 232.683C163.932 232.568 164.211 232.398 164.445 232.172C164.68 231.942 164.861 231.656 164.989 231.315L166.446 231.724C166.293 232.219 166.035 232.653 165.673 233.028C165.311 233.399 164.863 233.689 164.33 233.898C163.798 234.102 163.199 234.205 162.534 234.205ZM168.894 234V224.182H170.352V225.716H170.48C170.684 225.192 171.014 224.785 171.47 224.495C171.926 224.201 172.474 224.054 173.113 224.054C173.761 224.054 174.3 224.201 174.73 224.495C175.165 224.785 175.504 225.192 175.747 225.716H175.849C176.1 225.209 176.477 224.806 176.98 224.508C177.483 224.205 178.086 224.054 178.789 224.054C179.667 224.054 180.385 224.329 180.943 224.879C181.502 225.424 181.781 226.274 181.781 227.429V234H180.272V227.429C180.272 226.705 180.074 226.187 179.678 225.876C179.281 225.565 178.815 225.409 178.278 225.409C177.588 225.409 177.053 225.618 176.673 226.036C176.294 226.449 176.105 226.973 176.105 227.608V234H174.57V227.276C174.57 226.717 174.389 226.268 174.027 225.927C173.665 225.582 173.198 225.409 172.627 225.409C172.235 225.409 171.869 225.513 171.528 225.722C171.191 225.931 170.919 226.221 170.71 226.592C170.505 226.958 170.403 227.382 170.403 227.864V234H168.894ZM193.871 224.182V225.46H188.783V224.182H193.871ZM190.266 221.83H191.775V231.188C191.775 231.614 191.836 231.933 191.96 232.146C192.088 232.355 192.25 232.496 192.446 232.568C192.646 232.636 192.857 232.67 193.079 232.67C193.245 232.67 193.381 232.662 193.488 232.645C193.594 232.624 193.68 232.607 193.743 232.594L194.05 233.949C193.948 233.987 193.805 234.026 193.622 234.064C193.439 234.107 193.206 234.128 192.925 234.128C192.499 234.128 192.081 234.036 191.672 233.853C191.268 233.67 190.931 233.391 190.662 233.016C190.398 232.641 190.266 232.168 190.266 231.597V221.83ZM200.024 234.205C199.137 234.205 198.36 233.994 197.691 233.572C197.026 233.15 196.506 232.56 196.131 231.801C195.76 231.043 195.575 230.156 195.575 229.142C195.575 228.119 195.76 227.227 196.131 226.464C196.506 225.701 197.026 225.109 197.691 224.687C198.36 224.265 199.137 224.054 200.024 224.054C200.91 224.054 201.686 224.265 202.35 224.687C203.019 225.109 203.539 225.701 203.91 226.464C204.285 227.227 204.472 228.119 204.472 229.142C204.472 230.156 204.285 231.043 203.91 231.801C203.539 232.56 203.019 233.15 202.35 233.572C201.686 233.994 200.91 234.205 200.024 234.205ZM200.024 232.849C200.697 232.849 201.251 232.677 201.686 232.332C202.12 231.987 202.442 231.533 202.651 230.97C202.86 230.408 202.964 229.798 202.964 229.142C202.964 228.486 202.86 227.874 202.651 227.308C202.442 226.741 202.12 226.283 201.686 225.933C201.251 225.584 200.697 225.409 200.024 225.409C199.35 225.409 198.796 225.584 198.362 225.933C197.927 226.283 197.605 226.741 197.396 227.308C197.188 227.874 197.083 228.486 197.083 229.142C197.083 229.798 197.188 230.408 197.396 230.97C197.605 231.533 197.927 231.987 198.362 232.332C198.796 232.677 199.35 232.849 200.024 232.849ZM211.838 234V224.182H213.295V225.716H213.423C213.627 225.192 213.958 224.785 214.414 224.495C214.87 224.201 215.417 224.054 216.056 224.054C216.704 224.054 217.243 224.201 217.674 224.495C218.108 224.785 218.447 225.192 218.69 225.716H218.792C219.044 225.209 219.421 224.806 219.924 224.508C220.426 224.205 221.029 224.054 221.733 224.054C222.61 224.054 223.328 224.329 223.887 224.879C224.445 225.424 224.724 226.274 224.724 227.429V234H223.216V227.429C223.216 226.705 223.017 226.187 222.621 225.876C222.225 225.565 221.758 225.409 221.221 225.409C220.531 225.409 219.996 225.618 219.617 226.036C219.238 226.449 219.048 226.973 219.048 227.608V234H217.514V227.276C217.514 226.717 217.333 226.268 216.971 225.927C216.608 225.582 216.142 225.409 215.571 225.409C215.179 225.409 214.812 225.513 214.471 225.722C214.135 225.931 213.862 226.221 213.653 226.592C213.449 226.958 213.346 227.382 213.346 227.864V234H211.838ZM230.371 234.23C229.749 234.23 229.185 234.113 228.678 233.879C228.17 233.64 227.768 233.297 227.469 232.849C227.171 232.398 227.022 231.852 227.022 231.213C227.022 230.651 227.133 230.195 227.354 229.845C227.576 229.491 227.872 229.214 228.243 229.014C228.614 228.814 229.023 228.665 229.47 228.567C229.922 228.464 230.376 228.384 230.832 228.324C231.428 228.247 231.912 228.19 232.283 228.151C232.658 228.109 232.93 228.038 233.101 227.94C233.276 227.842 233.363 227.672 233.363 227.429V227.378C233.363 226.747 233.19 226.257 232.845 225.908C232.504 225.558 231.987 225.384 231.292 225.384C230.572 225.384 230.007 225.541 229.598 225.857C229.189 226.172 228.901 226.509 228.735 226.866L227.303 226.355C227.559 225.759 227.9 225.294 228.326 224.962C228.756 224.625 229.225 224.391 229.732 224.259C230.244 224.122 230.746 224.054 231.241 224.054C231.556 224.054 231.918 224.092 232.327 224.169C232.741 224.241 233.139 224.393 233.523 224.623C233.911 224.853 234.232 225.2 234.488 225.665C234.744 226.129 234.871 226.751 234.871 227.531V234H233.363V232.67H233.286C233.184 232.884 233.013 233.112 232.775 233.354C232.536 233.597 232.219 233.804 231.822 233.974C231.426 234.145 230.942 234.23 230.371 234.23ZM230.602 232.875C231.198 232.875 231.701 232.758 232.11 232.523C232.523 232.289 232.835 231.987 233.043 231.616C233.256 231.245 233.363 230.855 233.363 230.446V229.065C233.299 229.142 233.158 229.212 232.941 229.276C232.728 229.336 232.481 229.389 232.2 229.436C231.923 229.479 231.652 229.517 231.388 229.551C231.128 229.581 230.917 229.607 230.755 229.628C230.363 229.679 229.996 229.762 229.656 229.877C229.319 229.988 229.046 230.156 228.837 230.382C228.633 230.604 228.531 230.906 228.531 231.29C228.531 231.814 228.724 232.21 229.112 232.479C229.504 232.743 230.001 232.875 230.602 232.875ZM237.625 234V224.182H239.082V225.665H239.184C239.363 225.179 239.687 224.785 240.156 224.482C240.625 224.18 241.153 224.028 241.741 224.028C241.852 224.028 241.991 224.031 242.157 224.035C242.323 224.039 242.449 224.045 242.534 224.054V225.588C242.483 225.575 242.366 225.556 242.182 225.531C242.003 225.501 241.814 225.486 241.613 225.486C241.136 225.486 240.71 225.586 240.335 225.786C239.964 225.982 239.67 226.255 239.453 226.604C239.24 226.95 239.133 227.344 239.133 227.787V234H237.625ZM245.728 230.42L245.703 228.554H246.01L250.305 224.182H252.172L247.595 228.81H247.467L245.728 230.42ZM244.322 234V220.909H245.831V234H244.322ZM250.561 234L246.725 229.142L247.799 228.094L252.478 234H250.561ZM257.825 234.205C256.879 234.205 256.063 233.996 255.377 233.578C254.695 233.156 254.169 232.568 253.798 231.814C253.432 231.055 253.249 230.173 253.249 229.168C253.249 228.162 253.432 227.276 253.798 226.509C254.169 225.737 254.685 225.136 255.345 224.706C256.01 224.271 256.786 224.054 257.672 224.054C258.183 224.054 258.688 224.139 259.187 224.31C259.685 224.48 260.139 224.757 260.548 225.141C260.957 225.52 261.283 226.023 261.526 226.649C261.769 227.276 261.891 228.047 261.891 228.963V229.602H254.322V228.298H260.357C260.357 227.744 260.246 227.25 260.024 226.815C259.807 226.381 259.496 226.038 259.091 225.786C258.69 225.535 258.217 225.409 257.672 225.409C257.071 225.409 256.551 225.558 256.112 225.857C255.678 226.151 255.343 226.534 255.109 227.007C254.874 227.48 254.757 227.987 254.757 228.528V229.398C254.757 230.139 254.885 230.768 255.141 231.283C255.401 231.795 255.761 232.185 256.221 232.453C256.681 232.717 257.216 232.849 257.825 232.849C258.222 232.849 258.58 232.794 258.899 232.683C259.223 232.568 259.502 232.398 259.737 232.172C259.971 231.942 260.152 231.656 260.28 231.315L261.737 231.724C261.584 232.219 261.326 232.653 260.964 233.028C260.602 233.399 260.154 233.689 259.621 233.898C259.089 234.102 258.49 234.205 257.825 234.205ZM268.455 224.182V225.46H263.367V224.182H268.455ZM264.85 221.83H266.359V231.188C266.359 231.614 266.42 231.933 266.544 232.146C266.672 232.355 266.834 232.496 267.03 232.568C267.23 232.636 267.441 232.67 267.663 232.67C267.829 232.67 267.965 232.662 268.072 232.645C268.178 232.624 268.263 232.607 268.327 232.594L268.634 233.949C268.532 233.987 268.389 234.026 268.206 234.064C268.023 234.107 267.79 234.128 267.509 234.128C267.083 234.128 266.665 234.036 266.256 233.853C265.852 233.67 265.515 233.391 265.246 233.016C264.982 232.641 264.85 232.168 264.85 231.597V221.83ZM270.724 234V224.182H272.233V234H270.724ZM271.491 222.545C271.197 222.545 270.944 222.445 270.731 222.245C270.522 222.045 270.418 221.804 270.418 221.523C270.418 221.241 270.522 221.001 270.731 220.8C270.944 220.6 271.197 220.5 271.491 220.5C271.786 220.5 272.037 220.6 272.246 220.8C272.459 221.001 272.565 221.241 272.565 221.523C272.565 221.804 272.459 222.045 272.246 222.245C272.037 222.445 271.786 222.545 271.491 222.545ZM276.504 228.094V234H274.996V224.182H276.453V225.716H276.581C276.811 225.217 277.161 224.817 277.629 224.514C278.098 224.207 278.703 224.054 279.445 224.054C280.11 224.054 280.691 224.19 281.19 224.463C281.688 224.732 282.076 225.141 282.353 225.69C282.63 226.236 282.769 226.926 282.769 227.761V234H281.26V227.864C281.26 227.092 281.06 226.491 280.659 226.061C280.259 225.626 279.709 225.409 279.01 225.409C278.529 225.409 278.098 225.513 277.719 225.722C277.344 225.931 277.048 226.236 276.83 226.636C276.613 227.037 276.504 227.523 276.504 228.094ZM289.488 237.886C288.76 237.886 288.133 237.793 287.609 237.605C287.085 237.422 286.648 237.179 286.299 236.876C285.953 236.578 285.679 236.259 285.474 235.918L286.676 235.074C286.812 235.253 286.985 235.457 287.194 235.688C287.402 235.922 287.688 236.124 288.05 236.295C288.417 236.469 288.896 236.557 289.488 236.557C290.281 236.557 290.935 236.365 291.451 235.982C291.966 235.598 292.224 234.997 292.224 234.179V232.185H292.096C291.985 232.364 291.828 232.585 291.623 232.849C291.423 233.109 291.133 233.342 290.754 233.546C290.379 233.746 289.872 233.847 289.233 233.847C288.44 233.847 287.728 233.659 287.098 233.284C286.471 232.909 285.975 232.364 285.608 231.648C285.246 230.932 285.065 230.062 285.065 229.04C285.065 228.034 285.242 227.158 285.596 226.413C285.949 225.663 286.441 225.083 287.072 224.674C287.703 224.261 288.431 224.054 289.258 224.054C289.897 224.054 290.404 224.161 290.779 224.374C291.159 224.582 291.449 224.821 291.649 225.089C291.853 225.354 292.011 225.571 292.122 225.741H292.275V224.182H293.733V234.281C293.733 235.125 293.541 235.811 293.157 236.339C292.778 236.872 292.267 237.262 291.623 237.509C290.984 237.761 290.272 237.886 289.488 237.886ZM289.437 232.491C290.042 232.491 290.554 232.353 290.971 232.076C291.389 231.799 291.706 231.401 291.924 230.881C292.141 230.361 292.25 229.739 292.25 229.014C292.25 228.307 292.143 227.683 291.93 227.141C291.717 226.6 291.402 226.176 290.984 225.869C290.566 225.562 290.051 225.409 289.437 225.409C288.798 225.409 288.265 225.571 287.839 225.895C287.417 226.219 287.1 226.653 286.887 227.199C286.678 227.744 286.574 228.349 286.574 229.014C286.574 229.696 286.68 230.299 286.893 230.823C287.11 231.343 287.43 231.752 287.852 232.05C288.278 232.344 288.806 232.491 289.437 232.491ZM298.463 230.318V230.241C298.471 229.428 298.556 228.78 298.718 228.298C298.88 227.817 299.11 227.427 299.409 227.129C299.707 226.83 300.065 226.555 300.483 226.304C300.734 226.151 300.96 225.969 301.16 225.761C301.36 225.548 301.518 225.303 301.633 225.026C301.752 224.749 301.812 224.442 301.812 224.105C301.812 223.687 301.714 223.325 301.518 223.018C301.322 222.712 301.06 222.475 300.732 222.309C300.404 222.143 300.039 222.06 299.639 222.06C299.289 222.06 298.953 222.132 298.629 222.277C298.305 222.422 298.034 222.65 297.817 222.961C297.6 223.272 297.474 223.679 297.44 224.182H295.829C295.863 223.457 296.051 222.837 296.392 222.322C296.737 221.806 297.191 221.412 297.753 221.139C298.32 220.866 298.949 220.73 299.639 220.73C300.389 220.73 301.041 220.879 301.595 221.178C302.153 221.476 302.583 221.885 302.886 222.405C303.193 222.925 303.346 223.517 303.346 224.182C303.346 224.651 303.274 225.075 303.129 225.454C302.988 225.833 302.784 226.172 302.515 226.47C302.251 226.768 301.931 227.033 301.556 227.263C301.181 227.497 300.881 227.744 300.655 228.004C300.429 228.26 300.265 228.565 300.163 228.918C300.061 229.272 300.005 229.713 299.997 230.241V230.318H298.463ZM299.281 234.102C298.966 234.102 298.695 233.989 298.469 233.763C298.243 233.538 298.13 233.267 298.13 232.952C298.13 232.636 298.243 232.366 298.469 232.14C298.695 231.914 298.966 231.801 299.281 231.801C299.596 231.801 299.867 231.914 300.093 232.14C300.319 232.366 300.431 232.636 300.431 232.952C300.431 233.161 300.378 233.352 300.272 233.527C300.169 233.702 300.031 233.842 299.856 233.949C299.686 234.051 299.494 234.102 299.281 234.102Z" fill="black"/>
<circle cx="105" cy="135" r="10" fill="#222222"/>
<circle cx="88" cy="88" r="3" fill="#222222"/>
<circle cx="98" cy="88" r="3" fill="#222222"/>
<circle cx="108" cy="88" r="3" fill="#222222"/>
</svg>
