<svg width="16" height="17" viewBox="0 0 16 17" fill="none" xmlns="http://www.w3.org/2000/svg">
<path fill-rule="evenodd" clip-rule="evenodd" d="M12.2082 4.29185C11.6558 3.73968 11.0001 3.30166 10.2785 3.00276C9.55655 2.70372 8.78276 2.5498 8.00133 2.5498C7.21989 2.5498 6.44611 2.70372 5.72415 3.00276C5.0022 3.30181 4.34622 3.74012 3.79366 4.29268L3.79049 4.29585C3.23942 4.84774 2.80221 5.5026 2.50374 6.22318C2.2047 6.94513 2.05078 7.71891 2.05078 8.50035C2.05078 9.28178 2.2047 10.0556 2.50374 10.7775C2.80278 11.4995 3.24109 12.1554 3.79365 12.708L7.00251 15.9169C7.26741 16.1818 7.62669 16.3306 8.00133 16.3306C8.37596 16.3306 8.73525 16.1818 9.00015 15.9169L12.209 12.708C13.3249 11.5921 13.9519 10.0785 13.9519 8.50035C13.9519 6.92217 13.3249 5.40863 12.209 4.29268L12.2082 4.29185Z" fill="#222222"/>
<path fill-rule="evenodd" clip-rule="evenodd" d="M9.76901 10.9747L10.4761 10.2675L8.70861 8.50004L10.4762 6.73246L9.76908 6.02536L8.00151 7.79293L6.23347 6.0249L5.52637 6.73201L7.2944 8.50004L5.52644 10.268L6.23355 10.9751L8.0015 9.20715L9.76901 10.9747Z" fill="white"/>
</svg>
