<svg width="400" height="248" viewBox="0 0 400 248" fill="none" xmlns="http://www.w3.org/2000/svg">
<rect x="26" y="31" width="169" height="130" rx="11" stroke="#222222" stroke-width="2"/>
<rect x="26" y="175" width="146" height="14" rx="7" stroke="#222222" stroke-width="2"/>
<rect x="26" y="203" width="104" height="14" rx="7" stroke="#222222" stroke-width="2"/>
<rect x="99" y="59" width="276" height="86" rx="12" fill="#222222"/>
<rect width="260" height="18" transform="translate(115 75)" fill="#222222"/>
<path d="M115.438 89H116.638L119.329 81.3193H119.691V79.8403H118.815L115.438 89ZM116.968 86.3784H121.817L121.462 85.4072H117.323L116.968 86.3784ZM122.122 89H123.322L119.945 79.8403H119.431V81.3193L122.122 89ZM126.934 89.1206C127.412 89.1206 127.835 89.0148 128.203 88.8032C128.571 88.5874 128.859 88.2891 129.066 87.9082H129.168V89H130.272V79.4404H129.168V83.2363H129.066C128.88 82.8724 128.595 82.5825 128.209 82.3667C127.829 82.1466 127.403 82.0366 126.934 82.0366C126.354 82.0366 125.848 82.1826 125.417 82.4746C124.989 82.7666 124.657 83.1771 124.42 83.7061C124.183 84.235 124.064 84.8571 124.064 85.5723V85.585C124.064 86.2959 124.183 86.918 124.42 87.4512C124.657 87.9801 124.991 88.3906 125.423 88.6826C125.854 88.9746 126.358 89.1206 126.934 89.1206ZM127.188 88.1431C126.773 88.1431 126.415 88.0415 126.115 87.8384C125.819 87.631 125.59 87.3369 125.429 86.9561C125.273 86.571 125.194 86.1139 125.194 85.585V85.5723C125.194 85.0391 125.273 84.582 125.429 84.2012C125.59 83.8203 125.819 83.5283 126.115 83.3252C126.415 83.1178 126.773 83.0142 127.188 83.0142C127.602 83.0142 127.96 83.1178 128.26 83.3252C128.561 83.5326 128.791 83.8267 128.952 84.2075C129.113 84.5884 129.193 85.0433 129.193 85.5723V85.585C129.193 86.1097 129.113 86.5646 128.952 86.9497C128.791 87.3306 128.561 87.6247 128.26 87.832C127.96 88.0394 127.602 88.1431 127.188 88.1431ZM134.919 89.1206C135.397 89.1206 135.82 89.0148 136.188 88.8032C136.557 88.5874 136.844 88.2891 137.052 87.9082H137.153V89H138.258V79.4404H137.153V83.2363H137.052C136.866 82.8724 136.58 82.5825 136.195 82.3667C135.814 82.1466 135.389 82.0366 134.919 82.0366C134.339 82.0366 133.833 82.1826 133.402 82.4746C132.974 82.7666 132.642 83.1771 132.405 83.7061C132.168 84.235 132.05 84.8571 132.05 85.5723V85.585C132.05 86.2959 132.168 86.918 132.405 87.4512C132.642 87.9801 132.977 88.3906 133.408 88.6826C133.84 88.9746 134.343 89.1206 134.919 89.1206ZM135.173 88.1431C134.758 88.1431 134.401 88.0415 134.1 87.8384C133.804 87.631 133.575 87.3369 133.415 86.9561C133.258 86.571 133.18 86.1139 133.18 85.585V85.5723C133.18 85.0391 133.258 84.582 133.415 84.2012C133.575 83.8203 133.804 83.5283 134.1 83.3252C134.401 83.1178 134.758 83.0142 135.173 83.0142C135.588 83.0142 135.945 83.1178 136.246 83.3252C136.546 83.5326 136.777 83.8267 136.938 84.2075C137.098 84.5884 137.179 85.0433 137.179 85.5723V85.585C137.179 86.1097 137.098 86.5646 136.938 86.9497C136.777 87.3306 136.546 87.6247 136.246 87.832C135.945 88.0394 135.588 88.1431 135.173 88.1431ZM146.833 89.1206C147.384 89.1206 147.853 89.0296 148.243 88.8477C148.632 88.6657 148.945 88.416 149.182 88.0986C149.419 87.777 149.584 87.411 149.677 87.0005L149.69 86.9307L148.598 86.937L148.585 86.9751C148.458 87.356 148.249 87.6458 147.957 87.8447C147.665 88.0436 147.288 88.1431 146.827 88.1431C146.421 88.1431 146.068 88.0373 145.767 87.8257C145.467 87.6141 145.234 87.3158 145.069 86.9307C144.904 86.5413 144.821 86.0843 144.821 85.5596V85.5469C144.821 85.0306 144.902 84.5841 145.062 84.2075C145.228 83.8267 145.46 83.5326 145.761 83.3252C146.061 83.1178 146.417 83.0142 146.827 83.0142C147.318 83.0142 147.714 83.1326 148.014 83.3696C148.315 83.6066 148.507 83.8944 148.592 84.2329L148.598 84.252H149.696L149.69 84.2139C149.622 83.8076 149.468 83.4416 149.227 83.1157C148.985 82.7856 148.664 82.5233 148.262 82.3286C147.86 82.134 147.382 82.0366 146.827 82.0366C146.188 82.0366 145.634 82.1826 145.164 82.4746C144.694 82.7624 144.33 83.1686 144.072 83.6934C143.818 84.2181 143.691 84.8359 143.691 85.5469V85.5596C143.691 86.2832 143.82 86.9116 144.079 87.4448C144.337 87.978 144.701 88.3906 145.17 88.6826C145.64 88.9746 146.194 89.1206 146.833 89.1206ZM154.121 89.1206C154.772 89.1206 155.333 88.9788 155.803 88.6953C156.272 88.4076 156.634 87.9992 156.888 87.4702C157.146 86.9412 157.275 86.3128 157.275 85.585V85.5723C157.275 84.8402 157.146 84.2096 156.888 83.6807C156.634 83.1517 156.272 82.7454 155.803 82.4619C155.333 82.1784 154.772 82.0366 154.121 82.0366C153.473 82.0366 152.912 82.1784 152.438 82.4619C151.969 82.7454 151.605 83.1517 151.347 83.6807C151.093 84.2096 150.966 84.8402 150.966 85.5723V85.585C150.966 86.3128 151.093 86.9412 151.347 87.4702C151.605 87.9992 151.969 88.4076 152.438 88.6953C152.912 88.9788 153.473 89.1206 154.121 89.1206ZM154.121 88.1431C153.689 88.1431 153.323 88.0415 153.022 87.8384C152.722 87.6353 152.491 87.3433 152.331 86.9624C152.174 86.5815 152.096 86.1224 152.096 85.585V85.5723C152.096 85.0306 152.174 84.5693 152.331 84.1885C152.491 83.8076 152.722 83.5177 153.022 83.3188C153.323 83.1157 153.689 83.0142 154.121 83.0142C154.552 83.0142 154.918 83.1157 155.219 83.3188C155.519 83.5177 155.748 83.8076 155.904 84.1885C156.065 84.5693 156.146 85.0306 156.146 85.5723V85.585C156.146 86.1224 156.065 86.5815 155.904 86.9624C155.748 87.3433 155.519 87.6353 155.219 87.8384C154.918 88.0415 154.552 88.1431 154.121 88.1431ZM158.989 89H160.094V84.7598C160.094 84.4382 160.161 84.1462 160.297 83.8838C160.437 83.6172 160.625 83.4056 160.862 83.249C161.103 83.0924 161.372 83.0142 161.668 83.0142C162.1 83.0142 162.444 83.1369 162.703 83.3823C162.961 83.6235 163.09 83.9473 163.09 84.3535V89H164.194V84.6011C164.194 84.3091 164.26 84.0446 164.391 83.8076C164.522 83.5664 164.706 83.3739 164.943 83.23C165.18 83.0861 165.458 83.0142 165.775 83.0142C166.257 83.0142 166.615 83.1411 166.848 83.395C167.085 83.6447 167.203 84.0213 167.203 84.5249V89H168.308V84.271C168.308 83.7928 168.223 83.3887 168.054 83.0586C167.884 82.7243 167.637 82.4704 167.311 82.2969C166.989 82.1234 166.596 82.0366 166.13 82.0366C165.817 82.0366 165.523 82.0874 165.248 82.189C164.977 82.2863 164.738 82.4259 164.531 82.6079C164.323 82.7856 164.158 82.9951 164.036 83.2363H163.934C163.828 82.9993 163.687 82.792 163.509 82.6143C163.331 82.4323 163.119 82.2905 162.874 82.189C162.629 82.0874 162.351 82.0366 162.042 82.0366C161.594 82.0366 161.211 82.1382 160.894 82.3413C160.58 82.5444 160.348 82.8301 160.195 83.1982H160.094V82.1572H158.989V89ZM170.301 89H171.405V84.7598C171.405 84.4382 171.473 84.1462 171.608 83.8838C171.748 83.6172 171.936 83.4056 172.173 83.249C172.415 83.0924 172.683 83.0142 172.979 83.0142C173.411 83.0142 173.756 83.1369 174.014 83.3823C174.272 83.6235 174.401 83.9473 174.401 84.3535V89H175.506V84.6011C175.506 84.3091 175.571 84.0446 175.703 83.8076C175.834 83.5664 176.018 83.3739 176.255 83.23C176.492 83.0861 176.769 83.0142 177.086 83.0142C177.569 83.0142 177.926 83.1411 178.159 83.395C178.396 83.6447 178.515 84.0213 178.515 84.5249V89H179.619V84.271C179.619 83.7928 179.535 83.3887 179.365 83.0586C179.196 82.7243 178.948 82.4704 178.623 82.2969C178.301 82.1234 177.907 82.0366 177.442 82.0366C177.129 82.0366 176.835 82.0874 176.56 82.189C176.289 82.2863 176.05 82.4259 175.842 82.6079C175.635 82.7856 175.47 82.9951 175.347 83.2363H175.246C175.14 82.9993 174.998 82.792 174.82 82.6143C174.643 82.4323 174.431 82.2905 174.186 82.189C173.94 82.0874 173.663 82.0366 173.354 82.0366C172.905 82.0366 172.522 82.1382 172.205 82.3413C171.892 82.5444 171.659 82.8301 171.507 83.1982H171.405V82.1572H170.301V89ZM184.405 89.1206C184.807 89.1206 185.169 89.0698 185.491 88.9683C185.817 88.8625 186.098 88.7228 186.335 88.5493C186.572 88.3716 186.764 88.1748 186.913 87.959C187.065 87.7389 187.171 87.5125 187.23 87.2798L187.243 87.229H186.138L186.113 87.2861C186.054 87.4215 185.95 87.5549 185.802 87.686C185.654 87.8172 185.465 87.9251 185.237 88.0098C185.008 88.0944 184.74 88.1367 184.431 88.1367C184.016 88.1367 183.656 88.0457 183.352 87.8638C183.047 87.6776 182.812 87.4131 182.647 87.0703C182.482 86.7233 182.399 86.3065 182.399 85.8198V85.3818C182.399 84.8698 182.484 84.4382 182.653 84.0869C182.823 83.7357 183.051 83.4712 183.339 83.2935C183.631 83.1115 183.961 83.0205 184.329 83.0205C184.697 83.0205 185.023 83.1073 185.307 83.2808C185.59 83.45 185.812 83.7082 185.973 84.0552C186.134 84.4022 186.214 84.8444 186.214 85.3818V85.8198L186.76 85.0137H181.841V85.896H187.325V85.4644C187.325 84.783 187.205 84.1864 186.963 83.6743C186.726 83.158 186.384 82.756 185.935 82.4683C185.491 82.1805 184.958 82.0366 184.335 82.0366C183.718 82.0366 183.178 82.1868 182.717 82.4873C182.256 82.7878 181.898 83.2046 181.644 83.7378C181.394 84.271 181.27 84.891 181.27 85.5977V85.604C181.27 86.3192 181.394 86.9412 181.644 87.4702C181.898 87.995 182.258 88.4012 182.723 88.689C183.193 88.9767 183.754 89.1206 184.405 89.1206ZM189.039 89H190.144V84.9502C190.144 84.5482 190.215 84.2033 190.359 83.9155C190.507 83.6278 190.715 83.4056 190.981 83.249C191.248 83.0924 191.563 83.0142 191.927 83.0142C192.473 83.0142 192.875 83.1644 193.133 83.4648C193.396 83.7611 193.527 84.2181 193.527 84.8359V89H194.631V84.5693C194.631 83.7568 194.424 83.1326 194.009 82.6968C193.599 82.2567 193.008 82.0366 192.238 82.0366C191.735 82.0366 191.32 82.1382 190.994 82.3413C190.668 82.5402 190.419 82.8216 190.245 83.1855H190.144V82.1572H189.039V89ZM199.062 89.0508C199.172 89.0508 199.28 89.0444 199.386 89.0317C199.492 89.019 199.597 89.0042 199.703 88.9873V88.0479C199.602 88.0563 199.515 88.0627 199.443 88.0669C199.375 88.0711 199.293 88.0732 199.195 88.0732C198.84 88.0732 198.586 87.9865 198.434 87.813C198.281 87.6353 198.205 87.3454 198.205 86.9434V83.0713H199.703V82.1572H198.205V80.3862H197.062V82.1572H195.983V83.0713H197.062V87.2227C197.062 87.8743 197.219 88.342 197.532 88.6255C197.85 88.909 198.36 89.0508 199.062 89.0508Z" fill="#999999"/>
<path d="M123 125C126.314 125 129 122.314 129 119C129 115.686 126.314 113 123 113C119.686 113 117 115.686 117 119C117 122.314 119.686 125 123 125Z" stroke="#BBBBBB" stroke-linecap="round" stroke-linejoin="round"/>
<path d="M120.75 118.5C121.164 118.5 121.5 118.164 121.5 117.75C121.5 117.336 121.164 117 120.75 117C120.336 117 120 117.336 120 117.75C120 118.164 120.336 118.5 120.75 118.5Z" fill="#BBBBBB"/>
<path d="M125.25 118.5C125.664 118.5 126 118.164 126 117.75C126 117.336 125.664 117 125.25 117C124.836 117 124.5 117.336 124.5 117.75C124.5 118.164 124.836 118.5 125.25 118.5Z" fill="#BBBBBB"/>
<path d="M125.596 120.5C125.332 120.956 124.954 121.335 124.498 121.598C124.041 121.862 123.524 122 122.997 122C122.47 122 121.953 121.862 121.497 121.598C121.041 121.335 120.662 120.956 120.398 120.5" stroke="#BBBBBB" stroke-linecap="round" stroke-linejoin="round"/>
<path d="M151 121.5C152.381 121.5 153.5 120.381 153.5 119C153.5 117.619 152.381 116.5 151 116.5C149.619 116.5 148.5 117.619 148.5 119C148.5 120.381 149.619 121.5 151 121.5Z" stroke="#BBBBBB" stroke-linecap="round" stroke-linejoin="round"/>
<path d="M154.319 124C153.205 124.739 151.876 125.086 150.543 124.984C149.21 124.882 147.949 124.337 146.961 123.437C145.972 122.537 145.312 121.333 145.086 120.015C144.86 118.697 145.081 117.342 145.713 116.164C146.345 114.986 147.352 114.052 148.575 113.512C149.798 112.972 151.166 112.855 152.463 113.181C153.759 113.507 154.91 114.256 155.732 115.31C156.554 116.365 157.001 117.663 157.001 119C157.001 120.381 156.501 121.5 155.251 121.5C154.001 121.5 153.501 120.381 153.501 119V116.5" stroke="#BBBBBB" stroke-linecap="round" stroke-linejoin="round"/>
<circle cx="77" cy="73" r="13" fill="#FBC858" stroke="#222222" stroke-width="2"/>
<path d="M72.4531 77H74.3457V71.6211H75.4062L73.4551 68.7793L76.3848 77H77.6152L80.5449 68.7793L78.5938 71.6211H79.6543V77H81.5469V68.5449H79.0918L77.0586 74.2754H76.9531L74.9023 68.5449H72.4531V77Z" fill="#222222"/>
<path fill-rule="evenodd" clip-rule="evenodd" d="M61.5556 63.4693L58 48.5504L72.3651 55.8238L65.2059 57.9805L65.0799 58.1423L61.5556 63.4693Z" fill="#222222"/>
</svg>
