<svg width="1000" height="1000" viewBox="0 0 1000 1000" fill="none" xmlns="http://www.w3.org/2000/svg">
<circle cx="500" cy="500" r="500" fill="#222222"/>
<path d="M503.207 724C449.668 724 407.249 709.198 375.949 679.593C344.65 649.578 329 606.816 329 551.308V447.692C329 392.184 344.65 349.628 375.949 320.023C407.249 290.008 449.668 275 503.207 275C556.333 275 597.311 289.597 626.139 318.79C655.38 347.572 670 387.25 670 437.824V441.525H589.692V435.357C589.692 409.864 582.485 388.895 568.071 372.448C554.068 356.001 532.447 347.777 503.207 347.777C474.378 347.777 451.727 356.618 435.254 374.298C418.78 391.978 410.543 416.032 410.543 446.459V552.541C410.543 582.557 418.78 606.61 435.254 624.702C451.727 642.382 474.378 651.223 503.207 651.223C532.447 651.223 554.068 642.999 568.071 626.552C582.485 609.694 589.692 588.724 589.692 563.643V552.541H670V561.176C670 611.75 655.38 651.634 626.139 680.827C597.311 709.609 556.333 724 503.207 724Z" fill="white"/>
</svg>
