<svg width="135" height="21" viewBox="0 0 135 21" fill="none" xmlns="http://www.w3.org/2000/svg">
<g clip-path="url(#clip0_3840_57509)">
<path d="M6.64966 18.1926L0 11.5422L6.64966 4.89168L8.95781 7.20011L4.45143 11.5422L8.95781 15.8842L6.64966 18.1926Z" fill="#222222"/>
<path d="M23.1785 20.611C21.2001 20.611 19.4919 20.1805 18.0539 19.3194C16.625 18.4583 15.5213 17.2537 14.7428 15.7056C13.9734 14.1575 13.5887 12.3574 13.5887 10.3055C13.5887 8.25356 13.9734 6.45353 14.7428 4.90542C15.5213 3.3573 16.625 2.1527 18.0539 1.29162C19.4919 0.430541 21.2001 0 23.1785 0C25.45 0 27.3552 0.563367 28.8939 1.6901C30.4419 2.81684 31.5318 4.34205 32.1638 6.26574L28.3993 7.31003C28.033 6.11002 27.4147 5.18023 26.5446 4.52068C25.6744 3.85197 24.5524 3.51761 23.1785 3.51761C21.9237 3.51761 20.8749 3.797 20.0323 4.35579C19.1988 4.91458 18.5714 5.70238 18.15 6.71918C17.7287 7.73599 17.5181 8.93143 17.5181 10.3055C17.5181 11.6796 17.7287 12.875 18.15 13.8918C18.5714 14.9086 19.1988 15.6964 20.0323 16.2552C20.8749 16.814 21.9237 17.0934 23.1785 17.0934C24.5524 17.0934 25.6744 16.759 26.5446 16.0903C27.4147 15.4216 28.033 14.4918 28.3993 13.301L32.1638 14.3453C31.5318 16.2689 30.4419 17.7942 28.8939 18.9209C27.3552 20.0476 25.45 20.611 23.1785 20.611Z" fill="#222222"/>
<path d="M40.767 20.611C39.274 20.611 37.9642 20.2766 36.8376 19.6079C35.711 18.9392 34.8317 18.0186 34.1997 16.8461C33.5769 15.6644 33.2655 14.3086 33.2655 12.7788C33.2655 11.2307 33.5861 9.87038 34.2272 8.69784C34.8684 7.51614 35.7523 6.59552 36.8788 5.93597C38.0054 5.27642 39.3015 4.94664 40.767 4.94664C42.2599 4.94664 43.5697 5.281 44.6963 5.94971C45.8321 6.61842 46.716 7.54362 47.3479 8.72532C47.9799 9.89786 48.2959 11.249 48.2959 12.7788C48.2959 14.3178 47.9754 15.6781 47.3342 16.8598C46.7022 18.0323 45.8183 18.953 44.6826 19.6217C43.556 20.2812 42.2508 20.611 40.767 20.611ZM40.767 17.1209C41.9668 17.1209 42.8599 16.7178 43.4461 15.9117C44.0414 15.0964 44.3391 14.0521 44.3391 12.7788C44.3391 11.4597 44.0369 10.4063 43.4323 9.61847C42.837 8.83067 41.9485 8.43677 40.767 8.43677C39.9518 8.43677 39.2832 8.61998 38.7611 8.98639C38.239 9.35281 37.8497 9.86122 37.5933 10.5116C37.346 11.162 37.2223 11.9177 37.2223 12.7788C37.2223 14.1071 37.52 15.1651 38.1154 15.9529C38.7199 16.7316 39.6037 17.1209 40.767 17.1209Z" fill="#222222"/>
<path d="M50.4929 20.1988V0H54.2299V20.1988H50.4929Z" fill="#222222"/>
<path d="M57.5245 20.1988V0H61.2615V20.1988H57.5245Z" fill="#222222"/>
<path d="M68.4029 20.611C67.3404 20.611 66.4383 20.4095 65.6963 20.0064C64.9636 19.5942 64.4049 19.0491 64.0202 18.3713C63.6447 17.6842 63.4569 16.9285 63.4569 16.1041C63.4569 15.417 63.5622 14.7895 63.7729 14.2216C63.9836 13.6536 64.3225 13.1544 64.7896 12.7239C65.2659 12.2842 65.9024 11.9177 66.6993 11.6246C67.2489 11.4231 67.9037 11.2444 68.664 11.0887C69.4242 10.933 70.2852 10.7864 71.2469 10.649C72.2086 10.5024 73.2665 10.3421 74.4206 10.1681L73.0742 10.9101C73.0742 10.0307 72.8635 9.38488 72.4422 8.97266C72.0209 8.56043 71.3156 8.35432 70.3264 8.35432C69.7768 8.35432 69.2044 8.48715 68.609 8.7528C68.0137 9.01846 67.5969 9.49022 67.3588 10.1681L63.979 9.09632C64.3545 7.86882 65.0598 6.87033 66.0948 6.10086C67.1298 5.33138 68.5403 4.94664 70.3264 4.94664C71.6362 4.94664 72.7994 5.14817 73.8161 5.55123C74.8328 5.95429 75.6022 6.65048 76.1242 7.63981C76.4173 8.18944 76.5914 8.73906 76.6463 9.28869C76.7013 9.83832 76.7287 10.4521 76.7287 11.1299V20.1988H73.4589V17.1484L73.926 17.7804C73.2024 18.7789 72.4193 19.5026 71.5766 19.9514C70.7431 20.3911 69.6852 20.611 68.4029 20.611ZM69.1998 17.6705C69.8867 17.6705 70.4638 17.5514 70.9309 17.3132C71.4072 17.0659 71.7827 16.7865 72.0575 16.4751C72.3414 16.1636 72.5338 15.9025 72.6345 15.6918C72.8269 15.2888 72.9368 14.8216 72.9643 14.2903C73.0009 13.7498 73.0192 13.301 73.0192 12.9437L74.1183 13.2185C73.0101 13.4017 72.1125 13.5575 71.4255 13.6857C70.7386 13.8048 70.1844 13.9147 69.7631 14.0155C69.3418 14.1162 68.9708 14.2262 68.6502 14.3453C68.2839 14.4918 67.9862 14.6521 67.7572 14.8262C67.5374 14.9911 67.3725 15.1743 67.2626 15.3758C67.1618 15.5773 67.1115 15.8018 67.1115 16.0491C67.1115 16.388 67.1939 16.6812 67.3588 16.9285C67.5328 17.1667 67.7755 17.3499 68.0869 17.4781C68.3983 17.6064 68.7693 17.6705 69.1998 17.6705Z" fill="#222222"/>
<path d="M86.4836 20.611C85.009 20.611 83.7771 20.2675 82.7879 19.5805C81.7986 18.8934 81.0522 17.9591 80.5484 16.7774C80.0538 15.5957 79.8065 14.2628 79.8065 12.7788C79.8065 11.2948 80.0538 9.96198 80.5484 8.78029C81.043 7.59859 81.7712 6.66422 82.7329 5.97719C83.6946 5.29016 84.8808 4.94664 86.2913 4.94664C87.711 4.94664 88.9475 5.28558 90.0008 5.96345C91.0541 6.64132 91.8693 7.57111 92.4463 8.7528C93.0325 9.92534 93.3256 11.2673 93.3256 12.7788C93.3256 14.2628 93.0371 15.5957 92.4601 16.7774C91.8922 17.9591 91.0953 18.8934 90.0695 19.5805C89.0437 20.2675 87.8484 20.611 86.4836 20.611ZM79.1745 20.1988V0.412219H82.939V10.0307H82.4719V20.1988H79.1745ZM85.8791 17.2858C86.6851 17.2858 87.3446 17.0842 87.8575 16.6812C88.3705 16.2781 88.7506 15.7376 88.9979 15.0598C89.2452 14.3727 89.3688 13.6124 89.3688 12.7788C89.3688 11.9544 89.2406 11.2032 88.9841 10.5253C88.7277 9.83832 88.3292 9.29327 87.7888 8.89021C87.2576 8.47799 86.5752 8.27188 85.7417 8.27188C84.9632 8.27188 84.3312 8.45967 83.8458 8.83525C83.3695 9.21083 83.0214 9.73755 82.8016 10.4154C82.5818 11.0933 82.4719 11.8811 82.4719 12.7788C82.4719 13.6765 82.5818 14.4643 82.8016 15.1422C83.0214 15.8201 83.3786 16.3468 83.8732 16.7224C84.377 17.098 85.0456 17.2858 85.8791 17.2858Z" fill="#222222"/>
<path d="M95.2497 20.1988V0.412219H98.9867V9.53602L106.516 0.412219H111.077L102.806 10.1681L111.599 20.1988H106.873L98.9867 11.1849V20.1988H95.2497Z" fill="#222222"/>
<path d="M112.699 3.29776V0H116.436V3.29776H112.699ZM112.699 20.1988V5.35886H116.436V20.1988H112.699Z" fill="#222222"/>
<path d="M128.359 20.1988C127.333 20.3911 126.326 20.4736 125.336 20.4461C124.356 20.4278 123.477 20.2583 122.698 19.9377C121.929 19.6079 121.343 19.0812 120.94 18.3575C120.574 17.6797 120.381 16.9926 120.363 16.2964C120.345 15.5911 120.335 14.7941 120.335 13.9056V1.23666H124.072V13.6857C124.072 14.2628 124.077 14.785 124.086 15.2521C124.104 15.7102 124.201 16.0766 124.375 16.3514C124.704 16.8735 125.231 17.1575 125.955 17.2033C126.678 17.2491 127.48 17.2125 128.359 17.0934V20.1988ZM117.807 8.2444V5.35886H128.359V8.2444H117.807Z" fill="#222222"/>
<path d="M131.171 20.1988V16.4613H134.908V20.1988H131.171Z" fill="#222222"/>
</g>
<defs>
<clipPath id="clip0_3840_57509">
<rect width="135" height="21" fill="white"/>
</clipPath>
</defs>
</svg>
