<svg width="80" height="80" viewBox="0 0 80 80" fill="none" xmlns="http://www.w3.org/2000/svg">
<path d="M29.3964 57.6776C25.8609 68.2842 11.7188 68.2842 11.7188 68.2842C11.7188 68.2842 11.7187 54.1421 22.3254 50.6066" stroke="#222222" stroke-width="3" stroke-linecap="round" stroke-linejoin="round"/>
<path d="M61.2147 32.9289L40.0015 54.1421L25.8594 40L47.0726 18.7868C55.1051 10.7542 63.1377 10.8326 66.5633 11.3437C67.0908 11.4223 67.579 11.6683 67.9561 12.0454C68.3332 12.4225 68.5792 12.9107 68.6578 13.4382C69.1689 16.8638 69.2473 24.8964 61.2147 32.9289Z" stroke="#222222" stroke-width="3" stroke-linecap="round" stroke-linejoin="round"/>
<path d="M57.6777 36.4645V56.6422C57.6777 56.9705 57.613 57.2955 57.4874 57.5989C57.3617 57.9022 57.1776 58.1778 56.9454 58.4099L46.8386 68.5167C46.5187 68.8367 46.1179 69.0638 45.679 69.1739C45.24 69.2839 44.7795 69.2728 44.3464 69.1417C43.9133 69.0106 43.524 68.7643 43.2198 68.4293C42.9157 68.0943 42.7082 67.683 42.6194 67.2392L40 54.1422" stroke="#222222" stroke-width="3" stroke-linecap="round" stroke-linejoin="round"/>
<path d="M43.5345 22.3224H23.3568C23.0285 22.3224 22.7034 22.3871 22.4001 22.5127C22.0968 22.6383 21.8212 22.8225 21.589 23.0546L11.4822 33.1614C11.1623 33.4814 10.9351 33.8822 10.8251 34.3211C10.715 34.76 10.7261 35.2206 10.8573 35.6536C10.9884 36.0867 11.2346 36.4761 11.5697 36.7802C11.9047 37.0844 12.316 37.2919 12.7597 37.3806L25.8568 40.0001" stroke="#222222" stroke-width="3" stroke-linecap="round" stroke-linejoin="round"/>
</svg>
