<svg width="38" height="40" viewBox="0 0 38 40" fill="none" xmlns="http://www.w3.org/2000/svg">
<path fill-rule="evenodd" clip-rule="evenodd" d="M34.7351 31.2236L37.5703 6.62574L37.5701 6.62557L19.032 0.000488281V1.46573L19.0356 1.45202L31.9805 30.3266L27.1528 30.2372L24.5572 23.7277H19.0356L19.032 23.726V39.9567L34.7351 31.2236ZM19.032 10.7843V19.8743L19.0358 19.8742H22.8541L19.032 10.7843Z" fill="white"/>
<path fill-rule="evenodd" clip-rule="evenodd" d="M19.0312 0.000976562L-0.00047493 6.50831H-0.000310898L3.08184 31.1059L19.0312 39.9565V0.000976562ZM18.9964 10.71L19.0311 1.4518L5.48991 30.4133L10.1093 30.3275L12.951 23.7275L19.0311 23.7217L19.0212 19.8812H14.6242L18.9964 10.71Z" fill="white" fill-opacity="0.5"/>
</svg>
