<svg width="400" height="248" viewBox="0 0 400 248" fill="none" xmlns="http://www.w3.org/2000/svg">
<path d="M46 118C46 118 52.753 82.9682 62.8826 82.9682C73.0121 82.9682 76.1073 103.427 81.7348 103.427C87.3623 103.427 91.583 72.3185 97.7733 72.3185C103.964 72.3185 106.777 86.3312 110.717 86.3312C114.656 86.3312 121.128 30 134.634 30C148.14 30 144.482 114.076 161.646 114.076C178.81 114.076 173.182 63.9107 185 63.6306" stroke="#222222" stroke-width="3" stroke-linecap="round"/>
<rect x="240.5" y="16.5" width="102" height="129" rx="6.5" stroke="#222222" stroke-width="3"/>
<rect x="255" y="36" width="20" height="4" rx="2" fill="#222222"/>
<rect x="255" y="46" width="26" height="4" rx="2" fill="#222222"/>
<rect x="255" y="68" width="68" height="4" rx="2" fill="#222222"/>
<rect x="255" y="77" width="66" height="4" rx="2" fill="#222222"/>
<rect x="255" y="87" width="68" height="4" rx="2" fill="#222222"/>
<rect x="255" y="97" width="51" height="4" rx="2" fill="#222222"/>
<circle cx="342" cy="58" r="13" fill="#F5813B" stroke="#222222" stroke-width="2"/>
<path d="M340.922 62H343.072V59.0996L345.99 53.5449H343.693L342.059 56.9961H341.947L340.307 53.5449H338.01L340.922 59.0996V62Z" fill="#222222"/>
<path fill-rule="evenodd" clip-rule="evenodd" d="M326.556 48.4693L323 33.5504L337.365 40.8238L330.206 42.9805L330.08 43.1423L326.556 48.4693Z" fill="#222222"/>
<rect x="210.5" y="152.5" width="79" height="119" rx="6.5" transform="rotate(90 210.5 152.5)" stroke="#222222" stroke-width="3"/>
<rect x="110" y="153" width="2" height="80" fill="#222222"/>
<rect x="130" y="171" width="2" height="62" fill="#222222"/>
<rect x="150" y="171" width="2" height="62" fill="#222222"/>
<rect x="170" y="171" width="2" height="62" fill="#222222"/>
<rect x="190" y="171" width="2" height="62" fill="#222222"/>
<rect x="212" y="171" width="2.00001" height="122" transform="rotate(90 212 171)" fill="#222222"/>
<rect x="212" y="191" width="2" height="102" transform="rotate(90 212 191)" fill="#222222"/>
<rect x="212" y="211" width="2" height="102" transform="rotate(90 212 211)" fill="#222222"/>
<circle cx="253" cy="210" r="13" fill="#E25982" stroke="#222222" stroke-width="2"/>
<path d="M250.182 214H255.977V212.271H252.332V210.543H255.76V208.961H252.332V207.273H255.977V205.545H250.182V214Z" fill="#222222"/>
<path fill-rule="evenodd" clip-rule="evenodd" d="M237.556 200.469L234 185.55L248.365 192.824L241.206 194.98L241.08 195.142L237.556 200.469Z" fill="#222222"/>
<circle cx="189" cy="67" r="13" fill="#419AF9" stroke="#222222" stroke-width="2"/>
<path d="M186.328 71H188.479V67.8477H191.754V66.2012H188.479V64.2734H192.082V62.5449H186.328V71Z" fill="#222222"/>
<path fill-rule="evenodd" clip-rule="evenodd" d="M173.556 57.4693L170 42.5504L184.365 49.8238L177.206 51.9805L177.08 52.1423L173.556 57.4693Z" fill="#222222"/>
</svg>
