<svg width="560" height="454" viewBox="0 0 560 454" fill="none" xmlns="http://www.w3.org/2000/svg">
<rect y="332" width="560" height="2" fill="#222222"/>
<path d="M313.659 413.091V448H310.472V416.432H310.267L302.085 421.869V418.562L310.335 413.091H313.659ZM324.261 448V445.665L335.665 432.847C337.153 431.165 338.352 429.727 339.261 428.534C340.17 427.341 340.83 426.239 341.239 425.227C341.659 424.216 341.869 423.165 341.869 422.074C341.869 420.744 341.557 419.585 340.932 418.597C340.318 417.597 339.472 416.818 338.392 416.261C337.313 415.705 336.097 415.426 334.744 415.426C333.313 415.426 332.057 415.733 330.977 416.347C329.909 416.96 329.08 417.801 328.489 418.869C327.898 419.937 327.602 421.165 327.602 422.551H324.551C324.551 420.619 324.994 418.909 325.881 417.42C326.778 415.92 328 414.744 329.545 413.892C331.102 413.04 332.864 412.614 334.83 412.614C336.773 412.614 338.5 413.034 340.011 413.875C341.523 414.705 342.71 415.835 343.574 417.267C344.438 418.699 344.869 420.301 344.869 422.074C344.869 423.358 344.642 424.602 344.188 425.807C343.744 427.011 342.977 428.352 341.886 429.83C340.795 431.307 339.284 433.114 337.352 435.25L328.693 444.915V445.136H345.96V448H324.261ZM364.399 448.477C361.945 448.477 359.848 447.773 358.109 446.364C356.382 444.943 355.053 442.892 354.121 440.21C353.2 437.528 352.74 434.307 352.74 430.545C352.74 426.795 353.2 423.585 354.121 420.915C355.053 418.233 356.388 416.182 358.126 414.761C359.876 413.33 361.967 412.614 364.399 412.614C366.831 412.614 368.916 413.33 370.655 414.761C372.405 416.182 373.74 418.233 374.661 420.915C375.592 423.585 376.058 426.795 376.058 430.545C376.058 434.307 375.592 437.528 374.661 440.21C373.74 442.892 372.411 444.943 370.672 446.364C368.945 447.773 366.854 448.477 364.399 448.477ZM364.399 445.614C367.092 445.614 369.195 444.301 370.706 441.676C372.217 439.04 372.973 435.33 372.973 430.545C372.973 427.364 372.626 424.648 371.933 422.398C371.251 420.136 370.268 418.409 368.984 417.216C367.712 416.023 366.183 415.426 364.399 415.426C361.729 415.426 359.632 416.756 358.109 419.415C356.587 422.062 355.825 425.773 355.825 430.545C355.825 433.727 356.166 436.443 356.848 438.693C357.541 440.943 358.524 442.659 359.797 443.841C361.081 445.023 362.615 445.614 364.399 445.614ZM385.876 438.114L385.842 434.142H386.524L398.797 421.818H402.632L390.513 433.955L390.24 434.006L385.876 438.114ZM383.115 448V413.091H386.149V448H383.115ZM399.428 448L388.791 434.551L390.973 432.455L403.314 448H399.428Z" fill="#222222"/>
<path d="M309.963 381.909C309.963 382.996 309.764 383.931 309.366 384.713C308.969 385.492 308.424 386.092 307.731 386.513C307.041 386.93 306.258 387.139 305.379 387.139C304.498 387.139 303.71 386.93 303.018 386.513C302.328 386.092 301.785 385.49 301.387 384.708C300.989 383.926 300.79 382.993 300.79 381.909C300.79 380.822 300.989 379.889 301.387 379.11C301.785 378.328 302.328 377.728 303.018 377.31C303.71 376.889 304.498 376.679 305.379 376.679C306.258 376.679 307.041 376.889 307.731 377.31C308.424 377.728 308.969 378.328 309.366 379.11C309.764 379.889 309.963 380.822 309.963 381.909ZM308.442 381.909C308.442 381.08 308.308 380.383 308.039 379.816C307.774 379.246 307.409 378.815 306.945 378.523C306.485 378.228 305.963 378.081 305.379 378.081C304.793 378.081 304.269 378.228 303.808 378.523C303.348 378.815 302.983 379.246 302.714 379.816C302.449 380.383 302.317 381.08 302.317 381.909C302.317 382.738 302.449 383.437 302.714 384.007C302.983 384.574 303.348 385.005 303.808 385.3C304.269 385.591 304.793 385.737 305.379 385.737C305.963 385.737 306.485 385.591 306.945 385.3C307.409 385.005 307.774 384.574 308.039 384.007C308.308 383.437 308.442 382.738 308.442 381.909ZM318.292 379.364L315.523 387H313.932L311.157 379.364H312.753L314.687 385.24H314.767L316.696 379.364H318.292ZM322.72 387.154C321.968 387.154 321.32 386.993 320.776 386.672C320.236 386.347 319.818 385.891 319.523 385.305C319.232 384.715 319.086 384.024 319.086 383.232C319.086 382.449 319.232 381.76 319.523 381.163C319.818 380.567 320.229 380.101 320.756 379.766C321.287 379.432 321.906 379.264 322.616 379.264C323.047 379.264 323.464 379.335 323.869 379.478C324.273 379.621 324.636 379.844 324.957 380.149C325.279 380.454 325.532 380.85 325.718 381.337C325.904 381.821 325.996 382.41 325.996 383.102V383.629H319.926V382.516H324.54C324.54 382.125 324.46 381.778 324.301 381.477C324.142 381.172 323.918 380.931 323.63 380.756C323.345 380.58 323.01 380.492 322.626 380.492C322.208 380.492 321.844 380.595 321.532 380.8C321.224 381.003 320.985 381.268 320.816 381.596C320.65 381.921 320.567 382.274 320.567 382.655V383.525C320.567 384.035 320.657 384.469 320.836 384.827C321.018 385.185 321.272 385.459 321.597 385.648C321.921 385.833 322.301 385.926 322.735 385.926C323.017 385.926 323.274 385.886 323.506 385.807C323.738 385.724 323.938 385.601 324.107 385.439C324.276 385.277 324.406 385.076 324.495 384.837L325.902 385.091C325.789 385.505 325.587 385.868 325.295 386.18C325.007 386.488 324.644 386.728 324.207 386.901C323.772 387.07 323.277 387.154 322.72 387.154ZM327.646 387V379.364H329.083V380.577H329.162C329.301 380.166 329.547 379.843 329.898 379.607C330.253 379.369 330.654 379.249 331.101 379.249C331.194 379.249 331.303 379.253 331.429 379.259C331.558 379.266 331.66 379.274 331.732 379.284V380.706C331.673 380.689 331.567 380.671 331.414 380.651C331.262 380.628 331.109 380.616 330.957 380.616C330.606 380.616 330.292 380.691 330.017 380.84C329.745 380.986 329.53 381.19 329.371 381.452C329.212 381.71 329.132 382.005 329.132 382.337V387H327.646ZM335.173 387.169C334.689 387.169 334.251 387.08 333.86 386.901C333.469 386.718 333.159 386.455 332.931 386.11C332.705 385.765 332.593 385.343 332.593 384.842C332.593 384.411 332.675 384.057 332.841 383.778C333.007 383.5 333.231 383.28 333.512 383.117C333.794 382.955 334.109 382.832 334.457 382.749C334.805 382.666 335.16 382.603 335.521 382.56C335.978 382.507 336.349 382.464 336.634 382.431C336.919 382.395 337.127 382.337 337.256 382.257C337.385 382.178 337.45 382.048 337.45 381.869V381.835C337.45 381.4 337.327 381.064 337.082 380.825C336.84 380.587 336.479 380.467 335.998 380.467C335.498 380.467 335.103 380.578 334.815 380.8C334.53 381.019 334.333 381.263 334.223 381.531L332.826 381.213C332.992 380.749 333.234 380.375 333.552 380.089C333.874 379.801 334.243 379.592 334.661 379.463C335.078 379.33 335.517 379.264 335.978 379.264C336.283 379.264 336.606 379.301 336.948 379.374C337.292 379.443 337.614 379.572 337.912 379.761C338.214 379.95 338.461 380.22 338.653 380.572C338.845 380.92 338.941 381.372 338.941 381.929V387H337.49V385.956H337.43C337.334 386.148 337.19 386.337 336.997 386.523C336.805 386.708 336.558 386.862 336.257 386.985C335.955 387.108 335.594 387.169 335.173 387.169ZM335.496 385.976C335.907 385.976 336.258 385.895 336.55 385.732C336.845 385.57 337.069 385.358 337.221 385.096C337.377 384.831 337.455 384.547 337.455 384.246V383.261C337.402 383.314 337.299 383.364 337.146 383.411C336.997 383.454 336.827 383.492 336.634 383.525C336.442 383.555 336.255 383.583 336.073 383.609C335.89 383.633 335.738 383.652 335.615 383.669C335.327 383.705 335.063 383.767 334.825 383.853C334.589 383.939 334.401 384.063 334.258 384.226C334.119 384.385 334.049 384.597 334.049 384.862C334.049 385.23 334.185 385.509 334.457 385.697C334.729 385.883 335.075 385.976 335.496 385.976ZM342.408 376.818V387H340.921V376.818H342.408ZM345.894 376.818V387H344.407V376.818H345.894Z" fill="#222222"/>
<path d="M301.119 1.81818H302.983L306.224 9.73295H306.344L309.585 1.81818H311.45V12H309.988V4.6321H309.893L306.891 11.9851H305.678L302.675 4.62713H302.58V12H301.119V1.81818ZM316.78 12.1541C316.064 12.1541 315.44 11.9901 314.906 11.6619C314.372 11.3338 313.958 10.8748 313.663 10.2848C313.368 9.69484 313.221 9.00544 313.221 8.21662C313.221 7.42448 313.368 6.73177 313.663 6.13849C313.958 5.54522 314.372 5.08452 314.906 4.75639C315.44 4.42827 316.064 4.2642 316.78 4.2642C317.496 4.2642 318.121 4.42827 318.655 4.75639C319.188 5.08452 319.603 5.54522 319.898 6.13849C320.193 6.73177 320.34 7.42448 320.34 8.21662C320.34 9.00544 320.193 9.69484 319.898 10.2848C319.603 10.8748 319.188 11.3338 318.655 11.6619C318.121 11.9901 317.496 12.1541 316.78 12.1541ZM316.785 10.9062C317.249 10.9062 317.634 10.7836 317.939 10.5384C318.244 10.2931 318.469 9.96662 318.615 9.55895C318.764 9.15128 318.839 8.70218 318.839 8.21165C318.839 7.72443 318.764 7.27699 318.615 6.86932C318.469 6.45833 318.244 6.12855 317.939 5.87997C317.634 5.63139 317.249 5.5071 316.785 5.5071C316.318 5.5071 315.93 5.63139 315.622 5.87997C315.317 6.12855 315.09 6.45833 314.941 6.86932C314.795 7.27699 314.722 7.72443 314.722 8.21165C314.722 8.70218 314.795 9.15128 314.941 9.55895C315.09 9.96662 315.317 10.2931 315.622 10.5384C315.93 10.7836 316.318 10.9062 316.785 10.9062ZM323.486 7.46591V12H321.999V4.36364H323.426V5.60653H323.521C323.696 5.20218 323.971 4.87737 324.346 4.6321C324.724 4.38684 325.199 4.2642 325.773 4.2642C326.293 4.2642 326.749 4.37358 327.14 4.59233C327.531 4.80777 327.834 5.12926 328.05 5.55682C328.265 5.98437 328.373 6.51302 328.373 7.14276V12H326.886V7.32173C326.886 6.76823 326.742 6.3357 326.454 6.02415C326.165 5.70928 325.769 5.55185 325.266 5.55185C324.921 5.55185 324.614 5.62642 324.346 5.77557C324.081 5.92472 323.87 6.14347 323.714 6.43182C323.562 6.71686 323.486 7.06155 323.486 7.46591ZM333.931 4.36364V5.55682H329.76V4.36364H333.931ZM330.879 2.53409H332.365V9.75781C332.365 10.0462 332.408 10.2633 332.494 10.4091C332.58 10.5516 332.692 10.6494 332.827 10.7024C332.967 10.7521 333.117 10.777 333.28 10.777C333.399 10.777 333.504 10.7687 333.593 10.7521C333.683 10.7356 333.752 10.7223 333.802 10.7124L334.07 11.9403C333.984 11.9735 333.862 12.0066 333.702 12.0398C333.543 12.0762 333.344 12.0961 333.106 12.0994C332.715 12.1061 332.35 12.0365 332.012 11.8906C331.674 11.7448 331.401 11.5194 331.192 11.2145C330.983 10.9096 330.879 10.5268 330.879 10.0661V2.53409ZM337.226 7.46591V12H335.74V1.81818H337.206V5.60653H337.301C337.48 5.19555 337.753 4.86908 338.121 4.62713C338.489 4.38518 338.969 4.2642 339.563 4.2642C340.086 4.2642 340.544 4.37192 340.935 4.58736C341.329 4.80279 341.634 5.12429 341.85 5.55185C342.068 5.97609 342.178 6.50639 342.178 7.14276V12H340.691V7.32173C340.691 6.7616 340.547 6.32741 340.259 6.01918C339.97 5.70762 339.569 5.55185 339.056 5.55185C338.704 5.55185 338.389 5.62642 338.111 5.77557C337.836 5.92472 337.619 6.14347 337.46 6.43182C337.304 6.71686 337.226 7.06155 337.226 7.46591ZM349.884 6.22798L348.536 6.46662C348.48 6.29427 348.391 6.13021 348.268 5.97443C348.149 5.81865 347.986 5.69105 347.781 5.59162C347.575 5.49219 347.318 5.44247 347.01 5.44247C346.589 5.44247 346.238 5.53693 345.956 5.72585C345.674 5.91146 345.534 6.15175 345.534 6.44673C345.534 6.70194 345.628 6.90743 345.817 7.06321C346.006 7.21899 346.311 7.34659 346.732 7.44602L347.945 7.72443C348.647 7.88684 349.171 8.13707 349.516 8.47514C349.86 8.81321 350.033 9.25237 350.033 9.79261C350.033 10.25 349.9 10.6577 349.635 11.0156C349.373 11.3703 349.007 11.6487 348.536 11.8509C348.069 12.053 347.527 12.1541 346.911 12.1541C346.056 12.1541 345.358 11.9718 344.818 11.6072C344.277 11.2393 343.946 10.7173 343.823 10.0412L345.26 9.82244C345.35 10.197 345.534 10.4804 345.812 10.6726C346.09 10.8615 346.453 10.956 346.901 10.956C347.388 10.956 347.777 10.8549 348.069 10.6527C348.361 10.4472 348.507 10.197 348.507 9.90199C348.507 9.66335 348.417 9.46283 348.238 9.30043C348.062 9.13802 347.792 9.01539 347.428 8.93253L346.135 8.64915C345.423 8.48674 344.896 8.22822 344.554 7.87358C344.216 7.51894 344.047 7.06984 344.047 6.52628C344.047 6.07552 344.173 5.68111 344.425 5.34304C344.677 5.00497 345.025 4.74148 345.469 4.55256C345.913 4.36032 346.422 4.2642 346.995 4.2642C347.82 4.2642 348.47 4.44318 348.944 4.80114C349.418 5.15578 349.731 5.63139 349.884 6.22798Z" fill="#222222"/>
<path d="M444.616 3.14062V1.81818H452.496V3.14062H449.32V12H447.788V3.14062H444.616ZM456.228 12.1541C455.512 12.1541 454.887 11.9901 454.353 11.6619C453.82 11.3338 453.405 10.8748 453.11 10.2848C452.815 9.69484 452.668 9.00544 452.668 8.21662C452.668 7.42448 452.815 6.73177 453.11 6.13849C453.405 5.54522 453.82 5.08452 454.353 4.75639C454.887 4.42827 455.512 4.2642 456.228 4.2642C456.944 4.2642 457.568 4.42827 458.102 4.75639C458.636 5.08452 459.05 5.54522 459.345 6.13849C459.64 6.73177 459.787 7.42448 459.787 8.21662C459.787 9.00544 459.64 9.69484 459.345 10.2848C459.05 10.8748 458.636 11.3338 458.102 11.6619C457.568 11.9901 456.944 12.1541 456.228 12.1541ZM456.233 10.9062C456.697 10.9062 457.081 10.7836 457.386 10.5384C457.691 10.2931 457.916 9.96662 458.062 9.55895C458.211 9.15128 458.286 8.70218 458.286 8.21165C458.286 7.72443 458.211 7.27699 458.062 6.86932C457.916 6.45833 457.691 6.12855 457.386 5.87997C457.081 5.63139 456.697 5.5071 456.233 5.5071C455.765 5.5071 455.377 5.63139 455.069 5.87997C454.764 6.12855 454.537 6.45833 454.388 6.86932C454.242 7.27699 454.169 7.72443 454.169 8.21165C454.169 8.70218 454.242 9.15128 454.388 9.55895C454.537 9.96662 454.764 10.2931 455.069 10.5384C455.377 10.7836 455.765 10.9062 456.233 10.9062ZM465.011 4.36364V5.55682H460.84V4.36364H465.011ZM461.959 2.53409H463.445V9.75781C463.445 10.0462 463.488 10.2633 463.574 10.4091C463.661 10.5516 463.772 10.6494 463.907 10.7024C464.047 10.7521 464.198 10.777 464.36 10.777C464.479 10.777 464.584 10.7687 464.673 10.7521C464.763 10.7356 464.832 10.7223 464.882 10.7124L465.15 11.9403C465.064 11.9735 464.942 12.0066 464.782 12.0398C464.623 12.0762 464.425 12.0961 464.186 12.0994C463.795 12.1061 463.43 12.0365 463.092 11.8906C462.754 11.7448 462.481 11.5194 462.272 11.2145C462.063 10.9096 461.959 10.5268 461.959 10.0661V2.53409ZM468.878 12.169C468.394 12.169 467.956 12.0795 467.565 11.9006C467.174 11.7183 466.864 11.4548 466.636 11.1101C466.41 10.7654 466.298 10.3428 466.298 9.84233C466.298 9.41146 466.38 9.05682 466.546 8.77841C466.712 8.5 466.936 8.27959 467.217 8.11719C467.499 7.95478 467.814 7.83215 468.162 7.74929C468.51 7.66643 468.865 7.60346 469.226 7.56037C469.683 7.50734 470.054 7.46425 470.339 7.43111C470.625 7.39465 470.832 7.33665 470.961 7.2571C471.09 7.17756 471.155 7.0483 471.155 6.86932V6.83452C471.155 6.40033 471.032 6.06392 470.787 5.82528C470.545 5.58665 470.184 5.46733 469.703 5.46733C469.203 5.46733 468.808 5.57836 468.52 5.80043C468.235 6.01918 468.038 6.26278 467.928 6.53125L466.531 6.21307C466.697 5.74905 466.939 5.37453 467.257 5.08949C467.579 4.80114 467.948 4.59233 468.366 4.46307C468.783 4.33049 469.223 4.2642 469.683 4.2642C469.988 4.2642 470.311 4.30066 470.653 4.37358C470.997 4.44318 471.319 4.57244 471.617 4.76136C471.919 4.95028 472.166 5.22041 472.358 5.57173C472.55 5.91974 472.646 6.37216 472.646 6.92898V12H471.195V10.956H471.135C471.039 11.1482 470.895 11.3371 470.702 11.5227C470.51 11.7083 470.263 11.8625 469.962 11.9851C469.66 12.1077 469.299 12.169 468.878 12.169ZM469.201 10.9759C469.612 10.9759 469.963 10.8946 470.255 10.7322C470.55 10.5698 470.774 10.3577 470.926 10.0959C471.082 9.83073 471.16 9.54735 471.16 9.24574V8.26136C471.107 8.31439 471.004 8.36411 470.852 8.41051C470.702 8.4536 470.532 8.49171 470.339 8.52486C470.147 8.55469 469.96 8.58286 469.778 8.60938C469.595 8.63258 469.443 8.65246 469.32 8.66903C469.032 8.70549 468.768 8.76681 468.53 8.85298C468.295 8.93916 468.106 9.06345 467.963 9.22585C467.824 9.38494 467.754 9.59706 467.754 9.86222C467.754 10.2301 467.89 10.5085 468.162 10.6974C468.434 10.883 468.78 10.9759 469.201 10.9759ZM476.113 1.81818V12H474.626V1.81818H476.113Z" fill="#222222"/>
<path d="M305.131 54.8182H306.364V62.0966C306.364 62.7462 306.244 63.2981 306.006 63.7521C305.767 64.2062 305.431 64.5509 304.996 64.7862C304.562 65.0215 304.05 65.1392 303.46 65.1392C302.903 65.1392 302.408 65.0381 301.974 64.8359C301.54 64.6304 301.198 64.3388 300.95 63.9609C300.701 63.5831 300.577 63.134 300.577 62.6136H301.79C301.79 62.902 301.861 63.1539 302.004 63.3693C302.149 63.5814 302.348 63.7472 302.6 63.8665C302.852 63.9858 303.139 64.0455 303.46 64.0455C303.815 64.0455 304.116 63.9709 304.365 63.8217C304.614 63.6726 304.803 63.4538 304.932 63.1655C305.064 62.8738 305.131 62.5175 305.131 62.0966V54.8182ZM310.923 65.179C310.439 65.179 310 65.0878 309.605 64.9055C309.211 64.7199 308.897 64.4531 308.665 64.1051C308.433 63.7538 308.317 63.3295 308.317 62.8324C308.317 62.3949 308.404 62.0402 308.576 61.7685C308.748 61.4934 308.979 61.2779 309.267 61.1222C309.555 60.9664 309.874 60.8504 310.222 60.7741C310.573 60.6946 310.926 60.6316 311.281 60.5852C311.745 60.5256 312.121 60.4808 312.409 60.451C312.701 60.4179 312.913 60.3632 313.045 60.2869C313.181 60.2107 313.249 60.0781 313.249 59.8892V59.8494C313.249 59.3589 313.115 58.9777 312.847 58.706C312.581 58.4342 312.179 58.2983 311.638 58.2983C311.078 58.2983 310.639 58.4209 310.321 58.6662C310.003 58.9115 309.779 59.1733 309.65 59.4517L308.536 59.054C308.735 58.59 309 58.2287 309.332 57.9702C309.666 57.7083 310.031 57.526 310.425 57.4233C310.823 57.3172 311.214 57.2642 311.599 57.2642C311.844 57.2642 312.126 57.294 312.444 57.3537C312.765 57.41 313.075 57.5277 313.374 57.7067C313.675 57.8857 313.925 58.1558 314.124 58.517C314.323 58.8783 314.423 59.3622 314.423 59.9688V65H313.249V63.9659H313.19C313.11 64.1316 312.978 64.3089 312.792 64.4979C312.606 64.6868 312.359 64.8475 312.051 64.9801C311.743 65.1127 311.367 65.179 310.923 65.179ZM311.102 64.125C311.566 64.125 311.957 64.0339 312.275 63.8516C312.596 63.6693 312.838 63.4339 313.001 63.1456C313.166 62.8572 313.249 62.554 313.249 62.2358V61.1619C313.2 61.2216 313.09 61.2763 312.921 61.326C312.755 61.3724 312.563 61.4138 312.344 61.4503C312.129 61.4834 311.919 61.5133 311.713 61.5398C311.511 61.563 311.347 61.5829 311.221 61.5994C310.916 61.6392 310.631 61.7038 310.366 61.7933C310.104 61.8795 309.892 62.0104 309.729 62.1861C309.57 62.3584 309.491 62.5937 309.491 62.892C309.491 63.2997 309.642 63.608 309.943 63.8168C310.248 64.0223 310.634 64.125 311.102 64.125ZM317.737 60.4062V65H316.564V57.3636H317.698V58.5568H317.797C317.976 58.169 318.248 57.8575 318.612 57.6222C318.977 57.3835 319.448 57.2642 320.024 57.2642C320.541 57.2642 320.994 57.3703 321.382 57.5824C321.769 57.7912 322.071 58.1094 322.286 58.5369C322.502 58.9612 322.61 59.4981 322.61 60.1477V65H321.436V60.2273C321.436 59.6274 321.28 59.16 320.969 58.8253C320.657 58.4872 320.23 58.3182 319.686 58.3182C319.312 58.3182 318.977 58.3994 318.682 58.5618C318.39 58.7242 318.16 58.9612 317.991 59.2727C317.822 59.5843 317.737 59.9621 317.737 60.4062Z" fill="#222222"/>
<path d="M445.054 65V64.1051L448.415 60.4261C448.809 59.9953 449.134 59.6207 449.389 59.3026C449.644 58.9811 449.833 58.6795 449.956 58.3977C450.082 58.1127 450.145 57.8144 450.145 57.5028C450.145 57.1449 450.059 56.835 449.886 56.5732C449.717 56.3113 449.485 56.1091 449.19 55.9666C448.895 55.8241 448.564 55.7528 448.196 55.7528C447.805 55.7528 447.464 55.834 447.172 55.9964C446.884 56.1555 446.66 56.3793 446.501 56.6676C446.345 56.956 446.267 57.294 446.267 57.6818H445.094C445.094 57.0852 445.231 56.5616 445.506 56.1108C445.781 55.66 446.156 55.3087 446.63 55.0568C447.107 54.8049 447.643 54.679 448.236 54.679C448.832 54.679 449.361 54.8049 449.822 55.0568C450.282 55.3087 450.644 55.6484 450.906 56.076C451.167 56.5036 451.298 56.9792 451.298 57.5028C451.298 57.8774 451.23 58.2436 451.094 58.6016C450.962 58.9562 450.73 59.3523 450.398 59.7898C450.07 60.224 449.615 60.7543 449.031 61.3807L446.744 63.8267V63.9062H451.477V65H445.054ZM453.073 62.9119V61.8977L457.548 54.8182H458.283V56.3892H457.786L454.406 61.7386V61.8182H460.431V62.9119H453.073ZM457.866 65V62.6037V62.1314V54.8182H459.039V65H457.866ZM463.408 62.2159L463.388 60.7642H463.627L466.968 57.3636H468.419L464.86 60.9631H464.76L463.408 62.2159ZM462.314 65V54.8182H463.487V65H462.314ZM467.166 65L464.183 61.2216L465.019 60.4062L468.658 65H467.166Z" fill="#222222"/>
<path d="M303.233 108V97.8182H309.338V98.9119H304.466V102.352H308.881V103.446H304.466V108H303.233ZM313.932 108.159C313.196 108.159 312.561 107.997 312.028 107.672C311.497 107.344 311.088 106.886 310.8 106.3C310.515 105.71 310.372 105.024 310.372 104.241C310.372 103.459 310.515 102.77 310.8 102.173C311.088 101.573 311.489 101.106 312.003 100.771C312.52 100.433 313.123 100.264 313.812 100.264C314.21 100.264 314.603 100.33 314.991 100.463C315.379 100.596 315.732 100.811 316.05 101.109C316.368 101.404 316.621 101.795 316.81 102.283C316.999 102.77 317.094 103.37 317.094 104.082V104.58H311.207V103.565H315.901C315.901 103.134 315.814 102.75 315.642 102.412C315.473 102.074 315.231 101.807 314.916 101.612C314.605 101.416 314.237 101.318 313.812 101.318C313.345 101.318 312.941 101.434 312.599 101.666C312.261 101.895 312.001 102.193 311.819 102.561C311.637 102.929 311.545 103.323 311.545 103.744V104.42C311.545 104.997 311.645 105.486 311.844 105.887C312.046 106.285 312.326 106.588 312.684 106.797C313.042 107.002 313.458 107.105 313.932 107.105C314.24 107.105 314.518 107.062 314.767 106.976C315.019 106.886 315.236 106.754 315.418 106.578C315.601 106.399 315.741 106.177 315.841 105.912L316.974 106.23C316.855 106.615 316.655 106.953 316.373 107.244C316.091 107.533 315.743 107.758 315.329 107.92C314.915 108.08 314.449 108.159 313.932 108.159ZM319.038 108V97.8182H320.211V101.577H320.31C320.397 101.444 320.516 101.275 320.668 101.07C320.824 100.861 321.046 100.675 321.335 100.513C321.626 100.347 322.021 100.264 322.518 100.264C323.161 100.264 323.728 100.425 324.218 100.746C324.709 101.068 325.091 101.524 325.366 102.114C325.642 102.704 325.779 103.4 325.779 104.202C325.779 105.01 325.642 105.711 325.366 106.305C325.091 106.895 324.71 107.352 324.223 107.677C323.736 107.998 323.174 108.159 322.538 108.159C322.047 108.159 321.654 108.078 321.359 107.915C321.064 107.75 320.837 107.562 320.678 107.354C320.519 107.142 320.397 106.966 320.31 106.827H320.171V108H319.038ZM320.191 104.182C320.191 104.759 320.276 105.267 320.445 105.708C320.614 106.146 320.861 106.489 321.185 106.737C321.51 106.982 321.908 107.105 322.379 107.105C322.869 107.105 323.278 106.976 323.607 106.717C323.938 106.455 324.187 106.104 324.352 105.663C324.521 105.219 324.606 104.725 324.606 104.182C324.606 103.645 324.523 103.161 324.357 102.73C324.195 102.296 323.948 101.953 323.616 101.701C323.288 101.446 322.876 101.318 322.379 101.318C321.901 101.318 321.5 101.439 321.175 101.681C320.851 101.92 320.605 102.254 320.44 102.685C320.274 103.113 320.191 103.612 320.191 104.182Z" fill="#222222"/>
<path d="M445.054 108V107.105L448.415 103.426C448.809 102.995 449.134 102.621 449.389 102.303C449.644 101.981 449.833 101.679 449.956 101.398C450.082 101.113 450.145 100.814 450.145 100.503C450.145 100.145 450.059 99.835 449.886 99.5732C449.717 99.3113 449.485 99.1091 449.19 98.9666C448.895 98.8241 448.564 98.7528 448.196 98.7528C447.805 98.7528 447.464 98.834 447.172 98.9964C446.884 99.1555 446.66 99.3793 446.501 99.6676C446.345 99.956 446.267 100.294 446.267 100.682H445.094C445.094 100.085 445.231 99.5616 445.506 99.1108C445.781 98.66 446.156 98.3087 446.63 98.0568C447.107 97.8049 447.643 97.679 448.236 97.679C448.832 97.679 449.361 97.8049 449.822 98.0568C450.282 98.3087 450.644 98.6484 450.906 99.076C451.167 99.5036 451.298 99.9792 451.298 100.503C451.298 100.877 451.23 101.244 451.094 101.602C450.962 101.956 450.73 102.352 450.398 102.79C450.07 103.224 449.615 103.754 449.031 104.381L446.744 106.827V106.906H451.477V108H445.054ZM456.911 108.139C456.494 108.133 456.076 108.053 455.658 107.901C455.241 107.748 454.86 107.491 454.515 107.13C454.17 106.765 453.893 106.273 453.685 105.653C453.476 105.03 453.371 104.248 453.371 103.307C453.371 102.405 453.456 101.607 453.625 100.911C453.794 100.211 454.039 99.6229 454.361 99.1456C454.682 98.665 455.07 98.3004 455.524 98.0518C455.982 97.8033 456.497 97.679 457.07 97.679C457.64 97.679 458.147 97.7933 458.592 98.022C459.039 98.2474 459.404 98.5623 459.685 98.9666C459.967 99.371 460.149 99.8366 460.232 100.364H459.019C458.906 99.9062 458.688 99.5268 458.363 99.2251C458.038 98.9235 457.607 98.7727 457.07 98.7727C456.281 98.7727 455.66 99.1158 455.206 99.8018C454.755 100.488 454.528 101.451 454.525 102.69H454.604C454.79 102.409 455.01 102.168 455.266 101.969C455.524 101.767 455.809 101.612 456.121 101.502C456.432 101.393 456.762 101.338 457.11 101.338C457.693 101.338 458.227 101.484 458.711 101.776C459.195 102.064 459.583 102.463 459.874 102.974C460.166 103.481 460.312 104.062 460.312 104.719C460.312 105.348 460.171 105.925 459.889 106.449C459.607 106.969 459.211 107.384 458.701 107.692C458.194 107.997 457.597 108.146 456.911 108.139ZM456.911 107.045C457.329 107.045 457.703 106.941 458.035 106.732C458.37 106.523 458.633 106.243 458.825 105.892C459.021 105.541 459.119 105.15 459.119 104.719C459.119 104.298 459.024 103.915 458.835 103.57C458.65 103.222 458.393 102.946 458.065 102.74C457.74 102.535 457.369 102.432 456.951 102.432C456.636 102.432 456.343 102.495 456.071 102.621C455.799 102.743 455.561 102.912 455.355 103.128C455.153 103.343 454.994 103.59 454.878 103.869C454.762 104.144 454.704 104.434 454.704 104.739C454.704 105.143 454.798 105.521 454.987 105.872C455.179 106.223 455.441 106.507 455.773 106.722C456.107 106.938 456.487 107.045 456.911 107.045ZM463.381 105.216L463.361 103.764H463.599L466.94 100.364H468.392L464.832 103.963H464.733L463.381 105.216ZM462.287 108V97.8182H463.46V108H462.287ZM467.139 108L464.156 104.222L464.991 103.406L468.631 108H467.139Z" fill="#222222"/>
<path d="M302.233 140.818H303.705L307.165 149.27H307.284L310.744 140.818H312.216V151H311.062V143.264H310.963L307.781 151H306.668L303.486 143.264H303.386V151H302.233V140.818ZM316.776 151.179C316.292 151.179 315.853 151.088 315.459 150.906C315.064 150.72 314.751 150.453 314.519 150.105C314.287 149.754 314.171 149.33 314.171 148.832C314.171 148.395 314.257 148.04 314.43 147.768C314.602 147.493 314.832 147.278 315.121 147.122C315.409 146.966 315.727 146.85 316.075 146.774C316.426 146.695 316.779 146.632 317.134 146.585C317.598 146.526 317.974 146.481 318.263 146.451C318.554 146.418 318.766 146.363 318.899 146.287C319.035 146.211 319.103 146.078 319.103 145.889V145.849C319.103 145.359 318.969 144.978 318.7 144.706C318.435 144.434 318.032 144.298 317.492 144.298C316.932 144.298 316.493 144.421 316.175 144.666C315.856 144.911 315.633 145.173 315.503 145.452L314.39 145.054C314.589 144.59 314.854 144.229 315.185 143.97C315.52 143.708 315.885 143.526 316.279 143.423C316.677 143.317 317.068 143.264 317.452 143.264C317.698 143.264 317.979 143.294 318.297 143.354C318.619 143.41 318.929 143.528 319.227 143.707C319.529 143.886 319.779 144.156 319.978 144.517C320.177 144.878 320.276 145.362 320.276 145.969V151H319.103V149.966H319.043C318.964 150.132 318.831 150.309 318.645 150.498C318.46 150.687 318.213 150.848 317.905 150.98C317.596 151.113 317.22 151.179 316.776 151.179ZM316.955 150.125C317.419 150.125 317.81 150.034 318.128 149.852C318.45 149.669 318.692 149.434 318.854 149.146C319.02 148.857 319.103 148.554 319.103 148.236V147.162C319.053 147.222 318.944 147.276 318.775 147.326C318.609 147.372 318.417 147.414 318.198 147.45C317.983 147.483 317.772 147.513 317.567 147.54C317.364 147.563 317.2 147.583 317.074 147.599C316.769 147.639 316.484 147.704 316.219 147.793C315.957 147.879 315.745 148.01 315.583 148.186C315.424 148.358 315.344 148.594 315.344 148.892C315.344 149.3 315.495 149.608 315.797 149.817C316.102 150.022 316.488 150.125 316.955 150.125ZM322.418 151V143.364H323.551V144.517H323.631C323.77 144.139 324.022 143.833 324.386 143.597C324.751 143.362 325.162 143.244 325.619 143.244C325.705 143.244 325.813 143.246 325.942 143.249C326.072 143.253 326.17 143.258 326.236 143.264V144.457C326.196 144.447 326.105 144.433 325.962 144.413C325.823 144.389 325.676 144.378 325.52 144.378C325.149 144.378 324.817 144.456 324.526 144.612C324.237 144.764 324.009 144.976 323.839 145.248C323.674 145.516 323.591 145.823 323.591 146.168V151H322.418Z" fill="#222222"/>
<path d="M449.634 140.818V151H448.401V142.111H448.341L445.855 143.761V142.509L448.401 140.818H449.634ZM455.883 151.139C455.134 151.139 454.496 150.935 453.969 150.528C453.442 150.117 453.039 149.522 452.761 148.743C452.482 147.961 452.343 147.016 452.343 145.909C452.343 144.809 452.482 143.869 452.761 143.09C453.042 142.308 453.447 141.711 453.974 141.3C454.504 140.886 455.14 140.679 455.883 140.679C456.625 140.679 457.26 140.886 457.787 141.3C458.317 141.711 458.722 142.308 459 143.09C459.282 143.869 459.423 144.809 459.423 145.909C459.423 147.016 459.283 147.961 459.005 148.743C458.727 149.522 458.324 150.117 457.797 150.528C457.27 150.935 456.632 151.139 455.883 151.139ZM455.883 150.045C456.625 150.045 457.202 149.687 457.613 148.972C458.024 148.256 458.229 147.235 458.229 145.909C458.229 145.027 458.135 144.277 457.946 143.657C457.76 143.037 457.492 142.565 457.141 142.24C456.793 141.915 456.373 141.753 455.883 141.753C455.147 141.753 454.572 142.116 454.158 142.842C453.743 143.564 453.536 144.587 453.536 145.909C453.536 146.791 453.629 147.54 453.815 148.156C454 148.773 454.267 149.242 454.615 149.563C454.966 149.885 455.389 150.045 455.883 150.045ZM462.425 148.216L462.406 146.764H462.644L465.985 143.364H467.437L463.877 146.963H463.778L462.425 148.216ZM461.332 151V140.818H462.505V151H461.332ZM466.184 151L463.201 147.222L464.036 146.406L467.675 151H466.184Z" fill="#222222"/>
<path d="M303.651 194H302.358L306.097 183.818H307.369L311.108 194H309.815L306.773 185.429H306.693L303.651 194ZM304.128 190.023H309.338V191.116H304.128V190.023ZM312.535 196.864V186.364H313.668V187.577H313.808C313.894 187.444 314.013 187.275 314.165 187.07C314.321 186.861 314.543 186.675 314.832 186.513C315.123 186.347 315.518 186.264 316.015 186.264C316.658 186.264 317.225 186.425 317.715 186.746C318.206 187.068 318.589 187.524 318.864 188.114C319.139 188.704 319.276 189.4 319.276 190.202C319.276 191.01 319.139 191.711 318.864 192.305C318.589 192.895 318.207 193.352 317.72 193.677C317.233 193.998 316.671 194.159 316.035 194.159C315.544 194.159 315.152 194.078 314.857 193.915C314.562 193.75 314.335 193.562 314.175 193.354C314.016 193.142 313.894 192.966 313.808 192.827H313.708V196.864H312.535ZM313.688 190.182C313.688 190.759 313.773 191.267 313.942 191.708C314.111 192.146 314.358 192.489 314.683 192.737C315.007 192.982 315.405 193.105 315.876 193.105C316.366 193.105 316.776 192.976 317.104 192.717C317.435 192.455 317.684 192.104 317.849 191.663C318.018 191.219 318.103 190.725 318.103 190.182C318.103 189.645 318.02 189.161 317.854 188.73C317.692 188.296 317.445 187.953 317.114 187.701C316.786 187.446 316.373 187.318 315.876 187.318C315.398 187.318 314.997 187.439 314.673 187.681C314.348 187.92 314.103 188.254 313.937 188.685C313.771 189.113 313.688 189.612 313.688 190.182ZM321.066 194V186.364H322.2V187.517H322.279C322.418 187.139 322.67 186.833 323.035 186.597C323.399 186.362 323.81 186.244 324.268 186.244C324.354 186.244 324.462 186.246 324.591 186.249C324.72 186.253 324.818 186.258 324.884 186.264V187.457C324.844 187.447 324.753 187.433 324.611 187.413C324.472 187.389 324.324 187.378 324.168 187.378C323.797 187.378 323.466 187.456 323.174 187.612C322.886 187.764 322.657 187.976 322.488 188.248C322.322 188.516 322.239 188.823 322.239 189.168V194H321.066Z" fill="#222222"/>
<path d="M449.634 183.818V194H448.401V185.111H448.341L445.855 186.761V185.509L448.401 183.818H449.634ZM452.562 194V193.105L455.923 189.426C456.317 188.995 456.642 188.621 456.897 188.303C457.152 187.981 457.341 187.679 457.464 187.398C457.59 187.113 457.653 186.814 457.653 186.503C457.653 186.145 457.567 185.835 457.394 185.573C457.225 185.311 456.993 185.109 456.698 184.967C456.403 184.824 456.072 184.753 455.704 184.753C455.313 184.753 454.971 184.834 454.68 184.996C454.391 185.156 454.168 185.379 454.009 185.668C453.853 185.956 453.775 186.294 453.775 186.682H452.602C452.602 186.085 452.739 185.562 453.014 185.111C453.289 184.66 453.664 184.309 454.138 184.057C454.615 183.805 455.15 183.679 455.744 183.679C456.34 183.679 456.869 183.805 457.33 184.057C457.79 184.309 458.152 184.648 458.413 185.076C458.675 185.504 458.806 185.979 458.806 186.503C458.806 186.877 458.738 187.244 458.602 187.602C458.47 187.956 458.238 188.352 457.906 188.79C457.578 189.224 457.122 189.754 456.539 190.381L454.252 192.827V192.906H458.985V194H452.562ZM462.152 191.216L462.132 189.764H462.371L465.712 186.364H467.163L463.604 189.963H463.504L462.152 191.216ZM461.058 194V183.818H462.232V194H461.058ZM465.911 194L462.928 190.222L463.763 189.406L467.402 194H465.911Z" fill="#222222"/>
<path d="M301.233 226.818H302.705L306.165 235.27H306.284L309.744 226.818H311.216V237H310.062V229.264H309.963L306.781 237H305.668L302.486 229.264H302.386V237H301.233V226.818ZM315.776 237.179C315.292 237.179 314.853 237.088 314.459 236.906C314.064 236.72 313.751 236.453 313.519 236.105C313.287 235.754 313.171 235.33 313.171 234.832C313.171 234.395 313.257 234.04 313.43 233.768C313.602 233.493 313.832 233.278 314.121 233.122C314.409 232.966 314.727 232.85 315.075 232.774C315.426 232.695 315.779 232.632 316.134 232.585C316.598 232.526 316.974 232.481 317.263 232.451C317.554 232.418 317.766 232.363 317.899 232.287C318.035 232.211 318.103 232.078 318.103 231.889V231.849C318.103 231.359 317.969 230.978 317.7 230.706C317.435 230.434 317.032 230.298 316.492 230.298C315.932 230.298 315.493 230.421 315.175 230.666C314.856 230.911 314.633 231.173 314.503 231.452L313.39 231.054C313.589 230.59 313.854 230.229 314.185 229.97C314.52 229.708 314.885 229.526 315.279 229.423C315.677 229.317 316.068 229.264 316.452 229.264C316.698 229.264 316.979 229.294 317.297 229.354C317.619 229.41 317.929 229.528 318.227 229.707C318.529 229.886 318.779 230.156 318.978 230.517C319.177 230.878 319.276 231.362 319.276 231.969V237H318.103V235.966H318.043C317.964 236.132 317.831 236.309 317.645 236.498C317.46 236.687 317.213 236.848 316.905 236.98C316.596 237.113 316.22 237.179 315.776 237.179ZM315.955 236.125C316.419 236.125 316.81 236.034 317.128 235.852C317.45 235.669 317.692 235.434 317.854 235.146C318.02 234.857 318.103 234.554 318.103 234.236V233.162C318.053 233.222 317.944 233.276 317.775 233.326C317.609 233.372 317.417 233.414 317.198 233.45C316.983 233.483 316.772 233.513 316.567 233.54C316.364 233.563 316.2 233.583 316.074 233.599C315.769 233.639 315.484 233.704 315.219 233.793C314.957 233.879 314.745 234.01 314.583 234.186C314.424 234.358 314.344 234.594 314.344 234.892C314.344 235.3 314.495 235.608 314.797 235.817C315.102 236.022 315.488 236.125 315.955 236.125ZM321.9 239.864C321.701 239.864 321.524 239.847 321.368 239.814C321.212 239.784 321.104 239.754 321.045 239.724L321.343 238.69C321.628 238.763 321.88 238.79 322.099 238.77C322.317 238.75 322.511 238.652 322.68 238.477C322.853 238.304 323.01 238.024 323.153 237.636L323.371 237.04L320.548 229.364H321.82L323.928 235.449H324.008L326.116 229.364H327.388L324.147 238.114C324.001 238.508 323.821 238.835 323.605 239.093C323.39 239.355 323.139 239.549 322.854 239.675C322.573 239.801 322.254 239.864 321.9 239.864Z" fill="#222222"/>
<path d="M448.634 226.818V237H447.401V228.111H447.341L444.855 229.761V228.509L447.401 226.818H448.634ZM451.88 237L456.434 227.991V227.912H451.184V226.818H457.707V227.972L453.173 237H451.88ZM460.673 234.216L460.654 232.764H460.892L464.233 229.364H465.685L462.125 232.963H462.026L460.673 234.216ZM459.58 237V226.818H460.753V237H459.58ZM464.432 237L461.449 233.222L462.284 232.406L465.923 237H464.432Z" fill="#222222"/>
<path d="M305.131 269.818H306.364V277.097C306.364 277.746 306.244 278.298 306.006 278.752C305.767 279.206 305.431 279.551 304.996 279.786C304.562 280.022 304.05 280.139 303.46 280.139C302.903 280.139 302.408 280.038 301.974 279.836C301.54 279.63 301.198 279.339 300.95 278.961C300.701 278.583 300.577 278.134 300.577 277.614H301.79C301.79 277.902 301.861 278.154 302.004 278.369C302.149 278.581 302.348 278.747 302.6 278.866C302.852 278.986 303.139 279.045 303.46 279.045C303.815 279.045 304.116 278.971 304.365 278.822C304.614 278.673 304.803 278.454 304.932 278.165C305.064 277.874 305.131 277.518 305.131 277.097V269.818ZM313.488 276.878V272.364H314.661V280H313.488V278.707H313.408C313.229 279.095 312.951 279.425 312.573 279.697C312.195 279.965 311.718 280.099 311.141 280.099C310.664 280.099 310.24 279.995 309.869 279.786C309.497 279.574 309.206 279.256 308.994 278.832C308.781 278.404 308.675 277.866 308.675 277.216V272.364H309.849V277.136C309.849 277.693 310.004 278.137 310.316 278.469C310.631 278.8 311.032 278.966 311.519 278.966C311.811 278.966 312.107 278.891 312.409 278.742C312.714 278.593 312.969 278.364 313.175 278.056C313.384 277.748 313.488 277.355 313.488 276.878ZM317.983 275.406V280H316.81V272.364H317.944V273.557H318.043C318.222 273.169 318.494 272.857 318.858 272.622C319.223 272.384 319.694 272.264 320.27 272.264C320.787 272.264 321.24 272.37 321.628 272.582C322.015 272.791 322.317 273.109 322.532 273.537C322.748 273.961 322.856 274.498 322.856 275.148V280H321.682V275.227C321.682 274.627 321.527 274.16 321.215 273.825C320.903 273.487 320.476 273.318 319.932 273.318C319.558 273.318 319.223 273.399 318.928 273.562C318.636 273.724 318.406 273.961 318.237 274.273C318.068 274.584 317.983 274.962 317.983 275.406ZM328.201 280.159C327.466 280.159 326.831 279.997 326.297 279.672C325.767 279.344 325.358 278.886 325.069 278.3C324.784 277.71 324.642 277.024 324.642 276.241C324.642 275.459 324.784 274.77 325.069 274.173C325.358 273.573 325.759 273.106 326.272 272.771C326.789 272.433 327.393 272.264 328.082 272.264C328.48 272.264 328.873 272.33 329.26 272.463C329.648 272.596 330.001 272.811 330.319 273.109C330.637 273.404 330.891 273.795 331.08 274.283C331.269 274.77 331.363 275.37 331.363 276.082V276.58H325.477V275.565H330.17C330.17 275.134 330.084 274.75 329.912 274.412C329.743 274.074 329.501 273.807 329.186 273.612C328.874 273.416 328.506 273.318 328.082 273.318C327.615 273.318 327.21 273.434 326.869 273.666C326.531 273.895 326.271 274.193 326.088 274.561C325.906 274.929 325.815 275.323 325.815 275.744V276.42C325.815 276.997 325.914 277.486 326.113 277.887C326.315 278.285 326.596 278.588 326.953 278.797C327.311 279.002 327.727 279.105 328.201 279.105C328.51 279.105 328.788 279.062 329.037 278.976C329.288 278.886 329.506 278.754 329.688 278.578C329.87 278.399 330.011 278.177 330.11 277.912L331.244 278.23C331.125 278.615 330.924 278.953 330.642 279.244C330.361 279.533 330.013 279.758 329.598 279.92C329.184 280.08 328.718 280.159 328.201 280.159Z" fill="#222222"/>
<path d="M445.054 280V279.105L448.415 275.426C448.809 274.995 449.134 274.621 449.389 274.303C449.644 273.981 449.833 273.679 449.956 273.398C450.082 273.113 450.145 272.814 450.145 272.503C450.145 272.145 450.059 271.835 449.886 271.573C449.717 271.311 449.485 271.109 449.19 270.967C448.895 270.824 448.564 270.753 448.196 270.753C447.805 270.753 447.464 270.834 447.172 270.996C446.884 271.156 446.66 271.379 446.501 271.668C446.345 271.956 446.267 272.294 446.267 272.682H445.094C445.094 272.085 445.231 271.562 445.506 271.111C445.781 270.66 446.156 270.309 446.63 270.057C447.107 269.805 447.643 269.679 448.236 269.679C448.832 269.679 449.361 269.805 449.822 270.057C450.282 270.309 450.644 270.648 450.906 271.076C451.167 271.504 451.298 271.979 451.298 272.503C451.298 272.877 451.23 273.244 451.094 273.602C450.962 273.956 450.73 274.352 450.398 274.79C450.07 275.224 449.615 275.754 449.031 276.381L446.744 278.827V278.906H451.477V280H445.054ZM457.11 269.818V280H455.877V271.111H455.817L453.332 272.761V271.509L455.877 269.818H457.11ZM461.152 277.216L461.132 275.764H461.371L464.712 272.364H466.163L462.604 275.963H462.504L461.152 277.216ZM460.058 280V269.818H461.232V280H460.058ZM464.911 280L461.928 276.222L462.763 275.406L466.402 280H464.911Z" fill="#222222"/>
<path d="M14.8807 448.477C13.4375 448.466 12.0284 448.176 10.6534 447.608C9.27841 447.028 8.03977 446.102 6.9375 444.83C5.83523 443.545 4.96023 441.852 4.3125 439.75C3.66477 437.648 3.34091 435.062 3.34091 431.994C3.34091 429.153 3.59091 426.551 4.09091 424.188C4.59091 421.824 5.34091 419.778 6.34091 418.051C7.34091 416.324 8.59091 414.989 10.0909 414.045C11.5909 413.091 13.3466 412.614 15.358 412.614C17.2443 412.614 18.9091 413.006 20.3523 413.79C21.7955 414.562 22.9659 415.642 23.8636 417.028C24.7614 418.415 25.3239 420.011 25.5511 421.818H22.4148C22.0966 419.977 21.3409 418.46 20.1477 417.267C18.9545 416.074 17.358 415.477 15.358 415.477C12.4943 415.477 10.2784 416.807 8.71023 419.466C7.14205 422.114 6.35227 425.875 6.34091 430.75H6.5625C7.11932 429.716 7.83523 428.824 8.71023 428.074C9.59659 427.312 10.6023 426.722 11.7273 426.301C12.8523 425.869 14.0341 425.653 15.2727 425.653C17.2159 425.653 18.9943 426.148 20.608 427.136C22.2216 428.114 23.5114 429.46 24.4773 431.176C25.4432 432.881 25.9261 434.83 25.9261 437.023C25.9261 439.102 25.4659 441.017 24.5455 442.767C23.6364 444.517 22.3523 445.909 20.6932 446.943C19.0455 447.977 17.108 448.489 14.8807 448.477ZM14.8807 445.614C16.4034 445.614 17.7614 445.227 18.9545 444.455C20.1591 443.682 21.108 442.648 21.8011 441.352C22.4943 440.045 22.8409 438.602 22.8409 437.023C22.8409 435.443 22.4943 434.011 21.8011 432.727C21.108 431.443 20.1591 430.42 18.9545 429.659C17.7614 428.898 16.4034 428.517 14.8807 428.517C13.7216 428.517 12.642 428.756 11.642 429.233C10.642 429.699 9.77273 430.341 9.03409 431.159C8.30682 431.966 7.75 432.892 7.36364 433.938C6.98864 434.983 6.84659 436.08 6.9375 437.227C7.0625 438.83 7.47727 440.267 8.18182 441.54C8.89773 442.801 9.82955 443.795 10.9773 444.523C12.1364 445.25 13.4375 445.614 14.8807 445.614ZM33.1364 448V445.665L44.5398 432.847C46.0284 431.165 47.2273 429.727 48.1364 428.534C49.0455 427.341 49.7045 426.239 50.1136 425.227C50.5341 424.216 50.7443 423.165 50.7443 422.074C50.7443 420.744 50.4318 419.585 49.8068 418.597C49.1932 417.597 48.3466 416.818 47.267 416.261C46.1875 415.705 44.9716 415.426 43.6193 415.426C42.1875 415.426 40.9318 415.733 39.8523 416.347C38.7841 416.96 37.9545 417.801 37.3636 418.869C36.7727 419.937 36.4773 421.165 36.4773 422.551H33.4261C33.4261 420.619 33.8693 418.909 34.7557 417.42C35.6534 415.92 36.875 414.744 38.4205 413.892C39.9773 413.04 41.7386 412.614 43.7045 412.614C45.6477 412.614 47.375 413.034 48.8864 413.875C50.3977 414.705 51.5852 415.835 52.4489 417.267C53.3125 418.699 53.7443 420.301 53.7443 422.074C53.7443 423.358 53.517 424.602 53.0625 425.807C52.6193 427.011 51.8523 428.352 50.7614 429.83C49.6705 431.307 48.1591 433.114 46.2273 435.25L37.5682 444.915V445.136H54.8352V448H33.1364ZM80.0923 441.523V439.938C80.0923 438.631 80.3537 437.455 80.8764 436.409C81.3991 435.352 82.1435 434.517 83.1094 433.903C84.0753 433.29 85.223 432.983 86.5526 432.983C87.8935 432.983 89.0412 433.29 89.9957 433.903C90.9503 434.517 91.6832 435.352 92.1946 436.409C92.706 437.455 92.9616 438.631 92.9616 439.938V441.523C92.9616 442.83 92.7003 444.006 92.1776 445.051C91.6662 446.097 90.9332 446.932 89.9787 447.557C89.0241 448.17 87.8821 448.477 86.5526 448.477C85.2003 448.477 84.0412 448.17 83.0753 447.557C82.1207 446.932 81.3821 446.097 80.8594 445.051C80.348 444.006 80.0923 442.83 80.0923 441.523ZM82.7685 439.938V441.523C82.7685 442.807 83.081 443.903 83.706 444.812C84.3423 445.71 85.2912 446.159 86.5526 446.159C87.7798 446.159 88.706 445.71 89.331 444.812C89.956 443.903 90.2685 442.807 90.2685 441.523V439.938C90.2685 438.653 89.9616 437.562 89.348 436.665C88.7344 435.756 87.8026 435.301 86.5526 435.301C85.3139 435.301 84.3707 435.756 83.723 436.665C83.0866 437.562 82.7685 438.653 82.7685 439.938ZM62.5014 421.153V419.568C62.5014 418.261 62.7628 417.085 63.2855 416.04C63.8082 414.994 64.5526 414.165 65.5185 413.551C66.4844 412.926 67.6321 412.614 68.9616 412.614C70.3026 412.614 71.4503 412.926 72.4048 413.551C73.3594 414.165 74.0923 414.994 74.6037 416.04C75.1151 417.085 75.3707 418.261 75.3707 419.568V421.153C75.3707 422.46 75.1094 423.642 74.5866 424.699C74.0753 425.744 73.3423 426.574 72.3878 427.188C71.4332 427.801 70.2912 428.108 68.9616 428.108C67.6094 428.108 66.4503 427.801 65.4844 427.188C64.5298 426.574 63.7912 425.744 63.2685 424.699C62.7571 423.642 62.5014 422.46 62.5014 421.153ZM65.1776 419.568V421.153C65.1776 422.438 65.4901 423.534 66.1151 424.443C66.7514 425.341 67.7003 425.79 68.9616 425.79C70.1889 425.79 71.1151 425.341 71.7401 424.443C72.3651 423.534 72.6776 422.438 72.6776 421.153V419.568C72.6776 418.284 72.3707 417.193 71.7571 416.295C71.1435 415.386 70.2116 414.932 68.9616 414.932C67.723 414.932 66.7798 415.386 66.1321 416.295C65.4957 417.193 65.1776 418.284 65.1776 419.568ZM64.0696 448L88.0526 413.091H91.0696L67.0866 448H64.0696Z" fill="#222222"/>
<path d="M1.11861 387V376.818H4.74787C5.54001 376.818 6.19626 376.962 6.71662 377.251C7.23698 377.539 7.62642 377.933 7.88494 378.434C8.14347 378.931 8.27273 379.491 8.27273 380.114C8.27273 380.741 8.14181 381.304 7.87997 381.805C7.62145 382.302 7.23035 382.696 6.70668 382.988C6.18632 383.276 5.53172 383.42 4.7429 383.42H2.24716V382.118H4.60369C5.10417 382.118 5.51018 382.032 5.82173 381.859C6.13329 381.684 6.36198 381.445 6.50781 381.143C6.65365 380.842 6.72656 380.499 6.72656 380.114C6.72656 379.73 6.65365 379.388 6.50781 379.09C6.36198 378.792 6.13163 378.558 5.81676 378.389C5.50521 378.22 5.09422 378.136 4.58381 378.136H2.65483V387H1.11861ZM13.1499 387.154C12.3975 387.154 11.7495 386.993 11.206 386.672C10.6657 386.347 10.2481 385.891 9.95312 385.305C9.66146 384.715 9.51562 384.024 9.51562 383.232C9.51562 382.449 9.66146 381.76 9.95312 381.163C10.2481 380.567 10.6591 380.101 11.1861 379.766C11.7164 379.432 12.3362 379.264 13.0455 379.264C13.4763 379.264 13.8939 379.335 14.2983 379.478C14.7027 379.621 15.0656 379.844 15.3871 380.149C15.7086 380.454 15.9621 380.85 16.1477 381.337C16.3333 381.821 16.4261 382.41 16.4261 383.102V383.629H10.3558V382.516H14.9695C14.9695 382.125 14.8899 381.778 14.7308 381.477C14.5717 381.172 14.348 380.931 14.0597 380.756C13.7746 380.58 13.4399 380.492 13.0554 380.492C12.6378 380.492 12.2732 380.595 11.9616 380.8C11.6534 381.003 11.4148 381.268 11.2457 381.596C11.08 381.921 10.9972 382.274 10.9972 382.655V383.525C10.9972 384.035 11.0866 384.469 11.2656 384.827C11.4479 385.185 11.7015 385.459 12.0263 385.648C12.3511 385.833 12.7306 385.926 13.1648 385.926C13.4465 385.926 13.7034 385.886 13.9354 385.807C14.1674 385.724 14.3679 385.601 14.5369 385.439C14.706 385.277 14.8352 385.076 14.9247 384.837L16.3317 385.091C16.219 385.505 16.0168 385.868 15.7251 386.18C15.4368 386.488 15.0739 386.728 14.6364 386.901C14.2022 387.07 13.7067 387.154 13.1499 387.154ZM18.0755 387V379.364H19.5123V380.577H19.5918C19.731 380.166 19.9763 379.843 20.3276 379.607C20.6822 379.369 21.0833 379.249 21.5307 379.249C21.6235 379.249 21.7329 379.253 21.8588 379.259C21.9881 379.266 22.0892 379.274 22.1621 379.284V380.706C22.1025 380.689 21.9964 380.671 21.8439 380.651C21.6915 380.628 21.539 380.616 21.3865 380.616C21.0352 380.616 20.722 380.691 20.4469 380.84C20.1751 380.986 19.9597 381.19 19.8006 381.452C19.6415 381.71 19.562 382.005 19.562 382.337V387H18.0755ZM26.3917 387.154C25.6526 387.154 25.0162 386.987 24.4826 386.652C23.9523 386.314 23.5446 385.848 23.2596 385.255C22.9746 384.662 22.832 383.982 22.832 383.217C22.832 382.441 22.9779 381.757 23.2695 381.163C23.5612 380.567 23.9722 380.101 24.5025 379.766C25.0328 379.432 25.6576 379.264 26.3768 379.264C26.9568 379.264 27.4738 379.372 27.9279 379.587C28.382 379.799 28.7482 380.098 29.0266 380.482C29.3084 380.867 29.4757 381.316 29.5288 381.83H28.082C28.0025 381.472 27.8202 381.163 27.5352 380.905C27.2534 380.646 26.8756 380.517 26.4016 380.517C25.9873 380.517 25.6244 380.626 25.3129 380.845C25.0046 381.061 24.7643 381.369 24.592 381.77C24.4196 382.168 24.3335 382.638 24.3335 383.182C24.3335 383.739 24.418 384.219 24.587 384.624C24.756 385.028 24.9947 385.341 25.3029 385.563C25.6145 385.785 25.9807 385.896 26.4016 385.896C26.6834 385.896 26.9386 385.845 27.1673 385.742C27.3993 385.636 27.5932 385.485 27.7489 385.29C27.908 385.094 28.0191 384.859 28.082 384.584H29.5288C29.4757 385.078 29.315 385.518 29.0465 385.906C28.7781 386.294 28.4184 386.599 27.9677 386.821C27.5202 387.043 26.9949 387.154 26.3917 387.154ZM34.4096 387.154C33.6573 387.154 33.0093 386.993 32.4657 386.672C31.9255 386.347 31.5079 385.891 31.2129 385.305C30.9212 384.715 30.7754 384.024 30.7754 383.232C30.7754 382.449 30.9212 381.76 31.2129 381.163C31.5079 380.567 31.9189 380.101 32.4458 379.766C32.9761 379.432 33.5959 379.264 34.3052 379.264C34.7361 379.264 35.1537 379.335 35.5581 379.478C35.9624 379.621 36.3253 379.844 36.6468 380.149C36.9683 380.454 37.2219 380.85 37.4075 381.337C37.5931 381.821 37.6859 382.41 37.6859 383.102V383.629H31.6156V382.516H36.2292C36.2292 382.125 36.1497 381.778 35.9906 381.477C35.8315 381.172 35.6078 380.931 35.3194 380.756C35.0344 380.58 34.6996 380.492 34.3152 380.492C33.8975 380.492 33.533 380.595 33.2214 380.8C32.9132 381.003 32.6745 381.268 32.5055 381.596C32.3398 381.921 32.2569 382.274 32.2569 382.655V383.525C32.2569 384.035 32.3464 384.469 32.5254 384.827C32.7077 385.185 32.9612 385.459 33.286 385.648C33.6109 385.833 33.9904 385.926 34.4245 385.926C34.7063 385.926 34.9631 385.886 35.1951 385.807C35.4271 385.724 35.6277 385.601 35.7967 385.439C35.9657 385.277 36.095 385.076 36.1845 384.837L37.5914 385.091C37.4788 385.505 37.2766 385.868 36.9849 386.18C36.6966 386.488 36.3336 386.728 35.8961 386.901C35.4619 387.07 34.9664 387.154 34.4096 387.154ZM40.8217 382.466V387H39.3352V379.364H40.7621V380.607H40.8565C41.0322 380.202 41.3073 379.877 41.6818 379.632C42.0597 379.387 42.5353 379.264 43.1087 379.264C43.629 379.264 44.0848 379.374 44.4759 379.592C44.867 379.808 45.1702 380.129 45.3857 380.557C45.6011 380.984 45.7088 381.513 45.7088 382.143V387H44.2223V382.322C44.2223 381.768 44.0781 381.336 43.7898 381.024C43.5014 380.709 43.1054 380.552 42.6016 380.552C42.2569 380.552 41.9503 380.626 41.6818 380.776C41.4167 380.925 41.2062 381.143 41.0504 381.432C40.898 381.717 40.8217 382.062 40.8217 382.466ZM51.267 379.364V380.557H47.0959V379.364H51.267ZM48.2145 377.534H49.701V384.758C49.701 385.046 49.7441 385.263 49.8303 385.409C49.9164 385.552 50.0275 385.649 50.1634 385.702C50.3026 385.752 50.4534 385.777 50.6158 385.777C50.7351 385.777 50.8395 385.769 50.929 385.752C51.0185 385.736 51.0881 385.722 51.1378 385.712L51.4062 386.94C51.3201 386.973 51.1974 387.007 51.0384 387.04C50.8793 387.076 50.6804 387.096 50.4418 387.099C50.0507 387.106 49.6861 387.036 49.348 386.891C49.0099 386.745 48.7365 386.519 48.5277 386.214C48.3189 385.91 48.2145 385.527 48.2145 385.066V377.534ZM55.1337 387.169C54.6498 387.169 54.2123 387.08 53.8212 386.901C53.4301 386.718 53.1202 386.455 52.8915 386.11C52.6661 385.765 52.5534 385.343 52.5534 384.842C52.5534 384.411 52.6363 384.057 52.802 383.778C52.9677 383.5 53.1915 383.28 53.4732 383.117C53.7549 382.955 54.0698 382.832 54.4178 382.749C54.7658 382.666 55.1204 382.603 55.4817 382.56C55.9391 382.507 56.3103 382.464 56.5953 382.431C56.8804 382.395 57.0875 382.337 57.2168 382.257C57.3461 382.178 57.4107 382.048 57.4107 381.869V381.835C57.4107 381.4 57.2881 381.064 57.0428 380.825C56.8008 380.587 56.4396 380.467 55.959 380.467C55.4585 380.467 55.0641 380.578 54.7757 380.8C54.4907 381.019 54.2935 381.263 54.1841 381.531L52.7871 381.213C52.9528 380.749 53.1948 380.375 53.513 380.089C53.8345 379.801 54.204 379.592 54.6216 379.463C55.0392 379.33 55.4784 379.264 55.9391 379.264C56.244 379.264 56.5672 379.301 56.9086 379.374C57.2533 379.443 57.5748 379.572 57.873 379.761C58.1747 379.95 58.4216 380.22 58.6138 380.572C58.806 380.92 58.9022 381.372 58.9022 381.929V387H57.4505V385.956H57.3908C57.2947 386.148 57.1505 386.337 56.9583 386.523C56.766 386.708 56.5191 386.862 56.2175 386.985C55.9159 387.108 55.5546 387.169 55.1337 387.169ZM55.4569 385.976C55.8678 385.976 56.2192 385.895 56.5108 385.732C56.8058 385.57 57.0295 385.358 57.182 385.096C57.3378 384.831 57.4157 384.547 57.4157 384.246V383.261C57.3626 383.314 57.2599 383.364 57.1074 383.411C56.9583 383.454 56.7876 383.492 56.5953 383.525C56.4031 383.555 56.2159 383.583 56.0336 383.609C55.8513 383.633 55.6988 383.652 55.5762 383.669C55.2878 383.705 55.0243 383.767 54.7857 383.853C54.5504 383.939 54.3614 384.063 54.2189 384.226C54.0797 384.385 54.0101 384.597 54.0101 384.862C54.0101 385.23 54.146 385.509 54.4178 385.697C54.6896 385.883 55.0359 385.976 55.4569 385.976ZM64.0838 390.023C63.4773 390.023 62.9553 389.943 62.5178 389.784C62.0836 389.625 61.7289 389.415 61.4538 389.153C61.1787 388.891 60.9732 388.604 60.8374 388.293L62.1151 387.766C62.2045 387.911 62.3239 388.066 62.473 388.228C62.6255 388.394 62.831 388.535 63.0895 388.651C63.3513 388.767 63.6877 388.825 64.0987 388.825C64.6622 388.825 65.1278 388.687 65.4957 388.412C65.8636 388.14 66.0476 387.706 66.0476 387.109V385.608H65.9531C65.8636 385.77 65.7344 385.951 65.5653 386.15C65.3996 386.349 65.1709 386.521 64.8793 386.667C64.5876 386.813 64.2081 386.886 63.7408 386.886C63.1375 386.886 62.594 386.745 62.1101 386.463C61.6295 386.178 61.2483 385.759 60.9666 385.205C60.6882 384.648 60.549 383.964 60.549 383.152C60.549 382.34 60.6866 381.644 60.9616 381.064C61.2401 380.484 61.6212 380.04 62.1051 379.732C62.589 379.42 63.1375 379.264 63.7507 379.264C64.2247 379.264 64.6075 379.344 64.8991 379.503C65.1908 379.659 65.4179 379.841 65.5803 380.05C65.746 380.259 65.8736 380.442 65.9631 380.602H66.0724V379.364H67.5291V387.169C67.5291 387.825 67.3767 388.364 67.0717 388.785C66.7668 389.206 66.3542 389.517 65.8338 389.719C65.3168 389.922 64.7334 390.023 64.0838 390.023ZM64.0689 385.653C64.4964 385.653 64.8577 385.553 65.1527 385.354C65.451 385.152 65.6764 384.864 65.8288 384.489C65.9846 384.112 66.0625 383.659 66.0625 383.132C66.0625 382.618 65.9863 382.166 65.8338 381.775C65.6813 381.384 65.4576 381.079 65.1626 380.86C64.8677 380.638 64.5031 380.527 64.0689 380.527C63.6214 380.527 63.2486 380.643 62.9503 380.875C62.652 381.104 62.4266 381.415 62.2741 381.81C62.125 382.204 62.0504 382.645 62.0504 383.132C62.0504 383.633 62.1267 384.072 62.2791 384.45C62.4316 384.827 62.657 385.122 62.9553 385.335C63.2569 385.547 63.6281 385.653 64.0689 385.653ZM72.8139 387.154C72.0616 387.154 71.4136 386.993 70.87 386.672C70.3298 386.347 69.9122 385.891 69.6172 385.305C69.3255 384.715 69.1797 384.024 69.1797 383.232C69.1797 382.449 69.3255 381.76 69.6172 381.163C69.9122 380.567 70.3232 380.101 70.8501 379.766C71.3804 379.432 72.0002 379.264 72.7095 379.264C73.1404 379.264 73.558 379.335 73.9624 379.478C74.3667 379.621 74.7296 379.844 75.0511 380.149C75.3726 380.454 75.6262 380.85 75.8118 381.337C75.9974 381.821 76.0902 382.41 76.0902 383.102V383.629H70.0199V382.516H74.6335C74.6335 382.125 74.554 381.778 74.3949 381.477C74.2358 381.172 74.0121 380.931 73.7237 380.756C73.4387 380.58 73.1039 380.492 72.7195 380.492C72.3018 380.492 71.9373 380.595 71.6257 380.8C71.3175 381.003 71.0788 381.268 70.9098 381.596C70.7441 381.921 70.6612 382.274 70.6612 382.655V383.525C70.6612 384.035 70.7507 384.469 70.9297 384.827C71.112 385.185 71.3655 385.459 71.6903 385.648C72.0152 385.833 72.3946 385.926 72.8288 385.926C73.1106 385.926 73.3674 385.886 73.5994 385.807C73.8314 385.724 74.032 385.601 74.201 385.439C74.37 385.277 74.4993 385.076 74.5888 384.837L75.9957 385.091C75.883 385.505 75.6809 385.868 75.3892 386.18C75.1009 386.488 74.7379 386.728 74.3004 386.901C73.8662 387.07 73.3707 387.154 72.8139 387.154Z" fill="#222222"/>
<path d="M7.67188 4.4929C7.61884 4.02225 7.40009 3.65767 7.01562 3.39915C6.63116 3.13731 6.14725 3.00639 5.56392 3.00639C5.14631 3.00639 4.78504 3.07268 4.48011 3.20526C4.17519 3.33452 3.93821 3.51349 3.76918 3.74219C3.60346 3.96757 3.5206 4.22443 3.5206 4.51278C3.5206 4.75473 3.57694 4.96354 3.68963 5.1392C3.80563 5.31487 3.95644 5.46236 4.14205 5.58168C4.33097 5.69768 4.53314 5.79545 4.74858 5.875C4.96402 5.95123 5.17116 6.0142 5.37003 6.06392L6.36435 6.32244C6.68916 6.40199 7.02225 6.50971 7.36364 6.6456C7.70502 6.78149 8.02154 6.96046 8.31321 7.18253C8.60488 7.40459 8.8402 7.67969 9.01918 8.00781C9.20147 8.33594 9.29261 8.72869 9.29261 9.18608C9.29261 9.76278 9.14347 10.2749 8.84517 10.7223C8.55019 11.1697 8.12098 11.5227 7.55753 11.7812C6.9974 12.0398 6.3196 12.169 5.52415 12.169C4.76184 12.169 4.10227 12.0481 3.54545 11.8061C2.98864 11.5642 2.55279 11.2211 2.23793 10.777C1.92306 10.3295 1.74905 9.79924 1.71591 9.18608H3.2571C3.28693 9.55398 3.40625 9.86056 3.61506 10.1058C3.82718 10.3478 4.0973 10.5284 4.42543 10.6477C4.75687 10.7637 5.11979 10.8217 5.5142 10.8217C5.94839 10.8217 6.33452 10.7538 6.67259 10.6179C7.01397 10.4787 7.28243 10.2865 7.47798 10.0412C7.67353 9.79261 7.77131 9.5026 7.77131 9.17116C7.77131 8.86955 7.68513 8.62263 7.51278 8.4304C7.34375 8.23816 7.1134 8.07907 6.82173 7.95312C6.53338 7.82718 6.20691 7.71615 5.84233 7.62003L4.6392 7.2919C3.82386 7.06984 3.17756 6.74337 2.70028 6.3125C2.22633 5.88163 1.98935 5.31155 1.98935 4.60227C1.98935 4.01562 2.14844 3.50355 2.46662 3.06605C2.7848 2.62855 3.21567 2.28883 3.75923 2.04688C4.30279 1.80161 4.91596 1.67898 5.59872 1.67898C6.28812 1.67898 6.89631 1.79995 7.4233 2.0419C7.9536 2.28385 8.37121 2.61695 8.67614 3.04119C8.98106 3.46212 9.14015 3.94602 9.15341 4.4929H7.67188ZM13.2314 12.169C12.7475 12.169 12.31 12.0795 11.9189 11.9006C11.5278 11.7183 11.2179 11.4548 10.9892 11.1101C10.7638 10.7654 10.6511 10.3428 10.6511 9.84233C10.6511 9.41146 10.734 9.05682 10.8997 8.77841C11.0654 8.5 11.2891 8.27959 11.5708 8.11719C11.8526 7.95478 12.1674 7.83215 12.5154 7.74929C12.8635 7.66643 13.2181 7.60346 13.5794 7.56037C14.0368 7.50734 14.408 7.46425 14.693 7.43111C14.978 7.39465 15.1852 7.33665 15.3145 7.2571C15.4437 7.17756 15.5083 7.0483 15.5083 6.86932V6.83452C15.5083 6.40033 15.3857 6.06392 15.1404 5.82528C14.8985 5.58665 14.5372 5.46733 14.0566 5.46733C13.5562 5.46733 13.1618 5.57836 12.8734 5.80043C12.5884 6.01918 12.3912 6.26278 12.2818 6.53125L10.8848 6.21307C11.0505 5.74905 11.2924 5.37453 11.6106 5.08949C11.9321 4.80114 12.3017 4.59233 12.7193 4.46307C13.1369 4.33049 13.5761 4.2642 14.0368 4.2642C14.3417 4.2642 14.6648 4.30066 15.0062 4.37358C15.3509 4.44318 15.6724 4.57244 15.9707 4.76136C16.2723 4.95028 16.5192 5.22041 16.7115 5.57173C16.9037 5.91974 16.9998 6.37216 16.9998 6.92898V12H15.5481V10.956H15.4885C15.3923 11.1482 15.2482 11.3371 15.0559 11.5227C14.8637 11.7083 14.6168 11.8625 14.3152 11.9851C14.0136 12.1077 13.6523 12.169 13.2314 12.169ZM13.5545 10.9759C13.9655 10.9759 14.3168 10.8946 14.6085 10.7322C14.9035 10.5698 15.1272 10.3577 15.2797 10.0959C15.4354 9.83073 15.5133 9.54735 15.5133 9.24574V8.26136C15.4603 8.31439 15.3575 8.36411 15.2051 8.41051C15.0559 8.4536 14.8852 8.49171 14.693 8.52486C14.5008 8.55469 14.3135 8.58286 14.1312 8.60938C13.9489 8.63258 13.7965 8.65246 13.6738 8.66903C13.3855 8.70549 13.122 8.76681 12.8833 8.85298C12.648 8.93916 12.4591 9.06345 12.3166 9.22585C12.1774 9.38494 12.1078 9.59706 12.1078 9.86222C12.1078 10.2301 12.2437 10.5085 12.5154 10.6974C12.7872 10.883 13.1336 10.9759 13.5545 10.9759ZM20.4663 1.81818V12H18.9798V1.81818H20.4663ZM25.7573 12.1541C25.0049 12.1541 24.3569 11.9934 23.8134 11.6719C23.2731 11.3471 22.8555 10.8913 22.5605 10.3047C22.2689 9.71473 22.123 9.02367 22.123 8.23153C22.123 7.44934 22.2689 6.75994 22.5605 6.16335C22.8555 5.56676 23.2665 5.10109 23.7935 4.76633C24.3238 4.43158 24.9436 4.2642 25.6529 4.2642C26.0837 4.2642 26.5014 4.33546 26.9057 4.47798C27.3101 4.6205 27.673 4.84422 27.9945 5.14915C28.316 5.45407 28.5695 5.85014 28.7551 6.33736C28.9408 6.82126 29.0336 7.40956 29.0336 8.10227V8.62926H22.9632V7.51562H27.5769C27.5769 7.12453 27.4973 6.77817 27.3382 6.47656C27.1792 6.17164 26.9554 5.93134 26.6671 5.75568C26.382 5.58002 26.0473 5.49219 25.6628 5.49219C25.2452 5.49219 24.8806 5.59493 24.5691 5.80043C24.2608 6.0026 24.0222 6.26776 23.8532 6.59588C23.6874 6.92069 23.6046 7.27367 23.6046 7.65483V8.52486C23.6046 9.03527 23.6941 9.46946 23.873 9.82741C24.0553 10.1854 24.3089 10.4588 24.6337 10.6477C24.9585 10.8333 25.338 10.9261 25.7722 10.9261C26.0539 10.9261 26.3108 10.8864 26.5428 10.8068C26.7748 10.724 26.9753 10.6013 27.1444 10.4389C27.3134 10.2765 27.4426 10.076 27.5321 9.83736L28.9391 10.0909C28.8264 10.5052 28.6242 10.8681 28.3326 11.1797C28.0442 11.4879 27.6813 11.7282 27.2438 11.9006C26.8096 12.0696 26.3141 12.1541 25.7573 12.1541ZM36.4052 6.22798L35.0579 6.46662C35.0015 6.29427 34.9121 6.13021 34.7894 5.97443C34.6701 5.81865 34.5077 5.69105 34.3022 5.59162C34.0967 5.49219 33.8398 5.44247 33.5316 5.44247C33.1107 5.44247 32.7594 5.53693 32.4776 5.72585C32.1959 5.91146 32.055 6.15175 32.055 6.44673C32.055 6.70194 32.1495 6.90743 32.3384 7.06321C32.5273 7.21899 32.8323 7.34659 33.2532 7.44602L34.4663 7.72443C35.1689 7.88684 35.6926 8.13707 36.0373 8.47514C36.382 8.81321 36.5543 9.25237 36.5543 9.79261C36.5543 10.25 36.4218 10.6577 36.1566 11.0156C35.8948 11.3703 35.5285 11.6487 35.0579 11.8509C34.5906 12.053 34.0487 12.1541 33.4322 12.1541C32.5771 12.1541 31.8794 11.9718 31.3391 11.6072C30.7989 11.2393 30.4674 10.7173 30.3448 10.0412L31.7816 9.82244C31.8711 10.197 32.055 10.4804 32.3335 10.6726C32.6119 10.8615 32.9748 10.956 33.4222 10.956C33.9094 10.956 34.2989 10.8549 34.5906 10.6527C34.8822 10.4472 35.0281 10.197 35.0281 9.90199C35.0281 9.66335 34.9386 9.46283 34.7596 9.30043C34.5839 9.13802 34.3138 9.01539 33.9492 8.93253L32.6566 8.64915C31.944 8.48674 31.417 8.22822 31.0756 7.87358C30.7376 7.51894 30.5685 7.06984 30.5685 6.52628C30.5685 6.07552 30.6945 5.68111 30.9464 5.34304C31.1983 5.00497 31.5463 4.74148 31.9904 4.55256C32.4345 4.36032 32.9433 4.2642 33.5167 4.2642C34.342 4.2642 34.9916 4.44318 35.4656 4.80114C35.9395 5.15578 36.2527 5.63139 36.4052 6.22798Z" fill="#222222"/>
<circle cx="129" cy="166" r="89" stroke="#222222" stroke-width="2"/>
<mask id="path-22-inside-1_0_1" fill="white">
<path d="M219 166C219 181.354 215.072 196.453 207.589 209.86C200.107 223.268 189.318 234.538 176.25 242.599C163.183 250.66 148.27 255.244 132.93 255.914C117.591 256.585 102.335 253.32 88.6135 246.43C74.8921 239.54 63.1615 229.254 54.5376 216.55C45.9136 203.847 40.683 189.149 39.3433 173.853C38.0035 158.558 40.5992 143.174 46.8834 129.164C53.1676 115.155 62.9314 102.987 75.246 93.8161L129 166H219Z"/>
</mask>
<path d="M219 166C219 181.354 215.072 196.453 207.589 209.86C200.107 223.268 189.318 234.538 176.25 242.599C163.183 250.66 148.27 255.244 132.93 255.914C117.591 256.585 102.335 253.32 88.6135 246.43C74.8921 239.54 63.1615 229.254 54.5376 216.55C45.9136 203.847 40.683 189.149 39.3433 173.853C38.0035 158.558 40.5992 143.174 46.8834 129.164C53.1676 115.155 62.9314 102.987 75.246 93.8161L129 166H219Z" stroke="#222222" stroke-width="4" mask="url(#path-22-inside-1_0_1)"/>
</svg>
