<svg width="400" height="248" viewBox="0 0 400 248" fill="none" xmlns="http://www.w3.org/2000/svg">
<rect x="51.5" y="25.5" width="297" height="197" rx="10.5" stroke="#222222" stroke-width="3"/>
<rect x="53" y="57" width="294" height="2" fill="#222222"/>
<path d="M75.2628 129H73.2855L76.2983 120.273H78.6761L81.6847 129H79.7074L77.5213 122.267H77.4531L75.2628 129ZM75.1392 125.57H79.8097V127.01H75.1392V125.57ZM84.5163 120.273V129H82.701V120.273H84.5163ZM85.9705 129V122.455H87.7859V129H85.9705ZM86.8825 121.611C86.6126 121.611 86.381 121.521 86.1879 121.342C85.9975 121.161 85.9023 120.943 85.9023 120.69C85.9023 120.44 85.9975 120.226 86.1879 120.047C86.381 119.865 86.6126 119.774 86.8825 119.774C87.1523 119.774 87.3825 119.865 87.5728 120.047C87.766 120.226 87.8626 120.44 87.8626 120.69C87.8626 120.943 87.766 121.161 87.5728 121.342C87.3825 121.521 87.1523 121.611 86.8825 121.611ZM92.1974 129.128C91.527 129.128 90.9503 128.986 90.4673 128.702C89.9872 128.415 89.6179 128.017 89.3594 127.509C89.1037 127 88.9759 126.415 88.9759 125.753C88.9759 125.082 89.1051 124.494 89.3636 123.989C89.625 123.48 89.9957 123.084 90.4759 122.8C90.956 122.513 91.527 122.369 92.1889 122.369C92.7599 122.369 93.2599 122.473 93.6889 122.68C94.1179 122.888 94.4574 123.179 94.7074 123.554C94.9574 123.929 95.0952 124.369 95.1207 124.875H93.4077C93.3594 124.548 93.2315 124.286 93.0241 124.087C92.8196 123.885 92.5511 123.784 92.2188 123.784C91.9375 123.784 91.6918 123.861 91.4815 124.014C91.2741 124.165 91.1122 124.385 90.9957 124.675C90.8793 124.964 90.821 125.315 90.821 125.727C90.821 126.145 90.8778 126.5 90.9915 126.793C91.108 127.085 91.2713 127.308 91.4815 127.462C91.6918 127.615 91.9375 127.692 92.2188 127.692C92.4261 127.692 92.6122 127.649 92.777 127.564C92.9446 127.479 93.0824 127.355 93.1903 127.193C93.3011 127.028 93.3736 126.831 93.4077 126.601H95.1207C95.0923 127.101 94.956 127.541 94.7116 127.922C94.4702 128.3 94.1364 128.595 93.7102 128.808C93.2841 129.021 92.7798 129.128 92.1974 129.128ZM96.283 129V122.455H98.0984V129H96.283ZM97.195 121.611C96.9251 121.611 96.6935 121.521 96.5004 121.342C96.31 121.161 96.2148 120.943 96.2148 120.69C96.2148 120.44 96.31 120.226 96.5004 120.047C96.6935 119.865 96.9251 119.774 97.195 119.774C97.4648 119.774 97.695 119.865 97.8853 120.047C98.0785 120.226 98.1751 120.44 98.1751 120.69C98.1751 120.943 98.0785 121.161 97.8853 121.342C97.695 121.521 97.4648 121.611 97.195 121.611ZM101.419 129.124C101.001 129.124 100.629 129.051 100.303 128.906C99.9759 128.759 99.7173 128.541 99.527 128.254C99.3395 127.964 99.2457 127.604 99.2457 127.172C99.2457 126.808 99.3125 126.503 99.446 126.256C99.5795 126.009 99.7614 125.81 99.9915 125.659C100.222 125.509 100.483 125.395 100.776 125.318C101.071 125.241 101.381 125.188 101.705 125.156C102.085 125.116 102.392 125.08 102.625 125.045C102.858 125.009 103.027 124.955 103.132 124.884C103.237 124.812 103.29 124.707 103.29 124.568V124.543C103.29 124.273 103.205 124.064 103.034 123.916C102.866 123.768 102.628 123.695 102.318 123.695C101.991 123.695 101.732 123.767 101.538 123.912C101.345 124.054 101.217 124.233 101.155 124.449L99.4759 124.312C99.5611 123.915 99.7287 123.571 99.9787 123.281C100.229 122.989 100.551 122.764 100.946 122.608C101.344 122.449 101.804 122.369 102.327 122.369C102.69 122.369 103.038 122.412 103.371 122.497C103.706 122.582 104.003 122.714 104.261 122.893C104.523 123.072 104.729 123.303 104.879 123.584C105.03 123.862 105.105 124.196 105.105 124.585V129H103.384V128.092H103.332C103.227 128.297 103.087 128.477 102.911 128.634C102.734 128.787 102.523 128.908 102.276 128.996C102.028 129.081 101.743 129.124 101.419 129.124ZM101.939 127.871C102.206 127.871 102.442 127.818 102.646 127.713C102.851 127.605 103.011 127.46 103.128 127.278C103.244 127.097 103.303 126.891 103.303 126.661V125.966C103.246 126.003 103.168 126.037 103.068 126.068C102.972 126.097 102.862 126.124 102.74 126.149C102.618 126.172 102.496 126.193 102.374 126.213C102.251 126.23 102.141 126.246 102.041 126.26C101.828 126.291 101.642 126.341 101.483 126.409C101.324 126.477 101.2 126.57 101.112 126.686C101.024 126.8 100.98 126.942 100.98 127.112C100.98 127.359 101.07 127.548 101.249 127.679C101.43 127.807 101.661 127.871 101.939 127.871ZM111.106 120.273V129H109.291V120.273H111.106ZM115.543 129.128C114.87 129.128 114.29 128.991 113.805 128.719C113.322 128.443 112.95 128.054 112.688 127.551C112.427 127.045 112.296 126.447 112.296 125.757C112.296 125.084 112.427 124.493 112.688 123.984C112.95 123.476 113.317 123.08 113.792 122.795C114.269 122.511 114.829 122.369 115.471 122.369C115.903 122.369 116.305 122.439 116.677 122.578C117.052 122.714 117.379 122.92 117.657 123.196C117.938 123.472 118.157 123.818 118.313 124.236C118.469 124.651 118.548 125.136 118.548 125.693V126.192H113.021V125.067H116.839C116.839 124.805 116.782 124.574 116.668 124.372C116.555 124.17 116.397 124.013 116.195 123.899C115.996 123.783 115.765 123.724 115.501 123.724C115.225 123.724 114.981 123.788 114.768 123.916C114.558 124.041 114.393 124.21 114.273 124.423C114.154 124.634 114.093 124.868 114.09 125.126V126.196C114.09 126.52 114.15 126.8 114.269 127.036C114.391 127.271 114.563 127.453 114.785 127.581C115.006 127.709 115.269 127.773 115.573 127.773C115.775 127.773 115.96 127.744 116.127 127.688C116.295 127.631 116.438 127.545 116.558 127.432C116.677 127.318 116.768 127.179 116.83 127.014L118.509 127.125C118.424 127.528 118.249 127.881 117.985 128.182C117.724 128.48 117.386 128.713 116.971 128.881C116.559 129.045 116.083 129.128 115.543 129.128ZM123.252 122.455V123.818H119.212V122.455H123.252ZM120.137 129V121.982C120.137 121.507 120.229 121.114 120.414 120.801C120.602 120.489 120.857 120.254 121.181 120.098C121.505 119.942 121.873 119.864 122.285 119.864C122.563 119.864 122.817 119.885 123.048 119.928C123.281 119.97 123.454 120.009 123.567 120.043L123.244 121.406C123.173 121.384 123.085 121.362 122.979 121.342C122.877 121.322 122.772 121.312 122.664 121.312C122.397 121.312 122.211 121.375 122.106 121.5C122.001 121.622 121.948 121.794 121.948 122.016V129H120.137ZM127.843 122.455V123.818H123.901V122.455H127.843ZM124.796 120.886H126.611V126.989C126.611 127.156 126.637 127.287 126.688 127.381C126.739 127.472 126.81 127.536 126.901 127.572C126.995 127.609 127.103 127.628 127.225 127.628C127.31 127.628 127.395 127.621 127.48 127.607C127.566 127.589 127.631 127.577 127.676 127.568L127.962 128.919C127.871 128.947 127.743 128.98 127.578 129.017C127.414 129.057 127.213 129.081 126.978 129.089C126.54 129.107 126.157 129.048 125.827 128.915C125.5 128.781 125.246 128.574 125.064 128.293C124.882 128.011 124.793 127.656 124.796 127.227V120.886ZM133.669 129.124C133.251 129.124 132.879 129.051 132.553 128.906C132.226 128.759 131.967 128.541 131.777 128.254C131.589 127.964 131.496 127.604 131.496 127.172C131.496 126.808 131.563 126.503 131.696 126.256C131.83 126.009 132.011 125.81 132.241 125.659C132.472 125.509 132.733 125.395 133.026 125.318C133.321 125.241 133.631 125.188 133.955 125.156C134.335 125.116 134.642 125.08 134.875 125.045C135.108 125.009 135.277 124.955 135.382 124.884C135.487 124.812 135.54 124.707 135.54 124.568V124.543C135.54 124.273 135.455 124.064 135.284 123.916C135.116 123.768 134.878 123.695 134.568 123.695C134.241 123.695 133.982 123.767 133.788 123.912C133.595 124.054 133.467 124.233 133.405 124.449L131.726 124.312C131.811 123.915 131.979 123.571 132.229 123.281C132.479 122.989 132.801 122.764 133.196 122.608C133.594 122.449 134.054 122.369 134.577 122.369C134.94 122.369 135.288 122.412 135.621 122.497C135.956 122.582 136.253 122.714 136.511 122.893C136.773 123.072 136.979 123.303 137.129 123.584C137.28 123.862 137.355 124.196 137.355 124.585V129H135.634V128.092H135.582C135.477 128.297 135.337 128.477 135.161 128.634C134.984 128.787 134.773 128.908 134.526 128.996C134.278 129.081 133.993 129.124 133.669 129.124ZM134.189 127.871C134.456 127.871 134.692 127.818 134.896 127.713C135.101 127.605 135.261 127.46 135.378 127.278C135.494 127.097 135.553 126.891 135.553 126.661V125.966C135.496 126.003 135.418 126.037 135.318 126.068C135.222 126.097 135.112 126.124 134.99 126.149C134.868 126.172 134.746 126.193 134.624 126.213C134.501 126.23 134.391 126.246 134.291 126.26C134.078 126.291 133.892 126.341 133.733 126.409C133.574 126.477 133.45 126.57 133.362 126.686C133.274 126.8 133.23 126.942 133.23 127.112C133.23 127.359 133.32 127.548 133.499 127.679C133.68 127.807 133.911 127.871 134.189 127.871ZM144.498 129.128C143.828 129.128 143.251 128.986 142.768 128.702C142.288 128.415 141.919 128.017 141.66 127.509C141.404 127 141.277 126.415 141.277 125.753C141.277 125.082 141.406 124.494 141.664 123.989C141.926 123.48 142.297 123.084 142.777 122.8C143.257 122.513 143.828 122.369 144.49 122.369C145.061 122.369 145.561 122.473 145.99 122.68C146.419 122.888 146.758 123.179 147.008 123.554C147.258 123.929 147.396 124.369 147.422 124.875H145.708C145.66 124.548 145.532 124.286 145.325 124.087C145.12 123.885 144.852 123.784 144.52 123.784C144.238 123.784 143.993 123.861 143.782 124.014C143.575 124.165 143.413 124.385 143.297 124.675C143.18 124.964 143.122 125.315 143.122 125.727C143.122 126.145 143.179 126.5 143.292 126.793C143.409 127.085 143.572 127.308 143.782 127.462C143.993 127.615 144.238 127.692 144.52 127.692C144.727 127.692 144.913 127.649 145.078 127.564C145.245 127.479 145.383 127.355 145.491 127.193C145.602 127.028 145.674 126.831 145.708 126.601H147.422C147.393 127.101 147.257 127.541 147.012 127.922C146.771 128.3 146.437 128.595 146.011 128.808C145.585 129.021 145.081 129.128 144.498 129.128ZM151.541 129.128C150.879 129.128 150.307 128.987 149.824 128.706C149.344 128.422 148.973 128.027 148.712 127.521C148.45 127.013 148.32 126.423 148.32 125.753C148.32 125.077 148.45 124.486 148.712 123.98C148.973 123.472 149.344 123.077 149.824 122.795C150.307 122.511 150.879 122.369 151.541 122.369C152.203 122.369 152.774 122.511 153.254 122.795C153.737 123.077 154.109 123.472 154.371 123.98C154.632 124.486 154.763 125.077 154.763 125.753C154.763 126.423 154.632 127.013 154.371 127.521C154.109 128.027 153.737 128.422 153.254 128.706C152.774 128.987 152.203 129.128 151.541 129.128ZM151.55 127.722C151.851 127.722 152.102 127.636 152.304 127.466C152.506 127.293 152.658 127.057 152.76 126.759C152.865 126.46 152.918 126.121 152.918 125.74C152.918 125.359 152.865 125.02 152.76 124.722C152.658 124.423 152.506 124.187 152.304 124.014C152.102 123.841 151.851 123.754 151.55 123.754C151.246 123.754 150.99 123.841 150.783 124.014C150.578 124.187 150.423 124.423 150.318 124.722C150.216 125.02 150.165 125.359 150.165 125.74C150.165 126.121 150.216 126.46 150.318 126.759C150.423 127.057 150.578 127.293 150.783 127.466C150.99 127.636 151.246 127.722 151.55 127.722ZM155.943 129V122.455H157.673V123.609H157.75C157.886 123.226 158.114 122.923 158.432 122.702C158.75 122.48 159.131 122.369 159.574 122.369C160.023 122.369 160.405 122.482 160.72 122.706C161.036 122.928 161.246 123.229 161.351 123.609H161.419C161.553 123.234 161.794 122.935 162.143 122.71C162.496 122.483 162.912 122.369 163.392 122.369C164.003 122.369 164.499 122.564 164.879 122.953C165.263 123.339 165.455 123.888 165.455 124.598V129H163.643V124.956C163.643 124.592 163.547 124.32 163.354 124.138C163.161 123.956 162.919 123.865 162.629 123.865C162.3 123.865 162.043 123.97 161.858 124.18C161.673 124.388 161.581 124.662 161.581 125.003V129H159.821V124.918C159.821 124.597 159.729 124.341 159.544 124.151C159.362 123.96 159.122 123.865 158.824 123.865C158.622 123.865 158.44 123.916 158.278 124.018C158.119 124.118 157.993 124.259 157.899 124.44C157.805 124.619 157.759 124.83 157.759 125.071V129H155.943ZM166.888 129V122.455H168.619V123.609H168.695C168.832 123.226 169.059 122.923 169.377 122.702C169.695 122.48 170.076 122.369 170.519 122.369C170.968 122.369 171.35 122.482 171.665 122.706C171.981 122.928 172.191 123.229 172.296 123.609H172.364C172.498 123.234 172.739 122.935 173.089 122.71C173.441 122.483 173.857 122.369 174.337 122.369C174.948 122.369 175.444 122.564 175.825 122.953C176.208 123.339 176.4 123.888 176.4 124.598V129H174.589V124.956C174.589 124.592 174.492 124.32 174.299 124.138C174.106 123.956 173.864 123.865 173.575 123.865C173.245 123.865 172.988 123.97 172.803 124.18C172.619 124.388 172.526 124.662 172.526 125.003V129H170.766V124.918C170.766 124.597 170.674 124.341 170.489 124.151C170.308 123.96 170.067 123.865 169.769 123.865C169.567 123.865 169.386 123.916 169.224 124.018C169.065 124.118 168.938 124.259 168.844 124.44C168.751 124.619 168.704 124.83 168.704 125.071V129H166.888ZM180.817 129.128C180.143 129.128 179.564 128.991 179.078 128.719C178.595 128.443 178.223 128.054 177.962 127.551C177.7 127.045 177.57 126.447 177.57 125.757C177.57 125.084 177.7 124.493 177.962 123.984C178.223 123.476 178.591 123.08 179.065 122.795C179.543 122.511 180.102 122.369 180.744 122.369C181.176 122.369 181.578 122.439 181.95 122.578C182.325 122.714 182.652 122.92 182.93 123.196C183.212 123.472 183.43 123.818 183.587 124.236C183.743 124.651 183.821 125.136 183.821 125.693V126.192H178.294V125.067H182.112C182.112 124.805 182.055 124.574 181.942 124.372C181.828 124.17 181.67 124.013 181.469 123.899C181.27 123.783 181.038 123.724 180.774 123.724C180.499 123.724 180.254 123.788 180.041 123.916C179.831 124.041 179.666 124.21 179.547 124.423C179.428 124.634 179.366 124.868 179.364 125.126V126.196C179.364 126.52 179.423 126.8 179.543 127.036C179.665 127.271 179.837 127.453 180.058 127.581C180.28 127.709 180.543 127.773 180.847 127.773C181.048 127.773 181.233 127.744 181.401 127.688C181.568 127.631 181.712 127.545 181.831 127.432C181.95 127.318 182.041 127.179 182.104 127.014L183.783 127.125C183.697 127.528 183.523 127.881 183.259 128.182C182.997 128.48 182.659 128.713 182.244 128.881C181.832 129.045 181.357 129.128 180.817 129.128ZM186.821 125.216V129H185.006V122.455H186.736V123.609H186.812C186.957 123.229 187.2 122.928 187.541 122.706C187.882 122.482 188.295 122.369 188.781 122.369C189.236 122.369 189.632 122.469 189.97 122.668C190.308 122.866 190.571 123.151 190.759 123.52C190.946 123.886 191.04 124.324 191.04 124.832V129H189.224V125.156C189.227 124.756 189.125 124.443 188.918 124.219C188.71 123.991 188.425 123.878 188.061 123.878C187.817 123.878 187.601 123.93 187.413 124.036C187.229 124.141 187.084 124.294 186.979 124.496C186.876 124.695 186.824 124.935 186.821 125.216ZM195.952 122.455V123.818H192.01V122.455H195.952ZM192.905 120.886H194.721V126.989C194.721 127.156 194.746 127.287 194.797 127.381C194.848 127.472 194.919 127.536 195.01 127.572C195.104 127.609 195.212 127.628 195.334 127.628C195.419 127.628 195.505 127.621 195.59 127.607C195.675 127.589 195.74 127.577 195.786 127.568L196.071 128.919C195.98 128.947 195.853 128.98 195.688 129.017C195.523 129.057 195.323 129.081 195.087 129.089C194.65 129.107 194.266 129.048 193.936 128.915C193.61 128.781 193.355 128.574 193.174 128.293C192.992 128.011 192.902 127.656 192.905 127.227V120.886Z" fill="black"/>
<path d="M111.207 87.1108H109.878C109.827 86.8267 109.732 86.5767 109.592 86.3608C109.453 86.1449 109.283 85.9616 109.081 85.8111C108.879 85.6605 108.653 85.5469 108.403 85.4702C108.156 85.3935 107.893 85.3551 107.615 85.3551C107.112 85.3551 106.662 85.4815 106.264 85.7344C105.869 85.9872 105.557 86.358 105.327 86.8466C105.099 87.3352 104.986 87.9318 104.986 88.6364C104.986 89.3466 105.099 89.946 105.327 90.4347C105.557 90.9233 105.871 91.2926 106.268 91.5426C106.666 91.7926 107.114 91.9176 107.611 91.9176C107.886 91.9176 108.148 91.8807 108.395 91.8068C108.645 91.7301 108.871 91.6179 109.072 91.4702C109.274 91.3224 109.445 91.142 109.584 90.929C109.726 90.7131 109.824 90.4659 109.878 90.1875L111.207 90.1918C111.136 90.6207 110.999 91.0156 110.794 91.3764C110.592 91.7344 110.332 92.044 110.014 92.3054C109.699 92.5639 109.338 92.7642 108.932 92.9062C108.526 93.0483 108.082 93.1193 107.602 93.1193C106.847 93.1193 106.173 92.9403 105.582 92.5824C104.991 92.2216 104.526 91.706 104.185 91.0355C103.847 90.3651 103.678 89.5653 103.678 88.6364C103.678 87.7045 103.848 86.9048 104.189 86.2372C104.53 85.5668 104.996 85.0526 105.587 84.6946C106.178 84.3338 106.849 84.1534 107.602 84.1534C108.065 84.1534 108.497 84.2202 108.898 84.3537C109.301 84.4844 109.663 84.6776 109.984 84.9332C110.305 85.1861 110.571 85.4957 110.781 85.8622C110.991 86.2259 111.134 86.642 111.207 87.1108ZM115.438 93.1321C114.824 93.1321 114.289 92.9915 113.831 92.7102C113.374 92.429 113.019 92.0355 112.766 91.5298C112.513 91.0241 112.387 90.4332 112.387 89.7571C112.387 89.0781 112.513 88.4844 112.766 87.9759C113.019 87.4673 113.374 87.0724 113.831 86.7912C114.289 86.5099 114.824 86.3693 115.438 86.3693C116.051 86.3693 116.587 86.5099 117.044 86.7912C117.502 87.0724 117.857 87.4673 118.11 87.9759C118.363 88.4844 118.489 89.0781 118.489 89.7571C118.489 90.4332 118.363 91.0241 118.11 91.5298C117.857 92.0355 117.502 92.429 117.044 92.7102C116.587 92.9915 116.051 93.1321 115.438 93.1321ZM115.442 92.0625C115.84 92.0625 116.169 91.9574 116.431 91.7472C116.692 91.5369 116.885 91.2571 117.01 90.9077C117.138 90.5582 117.202 90.1733 117.202 89.7528C117.202 89.3352 117.138 88.9517 117.01 88.6023C116.885 88.25 116.692 87.9673 116.431 87.7543C116.169 87.5412 115.84 87.4347 115.442 87.4347C115.042 87.4347 114.709 87.5412 114.445 87.7543C114.184 87.9673 113.989 88.25 113.861 88.6023C113.736 88.9517 113.674 89.3352 113.674 89.7528C113.674 90.1733 113.736 90.5582 113.861 90.9077C113.989 91.2571 114.184 91.5369 114.445 91.7472C114.709 91.9574 115.042 92.0625 115.442 92.0625ZM121.185 84.2727V93H119.911V84.2727H121.185ZM124.174 84.2727V93H122.9V84.2727H124.174ZM127.793 93.1449C127.378 93.1449 127.003 93.0682 126.668 92.9148C126.332 92.7585 126.067 92.5327 125.871 92.2372C125.678 91.9418 125.581 91.5795 125.581 91.1506C125.581 90.7812 125.652 90.4773 125.794 90.2386C125.936 90 126.128 89.8111 126.369 89.6719C126.611 89.5327 126.881 89.4276 127.179 89.3565C127.477 89.2855 127.781 89.2315 128.091 89.1946C128.483 89.1491 128.801 89.1122 129.045 89.0838C129.29 89.0526 129.467 89.0028 129.578 88.9347C129.689 88.8665 129.744 88.7557 129.744 88.6023V88.5724C129.744 88.2003 129.639 87.9119 129.429 87.7074C129.222 87.5028 128.912 87.4006 128.5 87.4006C128.071 87.4006 127.733 87.4957 127.486 87.6861C127.241 87.8736 127.072 88.0824 126.979 88.3125L125.781 88.0398C125.923 87.642 126.131 87.321 126.403 87.0767C126.679 86.8295 126.996 86.6506 127.354 86.5398C127.712 86.4261 128.088 86.3693 128.483 86.3693C128.744 86.3693 129.021 86.4006 129.314 86.4631C129.609 86.5227 129.885 86.6335 130.141 86.7955C130.399 86.9574 130.611 87.1889 130.776 87.4901C130.94 87.7884 131.023 88.1761 131.023 88.6534V93H129.778V92.1051H129.727C129.645 92.2699 129.521 92.4318 129.357 92.5909C129.192 92.75 128.98 92.8821 128.722 92.9872C128.463 93.0923 128.153 93.1449 127.793 93.1449ZM128.07 92.1222C128.422 92.1222 128.723 92.0526 128.973 91.9134C129.226 91.7741 129.418 91.5923 129.548 91.3679C129.682 91.1406 129.749 90.8977 129.749 90.6392V89.7955C129.703 89.8409 129.615 89.8835 129.484 89.9233C129.357 89.9602 129.21 89.9929 129.045 90.0213C128.881 90.0469 128.72 90.071 128.564 90.0938C128.408 90.1136 128.277 90.1307 128.172 90.1449C127.925 90.1761 127.699 90.2287 127.494 90.3026C127.293 90.3764 127.131 90.483 127.009 90.6222C126.889 90.7585 126.83 90.9403 126.83 91.1676C126.83 91.483 126.946 91.7216 127.179 91.8835C127.412 92.0426 127.709 92.1222 128.07 92.1222ZM132.822 93V84.2727H134.096V87.5156H134.173C134.247 87.3793 134.353 87.2216 134.493 87.0426C134.632 86.8636 134.825 86.7074 135.072 86.5739C135.319 86.4375 135.646 86.3693 136.052 86.3693C136.581 86.3693 137.052 86.5028 137.467 86.7699C137.882 87.0369 138.207 87.4219 138.443 87.9247C138.681 88.4276 138.801 89.0327 138.801 89.7401C138.801 90.4474 138.683 91.054 138.447 91.5597C138.211 92.0625 137.887 92.4503 137.475 92.723C137.064 92.9929 136.593 93.1278 136.065 93.1278C135.667 93.1278 135.342 93.0611 135.089 92.9276C134.839 92.794 134.643 92.6378 134.501 92.4588C134.359 92.2798 134.25 92.1207 134.173 91.9815H134.066V93H132.822ZM134.071 89.7273C134.071 90.1875 134.137 90.5909 134.271 90.9375C134.404 91.2841 134.598 91.5554 134.85 91.7514C135.103 91.9446 135.413 92.0412 135.779 92.0412C136.16 92.0412 136.478 91.9403 136.734 91.7386C136.99 91.5341 137.183 91.2571 137.314 90.9077C137.447 90.5582 137.514 90.1648 137.514 89.7273C137.514 89.2955 137.449 88.9077 137.318 88.5639C137.19 88.2202 136.997 87.9489 136.738 87.75C136.483 87.5511 136.163 87.4517 135.779 87.4517C135.41 87.4517 135.098 87.5469 134.842 87.7372C134.589 87.9276 134.397 88.1932 134.267 88.5341C134.136 88.875 134.071 89.2727 134.071 89.7273ZM140.334 93V84.2727H141.651V88.4403H141.757L145.418 84.2727H147.075L143.555 88.2017L147.088 93H145.503L142.682 89.1009L141.651 90.2855V93H140.334ZM148.61 93V86.4545H149.885V93H148.61ZM149.254 85.4446C149.032 85.4446 148.842 85.3707 148.683 85.223C148.527 85.0724 148.449 84.8935 148.449 84.6861C148.449 84.4759 148.527 84.2969 148.683 84.1491C148.842 83.9986 149.032 83.9233 149.254 83.9233C149.475 83.9233 149.664 83.9986 149.821 84.1491C149.98 84.2969 150.059 84.4759 150.059 84.6861C150.059 84.8935 149.98 85.0724 149.821 85.223C149.664 85.3707 149.475 85.4446 149.254 85.4446ZM154.654 86.4545V87.4773H151.079V86.4545H154.654ZM152.038 84.8864H153.312V91.0781C153.312 91.3253 153.349 91.5114 153.423 91.6364C153.496 91.7585 153.592 91.8423 153.708 91.8878C153.827 91.9304 153.957 91.9517 154.096 91.9517C154.198 91.9517 154.288 91.9446 154.364 91.9304C154.441 91.9162 154.501 91.9048 154.543 91.8963L154.773 92.9489C154.7 92.9773 154.594 93.0057 154.458 93.0341C154.322 93.0653 154.151 93.0824 153.947 93.0852C153.612 93.0909 153.299 93.0312 153.009 92.9062C152.719 92.7812 152.485 92.5881 152.306 92.3267C152.127 92.0653 152.038 91.7372 152.038 91.3423V84.8864Z" fill="black"/>
<path d="M76.1705 148.909V162H74.5852V148.909H76.1705ZM85.7154 148.909V162H84.2069V148.909H85.7154ZM92.467 162.205C91.5806 162.205 90.8029 161.994 90.1339 161.572C89.4691 161.15 88.9492 160.56 88.5742 159.801C88.2035 159.043 88.0181 158.156 88.0181 157.142C88.0181 156.119 88.2035 155.227 88.5742 154.464C88.9492 153.701 89.4691 153.109 90.1339 152.687C90.8029 152.265 91.5806 152.054 92.467 152.054C93.3533 152.054 94.1289 152.265 94.7937 152.687C95.4627 153.109 95.9826 153.701 96.3533 154.464C96.7283 155.227 96.9158 156.119 96.9158 157.142C96.9158 158.156 96.7283 159.043 96.3533 159.801C95.9826 160.56 95.4627 161.15 94.7937 161.572C94.1289 161.994 93.3533 162.205 92.467 162.205ZM92.467 160.849C93.1403 160.849 93.6942 160.677 94.1289 160.332C94.5636 159.987 94.8853 159.533 95.0941 158.97C95.3029 158.408 95.4073 157.798 95.4073 157.142C95.4073 156.486 95.3029 155.874 95.0941 155.308C94.8853 154.741 94.5636 154.283 94.1289 153.933C93.6942 153.584 93.1403 153.409 92.467 153.409C91.7937 153.409 91.2397 153.584 90.805 153.933C90.3704 154.283 90.0487 154.741 89.8398 155.308C89.631 155.874 89.5266 156.486 89.5266 157.142C89.5266 157.798 89.631 158.408 89.8398 158.97C90.0487 159.533 90.3704 159.987 90.805 160.332C91.2397 160.677 91.7937 160.849 92.467 160.849ZM106.895 152.182L103.265 162H101.731L98.1 152.182H99.7363L102.447 160.006H102.549L105.259 152.182H106.895ZM112.651 162.205C111.705 162.205 110.889 161.996 110.203 161.578C109.521 161.156 108.995 160.568 108.624 159.814C108.258 159.055 108.075 158.173 108.075 157.168C108.075 156.162 108.258 155.276 108.624 154.509C108.995 153.737 109.511 153.136 110.171 152.706C110.836 152.271 111.612 152.054 112.498 152.054C113.009 152.054 113.514 152.139 114.013 152.31C114.512 152.48 114.965 152.757 115.374 153.141C115.784 153.52 116.11 154.023 116.352 154.649C116.595 155.276 116.717 156.047 116.717 156.963V157.602H109.149V156.298H115.183C115.183 155.744 115.072 155.25 114.85 154.815C114.633 154.381 114.322 154.038 113.917 153.786C113.517 153.535 113.044 153.409 112.498 153.409C111.897 153.409 111.377 153.558 110.938 153.857C110.504 154.151 110.169 154.534 109.935 155.007C109.7 155.48 109.583 155.987 109.583 156.528V157.398C109.583 158.139 109.711 158.768 109.967 159.283C110.227 159.795 110.587 160.185 111.047 160.453C111.507 160.717 112.042 160.849 112.651 160.849C113.048 160.849 113.406 160.794 113.725 160.683C114.049 160.568 114.328 160.398 114.563 160.172C114.797 159.942 114.978 159.656 115.106 159.315L116.563 159.724C116.41 160.219 116.152 160.653 115.79 161.028C115.428 161.399 114.98 161.689 114.448 161.898C113.915 162.102 113.316 162.205 112.651 162.205ZM128.344 152.182V153.46H123.256V152.182H128.344ZM124.739 149.83H126.247V159.188C126.247 159.614 126.309 159.933 126.433 160.146C126.561 160.355 126.722 160.496 126.919 160.568C127.119 160.636 127.33 160.67 127.551 160.67C127.718 160.67 127.854 160.662 127.96 160.645C128.067 160.624 128.152 160.607 128.216 160.594L128.523 161.949C128.421 161.987 128.278 162.026 128.095 162.064C127.911 162.107 127.679 162.128 127.398 162.128C126.972 162.128 126.554 162.036 126.145 161.853C125.74 161.67 125.404 161.391 125.135 161.016C124.871 160.641 124.739 160.168 124.739 159.597V149.83ZM132.333 156.094V162H130.824V148.909H132.333V153.716H132.46C132.691 153.209 133.036 152.806 133.496 152.508C133.96 152.205 134.578 152.054 135.35 152.054C136.019 152.054 136.605 152.188 137.107 152.457C137.61 152.721 138 153.128 138.277 153.678C138.558 154.223 138.699 154.918 138.699 155.761V162H137.191V155.864C137.191 155.084 136.988 154.481 136.583 154.055C136.183 153.624 135.627 153.409 134.915 153.409C134.421 153.409 133.977 153.513 133.585 153.722C133.198 153.931 132.891 154.236 132.665 154.636C132.443 155.037 132.333 155.523 132.333 156.094ZM145.575 162.205C144.629 162.205 143.813 161.996 143.127 161.578C142.445 161.156 141.919 160.568 141.548 159.814C141.182 159.055 140.999 158.173 140.999 157.168C140.999 156.162 141.182 155.276 141.548 154.509C141.919 153.737 142.435 153.136 143.095 152.706C143.76 152.271 144.536 152.054 145.422 152.054C145.933 152.054 146.438 152.139 146.937 152.31C147.435 152.48 147.889 152.757 148.298 153.141C148.707 153.52 149.033 154.023 149.276 154.649C149.519 155.276 149.641 156.047 149.641 156.963V157.602H142.072V156.298H148.107C148.107 155.744 147.996 155.25 147.774 154.815C147.557 154.381 147.246 154.038 146.841 153.786C146.44 153.535 145.967 153.409 145.422 153.409C144.821 153.409 144.301 153.558 143.862 153.857C143.428 154.151 143.093 154.534 142.859 155.007C142.624 155.48 142.507 155.987 142.507 156.528V157.398C142.507 158.139 142.635 158.768 142.891 159.283C143.151 159.795 143.511 160.185 143.971 160.453C144.431 160.717 144.966 160.849 145.575 160.849C145.972 160.849 146.33 160.794 146.649 160.683C146.973 160.568 147.252 160.398 147.487 160.172C147.721 159.942 147.902 159.656 148.03 159.315L149.487 159.724C149.334 160.219 149.076 160.653 148.714 161.028C148.352 161.399 147.904 161.689 147.371 161.898C146.839 162.102 146.24 162.205 145.575 162.205ZM158.89 154.381L157.535 154.764C157.45 154.538 157.324 154.319 157.158 154.106C156.996 153.888 156.774 153.71 156.493 153.569C156.212 153.428 155.852 153.358 155.413 153.358C154.812 153.358 154.311 153.496 153.911 153.773C153.514 154.046 153.316 154.393 153.316 154.815C153.316 155.19 153.452 155.487 153.725 155.704C153.998 155.921 154.424 156.102 155.004 156.247L156.461 156.605C157.339 156.818 157.993 157.144 158.423 157.583C158.854 158.018 159.069 158.578 159.069 159.264C159.069 159.827 158.907 160.33 158.583 160.773C158.263 161.216 157.816 161.565 157.241 161.821C156.665 162.077 155.996 162.205 155.234 162.205C154.232 162.205 153.403 161.987 152.747 161.553C152.091 161.118 151.675 160.483 151.501 159.648L152.933 159.29C153.069 159.818 153.327 160.214 153.706 160.479C154.089 160.743 154.59 160.875 155.208 160.875C155.911 160.875 156.469 160.726 156.883 160.428C157.3 160.125 157.509 159.763 157.509 159.341C157.509 159 157.39 158.714 157.151 158.484C156.913 158.25 156.546 158.075 156.052 157.96L154.415 157.577C153.516 157.364 152.856 157.033 152.434 156.586C152.016 156.134 151.808 155.57 151.808 154.892C151.808 154.338 151.963 153.848 152.274 153.422C152.589 152.996 153.018 152.661 153.559 152.418C154.104 152.175 154.722 152.054 155.413 152.054C156.384 152.054 157.147 152.267 157.701 152.693C158.259 153.119 158.656 153.682 158.89 154.381ZM165.456 162.205C164.51 162.205 163.694 161.996 163.008 161.578C162.326 161.156 161.8 160.568 161.429 159.814C161.063 159.055 160.879 158.173 160.879 157.168C160.879 156.162 161.063 155.276 161.429 154.509C161.8 153.737 162.316 153.136 162.976 152.706C163.641 152.271 164.416 152.054 165.303 152.054C165.814 152.054 166.319 152.139 166.818 152.31C167.316 152.48 167.77 152.757 168.179 153.141C168.588 153.52 168.914 154.023 169.157 154.649C169.4 155.276 169.521 156.047 169.521 156.963V157.602H161.953V156.298H167.987C167.987 155.744 167.877 155.25 167.655 154.815C167.438 154.381 167.127 154.038 166.722 153.786C166.321 153.535 165.848 153.409 165.303 153.409C164.702 153.409 164.182 153.558 163.743 153.857C163.308 154.151 162.974 154.534 162.74 155.007C162.505 155.48 162.388 155.987 162.388 156.528V157.398C162.388 158.139 162.516 158.768 162.771 159.283C163.031 159.795 163.392 160.185 163.852 160.453C164.312 160.717 164.847 160.849 165.456 160.849C165.852 160.849 166.21 160.794 166.53 160.683C166.854 160.568 167.133 160.398 167.367 160.172C167.602 159.942 167.783 159.656 167.911 159.315L169.368 159.724C169.215 160.219 168.957 160.653 168.595 161.028C168.232 161.399 167.785 161.689 167.252 161.898C166.72 162.102 166.121 162.205 165.456 162.205ZM180.586 162.205C179.768 162.205 179.046 161.998 178.419 161.585C177.793 161.167 177.303 160.579 176.949 159.82C176.595 159.058 176.419 158.156 176.419 157.116C176.419 156.085 176.595 155.19 176.949 154.432C177.303 153.673 177.795 153.087 178.426 152.674C179.056 152.261 179.785 152.054 180.612 152.054C181.251 152.054 181.756 152.161 182.127 152.374C182.502 152.582 182.787 152.821 182.983 153.089C183.183 153.354 183.339 153.571 183.45 153.741H183.578V148.909H185.086V162H183.629V160.491H183.45C183.339 160.67 183.181 160.896 182.977 161.169C182.772 161.437 182.48 161.678 182.101 161.891C181.722 162.1 181.217 162.205 180.586 162.205ZM180.791 160.849C181.396 160.849 181.907 160.692 182.325 160.376C182.742 160.057 183.06 159.616 183.277 159.053C183.494 158.487 183.603 157.832 183.603 157.091C183.603 156.358 183.497 155.717 183.284 155.167C183.07 154.613 182.755 154.183 182.338 153.876C181.92 153.565 181.404 153.409 180.791 153.409C180.151 153.409 179.619 153.573 179.193 153.901C178.771 154.225 178.453 154.666 178.24 155.224C178.031 155.778 177.927 156.401 177.927 157.091C177.927 157.79 178.034 158.425 178.247 158.996C178.464 159.562 178.784 160.014 179.205 160.351C179.632 160.683 180.16 160.849 180.791 160.849ZM192.175 162.205C191.229 162.205 190.413 161.996 189.727 161.578C189.045 161.156 188.519 160.568 188.148 159.814C187.781 159.055 187.598 158.173 187.598 157.168C187.598 156.162 187.781 155.276 188.148 154.509C188.519 153.737 189.034 153.136 189.695 152.706C190.36 152.271 191.135 152.054 192.021 152.054C192.533 152.054 193.038 152.139 193.536 152.31C194.035 152.48 194.489 152.757 194.898 153.141C195.307 153.52 195.633 154.023 195.876 154.649C196.119 155.276 196.24 156.047 196.24 156.963V157.602H188.672V156.298H194.706C194.706 155.744 194.595 155.25 194.374 154.815C194.156 154.381 193.845 154.038 193.441 153.786C193.04 153.535 192.567 153.409 192.021 153.409C191.421 153.409 190.901 153.558 190.462 153.857C190.027 154.151 189.693 154.534 189.458 155.007C189.224 155.48 189.107 155.987 189.107 156.528V157.398C189.107 158.139 189.235 158.768 189.49 159.283C189.75 159.795 190.11 160.185 190.57 160.453C191.031 160.717 191.566 160.849 192.175 160.849C192.571 160.849 192.929 160.794 193.249 160.683C193.573 160.568 193.852 160.398 194.086 160.172C194.32 159.942 194.502 159.656 194.629 159.315L196.087 159.724C195.933 160.219 195.676 160.653 195.313 161.028C194.951 161.399 194.504 161.689 193.971 161.898C193.438 162.102 192.84 162.205 192.175 162.205ZM205.49 154.381L204.134 154.764C204.049 154.538 203.923 154.319 203.757 154.106C203.595 153.888 203.374 153.71 203.093 153.569C202.811 153.428 202.451 153.358 202.012 153.358C201.411 153.358 200.911 153.496 200.51 153.773C200.114 154.046 199.916 154.393 199.916 154.815C199.916 155.19 200.052 155.487 200.325 155.704C200.597 155.921 201.024 156.102 201.603 156.247L203.061 156.605C203.938 156.818 204.593 157.144 205.023 157.583C205.453 158.018 205.669 158.578 205.669 159.264C205.669 159.827 205.507 160.33 205.183 160.773C204.863 161.216 204.416 161.565 203.84 161.821C203.265 162.077 202.596 162.205 201.833 162.205C200.832 162.205 200.003 161.987 199.347 161.553C198.691 161.118 198.275 160.483 198.1 159.648L199.532 159.29C199.669 159.818 199.926 160.214 200.306 160.479C200.689 160.743 201.19 160.875 201.808 160.875C202.511 160.875 203.069 160.726 203.482 160.428C203.9 160.125 204.109 159.763 204.109 159.341C204.109 159 203.99 158.714 203.751 158.484C203.512 158.25 203.146 158.075 202.651 157.96L201.015 157.577C200.116 157.364 199.455 157.033 199.034 156.586C198.616 156.134 198.407 155.57 198.407 154.892C198.407 154.338 198.563 153.848 198.874 153.422C199.189 152.996 199.617 152.661 200.159 152.418C200.704 152.175 201.322 152.054 202.012 152.054C202.984 152.054 203.747 152.267 204.301 152.693C204.859 153.119 205.255 153.682 205.49 154.381ZM207.939 162V152.182H209.448V162H207.939ZM208.706 150.545C208.412 150.545 208.159 150.445 207.946 150.245C207.737 150.045 207.632 149.804 207.632 149.523C207.632 149.241 207.737 149.001 207.946 148.8C208.159 148.6 208.412 148.5 208.706 148.5C209 148.5 209.252 148.6 209.461 148.8C209.674 149.001 209.78 149.241 209.78 149.523C209.78 149.804 209.674 150.045 209.461 150.245C209.252 150.445 209 150.545 208.706 150.545ZM216.174 165.886C215.445 165.886 214.819 165.793 214.295 165.605C213.77 165.422 213.334 165.179 212.984 164.876C212.639 164.578 212.364 164.259 212.16 163.918L213.361 163.074C213.498 163.253 213.67 163.457 213.879 163.688C214.088 163.922 214.373 164.124 214.736 164.295C215.102 164.469 215.581 164.557 216.174 164.557C216.966 164.557 217.621 164.365 218.136 163.982C218.652 163.598 218.91 162.997 218.91 162.179V160.185H218.782C218.671 160.364 218.513 160.585 218.309 160.849C218.108 161.109 217.819 161.342 217.439 161.546C217.064 161.746 216.557 161.847 215.918 161.847C215.126 161.847 214.414 161.659 213.783 161.284C213.157 160.909 212.66 160.364 212.294 159.648C211.932 158.932 211.751 158.062 211.751 157.04C211.751 156.034 211.927 155.158 212.281 154.413C212.635 153.663 213.127 153.083 213.758 152.674C214.388 152.261 215.117 152.054 215.944 152.054C216.583 152.054 217.09 152.161 217.465 152.374C217.844 152.582 218.134 152.821 218.334 153.089C218.539 153.354 218.697 153.571 218.807 153.741H218.961V152.182H220.418V162.281C220.418 163.125 220.226 163.811 219.843 164.339C219.464 164.872 218.952 165.262 218.309 165.509C217.67 165.761 216.958 165.886 216.174 165.886ZM216.123 160.491C216.728 160.491 217.239 160.353 217.657 160.076C218.074 159.799 218.392 159.401 218.609 158.881C218.827 158.361 218.935 157.739 218.935 157.014C218.935 156.307 218.829 155.683 218.616 155.141C218.403 154.6 218.087 154.176 217.67 153.869C217.252 153.562 216.736 153.409 216.123 153.409C215.483 153.409 214.951 153.571 214.525 153.895C214.103 154.219 213.785 154.653 213.572 155.199C213.363 155.744 213.259 156.349 213.259 157.014C213.259 157.696 213.366 158.299 213.579 158.823C213.796 159.343 214.116 159.752 214.537 160.05C214.964 160.344 215.492 160.491 216.123 160.491ZM224.688 156.094V162H223.18V152.182H224.637V153.716H224.765C224.995 153.217 225.344 152.817 225.813 152.514C226.282 152.207 226.887 152.054 227.628 152.054C228.293 152.054 228.875 152.19 229.373 152.463C229.872 152.732 230.26 153.141 230.537 153.69C230.814 154.236 230.952 154.926 230.952 155.761V162H229.444V155.864C229.444 155.092 229.243 154.491 228.843 154.061C228.442 153.626 227.893 153.409 227.194 153.409C226.712 153.409 226.282 153.513 225.903 153.722C225.528 153.931 225.231 154.236 225.014 154.636C224.797 155.037 224.688 155.523 224.688 156.094ZM240.663 154.381L239.308 154.764C239.223 154.538 239.097 154.319 238.931 154.106C238.769 153.888 238.548 153.71 238.266 153.569C237.985 153.428 237.625 153.358 237.186 153.358C236.585 153.358 236.085 153.496 235.684 153.773C235.288 154.046 235.089 154.393 235.089 154.815C235.089 155.19 235.226 155.487 235.499 155.704C235.771 155.921 236.197 156.102 236.777 156.247L238.234 156.605C239.112 156.818 239.766 157.144 240.197 157.583C240.627 158.018 240.842 158.578 240.842 159.264C240.842 159.827 240.68 160.33 240.357 160.773C240.037 161.216 239.589 161.565 239.014 161.821C238.439 162.077 237.77 162.205 237.007 162.205C236.006 162.205 235.177 161.987 234.521 161.553C233.864 161.118 233.449 160.483 233.274 159.648L234.706 159.29C234.842 159.818 235.1 160.214 235.479 160.479C235.863 160.743 236.364 160.875 236.982 160.875C237.685 160.875 238.243 160.726 238.656 160.428C239.074 160.125 239.283 159.763 239.283 159.341C239.283 159 239.163 158.714 238.925 158.484C238.686 158.25 238.32 158.075 237.825 157.96L236.189 157.577C235.29 157.364 234.629 157.033 234.207 156.586C233.79 156.134 233.581 155.57 233.581 154.892C233.581 154.338 233.737 153.848 234.048 153.422C234.363 152.996 234.791 152.661 235.332 152.418C235.878 152.175 236.496 152.054 237.186 152.054C238.158 152.054 238.92 152.267 239.474 152.693C240.033 153.119 240.429 153.682 240.663 154.381ZM245.363 160.21L245.261 160.901C245.188 161.386 245.078 161.906 244.928 162.46C244.784 163.014 244.632 163.536 244.475 164.026C244.317 164.516 244.187 164.906 244.085 165.196H242.934C242.99 164.923 243.062 164.563 243.151 164.116C243.241 163.668 243.33 163.168 243.42 162.614C243.514 162.064 243.59 161.501 243.65 160.926L243.727 160.21H245.363ZM257.209 162.205C256.289 162.205 255.496 161.987 254.831 161.553C254.167 161.118 253.655 160.519 253.297 159.756C252.939 158.994 252.76 158.122 252.76 157.142C252.76 156.145 252.944 155.265 253.31 154.502C253.681 153.735 254.196 153.136 254.857 152.706C255.522 152.271 256.297 152.054 257.184 152.054C257.874 152.054 258.496 152.182 259.05 152.438C259.604 152.693 260.058 153.051 260.412 153.511C260.765 153.972 260.985 154.509 261.07 155.122H259.561C259.446 154.675 259.191 154.278 258.794 153.933C258.402 153.584 257.874 153.409 257.209 153.409C256.621 153.409 256.105 153.562 255.662 153.869C255.223 154.172 254.88 154.6 254.633 155.154C254.39 155.704 254.269 156.349 254.269 157.091C254.269 157.849 254.388 158.51 254.627 159.072C254.87 159.635 255.211 160.072 255.65 160.383C256.093 160.694 256.613 160.849 257.209 160.849C257.601 160.849 257.957 160.781 258.277 160.645C258.596 160.509 258.867 160.312 259.088 160.057C259.31 159.801 259.468 159.494 259.561 159.136H261.07C260.985 159.716 260.774 160.238 260.437 160.702C260.105 161.163 259.664 161.529 259.114 161.802C258.569 162.07 257.934 162.205 257.209 162.205ZM266.164 162.23C265.542 162.23 264.978 162.113 264.471 161.879C263.963 161.64 263.561 161.297 263.262 160.849C262.964 160.398 262.815 159.852 262.815 159.213C262.815 158.651 262.926 158.195 263.147 157.845C263.369 157.491 263.665 157.214 264.036 157.014C264.407 156.814 264.816 156.665 265.263 156.567C265.715 156.464 266.169 156.384 266.625 156.324C267.221 156.247 267.705 156.19 268.076 156.151C268.451 156.109 268.723 156.038 268.894 155.94C269.069 155.842 269.156 155.672 269.156 155.429V155.378C269.156 154.747 268.983 154.257 268.638 153.908C268.297 153.558 267.779 153.384 267.085 153.384C266.365 153.384 265.8 153.541 265.391 153.857C264.982 154.172 264.694 154.509 264.528 154.866L263.096 154.355C263.352 153.759 263.693 153.294 264.119 152.962C264.549 152.625 265.018 152.391 265.525 152.259C266.037 152.122 266.539 152.054 267.034 152.054C267.349 152.054 267.711 152.092 268.12 152.169C268.534 152.241 268.932 152.393 269.316 152.623C269.703 152.853 270.025 153.2 270.281 153.665C270.537 154.129 270.664 154.751 270.664 155.531V162H269.156V160.67H269.079C268.977 160.884 268.806 161.112 268.568 161.354C268.329 161.597 268.012 161.804 267.615 161.974C267.219 162.145 266.735 162.23 266.164 162.23ZM266.395 160.875C266.991 160.875 267.494 160.758 267.903 160.523C268.316 160.289 268.627 159.987 268.836 159.616C269.049 159.245 269.156 158.855 269.156 158.446V157.065C269.092 157.142 268.951 157.212 268.734 157.276C268.521 157.336 268.274 157.389 267.993 157.436C267.716 157.479 267.445 157.517 267.181 157.551C266.921 157.581 266.71 157.607 266.548 157.628C266.156 157.679 265.789 157.762 265.449 157.877C265.112 157.988 264.839 158.156 264.63 158.382C264.426 158.604 264.324 158.906 264.324 159.29C264.324 159.814 264.517 160.21 264.905 160.479C265.297 160.743 265.794 160.875 266.395 160.875ZM274.926 156.094V162H273.418V152.182H274.875V153.716H275.003C275.233 153.217 275.583 152.817 276.051 152.514C276.52 152.207 277.125 152.054 277.867 152.054C278.531 152.054 279.113 152.19 279.612 152.463C280.11 152.732 280.498 153.141 280.775 153.69C281.052 154.236 281.191 154.926 281.191 155.761V162H279.682V155.864C279.682 155.092 279.482 154.491 279.081 154.061C278.681 153.626 278.131 153.409 277.432 153.409C276.95 153.409 276.52 153.513 276.141 153.722C275.766 153.931 275.47 154.236 275.252 154.636C275.035 155.037 274.926 155.523 274.926 156.094ZM291.234 162L288.243 152.182H289.828L291.95 159.699H292.052L294.149 152.182H295.76L297.831 159.673H297.933L300.055 152.182H301.64L298.649 162H297.166L295.018 154.457H294.865L292.717 162H291.234ZM307.417 162.205C306.471 162.205 305.655 161.996 304.969 161.578C304.287 161.156 303.761 160.568 303.39 159.814C303.024 159.055 302.84 158.173 302.84 157.168C302.84 156.162 303.024 155.276 303.39 154.509C303.761 153.737 304.276 153.136 304.937 152.706C305.602 152.271 306.377 152.054 307.264 152.054C307.775 152.054 308.28 152.139 308.779 152.31C309.277 152.48 309.731 152.757 310.14 153.141C310.549 153.52 310.875 154.023 311.118 154.649C311.361 155.276 311.482 156.047 311.482 156.963V157.602H303.914V156.298H309.948C309.948 155.744 309.838 155.25 309.616 154.815C309.399 154.381 309.088 154.038 308.683 153.786C308.282 153.535 307.809 153.409 307.264 153.409C306.663 153.409 306.143 153.558 305.704 153.857C305.269 154.151 304.935 154.534 304.7 155.007C304.466 155.48 304.349 155.987 304.349 156.528V157.398C304.349 158.139 304.477 158.768 304.732 159.283C304.992 159.795 305.352 160.185 305.813 160.453C306.273 160.717 306.808 160.849 307.417 160.849C307.813 160.849 308.171 160.794 308.491 160.683C308.815 160.568 309.094 160.398 309.328 160.172C309.563 159.942 309.744 159.656 309.872 159.315L311.329 159.724C311.176 160.219 310.918 160.653 310.556 161.028C310.193 161.399 309.746 161.689 309.213 161.898C308.681 162.102 308.082 162.205 307.417 162.205ZM81.3352 180.381L79.9801 180.764C79.8949 180.538 79.7692 180.319 79.603 180.106C79.4411 179.888 79.2195 179.71 78.9382 179.569C78.657 179.428 78.2969 179.358 77.858 179.358C77.2571 179.358 76.7564 179.496 76.3558 179.773C75.9595 180.046 75.7614 180.393 75.7614 180.815C75.7614 181.19 75.8977 181.487 76.1705 181.704C76.4432 181.921 76.8693 182.102 77.4489 182.247L78.9062 182.605C79.7841 182.818 80.4382 183.144 80.8686 183.583C81.299 184.018 81.5142 184.578 81.5142 185.264C81.5142 185.827 81.3523 186.33 81.0284 186.773C80.7088 187.216 80.2614 187.565 79.6861 187.821C79.1108 188.077 78.4418 188.205 77.679 188.205C76.6776 188.205 75.8487 187.987 75.1925 187.553C74.5362 187.118 74.1207 186.483 73.946 185.648L75.3778 185.29C75.5142 185.818 75.772 186.214 76.1513 186.479C76.5348 186.743 77.0355 186.875 77.6534 186.875C78.3565 186.875 78.9148 186.726 79.3281 186.428C79.7457 186.125 79.9545 185.763 79.9545 185.341C79.9545 185 79.8352 184.714 79.5966 184.484C79.358 184.25 78.9915 184.075 78.4972 183.96L76.8608 183.577C75.9616 183.364 75.3011 183.033 74.8793 182.586C74.4616 182.134 74.2528 181.57 74.2528 180.892C74.2528 180.338 74.4084 179.848 74.7195 179.422C75.0348 178.996 75.4631 178.661 76.0043 178.418C76.5497 178.175 77.1676 178.054 77.858 178.054C78.8295 178.054 79.5923 178.267 80.1463 178.693C80.7045 179.119 81.1009 179.682 81.3352 180.381ZM87.9015 188.205C86.9554 188.205 86.1394 187.996 85.4533 187.578C84.7715 187.156 84.2452 186.568 83.8745 185.814C83.508 185.055 83.3248 184.173 83.3248 183.168C83.3248 182.162 83.508 181.276 83.8745 180.509C84.2452 179.737 84.7608 179.136 85.4213 178.706C86.0861 178.271 86.8617 178.054 87.748 178.054C88.2594 178.054 88.7644 178.139 89.263 178.31C89.7615 178.48 90.2154 178.757 90.6245 179.141C91.0336 179.52 91.3596 180.023 91.6025 180.649C91.8453 181.276 91.9668 182.047 91.9668 182.963V183.602H84.3986V182.298H90.4327C90.4327 181.744 90.3219 181.25 90.1003 180.815C89.883 180.381 89.5719 180.038 89.1671 179.786C88.7665 179.535 88.2935 179.409 87.748 179.409C87.1472 179.409 86.6273 179.558 86.1884 179.857C85.7537 180.151 85.4192 180.534 85.1848 181.007C84.9505 181.48 84.8333 181.987 84.8333 182.528V183.398C84.8333 184.139 84.9611 184.768 85.2168 185.283C85.4767 185.795 85.8368 186.185 86.2971 186.453C86.7573 186.717 87.2921 186.849 87.9015 186.849C88.2978 186.849 88.6557 186.794 88.9753 186.683C89.2992 186.568 89.5783 186.398 89.8127 186.172C90.0471 185.942 90.2282 185.656 90.356 185.315L91.8134 185.724C91.66 186.219 91.4022 186.653 91.04 187.028C90.6777 187.399 90.2303 187.689 89.6976 187.898C89.165 188.102 88.5662 188.205 87.9015 188.205ZM95.7701 182.094V188H94.2615V178.182H95.7189V179.716H95.8468C96.0769 179.217 96.4263 178.817 96.8951 178.514C97.3638 178.207 97.9689 178.054 98.7104 178.054C99.3752 178.054 99.9569 178.19 100.455 178.463C100.954 178.732 101.342 179.141 101.619 179.69C101.896 180.236 102.034 180.926 102.034 181.761V188H100.526V181.864C100.526 181.092 100.325 180.491 99.9249 180.061C99.5243 179.626 98.9746 179.409 98.2757 179.409C97.7942 179.409 97.3638 179.513 96.9846 179.722C96.6096 179.931 96.3134 180.236 96.0961 180.636C95.8787 181.037 95.7701 181.523 95.7701 182.094ZM108.498 188.205C107.68 188.205 106.958 187.998 106.331 187.585C105.705 187.167 105.215 186.579 104.861 185.82C104.507 185.058 104.331 184.156 104.331 183.116C104.331 182.085 104.507 181.19 104.861 180.432C105.215 179.673 105.707 179.087 106.338 178.674C106.968 178.261 107.697 178.054 108.524 178.054C109.163 178.054 109.668 178.161 110.039 178.374C110.414 178.582 110.699 178.821 110.895 179.089C111.096 179.354 111.251 179.571 111.362 179.741H111.49V174.909H112.998V188H111.541V186.491H111.362C111.251 186.67 111.093 186.896 110.889 187.169C110.684 187.437 110.392 187.678 110.013 187.891C109.634 188.1 109.129 188.205 108.498 188.205ZM108.703 186.849C109.308 186.849 109.819 186.692 110.237 186.376C110.654 186.057 110.972 185.616 111.189 185.053C111.407 184.487 111.515 183.832 111.515 183.091C111.515 182.358 111.409 181.717 111.196 181.167C110.983 180.613 110.667 180.183 110.25 179.876C109.832 179.565 109.316 179.409 108.703 179.409C108.064 179.409 107.531 179.573 107.105 179.901C106.683 180.225 106.365 180.666 106.152 181.224C105.944 181.778 105.839 182.401 105.839 183.091C105.839 183.79 105.946 184.425 106.159 184.996C106.376 185.562 106.696 186.014 107.118 186.351C107.544 186.683 108.072 186.849 108.703 186.849ZM125.303 178.182V179.46H120.215V178.182H125.303ZM121.698 175.83H123.206V185.188C123.206 185.614 123.268 185.933 123.392 186.146C123.52 186.355 123.681 186.496 123.877 186.568C124.078 186.636 124.289 186.67 124.51 186.67C124.676 186.67 124.813 186.662 124.919 186.645C125.026 186.624 125.111 186.607 125.175 186.594L125.482 187.949C125.38 187.987 125.237 188.026 125.054 188.064C124.87 188.107 124.638 188.128 124.357 188.128C123.931 188.128 123.513 188.036 123.104 187.853C122.699 187.67 122.363 187.391 122.094 187.016C121.83 186.641 121.698 186.168 121.698 185.597V175.83ZM129.292 182.094V188H127.783V174.909H129.292V179.716H129.419C129.65 179.209 129.995 178.806 130.455 178.508C130.919 178.205 131.537 178.054 132.309 178.054C132.978 178.054 133.564 178.188 134.066 178.457C134.569 178.721 134.959 179.128 135.236 179.678C135.517 180.223 135.658 180.918 135.658 181.761V188H134.15V181.864C134.15 181.084 133.947 180.481 133.542 180.055C133.142 179.624 132.586 179.409 131.874 179.409C131.38 179.409 130.936 179.513 130.544 179.722C130.157 179.931 129.85 180.236 129.624 180.636C129.402 181.037 129.292 181.523 129.292 182.094ZM142.534 188.205C141.588 188.205 140.772 187.996 140.086 187.578C139.404 187.156 138.878 186.568 138.507 185.814C138.141 185.055 137.958 184.173 137.958 183.168C137.958 182.162 138.141 181.276 138.507 180.509C138.878 179.737 139.394 179.136 140.054 178.706C140.719 178.271 141.494 178.054 142.381 178.054C142.892 178.054 143.397 178.139 143.896 178.31C144.394 178.48 144.848 178.757 145.257 179.141C145.666 179.52 145.992 180.023 146.235 180.649C146.478 181.276 146.6 182.047 146.6 182.963V183.602H139.031V182.298H145.066C145.066 181.744 144.955 181.25 144.733 180.815C144.516 180.381 144.205 180.038 143.8 179.786C143.399 179.535 142.926 179.409 142.381 179.409C141.78 179.409 141.26 179.558 140.821 179.857C140.387 180.151 140.052 180.534 139.818 181.007C139.583 181.48 139.466 181.987 139.466 182.528V183.398C139.466 184.139 139.594 184.768 139.85 185.283C140.11 185.795 140.47 186.185 140.93 186.453C141.39 186.717 141.925 186.849 142.534 186.849C142.931 186.849 143.289 186.794 143.608 186.683C143.932 186.568 144.211 186.398 144.445 186.172C144.68 185.942 144.861 185.656 144.989 185.315L146.446 185.724C146.293 186.219 146.035 186.653 145.673 187.028C145.311 187.399 144.863 187.689 144.33 187.898C143.798 188.102 143.199 188.205 142.534 188.205ZM148.894 188V178.182H150.352V179.716H150.48C150.684 179.192 151.014 178.785 151.47 178.495C151.926 178.201 152.474 178.054 153.113 178.054C153.761 178.054 154.3 178.201 154.73 178.495C155.165 178.785 155.504 179.192 155.747 179.716H155.849C156.1 179.209 156.477 178.806 156.98 178.508C157.483 178.205 158.086 178.054 158.789 178.054C159.667 178.054 160.385 178.329 160.943 178.879C161.502 179.424 161.781 180.274 161.781 181.429V188H160.272V181.429C160.272 180.705 160.074 180.187 159.678 179.876C159.281 179.565 158.815 179.409 158.278 179.409C157.588 179.409 157.053 179.618 156.673 180.036C156.294 180.449 156.105 180.973 156.105 181.608V188H154.57V181.276C154.57 180.717 154.389 180.268 154.027 179.927C153.665 179.582 153.198 179.409 152.627 179.409C152.235 179.409 151.869 179.513 151.528 179.722C151.191 179.931 150.919 180.221 150.71 180.592C150.505 180.958 150.403 181.382 150.403 181.864V188H148.894ZM173.871 178.182V179.46H168.783V178.182H173.871ZM170.266 175.83H171.775V185.188C171.775 185.614 171.836 185.933 171.96 186.146C172.088 186.355 172.25 186.496 172.446 186.568C172.646 186.636 172.857 186.67 173.079 186.67C173.245 186.67 173.381 186.662 173.488 186.645C173.594 186.624 173.68 186.607 173.743 186.594L174.05 187.949C173.948 187.987 173.805 188.026 173.622 188.064C173.439 188.107 173.206 188.128 172.925 188.128C172.499 188.128 172.081 188.036 171.672 187.853C171.268 187.67 170.931 187.391 170.662 187.016C170.398 186.641 170.266 186.168 170.266 185.597V175.83ZM180.024 188.205C179.137 188.205 178.36 187.994 177.691 187.572C177.026 187.15 176.506 186.56 176.131 185.801C175.76 185.043 175.575 184.156 175.575 183.142C175.575 182.119 175.76 181.227 176.131 180.464C176.506 179.701 177.026 179.109 177.691 178.687C178.36 178.265 179.137 178.054 180.024 178.054C180.91 178.054 181.686 178.265 182.35 178.687C183.019 179.109 183.539 179.701 183.91 180.464C184.285 181.227 184.472 182.119 184.472 183.142C184.472 184.156 184.285 185.043 183.91 185.801C183.539 186.56 183.019 187.15 182.35 187.572C181.686 187.994 180.91 188.205 180.024 188.205ZM180.024 186.849C180.697 186.849 181.251 186.677 181.686 186.332C182.12 185.987 182.442 185.533 182.651 184.97C182.86 184.408 182.964 183.798 182.964 183.142C182.964 182.486 182.86 181.874 182.651 181.308C182.442 180.741 182.12 180.283 181.686 179.933C181.251 179.584 180.697 179.409 180.024 179.409C179.35 179.409 178.796 179.584 178.362 179.933C177.927 180.283 177.605 180.741 177.396 181.308C177.188 181.874 177.083 182.486 177.083 183.142C177.083 183.798 177.188 184.408 177.396 184.97C177.605 185.533 177.927 185.987 178.362 186.332C178.796 186.677 179.35 186.849 180.024 186.849ZM191.838 188V178.182H193.295V179.716H193.423C193.627 179.192 193.958 178.785 194.414 178.495C194.87 178.201 195.417 178.054 196.056 178.054C196.704 178.054 197.243 178.201 197.674 178.495C198.108 178.785 198.447 179.192 198.69 179.716H198.792C199.044 179.209 199.421 178.806 199.924 178.508C200.426 178.205 201.029 178.054 201.733 178.054C202.61 178.054 203.328 178.329 203.887 178.879C204.445 179.424 204.724 180.274 204.724 181.429V188H203.216V181.429C203.216 180.705 203.017 180.187 202.621 179.876C202.225 179.565 201.758 179.409 201.221 179.409C200.531 179.409 199.996 179.618 199.617 180.036C199.238 180.449 199.048 180.973 199.048 181.608V188H197.514V181.276C197.514 180.717 197.333 180.268 196.971 179.927C196.608 179.582 196.142 179.409 195.571 179.409C195.179 179.409 194.812 179.513 194.471 179.722C194.135 179.931 193.862 180.221 193.653 180.592C193.449 180.958 193.346 181.382 193.346 181.864V188H191.838ZM210.371 188.23C209.749 188.23 209.185 188.113 208.678 187.879C208.17 187.64 207.768 187.297 207.469 186.849C207.171 186.398 207.022 185.852 207.022 185.213C207.022 184.651 207.133 184.195 207.354 183.845C207.576 183.491 207.872 183.214 208.243 183.014C208.614 182.814 209.023 182.665 209.47 182.567C209.922 182.464 210.376 182.384 210.832 182.324C211.428 182.247 211.912 182.19 212.283 182.151C212.658 182.109 212.93 182.038 213.101 181.94C213.276 181.842 213.363 181.672 213.363 181.429V181.378C213.363 180.747 213.19 180.257 212.845 179.908C212.504 179.558 211.987 179.384 211.292 179.384C210.572 179.384 210.007 179.541 209.598 179.857C209.189 180.172 208.901 180.509 208.735 180.866L207.303 180.355C207.559 179.759 207.9 179.294 208.326 178.962C208.756 178.625 209.225 178.391 209.732 178.259C210.244 178.122 210.746 178.054 211.241 178.054C211.556 178.054 211.918 178.092 212.327 178.169C212.741 178.241 213.139 178.393 213.523 178.623C213.911 178.853 214.232 179.2 214.488 179.665C214.744 180.129 214.871 180.751 214.871 181.531V188H213.363V186.67H213.286C213.184 186.884 213.013 187.112 212.775 187.354C212.536 187.597 212.219 187.804 211.822 187.974C211.426 188.145 210.942 188.23 210.371 188.23ZM210.602 186.875C211.198 186.875 211.701 186.758 212.11 186.523C212.523 186.289 212.835 185.987 213.043 185.616C213.256 185.245 213.363 184.855 213.363 184.446V183.065C213.299 183.142 213.158 183.212 212.941 183.276C212.728 183.336 212.481 183.389 212.2 183.436C211.923 183.479 211.652 183.517 211.388 183.551C211.128 183.581 210.917 183.607 210.755 183.628C210.363 183.679 209.996 183.762 209.656 183.877C209.319 183.988 209.046 184.156 208.837 184.382C208.633 184.604 208.531 184.906 208.531 185.29C208.531 185.814 208.724 186.21 209.112 186.479C209.504 186.743 210.001 186.875 210.602 186.875ZM217.625 188V178.182H219.082V179.665H219.184C219.363 179.179 219.687 178.785 220.156 178.482C220.625 178.18 221.153 178.028 221.741 178.028C221.852 178.028 221.991 178.031 222.157 178.035C222.323 178.039 222.449 178.045 222.534 178.054V179.588C222.483 179.575 222.366 179.556 222.182 179.531C222.003 179.501 221.814 179.486 221.613 179.486C221.136 179.486 220.71 179.586 220.335 179.786C219.964 179.982 219.67 180.255 219.453 180.604C219.24 180.95 219.133 181.344 219.133 181.787V188H217.625ZM225.728 184.42L225.703 182.554H226.01L230.305 178.182H232.172L227.595 182.81H227.467L225.728 184.42ZM224.322 188V174.909H225.831V188H224.322ZM230.561 188L226.725 183.142L227.799 182.094L232.478 188H230.561ZM237.825 188.205C236.879 188.205 236.063 187.996 235.377 187.578C234.695 187.156 234.169 186.568 233.798 185.814C233.432 185.055 233.249 184.173 233.249 183.168C233.249 182.162 233.432 181.276 233.798 180.509C234.169 179.737 234.685 179.136 235.345 178.706C236.01 178.271 236.786 178.054 237.672 178.054C238.183 178.054 238.688 178.139 239.187 178.31C239.685 178.48 240.139 178.757 240.548 179.141C240.957 179.52 241.283 180.023 241.526 180.649C241.769 181.276 241.891 182.047 241.891 182.963V183.602H234.322V182.298H240.357C240.357 181.744 240.246 181.25 240.024 180.815C239.807 180.381 239.496 180.038 239.091 179.786C238.69 179.535 238.217 179.409 237.672 179.409C237.071 179.409 236.551 179.558 236.112 179.857C235.678 180.151 235.343 180.534 235.109 181.007C234.874 181.48 234.757 181.987 234.757 182.528V183.398C234.757 184.139 234.885 184.768 235.141 185.283C235.401 185.795 235.761 186.185 236.221 186.453C236.681 186.717 237.216 186.849 237.825 186.849C238.222 186.849 238.58 186.794 238.899 186.683C239.223 186.568 239.502 186.398 239.737 186.172C239.971 185.942 240.152 185.656 240.28 185.315L241.737 185.724C241.584 186.219 241.326 186.653 240.964 187.028C240.602 187.399 240.154 187.689 239.621 187.898C239.089 188.102 238.49 188.205 237.825 188.205ZM248.455 178.182V179.46H243.367V178.182H248.455ZM244.85 175.83H246.359V185.188C246.359 185.614 246.42 185.933 246.544 186.146C246.672 186.355 246.834 186.496 247.03 186.568C247.23 186.636 247.441 186.67 247.663 186.67C247.829 186.67 247.965 186.662 248.072 186.645C248.178 186.624 248.263 186.607 248.327 186.594L248.634 187.949C248.532 187.987 248.389 188.026 248.206 188.064C248.023 188.107 247.79 188.128 247.509 188.128C247.083 188.128 246.665 188.036 246.256 187.853C245.852 187.67 245.515 187.391 245.246 187.016C244.982 186.641 244.85 186.168 244.85 185.597V175.83ZM250.724 188V178.182H252.233V188H250.724ZM251.491 176.545C251.197 176.545 250.944 176.445 250.731 176.245C250.522 176.045 250.418 175.804 250.418 175.523C250.418 175.241 250.522 175.001 250.731 174.8C250.944 174.6 251.197 174.5 251.491 174.5C251.786 174.5 252.037 174.6 252.246 174.8C252.459 175.001 252.565 175.241 252.565 175.523C252.565 175.804 252.459 176.045 252.246 176.245C252.037 176.445 251.786 176.545 251.491 176.545ZM256.504 182.094V188H254.996V178.182H256.453V179.716H256.581C256.811 179.217 257.161 178.817 257.629 178.514C258.098 178.207 258.703 178.054 259.445 178.054C260.11 178.054 260.691 178.19 261.19 178.463C261.688 178.732 262.076 179.141 262.353 179.69C262.63 180.236 262.769 180.926 262.769 181.761V188H261.26V181.864C261.26 181.092 261.06 180.491 260.659 180.061C260.259 179.626 259.709 179.409 259.01 179.409C258.529 179.409 258.098 179.513 257.719 179.722C257.344 179.931 257.048 180.236 256.83 180.636C256.613 181.037 256.504 181.523 256.504 182.094ZM269.488 191.886C268.76 191.886 268.133 191.793 267.609 191.605C267.085 191.422 266.648 191.179 266.299 190.876C265.953 190.578 265.679 190.259 265.474 189.918L266.676 189.074C266.812 189.253 266.985 189.457 267.194 189.688C267.402 189.922 267.688 190.124 268.05 190.295C268.417 190.469 268.896 190.557 269.488 190.557C270.281 190.557 270.935 190.365 271.451 189.982C271.966 189.598 272.224 188.997 272.224 188.179V186.185H272.096C271.985 186.364 271.828 186.585 271.623 186.849C271.423 187.109 271.133 187.342 270.754 187.546C270.379 187.746 269.872 187.847 269.233 187.847C268.44 187.847 267.728 187.659 267.098 187.284C266.471 186.909 265.975 186.364 265.608 185.648C265.246 184.932 265.065 184.062 265.065 183.04C265.065 182.034 265.242 181.158 265.596 180.413C265.949 179.663 266.441 179.083 267.072 178.674C267.703 178.261 268.431 178.054 269.258 178.054C269.897 178.054 270.404 178.161 270.779 178.374C271.159 178.582 271.449 178.821 271.649 179.089C271.853 179.354 272.011 179.571 272.122 179.741H272.275V178.182H273.733V188.281C273.733 189.125 273.541 189.811 273.157 190.339C272.778 190.872 272.267 191.262 271.623 191.509C270.984 191.761 270.272 191.886 269.488 191.886ZM269.437 186.491C270.042 186.491 270.554 186.353 270.971 186.076C271.389 185.799 271.706 185.401 271.924 184.881C272.141 184.361 272.25 183.739 272.25 183.014C272.25 182.307 272.143 181.683 271.93 181.141C271.717 180.6 271.402 180.176 270.984 179.869C270.566 179.562 270.051 179.409 269.437 179.409C268.798 179.409 268.265 179.571 267.839 179.895C267.417 180.219 267.1 180.653 266.887 181.199C266.678 181.744 266.574 182.349 266.574 183.014C266.574 183.696 266.68 184.299 266.893 184.823C267.11 185.343 267.43 185.752 267.852 186.05C268.278 186.344 268.806 186.491 269.437 186.491ZM278.463 184.318V184.241C278.471 183.428 278.556 182.78 278.718 182.298C278.88 181.817 279.11 181.427 279.409 181.129C279.707 180.83 280.065 180.555 280.483 180.304C280.734 180.151 280.96 179.969 281.16 179.761C281.36 179.548 281.518 179.303 281.633 179.026C281.752 178.749 281.812 178.442 281.812 178.105C281.812 177.687 281.714 177.325 281.518 177.018C281.322 176.712 281.06 176.475 280.732 176.309C280.404 176.143 280.039 176.06 279.639 176.06C279.289 176.06 278.953 176.132 278.629 176.277C278.305 176.422 278.034 176.65 277.817 176.961C277.6 177.272 277.474 177.679 277.44 178.182H275.829C275.863 177.457 276.051 176.837 276.392 176.322C276.737 175.806 277.191 175.412 277.753 175.139C278.32 174.866 278.949 174.73 279.639 174.73C280.389 174.73 281.041 174.879 281.595 175.178C282.153 175.476 282.583 175.885 282.886 176.405C283.193 176.925 283.346 177.517 283.346 178.182C283.346 178.651 283.274 179.075 283.129 179.454C282.988 179.833 282.784 180.172 282.515 180.47C282.251 180.768 281.931 181.033 281.556 181.263C281.181 181.497 280.881 181.744 280.655 182.004C280.429 182.26 280.265 182.565 280.163 182.918C280.061 183.272 280.005 183.713 279.997 184.241V184.318H278.463ZM279.281 188.102C278.966 188.102 278.695 187.989 278.469 187.763C278.243 187.538 278.13 187.267 278.13 186.952C278.13 186.636 278.243 186.366 278.469 186.14C278.695 185.914 278.966 185.801 279.281 185.801C279.596 185.801 279.867 185.914 280.093 186.14C280.319 186.366 280.431 186.636 280.431 186.952C280.431 187.161 280.378 187.352 280.272 187.527C280.169 187.702 280.031 187.842 279.856 187.949C279.686 188.051 279.494 188.102 279.281 188.102Z" fill="black"/>
<circle cx="85" cy="89" r="9" fill="#FFEC6B" stroke="#222222" stroke-width="2"/>
<circle cx="68" cy="42" r="3" fill="#222222"/>
<circle cx="78" cy="42" r="3" fill="#222222"/>
<circle cx="88" cy="42" r="3" fill="#222222"/>
</svg>
