<svg width="80" height="80" viewBox="0 0 80 80" fill="none" xmlns="http://www.w3.org/2000/svg">
<path d="M39.998 47.5L39.998 68.75C39.998 70.4076 40.6565 71.9973 41.8286 73.1694C43.0007 74.3415 44.5904 75 46.248 75C47.9056 75 49.4953 74.3415 50.6674 73.1694C51.8395 71.9973 52.498 70.4076 52.498 68.75L52.498 30.8543L59.3504 42.723C59.7604 43.4345 60.3066 44.0582 60.9578 44.5586C61.609 45.0589 62.3524 45.426 63.1455 45.6389C63.9386 45.8517 64.7659 45.9062 65.5801 45.7992C66.3943 45.6922 67.1794 45.4257 67.8906 45.0151C68.6018 44.6045 69.2251 44.0578 69.7249 43.4062C70.2247 42.7546 70.5911 42.0109 70.8033 41.2176C71.0156 40.4243 71.0693 39.5969 70.9616 38.7828C70.8539 37.9687 70.5869 37.1838 70.1757 36.473C59.998 15 53.8051 7.5 39.998 7.5C36.715 7.5 33.4641 8.14664 30.4309 9.40301C27.3978 10.6594 24.6418 12.5009 22.3203 14.8223C19.9989 17.1438 18.1574 19.8998 16.901 22.9329C15.6447 25.9661 14.998 29.2169 14.998 32.5L14.998 45C14.998 46.6576 15.6565 48.2473 16.8286 49.4194C18.0007 50.5915 19.5904 51.25 21.248 51.25C22.9056 51.25 24.4953 50.5915 25.6674 49.4194C26.8395 48.2473 27.498 46.6576 27.498 45" stroke="#222222" stroke-width="3" stroke-linecap="round" stroke-linejoin="round"/>
<path d="M27.5 45L27.5 48.75C27.5 50.4076 28.1585 51.9973 29.3306 53.1694C30.5027 54.3415 32.0924 55 33.75 55C35.4076 55 36.9973 54.3415 38.1694 53.1694C39.3415 51.9973 40 50.4076 40 48.75L40 47.5" stroke="#222222" stroke-width="3" stroke-linecap="round" stroke-linejoin="round"/>
</svg>
