<svg width="290" height="230" viewBox="0 0 290 230" fill="none" xmlns="http://www.w3.org/2000/svg">
<path d="M112.13 119.112C124.093 117.328 132.342 106.194 130.556 94.2445C128.77 82.2947 117.624 74.0539 105.661 75.8383C93.6979 77.6226 85.4481 88.7564 87.2344 100.706C89.0207 112.656 100.167 120.897 112.13 119.112Z" fill="#9FEFD7"/>
<path d="M113.012 85.5906L101.661 100.187L94.0996 94.8631" stroke="black" stroke-width="3" stroke-linecap="round" stroke-linejoin="round"/>
<path d="M107.13 114.118C119.093 112.333 127.342 101.2 125.556 89.2499C123.77 77.3 112.624 69.0593 100.661 70.8436C88.6979 72.628 80.4481 83.7617 82.2344 95.7116C84.0207 107.661 95.1667 115.902 107.13 114.118Z" stroke="black" stroke-width="4" stroke-linecap="round" stroke-linejoin="round"/>
<path d="M155.727 133.327L154.851 136.193C153.922 139.234 154.24 142.519 155.735 145.325C157.23 148.131 159.781 150.229 162.825 151.157C165.869 152.086 169.157 151.768 171.966 150.274C174.776 148.78 176.876 146.233 177.805 143.192L178.681 140.326" fill="#EDF5F7"/>
<path d="M151.084 97.4463C152.118 94.0456 153.816 90.883 156.079 88.1407C158.342 85.3984 161.127 83.1307 164.271 81.4684C167.416 79.806 170.859 78.7818 174.402 78.4548C177.945 78.1278 181.518 78.5045 184.914 79.5632C199.081 83.9982 206.836 99.2509 202.49 113.474L201.713 116.017C197.792 128.848 198.204 137.114 199.328 141.905C199.45 142.418 199.434 142.954 199.283 143.458C199.132 143.963 198.85 144.419 198.466 144.78C198.082 145.142 197.609 145.395 197.096 145.516C196.582 145.636 196.046 145.62 195.541 145.467L138.861 128.185C138.356 128.029 137.902 127.744 137.543 127.358C137.185 126.971 136.935 126.497 136.818 125.983C136.702 125.469 136.723 124.934 136.88 124.43C137.036 123.927 137.323 123.474 137.711 123.117C141.323 119.77 146.287 113.143 150.208 100.312L151.084 97.4463Z" fill="#EDF5F7"/>
<path d="M146.463 92.4507C147.497 89.05 149.195 85.8874 151.458 83.1451C153.721 80.4028 156.505 78.1351 159.65 76.4727C162.795 74.8104 166.238 73.7862 169.781 73.4592C173.324 73.1322 176.896 73.5089 180.293 74.5676C194.46 79.0026 202.215 94.2553 197.869 108.479L197.092 111.021C193.171 123.853 193.583 132.118 194.706 136.91C194.829 137.422 194.813 137.958 194.662 138.463C194.511 138.968 194.229 139.424 193.845 139.785C193.461 140.146 192.988 140.4 192.475 140.52C191.961 140.641 191.425 140.624 190.92 140.471L134.239 123.189C133.735 123.034 133.281 122.749 132.922 122.362C132.564 121.976 132.314 121.501 132.197 120.987C132.08 120.474 132.102 119.938 132.258 119.435C132.415 118.932 132.702 118.479 133.09 118.122C136.702 114.774 141.666 108.148 145.587 95.3168L146.463 92.4507Z" stroke="black" stroke-width="4" stroke-linecap="round" stroke-linejoin="round"/>
<path d="M151.105 128.332L150.23 131.198C149.3 134.239 149.619 137.523 151.114 140.33C152.609 143.136 155.16 145.234 158.203 146.162C161.247 147.09 164.536 146.772 167.345 145.279C170.155 143.785 172.255 141.238 173.184 138.197L174.06 135.331" stroke="black" stroke-width="3" stroke-linecap="round" stroke-linejoin="round"/>
<path d="M106.848 138.061L123.272 147.072L114.251 163.478" stroke="black" stroke-width="4" stroke-linecap="round" stroke-linejoin="round"/>
<path d="M74 120.039L85.1051 158.165L123.272 147.072" stroke="black" stroke-width="4" stroke-linecap="round" stroke-linejoin="round"/>
<path d="M187.553 60L186 65.7892" stroke="black" stroke-width="4" stroke-linecap="round" stroke-linejoin="round"/>
<path d="M198.875 65.2764L195.434 70.1859" stroke="black" stroke-width="4" stroke-linecap="round" stroke-linejoin="round"/>
<path d="M207.72 74.1086L202.805 77.5463" stroke="black" stroke-width="4" stroke-linecap="round" stroke-linejoin="round"/>
</svg>
