<svg width="210" height="152" viewBox="0 0 210 152" fill="none" xmlns="http://www.w3.org/2000/svg">
<g clip-path="url(#clip0_1535_19894)">
<path d="M60.8915 82.896C76.8581 80.5145 87.8689 65.6546 85.4848 49.7054C83.1007 33.7563 68.2244 22.7575 52.2578 25.1391C36.2912 27.5206 25.2804 42.3805 27.6645 58.3297C30.0486 74.2788 44.9249 85.2775 60.8915 82.896Z" fill="#9FEFD7"/>
<path d="M62.0713 38.1551L46.922 57.6361L36.8294 50.5308" stroke="black" stroke-width="3" stroke-linecap="round" stroke-linejoin="round"/>
<path d="M54.2196 76.2298C70.1863 73.8483 81.1971 58.9883 78.8129 43.0392C76.4288 27.09 61.5526 16.0913 45.5859 18.4728C29.6193 20.8543 18.6085 35.7143 20.9926 51.6634C23.3768 67.6126 38.253 78.6113 54.2196 76.2298Z" stroke="black" stroke-width="4" stroke-linecap="round" stroke-linejoin="round"/>
<path d="M119.074 101.868L117.905 105.693C116.665 109.751 117.09 114.135 119.086 117.881C121.081 121.626 124.485 124.427 128.548 125.665C132.61 126.904 136.999 126.48 140.749 124.486C144.499 122.493 147.302 119.093 148.542 115.034L149.711 111.209" fill="#EDF5F7"/>
<path d="M112.88 53.9786C114.26 49.4397 116.525 45.2187 119.546 41.5586C122.567 37.8986 126.283 34.8719 130.48 32.6532C134.678 30.4345 139.273 29.0675 144.002 28.6311C148.73 28.1947 153.498 28.6975 158.032 30.1105C176.94 36.0297 187.291 56.3871 181.49 75.3708L180.453 78.764C175.219 95.8901 175.769 106.922 177.269 113.317C177.432 114.001 177.411 114.716 177.209 115.39C177.008 116.063 176.631 116.672 176.119 117.154C175.606 117.636 174.975 117.975 174.29 118.136C173.605 118.297 172.889 118.274 172.215 118.071L96.5652 95.0041C95.8923 94.7971 95.286 94.4164 94.8074 93.9005C94.3288 93.3846 93.9949 92.7518 93.8393 92.0658C93.6837 91.3799 93.712 90.6651 93.9213 89.9935C94.1305 89.322 94.5134 88.7174 95.0313 88.2409C99.8521 83.7728 106.478 74.9292 111.711 57.8039L112.88 53.9786Z" fill="#EDF5F7"/>
<path d="M106.712 47.3111C108.092 42.7723 110.357 38.5512 113.378 34.8911C116.399 31.2311 120.115 28.2045 124.312 25.9857C128.51 23.767 133.105 22.4 137.834 21.9636C142.562 21.5272 147.33 22.03 151.864 23.443C170.772 29.3622 181.123 49.7196 175.322 68.7034L174.285 72.0965C169.051 89.2227 169.602 100.254 171.101 106.649C171.264 107.334 171.243 108.049 171.042 108.722C170.84 109.396 170.463 110.005 169.951 110.487C169.438 110.969 168.808 111.307 168.122 111.468C167.437 111.629 166.721 111.607 166.047 111.403L90.3973 88.3366C89.7244 88.1296 89.118 87.7489 88.6394 87.233C88.1608 86.7171 87.8269 86.0843 87.6713 85.3984C87.5157 84.7124 87.544 83.9976 87.7533 83.3261C87.9626 82.6545 88.3455 82.05 88.8633 81.5734C93.6841 77.1054 100.31 68.2617 105.543 51.1365L106.712 47.3111Z" stroke="black" stroke-width="4" stroke-linecap="round" stroke-linejoin="round"/>
<path d="M112.906 95.2007L111.737 99.0261C110.497 103.084 110.922 107.468 112.918 111.214C114.913 114.959 118.317 117.76 122.38 118.998C126.442 120.237 130.831 119.813 134.581 117.819C138.331 115.826 141.134 112.426 142.374 108.367L143.543 104.542" stroke="black" stroke-width="3" stroke-linecap="round" stroke-linejoin="round"/>
<path d="M53.8438 108.186L75.7646 120.212L63.7249 142.109" stroke="black" stroke-width="4" stroke-linecap="round" stroke-linejoin="round"/>
<path d="M10 84.1328L24.8217 135.018L75.7626 120.212" stroke="black" stroke-width="4" stroke-linecap="round" stroke-linejoin="round"/>
<path d="M161.553 4L159.48 11.7267" stroke="black" stroke-width="4" stroke-linecap="round" stroke-linejoin="round"/>
<path d="M176.667 11.0422L172.074 17.5949" stroke="black" stroke-width="4" stroke-linecap="round" stroke-linejoin="round"/>
<path d="M188.474 22.8306L181.914 27.4188" stroke="black" stroke-width="4" stroke-linecap="round" stroke-linejoin="round"/>
</g>
<defs>
<clipPath id="clip0_1535_19894">
<rect width="210" height="152" fill="white"/>
</clipPath>
</defs>
</svg>
