<svg width="408" height="340" viewBox="0 0 408 340" fill="none" xmlns="http://www.w3.org/2000/svg">
<circle cx="170" cy="170" r="170" fill="#92E4FD"/>
<rect x="23" y="66" width="169" height="130" rx="11" fill="white" stroke="#222222" stroke-width="2"/>
<rect x="23" y="210" width="146" height="14" rx="7" fill="white" stroke="#222222" stroke-width="2"/>
<rect x="23" y="238" width="166" height="14" rx="7" fill="white" stroke="#222222" stroke-width="2"/>
<rect x="23" y="266" width="83" height="14" rx="7" fill="white" stroke="#222222" stroke-width="2"/>
<rect x="116" y="94" width="292" height="86" rx="12" fill="#222222"/>
<rect width="260" height="18" transform="translate(132 110)" fill="#222222"/>
<path d="M132.438 124H133.638L136.329 116.319H136.691V114.84H135.815L132.438 124ZM133.968 121.378H138.817L138.462 120.407H134.323L133.968 121.378ZM139.122 124H140.322L136.945 114.84H136.431V116.319L139.122 124ZM143.934 124.121C144.412 124.121 144.835 124.015 145.203 123.803C145.571 123.587 145.859 123.289 146.066 122.908H146.168V124H147.272V114.44H146.168V118.236H146.066C145.88 117.872 145.595 117.583 145.209 117.367C144.829 117.147 144.403 117.037 143.934 117.037C143.354 117.037 142.848 117.183 142.417 117.475C141.989 117.767 141.657 118.177 141.42 118.706C141.183 119.235 141.064 119.857 141.064 120.572V120.585C141.064 121.296 141.183 121.918 141.42 122.451C141.657 122.98 141.991 123.391 142.423 123.683C142.854 123.975 143.358 124.121 143.934 124.121ZM144.188 123.143C143.773 123.143 143.415 123.042 143.115 122.838C142.819 122.631 142.59 122.337 142.429 121.956C142.273 121.571 142.194 121.114 142.194 120.585V120.572C142.194 120.039 142.273 119.582 142.429 119.201C142.59 118.82 142.819 118.528 143.115 118.325C143.415 118.118 143.773 118.014 144.188 118.014C144.602 118.014 144.96 118.118 145.26 118.325C145.561 118.533 145.791 118.827 145.952 119.208C146.113 119.588 146.193 120.043 146.193 120.572V120.585C146.193 121.11 146.113 121.565 145.952 121.95C145.791 122.331 145.561 122.625 145.26 122.832C144.96 123.039 144.602 123.143 144.188 123.143ZM151.919 124.121C152.397 124.121 152.82 124.015 153.188 123.803C153.557 123.587 153.844 123.289 154.052 122.908H154.153V124H155.258V114.44H154.153V118.236H154.052C153.866 117.872 153.58 117.583 153.195 117.367C152.814 117.147 152.389 117.037 151.919 117.037C151.339 117.037 150.833 117.183 150.402 117.475C149.974 117.767 149.642 118.177 149.405 118.706C149.168 119.235 149.05 119.857 149.05 120.572V120.585C149.05 121.296 149.168 121.918 149.405 122.451C149.642 122.98 149.977 123.391 150.408 123.683C150.84 123.975 151.343 124.121 151.919 124.121ZM152.173 123.143C151.758 123.143 151.401 123.042 151.1 122.838C150.804 122.631 150.575 122.337 150.415 121.956C150.258 121.571 150.18 121.114 150.18 120.585V120.572C150.18 120.039 150.258 119.582 150.415 119.201C150.575 118.82 150.804 118.528 151.1 118.325C151.401 118.118 151.758 118.014 152.173 118.014C152.588 118.014 152.945 118.118 153.246 118.325C153.546 118.533 153.777 118.827 153.938 119.208C154.098 119.588 154.179 120.043 154.179 120.572V120.585C154.179 121.11 154.098 121.565 153.938 121.95C153.777 122.331 153.546 122.625 153.246 122.832C152.945 123.039 152.588 123.143 152.173 123.143ZM163.833 124.121C164.384 124.121 164.853 124.03 165.243 123.848C165.632 123.666 165.945 123.416 166.182 123.099C166.419 122.777 166.584 122.411 166.677 122L166.69 121.931L165.598 121.937L165.585 121.975C165.458 122.356 165.249 122.646 164.957 122.845C164.665 123.044 164.288 123.143 163.827 123.143C163.421 123.143 163.068 123.037 162.767 122.826C162.467 122.614 162.234 122.316 162.069 121.931C161.904 121.541 161.821 121.084 161.821 120.56V120.547C161.821 120.031 161.902 119.584 162.062 119.208C162.228 118.827 162.46 118.533 162.761 118.325C163.061 118.118 163.417 118.014 163.827 118.014C164.318 118.014 164.714 118.133 165.014 118.37C165.315 118.607 165.507 118.894 165.592 119.233L165.598 119.252H166.696L166.69 119.214C166.622 118.808 166.468 118.442 166.227 118.116C165.985 117.786 165.664 117.523 165.262 117.329C164.86 117.134 164.382 117.037 163.827 117.037C163.188 117.037 162.634 117.183 162.164 117.475C161.694 117.762 161.33 118.169 161.072 118.693C160.818 119.218 160.691 119.836 160.691 120.547V120.56C160.691 121.283 160.82 121.912 161.079 122.445C161.337 122.978 161.701 123.391 162.17 123.683C162.64 123.975 163.194 124.121 163.833 124.121ZM171.121 124.121C171.772 124.121 172.333 123.979 172.803 123.695C173.272 123.408 173.634 122.999 173.888 122.47C174.146 121.941 174.275 121.313 174.275 120.585V120.572C174.275 119.84 174.146 119.21 173.888 118.681C173.634 118.152 173.272 117.745 172.803 117.462C172.333 117.178 171.772 117.037 171.121 117.037C170.473 117.037 169.912 117.178 169.438 117.462C168.969 117.745 168.605 118.152 168.347 118.681C168.093 119.21 167.966 119.84 167.966 120.572V120.585C167.966 121.313 168.093 121.941 168.347 122.47C168.605 122.999 168.969 123.408 169.438 123.695C169.912 123.979 170.473 124.121 171.121 124.121ZM171.121 123.143C170.689 123.143 170.323 123.042 170.022 122.838C169.722 122.635 169.491 122.343 169.331 121.962C169.174 121.582 169.096 121.122 169.096 120.585V120.572C169.096 120.031 169.174 119.569 169.331 119.188C169.491 118.808 169.722 118.518 170.022 118.319C170.323 118.116 170.689 118.014 171.121 118.014C171.552 118.014 171.918 118.116 172.219 118.319C172.519 118.518 172.748 118.808 172.904 119.188C173.065 119.569 173.146 120.031 173.146 120.572V120.585C173.146 121.122 173.065 121.582 172.904 121.962C172.748 122.343 172.519 122.635 172.219 122.838C171.918 123.042 171.552 123.143 171.121 123.143ZM175.989 124H177.094V119.76C177.094 119.438 177.161 119.146 177.297 118.884C177.437 118.617 177.625 118.406 177.862 118.249C178.103 118.092 178.372 118.014 178.668 118.014C179.1 118.014 179.444 118.137 179.703 118.382C179.961 118.624 180.09 118.947 180.09 119.354V124H181.194V119.601C181.194 119.309 181.26 119.045 181.391 118.808C181.522 118.566 181.706 118.374 181.943 118.23C182.18 118.086 182.458 118.014 182.775 118.014C183.257 118.014 183.615 118.141 183.848 118.395C184.085 118.645 184.203 119.021 184.203 119.525V124H185.308V119.271C185.308 118.793 185.223 118.389 185.054 118.059C184.884 117.724 184.637 117.47 184.311 117.297C183.989 117.123 183.596 117.037 183.13 117.037C182.817 117.037 182.523 117.087 182.248 117.189C181.977 117.286 181.738 117.426 181.531 117.608C181.323 117.786 181.158 117.995 181.036 118.236H180.934C180.828 117.999 180.687 117.792 180.509 117.614C180.331 117.432 180.119 117.291 179.874 117.189C179.629 117.087 179.351 117.037 179.042 117.037C178.594 117.037 178.211 117.138 177.894 117.341C177.58 117.544 177.348 117.83 177.195 118.198H177.094V117.157H175.989V124ZM187.301 124H188.405V119.76C188.405 119.438 188.473 119.146 188.608 118.884C188.748 118.617 188.936 118.406 189.173 118.249C189.415 118.092 189.683 118.014 189.979 118.014C190.411 118.014 190.756 118.137 191.014 118.382C191.272 118.624 191.401 118.947 191.401 119.354V124H192.506V119.601C192.506 119.309 192.571 119.045 192.703 118.808C192.834 118.566 193.018 118.374 193.255 118.23C193.492 118.086 193.769 118.014 194.086 118.014C194.569 118.014 194.926 118.141 195.159 118.395C195.396 118.645 195.515 119.021 195.515 119.525V124H196.619V119.271C196.619 118.793 196.535 118.389 196.365 118.059C196.196 117.724 195.948 117.47 195.623 117.297C195.301 117.123 194.907 117.037 194.442 117.037C194.129 117.037 193.835 117.087 193.56 117.189C193.289 117.286 193.05 117.426 192.842 117.608C192.635 117.786 192.47 117.995 192.347 118.236H192.246C192.14 117.999 191.998 117.792 191.82 117.614C191.643 117.432 191.431 117.291 191.186 117.189C190.94 117.087 190.663 117.037 190.354 117.037C189.905 117.037 189.522 117.138 189.205 117.341C188.892 117.544 188.659 117.83 188.507 118.198H188.405V117.157H187.301V124ZM201.405 124.121C201.807 124.121 202.169 124.07 202.491 123.968C202.817 123.862 203.098 123.723 203.335 123.549C203.572 123.372 203.764 123.175 203.913 122.959C204.065 122.739 204.171 122.513 204.23 122.28L204.243 122.229H203.138L203.113 122.286C203.054 122.422 202.95 122.555 202.802 122.686C202.654 122.817 202.465 122.925 202.237 123.01C202.008 123.094 201.74 123.137 201.431 123.137C201.016 123.137 200.656 123.046 200.352 122.864C200.047 122.678 199.812 122.413 199.647 122.07C199.482 121.723 199.399 121.306 199.399 120.82V120.382C199.399 119.87 199.484 119.438 199.653 119.087C199.823 118.736 200.051 118.471 200.339 118.293C200.631 118.111 200.961 118.021 201.329 118.021C201.697 118.021 202.023 118.107 202.307 118.281C202.59 118.45 202.812 118.708 202.973 119.055C203.134 119.402 203.214 119.844 203.214 120.382V120.82L203.76 120.014H198.841V120.896H204.325V120.464C204.325 119.783 204.205 119.186 203.963 118.674C203.726 118.158 203.384 117.756 202.935 117.468C202.491 117.181 201.958 117.037 201.335 117.037C200.718 117.037 200.178 117.187 199.717 117.487C199.256 117.788 198.898 118.205 198.644 118.738C198.394 119.271 198.27 119.891 198.27 120.598V120.604C198.27 121.319 198.394 121.941 198.644 122.47C198.898 122.995 199.258 123.401 199.723 123.689C200.193 123.977 200.754 124.121 201.405 124.121ZM206.039 124H207.144V119.95C207.144 119.548 207.215 119.203 207.359 118.916C207.507 118.628 207.715 118.406 207.981 118.249C208.248 118.092 208.563 118.014 208.927 118.014C209.473 118.014 209.875 118.164 210.133 118.465C210.396 118.761 210.527 119.218 210.527 119.836V124H211.631V119.569C211.631 118.757 211.424 118.133 211.009 117.697C210.599 117.257 210.008 117.037 209.238 117.037C208.735 117.037 208.32 117.138 207.994 117.341C207.668 117.54 207.419 117.822 207.245 118.186H207.144V117.157H206.039V124ZM216.062 124.051C216.172 124.051 216.28 124.044 216.386 124.032C216.492 124.019 216.597 124.004 216.703 123.987V123.048C216.602 123.056 216.515 123.063 216.443 123.067C216.375 123.071 216.293 123.073 216.195 123.073C215.84 123.073 215.586 122.986 215.434 122.813C215.281 122.635 215.205 122.345 215.205 121.943V118.071H216.703V117.157H215.205V115.386H214.062V117.157H212.983V118.071H214.062V122.223C214.062 122.874 214.219 123.342 214.532 123.625C214.85 123.909 215.36 124.051 216.062 124.051Z" fill="#999999"/>
<path d="M140 160C143.314 160 146 157.314 146 154C146 150.686 143.314 148 140 148C136.686 148 134 150.686 134 154C134 157.314 136.686 160 140 160Z" stroke="#BBBBBB" stroke-linecap="round" stroke-linejoin="round"/>
<path d="M137.75 153.5C138.164 153.5 138.5 153.164 138.5 152.75C138.5 152.336 138.164 152 137.75 152C137.336 152 137 152.336 137 152.75C137 153.164 137.336 153.5 137.75 153.5Z" fill="#BBBBBB"/>
<path d="M142.25 153.5C142.664 153.5 143 153.164 143 152.75C143 152.336 142.664 152 142.25 152C141.836 152 141.5 152.336 141.5 152.75C141.5 153.164 141.836 153.5 142.25 153.5Z" fill="#BBBBBB"/>
<path d="M142.596 155.5C142.332 155.956 141.954 156.335 141.498 156.598C141.041 156.862 140.524 157 139.997 157C139.47 157 138.953 156.862 138.497 156.598C138.041 156.335 137.662 155.956 137.398 155.5" stroke="#BBBBBB" stroke-linecap="round" stroke-linejoin="round"/>
<path d="M168 156.5C169.381 156.5 170.5 155.381 170.5 154C170.5 152.619 169.381 151.5 168 151.5C166.619 151.5 165.5 152.619 165.5 154C165.5 155.381 166.619 156.5 168 156.5Z" stroke="#BBBBBB" stroke-linecap="round" stroke-linejoin="round"/>
<path d="M171.319 159C170.205 159.739 168.876 160.086 167.543 159.984C166.21 159.882 164.949 159.337 163.961 158.437C162.972 157.537 162.312 156.333 162.086 155.015C161.86 153.697 162.081 152.342 162.713 151.164C163.345 149.986 164.352 149.052 165.575 148.512C166.798 147.972 168.166 147.855 169.463 148.181C170.759 148.507 171.91 149.256 172.732 150.31C173.554 151.365 174.001 152.663 174.001 154C174.001 155.381 173.501 156.5 172.251 156.5C171.001 156.5 170.501 155.381 170.501 154V151.5" stroke="#BBBBBB" stroke-linecap="round" stroke-linejoin="round"/>
<g filter="url(#filter0_d_300_7522)">
<circle cx="94" cy="108" r="12" fill="#E25982"/>
<circle cx="94" cy="108" r="13" stroke="#222222" stroke-width="2"/>
</g>
<path d="M89.4531 112H91.3457V106.621H92.4062L90.4551 103.779L93.3848 112H94.6152L97.5449 103.779L95.5938 106.621H96.6543V112H98.5469V103.545H96.0918L94.0586 109.275H93.9531L91.9023 103.545H89.4531V112Z" fill="#222222"/>
<path d="M78.1791 98.7281C78.2831 99.1162 78.6092 99.4044 79.0072 99.4598C79.4052 99.5151 79.7976 99.3269 80.0036 98.9819L83.0303 93.9124L89.4621 92.189C89.8526 92.0844 90.1416 91.755 90.1946 91.3542C90.2476 90.9535 90.0541 90.5602 89.7043 90.3577L75.501 82.1346C75.1508 81.9318 74.7129 81.9601 74.3917 82.2063C74.0705 82.4524 73.9293 82.8679 74.0341 83.2588L78.1791 98.7281Z" fill="#222222" stroke="white" stroke-width="2" stroke-linejoin="round"/>
<defs>
<filter id="filter0_d_300_7522" x="77" y="93" width="34" height="34" filterUnits="userSpaceOnUse" color-interpolation-filters="sRGB">
<feFlood flood-opacity="0" result="BackgroundImageFix"/>
<feColorMatrix in="SourceAlpha" type="matrix" values="0 0 0 0 0 0 0 0 0 0 0 0 0 0 0 0 0 0 127 0" result="hardAlpha"/>
<feOffset dy="2"/>
<feGaussianBlur stdDeviation="1.5"/>
<feComposite in2="hardAlpha" operator="out"/>
<feColorMatrix type="matrix" values="0 0 0 0 0 0 0 0 0 0 0 0 0 0 0 0 0 0 0.25 0"/>
<feBlend mode="normal" in2="BackgroundImageFix" result="effect1_dropShadow_300_7522"/>
<feBlend mode="normal" in="SourceGraphic" in2="effect1_dropShadow_300_7522" result="shape"/>
</filter>
</defs>
</svg>
