<svg width="120" height="20" viewBox="0 0 120 20" fill="none" xmlns="http://www.w3.org/2000/svg">
<ellipse cx="10.0167" cy="10" rx="10.0167" ry="10" fill="#222222"/>
<path d="M34.257 18.5247C32.1948 18.5247 30.5609 17.9546 29.3553 16.8144C28.1497 15.6583 27.5469 14.0112 27.5469 11.8733V7.88241C27.5469 5.74444 28.1497 4.10534 29.3553 2.96509C30.5609 1.809 32.1948 1.23096 34.257 1.23096C36.3034 1.23096 37.8818 1.79316 38.9922 2.91758C40.1185 4.02615 40.6817 5.5544 40.6817 7.50233V7.64486H37.5883V7.40731C37.5883 6.42542 37.3107 5.61775 36.7555 4.98428C36.2161 4.35081 35.3833 4.03407 34.257 4.03407C33.1466 4.03407 32.2741 4.37456 31.6396 5.05554C31.0051 5.73652 30.6878 6.66298 30.6878 7.8349V11.9208C30.6878 13.0769 31.0051 14.0033 31.6396 14.7001C32.2741 15.3811 33.1466 15.7216 34.257 15.7216C35.3833 15.7216 36.2161 15.4049 36.7555 14.7714C37.3107 14.1221 37.5883 13.3144 37.5883 12.3484V11.9208H40.6817V12.2534C40.6817 14.2013 40.1185 15.7375 38.9922 16.8619C37.8818 17.9704 36.3034 18.5247 34.257 18.5247Z" fill="#222222"/>
<path d="M47.7619 18.5247C46.5881 18.5247 45.5331 18.2872 44.5972 17.8121C43.6613 17.337 42.9236 16.6481 42.3843 15.7454C41.8449 14.8427 41.5753 13.7579 41.5753 12.4909V12.1108C41.5753 10.8439 41.8449 9.75907 42.3843 8.85637C42.9236 7.95367 43.6613 7.26477 44.5972 6.78967C45.5331 6.31457 46.5881 6.07701 47.7619 6.07701C48.9358 6.07701 49.9907 6.31457 50.9267 6.78967C51.8626 7.26477 52.6002 7.95367 53.1396 8.85637C53.6789 9.75907 53.9486 10.8439 53.9486 12.1108V12.4909C53.9486 13.7579 53.6789 14.8427 53.1396 15.7454C52.6002 16.6481 51.8626 17.337 50.9267 17.8121C49.9907 18.2872 48.9358 18.5247 47.7619 18.5247ZM47.7619 15.8642C48.682 15.8642 49.4434 15.5712 50.0462 14.9852C50.6491 14.3834 50.9505 13.5282 50.9505 12.4196V12.1821C50.9505 11.0735 50.6491 10.2263 50.0462 9.64029C49.4593 9.03849 48.6979 8.7376 47.7619 8.7376C46.8419 8.7376 46.0804 9.03849 45.4776 9.64029C44.8748 10.2263 44.5734 11.0735 44.5734 12.1821V12.4196C44.5734 13.5282 44.8748 14.3834 45.4776 14.9852C46.0804 15.5712 46.8419 15.8642 47.7619 15.8642Z" fill="#222222"/>
<path d="M55.5263 18.1922V1.56353H58.5245V18.1922H55.5263Z" fill="#222222"/>
<path d="M60.6571 18.1922V1.56353H63.6553V18.1922H60.6571Z" fill="#222222"/>
<path d="M69.4523 18.5247C68.6115 18.5247 67.858 18.3822 67.1918 18.0971C66.5255 17.7962 65.9941 17.3686 65.5975 16.8144C65.2168 16.2442 65.0264 15.5553 65.0264 14.7477C65.0264 13.94 65.2168 13.2669 65.5975 12.7285C65.9941 12.1742 66.5334 11.7624 67.2156 11.4932C67.9135 11.2081 68.7067 11.0656 69.5951 11.0656H72.8312V10.4005C72.8312 9.84617 72.6567 9.39482 72.3077 9.04641C71.9587 8.68217 71.4035 8.50004 70.642 8.50004C69.8965 8.50004 69.3412 8.67425 68.9764 9.02266C68.6115 9.35523 68.3736 9.79074 68.2625 10.3292L65.5023 9.40274C65.6927 8.80094 65.9941 8.25457 66.4065 7.76363C66.8348 7.25686 67.398 6.85302 68.096 6.55212C68.8098 6.23538 69.6744 6.07701 70.6896 6.07701C72.2442 6.07701 73.4736 6.46502 74.3778 7.24102C75.282 8.01702 75.7341 9.14143 75.7341 10.6143V15.009C75.7341 15.4841 75.9562 15.7216 76.4004 15.7216H77.3522V18.1922H75.3534C74.7665 18.1922 74.2826 18.0496 73.9019 17.7646C73.5212 17.4795 73.3308 17.0994 73.3308 16.6243V16.6006H72.8787C72.8153 16.7906 72.6725 17.044 72.4504 17.3607C72.2284 17.6616 71.8794 17.9309 71.4035 18.1684C70.9276 18.406 70.2772 18.5247 69.4523 18.5247ZM69.9758 16.1017C70.8165 16.1017 71.4986 15.8721 72.0221 15.4128C72.5615 14.9377 72.8312 14.3121 72.8312 13.5361V13.2986H69.8092C69.254 13.2986 68.8177 13.4174 68.5005 13.6549C68.1832 13.8925 68.0246 14.225 68.0246 14.6526C68.0246 15.0802 68.1912 15.4286 68.5243 15.6979C68.8574 15.9671 69.3412 16.1017 69.9758 16.1017Z" fill="#222222"/>
<path d="M85.4454 18.5247C84.3826 18.5247 83.5656 18.3426 82.9945 17.9784C82.4235 17.6141 82.0031 17.2103 81.7334 16.7668H81.3051V18.1922H78.3545V1.56353H81.3527V7.76363H81.781C81.9555 7.47857 82.1855 7.20935 82.4711 6.95596C82.7725 6.70257 83.1611 6.49669 83.637 6.33832C84.1288 6.16412 84.7316 6.07701 85.4454 6.07701C86.3972 6.07701 87.2776 6.31457 88.0867 6.78967C88.8957 7.24894 89.5461 7.92992 90.0378 8.83262C90.5296 9.73531 90.7755 10.8281 90.7755 12.1108V12.4909C90.7755 13.7737 90.5296 14.8664 90.0378 15.7691C89.5461 16.6718 88.8957 17.3607 88.0867 17.8358C87.2776 18.2951 86.3972 18.5247 85.4454 18.5247ZM84.5412 15.9117C85.4613 15.9117 86.2307 15.6187 86.8493 15.0327C87.468 14.4309 87.7773 13.5599 87.7773 12.4196V12.1821C87.7773 11.0418 87.468 10.1787 86.8493 9.59278C86.2465 8.99098 85.4772 8.69008 84.5412 8.69008C83.6212 8.69008 82.8518 8.99098 82.2331 9.59278C81.6144 10.1787 81.3051 11.0418 81.3051 12.1821V12.4196C81.3051 13.5599 81.6144 14.4309 82.2331 15.0327C82.8518 15.6187 83.6212 15.9117 84.5412 15.9117Z" fill="#222222"/>
<path d="M92.2435 18.1922V1.56353H95.3844V8.16747H95.8127L101.214 1.56353H105.236L98.2874 9.75907L105.473 18.1922H101.333L95.8127 11.4457H95.3844V18.1922H92.2435Z" fill="#222222"/>
<path d="M106.044 18.1922V6.40959H109.042V18.1922H106.044ZM107.543 5.03179C107.004 5.03179 106.544 4.85758 106.163 4.50917C105.798 4.16076 105.616 3.7015 105.616 3.13137C105.616 2.56125 105.798 2.10198 106.163 1.75357C106.544 1.40516 107.004 1.23096 107.543 1.23096C108.098 1.23096 108.558 1.40516 108.923 1.75357C109.288 2.10198 109.47 2.56125 109.47 3.13137C109.47 3.7015 109.288 4.16076 108.923 4.50917C108.558 4.85758 108.098 5.03179 107.543 5.03179Z" fill="#222222"/>
<path d="M115.696 18.1922C114.918 18.1922 114.284 17.9546 113.792 17.4795C113.316 16.9886 113.078 16.3393 113.078 15.5316V8.88013H110.128V6.40959H113.078V2.75129H116.077V6.40959H119.313V8.88013H116.077V15.009C116.077 15.4841 116.299 15.7216 116.743 15.7216H119.027V18.1922H115.696Z" fill="#222222"/>
</svg>
