<svg width="40" height="40" viewBox="0 0 40 40" fill="none" xmlns="http://www.w3.org/2000/svg">
<path d="M19.921 23.5008C21.8686 23.5008 23.4475 21.9236 23.4475 19.9782C23.4475 18.0327 21.8686 16.4556 19.921 16.4556C17.9734 16.4556 16.3945 18.0327 16.3945 19.9782C16.3945 21.9236 17.9734 23.5008 19.921 23.5008Z" fill="white"/>
<path d="M19.9225 27.1958C30.3731 27.1958 38.845 23.9646 38.845 19.9788C38.845 15.9929 30.3731 12.7617 19.9225 12.7617C9.47189 12.7617 1 15.9929 1 19.9788C1 23.9646 9.47189 27.1958 19.9225 27.1958Z" stroke="white"/>
<path d="M13.666 23.5869C18.8913 32.6275 25.9286 38.3407 29.3842 36.3478C32.8399 34.3549 31.4053 25.4105 26.18 16.3699C20.9547 7.32932 13.9174 1.61608 10.4618 3.60901C7.00612 5.60194 8.44071 14.5464 13.666 23.5869Z" stroke="white"/>
<path d="M13.6654 16.3701C8.4401 25.4107 7.00551 34.3551 10.4611 36.3481C13.9168 38.341 20.9541 32.6278 26.1794 23.5872C31.4047 14.5466 32.8393 5.60219 29.3836 3.60926C25.928 1.61633 18.8907 7.32957 13.6654 16.3701Z" stroke="white"/>
</svg>
