<svg width="812" height="310" viewBox="0 0 812 310" fill="none" xmlns="http://www.w3.org/2000/svg">
<rect width="812" height="310" rx="24" fill="#1F1530"/>
<path d="M42.6367 124.35H45.7031V113.334L42.0312 115.102V113.207L45.6836 111.469H47.6562V124.35H50.6836V126H42.6367V124.35ZM43.6426 158.34H50.3418V160H41.4844V158.34C42.7018 157.057 43.7663 155.924 44.6777 154.941C45.5892 153.958 46.2174 153.265 46.5625 152.861C47.2135 152.067 47.653 151.426 47.8809 150.938C48.1087 150.443 48.2227 149.938 48.2227 149.424C48.2227 148.61 47.9818 147.972 47.5 147.51C47.0247 147.048 46.3704 146.816 45.5371 146.816C44.9447 146.816 44.3229 146.924 43.6719 147.139C43.0208 147.354 42.3307 147.679 41.6016 148.115V146.123C42.2721 145.804 42.9297 145.563 43.5742 145.4C44.2253 145.238 44.8665 145.156 45.498 145.156C46.9238 145.156 48.0697 145.537 48.9355 146.299C49.8079 147.054 50.2441 148.047 50.2441 149.277C50.2441 149.902 50.0977 150.527 49.8047 151.152C49.5182 151.777 49.0495 152.467 48.3984 153.223C48.0339 153.646 47.5033 154.232 46.8066 154.98C46.1165 155.729 45.0618 156.849 43.6426 158.34ZM47.5781 186.197C48.5352 186.451 49.2676 186.904 49.7754 187.555C50.2832 188.199 50.5371 189.007 50.5371 189.977C50.5371 191.318 50.0846 192.372 49.1797 193.141C48.2812 193.902 47.0345 194.283 45.4395 194.283C44.7689 194.283 44.0853 194.221 43.3887 194.098C42.6921 193.974 42.0085 193.795 41.3379 193.561V191.598C42.002 191.943 42.6562 192.2 43.3008 192.369C43.9453 192.538 44.5866 192.623 45.2246 192.623C46.3053 192.623 47.1354 192.379 47.7148 191.891C48.2943 191.402 48.584 190.699 48.584 189.781C48.584 188.935 48.2943 188.264 47.7148 187.77C47.1354 187.268 46.3509 187.018 45.3613 187.018H43.8574V185.396H45.3613C46.2663 185.396 46.9727 185.198 47.4805 184.801C47.9883 184.404 48.2422 183.85 48.2422 183.141C48.2422 182.392 48.0046 181.819 47.5293 181.422C47.0605 181.018 46.39 180.816 45.5176 180.816C44.9382 180.816 44.3392 180.882 43.7207 181.012C43.1022 181.142 42.4544 181.337 41.7773 181.598V179.781C42.5651 179.573 43.265 179.417 43.877 179.312C44.4954 179.208 45.0423 179.156 45.5176 179.156C46.9368 179.156 48.0697 179.514 48.916 180.23C49.7689 180.94 50.1953 181.884 50.1953 183.062C50.1953 183.863 49.9707 184.531 49.5215 185.064C49.0788 185.598 48.431 185.976 47.5781 186.197ZM47.1777 215.217L42.5781 222.922H47.1777V215.217ZM46.8555 213.42H49.1406V222.922H51.084V224.523H49.1406V228H47.1777V224.523H40.9961V222.658L46.8555 213.42ZM42.0215 247.42H49.4043V249.08H43.8184V252.664C44.0983 252.56 44.3783 252.485 44.6582 252.439C44.9447 252.387 45.2311 252.361 45.5176 252.361C47.028 252.361 48.2259 252.807 49.1113 253.699C49.9967 254.591 50.4395 255.799 50.4395 257.322C50.4395 258.859 49.974 260.07 49.043 260.955C48.1185 261.84 46.8522 262.283 45.2441 262.283C44.4694 262.283 43.7598 262.231 43.1152 262.127C42.4772 262.023 41.9043 261.867 41.3965 261.658V259.656C41.9954 259.982 42.5977 260.226 43.2031 260.389C43.8086 260.545 44.4271 260.623 45.0586 260.623C46.1458 260.623 46.9824 260.337 47.5684 259.764C48.1608 259.191 48.457 258.377 48.457 257.322C48.457 256.281 48.151 255.47 47.5391 254.891C46.9336 254.311 46.0872 254.021 45 254.021C44.4727 254.021 43.9583 254.083 43.457 254.207C42.9557 254.324 42.4772 254.503 42.0215 254.744V247.42Z" fill="#7D7E7D"/>
<path d="M46.7578 56.3359V60.5742C47.474 60.5547 48.0339 60.3561 48.4375 59.9785C48.8411 59.6009 49.043 59.0866 49.043 58.4355C49.043 57.8301 48.8607 57.3613 48.4961 57.0293C48.1315 56.6908 47.5521 56.4596 46.7578 56.3359ZM45.7812 54.4805V50.4473C45.1042 50.4733 44.5736 50.6686 44.1895 51.0332C43.8118 51.3978 43.623 51.8861 43.623 52.498C43.623 53.0579 43.7988 53.5007 44.1504 53.8262C44.5085 54.1517 45.0521 54.3698 45.7812 54.4805ZM46.7578 64.9395H45.7812L45.7715 62C45.1074 61.9674 44.4466 61.8763 43.7891 61.7266C43.138 61.5768 42.4935 61.3685 41.8555 61.1016V59.3438C42.5065 59.7474 43.1608 60.0566 43.8184 60.2715C44.4824 60.4863 45.1367 60.6003 45.7812 60.6133V56.1406C44.4792 55.9388 43.4993 55.5417 42.8418 54.9492C42.1842 54.3568 41.8555 53.5723 41.8555 52.5957C41.8555 51.5736 42.1973 50.7598 42.8809 50.1543C43.571 49.5423 44.5378 49.1908 45.7812 49.0996V46.8047H46.7578L46.7676 49.0996C47.2819 49.1322 47.8027 49.1973 48.3301 49.2949C48.8574 49.3926 49.3945 49.526 49.9414 49.6953V51.3848C49.388 51.1048 48.8477 50.89 48.3203 50.7402C47.7995 50.584 47.2786 50.4928 46.7578 50.4668V54.6758C48.099 54.8776 49.1211 55.2943 49.8242 55.9258C50.5273 56.5573 50.8789 57.3743 50.8789 58.377C50.8789 59.3796 50.498 60.2161 49.7363 60.8867C48.9811 61.5573 47.9915 61.9219 46.7676 61.9805L46.7578 64.9395Z" fill="#7D7E7D"/>
<path d="M81.1816 184.615L72.8809 187.74L81.1816 190.836V192.623L70.8594 188.541V186.92L81.1816 182.838V184.615ZM589.043 184.615V182.838L599.365 186.92V188.541L589.043 192.623V190.836L597.344 187.74L589.043 184.615ZM105.283 218.615L96.9824 221.74L105.283 224.836V226.623L94.9609 222.541V220.92L105.283 216.838V218.615ZM81.1816 252.615L72.8809 255.74L81.1816 258.836V260.623L70.8594 256.541V254.92L81.1816 250.838V252.615ZM90.7324 247.42H92.5879L84.9121 263.855H83.0469L90.7324 247.42ZM191.367 252.615V250.838L201.689 254.92V256.541L191.367 260.623V258.836L199.668 255.74L191.367 252.615Z" fill="#5995CC"/>
<path d="M85.9473 181.041V186.52H88.2324C89.1439 186.52 89.8535 186.279 90.3613 185.797C90.8757 185.315 91.1328 184.641 91.1328 183.775C91.1328 182.91 90.8789 182.239 90.3711 181.764C89.8633 181.282 89.1504 181.041 88.2324 181.041H85.9473ZM83.9746 179.42H88.2324C89.86 179.42 91.0938 179.791 91.9336 180.533C92.7734 181.269 93.1934 182.35 93.1934 183.775C93.1934 185.214 92.7734 186.301 91.9336 187.037C91.1003 187.773 89.8665 188.141 88.2324 188.141H85.9473V194H83.9746V179.42ZM105.381 185.318C104.997 185.019 104.606 184.801 104.209 184.664C103.812 184.527 103.376 184.459 102.9 184.459C101.781 184.459 100.924 184.811 100.332 185.514C99.7396 186.217 99.4434 187.232 99.4434 188.561V194H97.6367V183.062H99.4434V185.201C99.7428 184.426 100.202 183.834 100.82 183.424C101.445 183.007 102.184 182.799 103.037 182.799C103.48 182.799 103.893 182.854 104.277 182.965C104.661 183.076 105.029 183.248 105.381 183.482V185.318ZM112.168 184.322C111.257 184.322 110.566 184.677 110.098 185.387C109.629 186.096 109.395 187.148 109.395 188.541C109.395 189.928 109.629 190.979 110.098 191.695C110.566 192.405 111.257 192.76 112.168 192.76C113.086 192.76 113.779 192.405 114.248 191.695C114.717 190.979 114.951 189.928 114.951 188.541C114.951 187.148 114.717 186.096 114.248 185.387C113.779 184.677 113.086 184.322 112.168 184.322ZM112.168 182.799C113.685 182.799 114.844 183.29 115.645 184.273C116.452 185.257 116.855 186.679 116.855 188.541C116.855 190.41 116.455 191.835 115.654 192.818C114.854 193.795 113.691 194.283 112.168 194.283C110.651 194.283 109.492 193.795 108.691 192.818C107.891 191.835 107.49 190.41 107.49 188.541C107.49 186.679 107.891 185.257 108.691 184.273C109.492 183.29 110.651 182.799 112.168 182.799ZM119.18 183.062H121.045L124.219 192.242L127.402 183.062H129.268L125.381 194H123.066L119.18 183.062ZM133.34 183.102H137.939V192.604H141.504V194H132.578V192.604H136.143V184.498H133.34V183.102ZM136.143 178.854H137.939V181.119H136.143V178.854ZM150.684 184.459V178.805H152.48V194H150.684V192.623C150.384 193.163 149.984 193.577 149.482 193.863C148.988 194.143 148.415 194.283 147.764 194.283C146.442 194.283 145.4 193.772 144.639 192.75C143.883 191.721 143.506 190.305 143.506 188.502C143.506 186.725 143.887 185.331 144.648 184.322C145.41 183.307 146.449 182.799 147.764 182.799C148.421 182.799 149.001 182.942 149.502 183.229C150.003 183.508 150.397 183.919 150.684 184.459ZM145.4 188.541C145.4 189.934 145.622 190.986 146.064 191.695C146.507 192.405 147.161 192.76 148.027 192.76C148.893 192.76 149.551 192.402 150 191.686C150.456 190.969 150.684 189.921 150.684 188.541C150.684 187.154 150.456 186.106 150 185.396C149.551 184.68 148.893 184.322 148.027 184.322C147.161 184.322 146.507 184.677 146.064 185.387C145.622 186.096 145.4 187.148 145.4 188.541ZM165.293 187.633V188.512H157.51V188.57C157.458 190.061 157.741 191.132 158.359 191.783C158.984 192.434 159.863 192.76 160.996 192.76C161.569 192.76 162.168 192.669 162.793 192.486C163.418 192.304 164.085 192.027 164.795 191.656V193.443C164.111 193.723 163.451 193.932 162.812 194.068C162.181 194.212 161.569 194.283 160.977 194.283C159.277 194.283 157.949 193.775 156.992 192.76C156.035 191.738 155.557 190.331 155.557 188.541C155.557 186.796 156.025 185.403 156.963 184.361C157.9 183.32 159.15 182.799 160.713 182.799C162.106 182.799 163.203 183.271 164.004 184.215C164.811 185.159 165.241 186.298 165.293 187.633ZM163.496 187.105C163.418 186.35 163.141 185.699 162.666 185.152C162.197 184.599 161.52 184.322 160.635 184.322C159.769 184.322 159.056 184.609 158.496 185.182C157.936 185.755 157.63 186.399 157.578 187.115L163.496 187.105ZM177.686 185.318C177.301 185.019 176.911 184.801 176.514 184.664C176.117 184.527 175.68 184.459 175.205 184.459C174.085 184.459 173.229 184.811 172.637 185.514C172.044 186.217 171.748 187.232 171.748 188.561V194H169.941V183.062H171.748V185.201C172.048 184.426 172.507 183.834 173.125 183.424C173.75 183.007 174.489 182.799 175.342 182.799C175.785 182.799 176.198 182.854 176.582 182.965C176.966 183.076 177.334 183.248 177.686 183.482V185.318ZM106.611 213.42H117.734V215.08H113.174V228H111.191V215.08H106.611V213.42ZM128.467 221.223V228H126.66V221.223C126.66 220.24 126.488 219.517 126.143 219.055C125.798 218.592 125.257 218.361 124.521 218.361C123.682 218.361 123.034 218.661 122.578 219.26C122.129 219.852 121.904 220.705 121.904 221.818V228H120.107V212.805H121.904V218.703C122.223 218.078 122.656 217.606 123.203 217.287C123.75 216.962 124.398 216.799 125.146 216.799C126.26 216.799 127.09 217.167 127.637 217.902C128.19 218.632 128.467 219.738 128.467 221.223ZM141.533 219.318C141.149 219.019 140.758 218.801 140.361 218.664C139.964 218.527 139.528 218.459 139.053 218.459C137.933 218.459 137.077 218.811 136.484 219.514C135.892 220.217 135.596 221.232 135.596 222.561V228H133.789V217.062H135.596V219.201C135.895 218.426 136.354 217.834 136.973 217.424C137.598 217.007 138.337 216.799 139.189 216.799C139.632 216.799 140.046 216.854 140.43 216.965C140.814 217.076 141.182 217.248 141.533 217.482V219.318ZM153.242 221.633V222.512H145.459V222.57C145.407 224.061 145.69 225.132 146.309 225.783C146.934 226.434 147.812 226.76 148.945 226.76C149.518 226.76 150.117 226.669 150.742 226.486C151.367 226.304 152.035 226.027 152.744 225.656V227.443C152.061 227.723 151.4 227.932 150.762 228.068C150.13 228.212 149.518 228.283 148.926 228.283C147.227 228.283 145.898 227.775 144.941 226.76C143.984 225.738 143.506 224.331 143.506 222.541C143.506 220.796 143.975 219.403 144.912 218.361C145.85 217.32 147.1 216.799 148.662 216.799C150.055 216.799 151.152 217.271 151.953 218.215C152.76 219.159 153.19 220.298 153.242 221.633ZM151.445 221.105C151.367 220.35 151.09 219.699 150.615 219.152C150.146 218.599 149.469 218.322 148.584 218.322C147.718 218.322 147.005 218.609 146.445 219.182C145.885 219.755 145.579 220.399 145.527 221.115L151.445 221.105ZM161.211 222.502H160.615C159.567 222.502 158.776 222.688 158.242 223.059C157.715 223.423 157.451 223.97 157.451 224.699C157.451 225.357 157.65 225.868 158.047 226.232C158.444 226.597 158.994 226.779 159.697 226.779C160.687 226.779 161.465 226.438 162.031 225.754C162.598 225.064 162.884 224.113 162.891 222.902V222.502H161.211ZM164.697 221.76V228H162.891V226.379C162.507 227.03 162.021 227.512 161.436 227.824C160.856 228.13 160.15 228.283 159.316 228.283C158.203 228.283 157.314 227.971 156.65 227.346C155.986 226.714 155.654 225.871 155.654 224.816C155.654 223.599 156.061 222.674 156.875 222.043C157.695 221.411 158.896 221.096 160.479 221.096H162.891V220.812C162.884 219.94 162.663 219.309 162.227 218.918C161.79 218.521 161.094 218.322 160.137 218.322C159.525 218.322 158.906 218.41 158.281 218.586C157.656 218.762 157.048 219.019 156.455 219.357V217.561C157.119 217.307 157.754 217.118 158.359 216.994C158.971 216.864 159.564 216.799 160.137 216.799C161.042 216.799 161.813 216.932 162.451 217.199C163.096 217.466 163.617 217.867 164.014 218.4C164.261 218.726 164.437 219.13 164.541 219.611C164.645 220.087 164.697 220.803 164.697 221.76ZM174.785 218.459V212.805H176.582V228H174.785V226.623C174.486 227.163 174.085 227.577 173.584 227.863C173.089 228.143 172.516 228.283 171.865 228.283C170.544 228.283 169.502 227.772 168.74 226.75C167.985 225.721 167.607 224.305 167.607 222.502C167.607 220.725 167.988 219.331 168.75 218.322C169.512 217.307 170.55 216.799 171.865 216.799C172.523 216.799 173.102 216.942 173.604 217.229C174.105 217.508 174.499 217.919 174.785 218.459ZM169.502 222.541C169.502 223.934 169.723 224.986 170.166 225.695C170.609 226.405 171.263 226.76 172.129 226.76C172.995 226.76 173.652 226.402 174.102 225.686C174.557 224.969 174.785 223.921 174.785 222.541C174.785 221.154 174.557 220.106 174.102 219.396C173.652 218.68 172.995 218.322 172.129 218.322C171.263 218.322 170.609 218.677 170.166 219.387C169.723 220.096 169.502 221.148 169.502 222.541ZM97.998 249.041V254.52H100.283C101.195 254.52 101.904 254.279 102.412 253.797C102.926 253.315 103.184 252.641 103.184 251.775C103.184 250.91 102.93 250.239 102.422 249.764C101.914 249.282 101.201 249.041 100.283 249.041H97.998ZM96.0254 247.42H100.283C101.911 247.42 103.145 247.791 103.984 248.533C104.824 249.269 105.244 250.35 105.244 251.775C105.244 253.214 104.824 254.301 103.984 255.037C103.151 255.773 101.917 256.141 100.283 256.141H97.998V262H96.0254V247.42ZM117.432 253.318C117.048 253.019 116.657 252.801 116.26 252.664C115.863 252.527 115.426 252.459 114.951 252.459C113.831 252.459 112.975 252.811 112.383 253.514C111.79 254.217 111.494 255.232 111.494 256.561V262H109.688V251.062H111.494V253.201C111.794 252.426 112.253 251.834 112.871 251.424C113.496 251.007 114.235 250.799 115.088 250.799C115.531 250.799 115.944 250.854 116.328 250.965C116.712 251.076 117.08 251.248 117.432 251.482V253.318ZM124.219 252.322C123.307 252.322 122.617 252.677 122.148 253.387C121.68 254.096 121.445 255.148 121.445 256.541C121.445 257.928 121.68 258.979 122.148 259.695C122.617 260.405 123.307 260.76 124.219 260.76C125.137 260.76 125.83 260.405 126.299 259.695C126.768 258.979 127.002 257.928 127.002 256.541C127.002 255.148 126.768 254.096 126.299 253.387C125.83 252.677 125.137 252.322 124.219 252.322ZM124.219 250.799C125.736 250.799 126.895 251.29 127.695 252.273C128.503 253.257 128.906 254.679 128.906 256.541C128.906 258.41 128.506 259.835 127.705 260.818C126.904 261.795 125.742 262.283 124.219 262.283C122.702 262.283 121.543 261.795 120.742 260.818C119.941 259.835 119.541 258.41 119.541 256.541C119.541 254.679 119.941 253.257 120.742 252.273C121.543 251.29 122.702 250.799 124.219 250.799ZM131.23 251.062H133.096L136.27 260.242L139.453 251.062H141.318L137.432 262H135.117L131.23 251.062ZM145.391 251.102H149.99V260.604H153.555V262H144.629V260.604H148.193V252.498H145.391V251.102ZM148.193 246.854H149.99V249.119H148.193V246.854ZM162.734 252.459V246.805H164.531V262H162.734V260.623C162.435 261.163 162.035 261.577 161.533 261.863C161.038 262.143 160.465 262.283 159.814 262.283C158.493 262.283 157.451 261.772 156.689 260.75C155.934 259.721 155.557 258.305 155.557 256.502C155.557 254.725 155.938 253.331 156.699 252.322C157.461 251.307 158.499 250.799 159.814 250.799C160.472 250.799 161.051 250.942 161.553 251.229C162.054 251.508 162.448 251.919 162.734 252.459ZM157.451 256.541C157.451 257.934 157.673 258.986 158.115 259.695C158.558 260.405 159.212 260.76 160.078 260.76C160.944 260.76 161.602 260.402 162.051 259.686C162.507 258.969 162.734 257.921 162.734 256.541C162.734 255.154 162.507 254.106 162.051 253.396C161.602 252.68 160.944 252.322 160.078 252.322C159.212 252.322 158.558 252.677 158.115 253.387C157.673 254.096 157.451 255.148 157.451 256.541ZM177.344 255.633V256.512H169.561V256.57C169.508 258.061 169.792 259.132 170.41 259.783C171.035 260.434 171.914 260.76 173.047 260.76C173.62 260.76 174.219 260.669 174.844 260.486C175.469 260.304 176.136 260.027 176.846 259.656V261.443C176.162 261.723 175.501 261.932 174.863 262.068C174.232 262.212 173.62 262.283 173.027 262.283C171.328 262.283 170 261.775 169.043 260.76C168.086 259.738 167.607 258.331 167.607 256.541C167.607 254.796 168.076 253.403 169.014 252.361C169.951 251.32 171.201 250.799 172.764 250.799C174.157 250.799 175.254 251.271 176.055 252.215C176.862 253.159 177.292 254.298 177.344 255.633ZM175.547 255.105C175.469 254.35 175.192 253.699 174.717 253.152C174.248 252.599 173.571 252.322 172.686 252.322C171.82 252.322 171.107 252.609 170.547 253.182C169.987 253.755 169.681 254.399 169.629 255.115L175.547 255.105ZM189.736 253.318C189.352 253.019 188.962 252.801 188.564 252.664C188.167 252.527 187.731 252.459 187.256 252.459C186.136 252.459 185.28 252.811 184.688 253.514C184.095 254.217 183.799 255.232 183.799 256.561V262H181.992V251.062H183.799V253.201C184.098 252.426 184.557 251.834 185.176 251.424C185.801 251.007 186.54 250.799 187.393 250.799C187.835 250.799 188.249 250.854 188.633 250.965C189.017 251.076 189.385 251.248 189.736 251.482V253.318Z" fill="#A477A2"/>
<path d="M197.363 188.502H196.768C195.719 188.502 194.928 188.688 194.395 189.059C193.867 189.423 193.604 189.97 193.604 190.699C193.604 191.357 193.802 191.868 194.199 192.232C194.596 192.597 195.146 192.779 195.85 192.779C196.839 192.779 197.617 192.438 198.184 191.754C198.75 191.064 199.036 190.113 199.043 188.902V188.502H197.363ZM200.85 187.76V194H199.043V192.379C198.659 193.03 198.174 193.512 197.588 193.824C197.008 194.13 196.302 194.283 195.469 194.283C194.355 194.283 193.467 193.971 192.803 193.346C192.139 192.714 191.807 191.871 191.807 190.816C191.807 189.599 192.214 188.674 193.027 188.043C193.848 187.411 195.049 187.096 196.631 187.096H199.043V186.812C199.036 185.94 198.815 185.309 198.379 184.918C197.943 184.521 197.246 184.322 196.289 184.322C195.677 184.322 195.059 184.41 194.434 184.586C193.809 184.762 193.2 185.019 192.607 185.357V183.561C193.271 183.307 193.906 183.118 194.512 182.994C195.124 182.864 195.716 182.799 196.289 182.799C197.194 182.799 197.965 182.932 198.604 183.199C199.248 183.466 199.769 183.867 200.166 184.4C200.413 184.726 200.589 185.13 200.693 185.611C200.798 186.087 200.85 186.803 200.85 187.76ZM206.221 192.623V198.16H204.414V183.062H206.221V184.459C206.52 183.919 206.917 183.508 207.412 183.229C207.913 182.942 208.49 182.799 209.141 182.799C210.462 182.799 211.497 183.31 212.246 184.332C213.001 185.354 213.379 186.77 213.379 188.58C213.379 190.357 213.001 191.754 212.246 192.77C211.491 193.779 210.456 194.283 209.141 194.283C208.477 194.283 207.894 194.143 207.393 193.863C206.898 193.577 206.507 193.163 206.221 192.623ZM211.494 188.541C211.494 187.148 211.273 186.096 210.83 185.387C210.394 184.677 209.743 184.322 208.877 184.322C208.005 184.322 207.344 184.68 206.895 185.396C206.445 186.106 206.221 187.154 206.221 188.541C206.221 189.921 206.445 190.969 206.895 191.686C207.344 192.402 208.005 192.76 208.877 192.76C209.743 192.76 210.394 192.405 210.83 191.695C211.273 190.986 211.494 189.934 211.494 188.541ZM218.271 192.623V198.16H216.465V183.062H218.271V184.459C218.571 183.919 218.968 183.508 219.463 183.229C219.964 182.942 220.54 182.799 221.191 182.799C222.513 182.799 223.548 183.31 224.297 184.332C225.052 185.354 225.43 186.77 225.43 188.58C225.43 190.357 225.052 191.754 224.297 192.77C223.542 193.779 222.507 194.283 221.191 194.283C220.527 194.283 219.945 194.143 219.443 193.863C218.949 193.577 218.558 193.163 218.271 192.623ZM223.545 188.541C223.545 187.148 223.324 186.096 222.881 185.387C222.445 184.677 221.794 184.322 220.928 184.322C220.055 184.322 219.395 184.68 218.945 185.396C218.496 186.106 218.271 187.154 218.271 188.541C218.271 189.921 218.496 190.969 218.945 191.686C219.395 192.402 220.055 192.76 220.928 192.76C221.794 192.76 222.445 192.405 222.881 191.695C223.324 190.986 223.545 189.934 223.545 188.541ZM228.623 179.42H236.719V181.08H233.662V192.34H236.719V194H228.623V192.34H231.68V181.08H228.623V179.42ZM247.09 184.459V178.805H248.887V194H247.09V192.623C246.79 193.163 246.39 193.577 245.889 193.863C245.394 194.143 244.821 194.283 244.17 194.283C242.848 194.283 241.807 193.772 241.045 192.75C240.29 191.721 239.912 190.305 239.912 188.502C239.912 186.725 240.293 185.331 241.055 184.322C241.816 183.307 242.855 182.799 244.17 182.799C244.827 182.799 245.407 182.942 245.908 183.229C246.41 183.508 246.803 183.919 247.09 184.459ZM241.807 188.541C241.807 189.934 242.028 190.986 242.471 191.695C242.913 192.405 243.568 192.76 244.434 192.76C245.299 192.76 245.957 192.402 246.406 191.686C246.862 190.969 247.09 189.921 247.09 188.541C247.09 187.154 246.862 186.106 246.406 185.396C245.957 184.68 245.299 184.322 244.434 184.322C243.568 184.322 242.913 184.677 242.471 185.387C242.028 186.096 241.807 187.148 241.807 188.541ZM272.041 178.893V184.869H269.854V178.893H272.041ZM266.836 178.893V184.869H264.648V178.893H266.836ZM356.396 178.893V184.869H354.209V178.893H356.396ZM351.191 178.893V184.869H349.004V178.893H351.191ZM377.266 179.957V183.062H381.348V184.459H377.266V190.396C377.266 191.204 377.419 191.767 377.725 192.086C378.031 192.405 378.564 192.564 379.326 192.564H381.348V194H379.15C377.803 194 376.852 193.73 376.299 193.189C375.745 192.649 375.469 191.718 375.469 190.396V184.459H372.549V183.062H375.469V179.957H377.266ZM389.336 184.322C388.424 184.322 387.734 184.677 387.266 185.387C386.797 186.096 386.562 187.148 386.562 188.541C386.562 189.928 386.797 190.979 387.266 191.695C387.734 192.405 388.424 192.76 389.336 192.76C390.254 192.76 390.947 192.405 391.416 191.695C391.885 190.979 392.119 189.928 392.119 188.541C392.119 187.148 391.885 186.096 391.416 185.387C390.947 184.677 390.254 184.322 389.336 184.322ZM389.336 182.799C390.853 182.799 392.012 183.29 392.812 184.273C393.62 185.257 394.023 186.679 394.023 188.541C394.023 190.41 393.623 191.835 392.822 192.818C392.021 193.795 390.859 194.283 389.336 194.283C387.819 194.283 386.66 193.795 385.859 192.818C385.059 191.835 384.658 190.41 384.658 188.541C384.658 186.679 385.059 185.257 385.859 184.273C386.66 183.29 387.819 182.799 389.336 182.799ZM397.676 178.805H399.531V187.604L404.248 183.062H406.436L402.129 187.184L407.109 194H404.912L400.869 188.355L399.531 189.615V194H397.676V178.805ZM418.359 187.633V188.512H410.576V188.57C410.524 190.061 410.807 191.132 411.426 191.783C412.051 192.434 412.93 192.76 414.062 192.76C414.635 192.76 415.234 192.669 415.859 192.486C416.484 192.304 417.152 192.027 417.861 191.656V193.443C417.178 193.723 416.517 193.932 415.879 194.068C415.247 194.212 414.635 194.283 414.043 194.283C412.344 194.283 411.016 193.775 410.059 192.76C409.102 191.738 408.623 190.331 408.623 188.541C408.623 186.796 409.092 185.403 410.029 184.361C410.967 183.32 412.217 182.799 413.779 182.799C415.173 182.799 416.27 183.271 417.07 184.215C417.878 185.159 418.307 186.298 418.359 187.633ZM416.562 187.105C416.484 186.35 416.208 185.699 415.732 185.152C415.264 184.599 414.587 184.322 413.701 184.322C412.835 184.322 412.122 184.609 411.562 185.182C411.003 185.755 410.697 186.399 410.645 187.115L416.562 187.105ZM429.736 187.223V194H427.93V187.223C427.93 186.24 427.757 185.517 427.412 185.055C427.067 184.592 426.527 184.361 425.791 184.361C424.951 184.361 424.303 184.661 423.848 185.26C423.398 185.852 423.174 186.705 423.174 187.818V194H421.377V183.062H423.174V184.703C423.493 184.078 423.926 183.606 424.473 183.287C425.02 182.962 425.667 182.799 426.416 182.799C427.529 182.799 428.359 183.167 428.906 183.902C429.46 184.632 429.736 185.738 429.736 187.223ZM452.803 178.893V184.869H450.615V178.893H452.803ZM447.598 178.893V184.869H445.41V178.893H447.598ZM585.361 178.893V184.869H583.174V178.893H585.361ZM580.156 178.893V184.869H577.969V178.893H580.156ZM196.504 213.957V217.062H200.586V218.459H196.504V224.396C196.504 225.204 196.657 225.767 196.963 226.086C197.269 226.405 197.803 226.564 198.564 226.564H200.586V228H198.389C197.041 228 196.09 227.73 195.537 227.189C194.984 226.649 194.707 225.718 194.707 224.396V218.459H191.787V217.062H194.707V213.957H196.504ZM212.822 221.223V228H211.016V221.223C211.016 220.24 210.843 219.517 210.498 219.055C210.153 218.592 209.613 218.361 208.877 218.361C208.037 218.361 207.389 218.661 206.934 219.26C206.484 219.852 206.26 220.705 206.26 221.818V228H204.463V212.805H206.26V218.703C206.579 218.078 207.012 217.606 207.559 217.287C208.105 216.962 208.753 216.799 209.502 216.799C210.615 216.799 211.445 217.167 211.992 217.902C212.546 218.632 212.822 219.738 212.822 221.223ZM225.889 219.318C225.505 219.019 225.114 218.801 224.717 218.664C224.32 218.527 223.883 218.459 223.408 218.459C222.288 218.459 221.432 218.811 220.84 219.514C220.247 220.217 219.951 221.232 219.951 222.561V228H218.145V217.062H219.951V219.201C220.251 218.426 220.71 217.834 221.328 217.424C221.953 217.007 222.692 216.799 223.545 216.799C223.988 216.799 224.401 216.854 224.785 216.965C225.169 217.076 225.537 217.248 225.889 217.482V219.318ZM237.598 221.633V222.512H229.814V222.57C229.762 224.061 230.046 225.132 230.664 225.783C231.289 226.434 232.168 226.76 233.301 226.76C233.874 226.76 234.473 226.669 235.098 226.486C235.723 226.304 236.39 226.027 237.1 225.656V227.443C236.416 227.723 235.755 227.932 235.117 228.068C234.486 228.212 233.874 228.283 233.281 228.283C231.582 228.283 230.254 227.775 229.297 226.76C228.34 225.738 227.861 224.331 227.861 222.541C227.861 220.796 228.33 219.403 229.268 218.361C230.205 217.32 231.455 216.799 233.018 216.799C234.411 216.799 235.508 217.271 236.309 218.215C237.116 219.159 237.546 220.298 237.598 221.633ZM235.801 221.105C235.723 220.35 235.446 219.699 234.971 219.152C234.502 218.599 233.825 218.322 232.939 218.322C232.074 218.322 231.361 218.609 230.801 219.182C230.241 219.755 229.935 220.399 229.883 221.115L235.801 221.105ZM245.566 222.502H244.971C243.923 222.502 243.132 222.688 242.598 223.059C242.07 223.423 241.807 223.97 241.807 224.699C241.807 225.357 242.005 225.868 242.402 226.232C242.799 226.597 243.35 226.779 244.053 226.779C245.042 226.779 245.82 226.438 246.387 225.754C246.953 225.064 247.24 224.113 247.246 222.902V222.502H245.566ZM249.053 221.76V228H247.246V226.379C246.862 227.03 246.377 227.512 245.791 227.824C245.212 228.13 244.505 228.283 243.672 228.283C242.559 228.283 241.67 227.971 241.006 227.346C240.342 226.714 240.01 225.871 240.01 224.816C240.01 223.599 240.417 222.674 241.23 222.043C242.051 221.411 243.252 221.096 244.834 221.096H247.246V220.812C247.24 219.94 247.018 219.309 246.582 218.918C246.146 218.521 245.449 218.322 244.492 218.322C243.88 218.322 243.262 218.41 242.637 218.586C242.012 218.762 241.403 219.019 240.811 219.357V217.561C241.475 217.307 242.109 217.118 242.715 216.994C243.327 216.864 243.919 216.799 244.492 216.799C245.397 216.799 246.169 216.932 246.807 217.199C247.451 217.466 247.972 217.867 248.369 218.4C248.617 218.726 248.792 219.13 248.896 219.611C249.001 220.087 249.053 220.803 249.053 221.76ZM259.141 218.459V212.805H260.938V228H259.141V226.623C258.841 227.163 258.441 227.577 257.939 227.863C257.445 228.143 256.872 228.283 256.221 228.283C254.899 228.283 253.857 227.772 253.096 226.75C252.34 225.721 251.963 224.305 251.963 222.502C251.963 220.725 252.344 219.331 253.105 218.322C253.867 217.307 254.906 216.799 256.221 216.799C256.878 216.799 257.458 216.942 257.959 217.229C258.46 217.508 258.854 217.919 259.141 218.459ZM253.857 222.541C253.857 223.934 254.079 224.986 254.521 225.695C254.964 226.405 255.618 226.76 256.484 226.76C257.35 226.76 258.008 226.402 258.457 225.686C258.913 224.969 259.141 223.921 259.141 222.541C259.141 221.154 258.913 220.106 258.457 219.396C258.008 218.68 257.35 218.322 256.484 218.322C255.618 218.322 254.964 218.677 254.521 219.387C254.079 220.096 253.857 221.148 253.857 222.541ZM264.775 213.42H272.871V215.08H269.814V226.34H272.871V228H264.775V226.34H267.832V215.08H264.775V213.42ZM283.242 218.459V212.805H285.039V228H283.242V226.623C282.943 227.163 282.542 227.577 282.041 227.863C281.546 228.143 280.973 228.283 280.322 228.283C279.001 228.283 277.959 227.772 277.197 226.75C276.442 225.721 276.064 224.305 276.064 222.502C276.064 220.725 276.445 219.331 277.207 218.322C277.969 217.307 279.007 216.799 280.322 216.799C280.98 216.799 281.559 216.942 282.061 217.229C282.562 217.508 282.956 217.919 283.242 218.459ZM277.959 222.541C277.959 223.934 278.18 224.986 278.623 225.695C279.066 226.405 279.72 226.76 280.586 226.76C281.452 226.76 282.109 226.402 282.559 225.686C283.014 224.969 283.242 223.921 283.242 222.541C283.242 221.154 283.014 220.106 282.559 219.396C282.109 218.68 281.452 218.322 280.586 218.322C279.72 218.322 279.066 218.677 278.623 219.387C278.18 220.096 277.959 221.148 277.959 222.541ZM308.193 212.893V218.869H306.006V212.893H308.193ZM302.988 212.893V218.869H300.801V212.893H302.988ZM525.107 212.893V218.869H522.92V212.893H525.107ZM519.902 212.893V218.869H517.715V212.893H519.902ZM548.662 213.42H550.518L542.842 229.855H540.977L548.662 213.42ZM552.891 218.615V216.838L563.213 220.92V222.541L552.891 226.623V224.836L561.191 221.74L552.891 218.615Z" fill="#D7D5A5"/>
<path d="M251.621 189.117H261.943V190.768H251.621V189.117ZM251.621 184.518H261.943V186.168H251.621V184.518ZM432.383 189.117H442.705V190.768H432.383V189.117ZM432.383 184.518H442.705V186.168H432.383V184.518ZM287.773 223.117H298.096V224.768H287.773V223.117ZM287.773 218.518H298.096V220.168H287.773V218.518Z" fill="#5B4A79"/>
<path d="M280.879 181.158L278.799 188.619H282.959L280.879 181.158ZM279.688 179.42H282.08L286.543 194H284.502L283.428 190.201H278.32L277.266 194H275.225L279.688 179.42ZM290.811 181.041V186.52H293.096C294.007 186.52 294.717 186.279 295.225 185.797C295.739 185.315 295.996 184.641 295.996 183.775C295.996 182.91 295.742 182.239 295.234 181.764C294.727 181.282 294.014 181.041 293.096 181.041H290.811ZM288.838 179.42H293.096C294.723 179.42 295.957 179.791 296.797 180.533C297.637 181.269 298.057 182.35 298.057 183.775C298.057 185.214 297.637 186.301 296.797 187.037C295.964 187.773 294.73 188.141 293.096 188.141H290.811V194H288.838V179.42ZM302.861 181.041V186.52H305.146C306.058 186.52 306.768 186.279 307.275 185.797C307.79 185.315 308.047 184.641 308.047 183.775C308.047 182.91 307.793 182.239 307.285 181.764C306.777 181.282 306.064 181.041 305.146 181.041H302.861ZM300.889 179.42H305.146C306.774 179.42 308.008 179.791 308.848 180.533C309.688 181.269 310.107 182.35 310.107 183.775C310.107 185.214 309.688 186.301 308.848 187.037C308.014 187.773 306.781 188.141 305.146 188.141H302.861V194H300.889V179.42ZM322.969 195.855V197.516H311.016V195.855H322.969ZM325.029 179.42H333.125V181.08H330.068V192.34H333.125V194H325.029V192.34H328.086V181.08H325.029V179.42ZM339.375 192.379C341.035 192.379 342.194 191.972 342.852 191.158C343.509 190.338 343.838 188.86 343.838 186.725C343.838 184.57 343.509 183.085 342.852 182.271C342.201 181.451 341.042 181.041 339.375 181.041H338.438V192.379H339.375ZM339.414 179.42C341.641 179.42 343.281 180.012 344.336 181.197C345.391 182.382 345.918 184.225 345.918 186.725C345.918 189.212 345.391 191.048 344.336 192.232C343.281 193.411 341.641 194 339.414 194H336.455V179.42H339.414ZM457.061 188.404V179.42H459.043V189.303C459.043 190.012 459.062 190.52 459.102 190.826C459.141 191.126 459.209 191.357 459.307 191.52C459.515 191.904 459.814 192.193 460.205 192.389C460.602 192.584 461.081 192.682 461.641 192.682C462.207 192.682 462.686 192.584 463.076 192.389C463.467 192.193 463.77 191.904 463.984 191.52C464.082 191.357 464.15 191.126 464.189 190.826C464.229 190.527 464.248 190.025 464.248 189.322V179.42H466.221V188.404C466.221 189.895 466.126 190.956 465.938 191.588C465.755 192.213 465.436 192.73 464.98 193.141C464.551 193.525 464.059 193.811 463.506 194C462.952 194.189 462.331 194.283 461.641 194.283C460.957 194.283 460.339 194.189 459.785 194C459.232 193.811 458.737 193.525 458.301 193.141C457.852 192.737 457.533 192.216 457.344 191.578C457.155 190.934 457.061 189.876 457.061 188.404ZM477.559 179.918V181.92C476.96 181.536 476.357 181.246 475.752 181.051C475.153 180.855 474.548 180.758 473.936 180.758C473.005 180.758 472.269 180.976 471.729 181.412C471.188 181.842 470.918 182.424 470.918 183.16C470.918 183.805 471.094 184.296 471.445 184.635C471.803 184.973 472.467 185.257 473.438 185.484L474.473 185.719C475.84 186.038 476.836 186.539 477.461 187.223C478.086 187.906 478.398 188.837 478.398 190.016C478.398 191.402 477.969 192.46 477.109 193.189C476.25 193.919 475 194.283 473.359 194.283C472.676 194.283 471.989 194.208 471.299 194.059C470.609 193.915 469.915 193.697 469.219 193.404V191.305C469.967 191.78 470.674 192.128 471.338 192.35C472.008 192.571 472.682 192.682 473.359 192.682C474.355 192.682 475.13 192.46 475.684 192.018C476.237 191.568 476.514 190.943 476.514 190.143C476.514 189.413 476.322 188.857 475.938 188.473C475.56 188.089 474.899 187.792 473.955 187.584L472.9 187.34C471.546 187.034 470.563 186.572 469.951 185.953C469.339 185.335 469.033 184.505 469.033 183.463C469.033 182.161 469.469 181.119 470.342 180.338C471.221 179.55 472.386 179.156 473.838 179.156C474.398 179.156 474.987 179.221 475.605 179.352C476.224 179.475 476.875 179.664 477.559 179.918ZM481.65 179.42H490.303V181.08H483.623V185.006H490.01V186.666H483.623V192.34H490.488V194H481.65V179.42ZM499.199 187.115C499.707 187.245 500.14 187.493 500.498 187.857C500.856 188.215 501.302 188.935 501.836 190.016L503.818 194H501.699L499.961 190.318C499.46 189.27 499.007 188.596 498.604 188.297C498.206 187.991 497.686 187.838 497.041 187.838H495.156V194H493.174V179.42H497.236C498.838 179.42 500.065 179.781 500.918 180.504C501.771 181.227 502.197 182.271 502.197 183.639C502.197 184.602 501.934 185.39 501.406 186.002C500.885 186.607 500.15 186.979 499.199 187.115ZM495.156 181.041V186.217H497.314C498.258 186.217 498.962 186.005 499.424 185.582C499.886 185.159 500.117 184.511 500.117 183.639C500.117 182.799 499.87 182.158 499.375 181.715C498.887 181.266 498.174 181.041 497.236 181.041H495.156ZM515.781 195.855V197.516H503.828V195.855H515.781ZM516.338 179.42H527.461V181.08H522.9V194H520.918V181.08H516.338V179.42ZM536.768 186.725C536.768 184.583 536.546 183.053 536.104 182.135C535.667 181.217 534.948 180.758 533.945 180.758C532.949 180.758 532.23 181.217 531.787 182.135C531.351 183.053 531.133 184.583 531.133 186.725C531.133 188.86 531.351 190.387 531.787 191.305C532.23 192.223 532.949 192.682 533.945 192.682C534.948 192.682 535.667 192.226 536.104 191.314C536.546 190.396 536.768 188.867 536.768 186.725ZM538.828 186.725C538.828 189.264 538.424 191.158 537.617 192.408C536.816 193.658 535.592 194.283 533.945 194.283C532.298 194.283 531.074 193.661 530.273 192.418C529.473 191.174 529.072 189.277 529.072 186.725C529.072 184.179 529.473 182.281 530.273 181.031C531.081 179.781 532.305 179.156 533.945 179.156C535.592 179.156 536.816 179.781 537.617 181.031C538.424 182.281 538.828 184.179 538.828 186.725ZM541.318 179.42H543.301V185.904L549.463 179.42H551.777L546.104 185.377L551.943 194H549.561L544.805 186.695L543.301 188.297V194H541.318V179.42ZM553.955 179.42H562.607V181.08H555.928V185.006H562.314V186.666H555.928V192.34H562.793V194H553.955V179.42ZM564.268 179.469H566.963L572.666 191.432V179.469H574.766V194H572.07L566.367 182.037V194H564.268V179.469ZM319.395 224.484C319.095 225.246 318.714 226.249 318.252 227.492C317.607 229.211 317.174 230.259 316.953 230.637C316.654 231.145 316.279 231.525 315.83 231.779C315.381 232.033 314.857 232.16 314.258 232.16H312.812V230.656H313.877C314.404 230.656 314.818 230.503 315.117 230.197C315.417 229.891 315.798 229.1 316.26 227.824L312.031 217.062H313.936L317.178 225.617L320.371 217.062H322.275L319.395 224.484ZM329.082 218.322C328.171 218.322 327.48 218.677 327.012 219.387C326.543 220.096 326.309 221.148 326.309 222.541C326.309 223.928 326.543 224.979 327.012 225.695C327.48 226.405 328.171 226.76 329.082 226.76C330 226.76 330.693 226.405 331.162 225.695C331.631 224.979 331.865 223.928 331.865 222.541C331.865 221.148 331.631 220.096 331.162 219.387C330.693 218.677 330 218.322 329.082 218.322ZM329.082 216.799C330.599 216.799 331.758 217.29 332.559 218.273C333.366 219.257 333.77 220.679 333.77 222.541C333.77 224.41 333.369 225.835 332.568 226.818C331.768 227.795 330.605 228.283 329.082 228.283C327.565 228.283 326.406 227.795 325.605 226.818C324.805 225.835 324.404 224.41 324.404 222.541C324.404 220.679 324.805 219.257 325.605 218.273C326.406 217.29 327.565 216.799 329.082 216.799ZM337.021 223.859V217.082H338.818V223.859C338.818 224.842 338.991 225.565 339.336 226.027C339.688 226.49 340.228 226.721 340.957 226.721C341.803 226.721 342.451 226.424 342.9 225.832C343.35 225.233 343.574 224.377 343.574 223.264V217.082H345.381V228H343.574V226.359C343.255 226.991 342.819 227.469 342.266 227.795C341.719 228.12 341.077 228.283 340.342 228.283C339.222 228.283 338.389 227.919 337.842 227.189C337.295 226.454 337.021 225.344 337.021 223.859ZM358.447 219.318C358.063 219.019 357.673 218.801 357.275 218.664C356.878 218.527 356.442 218.459 355.967 218.459C354.847 218.459 353.991 218.811 353.398 219.514C352.806 220.217 352.51 221.232 352.51 222.561V228H350.703V217.062H352.51V219.201C352.809 218.426 353.268 217.834 353.887 217.424C354.512 217.007 355.251 216.799 356.104 216.799C356.546 216.799 356.96 216.854 357.344 216.965C357.728 217.076 358.096 217.248 358.447 217.482V219.318ZM360.215 220.93H370.566V222.58H360.215V220.93ZM381.65 212.805V214.299H379.609C378.965 214.299 378.516 214.432 378.262 214.699C378.014 214.96 377.891 215.425 377.891 216.096V217.062H381.65V218.459H377.891V228H376.094V218.459H373.174V217.062H376.094V216.301C376.094 215.103 376.367 214.221 376.914 213.654C377.467 213.088 378.327 212.805 379.492 212.805H381.65ZM386.406 217.102H391.006V226.604H394.57V228H385.645V226.604H389.209V218.498H386.406V217.102ZM389.209 212.854H391.006V215.119H389.209V212.854ZM406.65 219.318C406.266 219.019 405.876 218.801 405.479 218.664C405.081 218.527 404.645 218.459 404.17 218.459C403.05 218.459 402.194 218.811 401.602 219.514C401.009 220.217 400.713 221.232 400.713 222.561V228H398.906V217.062H400.713V219.201C401.012 218.426 401.471 217.834 402.09 217.424C402.715 217.007 403.454 216.799 404.307 216.799C404.749 216.799 405.163 216.854 405.547 216.965C405.931 217.076 406.299 217.248 406.65 217.482V219.318ZM416.924 217.443V219.201C416.41 218.902 415.892 218.677 415.371 218.527C414.85 218.378 414.32 218.303 413.779 218.303C412.965 218.303 412.357 218.436 411.953 218.703C411.556 218.964 411.357 219.364 411.357 219.904C411.357 220.393 411.507 220.757 411.807 220.998C412.106 221.239 412.852 221.473 414.043 221.701L414.766 221.838C415.658 222.007 416.331 222.346 416.787 222.854C417.249 223.361 417.48 224.022 417.48 224.836C417.48 225.917 417.096 226.763 416.328 227.375C415.56 227.98 414.492 228.283 413.125 228.283C412.585 228.283 412.018 228.225 411.426 228.107C410.833 227.997 410.192 227.827 409.502 227.6V225.744C410.173 226.089 410.814 226.35 411.426 226.525C412.038 226.695 412.617 226.779 413.164 226.779C413.958 226.779 414.574 226.62 415.01 226.301C415.446 225.975 415.664 225.523 415.664 224.943C415.664 224.11 414.867 223.534 413.271 223.215L413.193 223.195L412.52 223.059C411.484 222.857 410.729 222.518 410.254 222.043C409.779 221.561 409.541 220.907 409.541 220.08C409.541 219.032 409.896 218.225 410.605 217.658C411.315 217.085 412.327 216.799 413.643 216.799C414.229 216.799 414.792 216.854 415.332 216.965C415.872 217.069 416.403 217.229 416.924 217.443ZM425.469 213.957V217.062H429.551V218.459H425.469V224.396C425.469 225.204 425.622 225.767 425.928 226.086C426.234 226.405 426.768 226.564 427.529 226.564H429.551V228H427.354C426.006 228 425.055 227.73 424.502 227.189C423.949 226.649 423.672 225.718 423.672 224.396V218.459H420.752V217.062H423.672V213.957H425.469ZM432.52 220.93H442.871V222.58H432.52V220.93ZM449.57 213.957V217.062H453.652V218.459H449.57V224.396C449.57 225.204 449.723 225.767 450.029 226.086C450.335 226.405 450.869 226.564 451.631 226.564H453.652V228H451.455C450.107 228 449.157 227.73 448.604 227.189C448.05 226.649 447.773 225.718 447.773 224.396V218.459H444.854V217.062H447.773V213.957H449.57ZM465.889 221.223V228H464.082V221.223C464.082 220.24 463.91 219.517 463.564 219.055C463.219 218.592 462.679 218.361 461.943 218.361C461.104 218.361 460.456 218.661 460 219.26C459.551 219.852 459.326 220.705 459.326 221.818V228H457.529V212.805H459.326V218.703C459.645 218.078 460.078 217.606 460.625 217.287C461.172 216.962 461.82 216.799 462.568 216.799C463.682 216.799 464.512 217.167 465.059 217.902C465.612 218.632 465.889 219.738 465.889 221.223ZM478.955 219.318C478.571 219.019 478.18 218.801 477.783 218.664C477.386 218.527 476.95 218.459 476.475 218.459C475.355 218.459 474.499 218.811 473.906 219.514C473.314 220.217 473.018 221.232 473.018 222.561V228H471.211V217.062H473.018V219.201C473.317 218.426 473.776 217.834 474.395 217.424C475.02 217.007 475.758 216.799 476.611 216.799C477.054 216.799 477.467 216.854 477.852 216.965C478.236 217.076 478.604 217.248 478.955 217.482V219.318ZM490.664 221.633V222.512H482.881V222.57C482.829 224.061 483.112 225.132 483.73 225.783C484.355 226.434 485.234 226.76 486.367 226.76C486.94 226.76 487.539 226.669 488.164 226.486C488.789 226.304 489.456 226.027 490.166 225.656V227.443C489.482 227.723 488.822 227.932 488.184 228.068C487.552 228.212 486.94 228.283 486.348 228.283C484.648 228.283 483.32 227.775 482.363 226.76C481.406 225.738 480.928 224.331 480.928 222.541C480.928 220.796 481.396 219.403 482.334 218.361C483.271 217.32 484.521 216.799 486.084 216.799C487.477 216.799 488.574 217.271 489.375 218.215C490.182 219.159 490.612 220.298 490.664 221.633ZM488.867 221.105C488.789 220.35 488.512 219.699 488.037 219.152C487.568 218.599 486.891 218.322 486.006 218.322C485.14 218.322 484.427 218.609 483.867 219.182C483.307 219.755 483.001 220.399 482.949 221.115L488.867 221.105ZM498.633 222.502H498.037C496.989 222.502 496.198 222.688 495.664 223.059C495.137 223.423 494.873 223.97 494.873 224.699C494.873 225.357 495.072 225.868 495.469 226.232C495.866 226.597 496.416 226.779 497.119 226.779C498.109 226.779 498.887 226.438 499.453 225.754C500.02 225.064 500.306 224.113 500.312 222.902V222.502H498.633ZM502.119 221.76V228H500.312V226.379C499.928 227.03 499.443 227.512 498.857 227.824C498.278 228.13 497.572 228.283 496.738 228.283C495.625 228.283 494.736 227.971 494.072 227.346C493.408 226.714 493.076 225.871 493.076 224.816C493.076 223.599 493.483 222.674 494.297 222.043C495.117 221.411 496.318 221.096 497.9 221.096H500.312V220.812C500.306 219.94 500.085 219.309 499.648 218.918C499.212 218.521 498.516 218.322 497.559 218.322C496.947 218.322 496.328 218.41 495.703 218.586C495.078 218.762 494.469 219.019 493.877 219.357V217.561C494.541 217.307 495.176 217.118 495.781 216.994C496.393 216.864 496.986 216.799 497.559 216.799C498.464 216.799 499.235 216.932 499.873 217.199C500.518 217.466 501.038 217.867 501.436 218.4C501.683 218.726 501.859 219.13 501.963 219.611C502.067 220.087 502.119 220.803 502.119 221.76ZM512.207 218.459V212.805H514.004V228H512.207V226.623C511.908 227.163 511.507 227.577 511.006 227.863C510.511 228.143 509.938 228.283 509.287 228.283C507.965 228.283 506.924 227.772 506.162 226.75C505.407 225.721 505.029 224.305 505.029 222.502C505.029 220.725 505.41 219.331 506.172 218.322C506.934 217.307 507.972 216.799 509.287 216.799C509.945 216.799 510.524 216.942 511.025 217.229C511.527 217.508 511.921 217.919 512.207 218.459ZM506.924 222.541C506.924 223.934 507.145 224.986 507.588 225.695C508.031 226.405 508.685 226.76 509.551 226.76C510.417 226.76 511.074 226.402 511.523 225.686C511.979 224.969 512.207 223.921 512.207 222.541C512.207 221.154 511.979 220.106 511.523 219.396C511.074 218.68 510.417 218.322 509.551 218.322C508.685 218.322 508.031 218.677 507.588 219.387C507.145 220.096 506.924 221.148 506.924 222.541Z" fill="#C9EB59"/>
<path d="M73.0859 115.102H77.6855V124.604H81.25V126H72.3242V124.604H75.8887V116.498H73.0859V115.102ZM75.8887 110.854H77.6855V113.119H75.8887V110.854ZM88.6523 116.176C88.8737 115.707 89.1536 115.362 89.4922 115.141C89.8372 114.913 90.2507 114.799 90.7324 114.799C91.6113 114.799 92.2298 115.141 92.5879 115.824C92.9525 116.501 93.1348 117.781 93.1348 119.662V126H91.4941V119.74C91.4941 118.197 91.4062 117.24 91.2305 116.869C91.0612 116.492 90.7487 116.303 90.293 116.303C89.7721 116.303 89.4141 116.505 89.2188 116.908C89.0299 117.305 88.9355 118.249 88.9355 119.74V126H87.2949V119.74C87.2949 118.178 87.2005 117.214 87.0117 116.85C86.8294 116.485 86.4974 116.303 86.0156 116.303C85.5404 116.303 85.2083 116.505 85.0195 116.908C84.8372 117.305 84.7461 118.249 84.7461 119.74V126H83.1152V115.062H84.7461V116C84.9609 115.609 85.2279 115.313 85.5469 115.111C85.8724 114.903 86.2402 114.799 86.6504 114.799C87.1452 114.799 87.5553 114.913 87.8809 115.141C88.2129 115.368 88.4701 115.714 88.6523 116.176ZM97.7637 124.623V130.16H95.957V115.062H97.7637V116.459C98.0632 115.919 98.4603 115.508 98.9551 115.229C99.4564 114.942 100.033 114.799 100.684 114.799C102.005 114.799 103.04 115.31 103.789 116.332C104.544 117.354 104.922 118.77 104.922 120.58C104.922 122.357 104.544 123.754 103.789 124.77C103.034 125.779 101.999 126.283 100.684 126.283C100.02 126.283 99.4368 126.143 98.9355 125.863C98.4408 125.577 98.0501 125.163 97.7637 124.623ZM103.037 120.541C103.037 119.148 102.816 118.096 102.373 117.387C101.937 116.677 101.286 116.322 100.42 116.322C99.5475 116.322 98.8867 116.68 98.4375 117.396C97.9883 118.106 97.7637 119.154 97.7637 120.541C97.7637 121.921 97.9883 122.969 98.4375 123.686C98.8867 124.402 99.5475 124.76 100.42 124.76C101.286 124.76 101.937 124.405 102.373 123.695C102.816 122.986 103.037 121.934 103.037 120.541ZM112.168 116.322C111.257 116.322 110.566 116.677 110.098 117.387C109.629 118.096 109.395 119.148 109.395 120.541C109.395 121.928 109.629 122.979 110.098 123.695C110.566 124.405 111.257 124.76 112.168 124.76C113.086 124.76 113.779 124.405 114.248 123.695C114.717 122.979 114.951 121.928 114.951 120.541C114.951 119.148 114.717 118.096 114.248 117.387C113.779 116.677 113.086 116.322 112.168 116.322ZM112.168 114.799C113.685 114.799 114.844 115.29 115.645 116.273C116.452 117.257 116.855 118.679 116.855 120.541C116.855 122.41 116.455 123.835 115.654 124.818C114.854 125.795 113.691 126.283 112.168 126.283C110.651 126.283 109.492 125.795 108.691 124.818C107.891 123.835 107.49 122.41 107.49 120.541C107.49 118.679 107.891 117.257 108.691 116.273C109.492 115.29 110.651 114.799 112.168 114.799ZM129.482 117.318C129.098 117.019 128.708 116.801 128.311 116.664C127.913 116.527 127.477 116.459 127.002 116.459C125.882 116.459 125.026 116.811 124.434 117.514C123.841 118.217 123.545 119.232 123.545 120.561V126H121.738V115.062H123.545V117.201C123.844 116.426 124.303 115.834 124.922 115.424C125.547 115.007 126.286 114.799 127.139 114.799C127.581 114.799 127.995 114.854 128.379 114.965C128.763 115.076 129.131 115.248 129.482 115.482V117.318ZM136.25 111.957V115.062H140.332V116.459H136.25V122.396C136.25 123.204 136.403 123.767 136.709 124.086C137.015 124.405 137.549 124.564 138.311 124.564H140.332V126H138.135C136.787 126 135.837 125.73 135.283 125.189C134.73 124.649 134.453 123.718 134.453 122.396V116.459H131.533V115.062H134.453V111.957H136.25Z" fill="#CBCCCB" fill-opacity="0.7"/>
<path d="M182.354 113.041V118.52H184.639C185.55 118.52 186.26 118.279 186.768 117.797C187.282 117.315 187.539 116.641 187.539 115.775C187.539 114.91 187.285 114.239 186.777 113.764C186.27 113.282 185.557 113.041 184.639 113.041H182.354ZM180.381 111.42H184.639C186.266 111.42 187.5 111.791 188.34 112.533C189.18 113.269 189.6 114.35 189.6 115.775C189.6 117.214 189.18 118.301 188.34 119.037C187.507 119.773 186.273 120.141 184.639 120.141H182.354V126H180.381V111.42ZM201.787 117.318C201.403 117.019 201.012 116.801 200.615 116.664C200.218 116.527 199.782 116.459 199.307 116.459C198.187 116.459 197.331 116.811 196.738 117.514C196.146 118.217 195.85 119.232 195.85 120.561V126H194.043V115.062H195.85V117.201C196.149 116.426 196.608 115.834 197.227 115.424C197.852 115.007 198.59 114.799 199.443 114.799C199.886 114.799 200.299 114.854 200.684 114.965C201.068 115.076 201.436 115.248 201.787 115.482V117.318ZM208.574 116.322C207.663 116.322 206.973 116.677 206.504 117.387C206.035 118.096 205.801 119.148 205.801 120.541C205.801 121.928 206.035 122.979 206.504 123.695C206.973 124.405 207.663 124.76 208.574 124.76C209.492 124.76 210.186 124.405 210.654 123.695C211.123 122.979 211.357 121.928 211.357 120.541C211.357 119.148 211.123 118.096 210.654 117.387C210.186 116.677 209.492 116.322 208.574 116.322ZM208.574 114.799C210.091 114.799 211.25 115.29 212.051 116.273C212.858 117.257 213.262 118.679 213.262 120.541C213.262 122.41 212.861 123.835 212.061 124.818C211.26 125.795 210.098 126.283 208.574 126.283C207.057 126.283 205.898 125.795 205.098 124.818C204.297 123.835 203.896 122.41 203.896 120.541C203.896 118.679 204.297 117.257 205.098 116.273C205.898 115.29 207.057 114.799 208.574 114.799ZM215.586 115.062H217.451L220.625 124.242L223.809 115.062H225.674L221.787 126H219.473L215.586 115.062ZM229.746 115.102H234.346V124.604H237.91V126H228.984V124.604H232.549V116.498H229.746V115.102ZM232.549 110.854H234.346V113.119H232.549V110.854ZM247.09 116.459V110.805H248.887V126H247.09V124.623C246.79 125.163 246.39 125.577 245.889 125.863C245.394 126.143 244.821 126.283 244.17 126.283C242.848 126.283 241.807 125.772 241.045 124.75C240.29 123.721 239.912 122.305 239.912 120.502C239.912 118.725 240.293 117.331 241.055 116.322C241.816 115.307 242.855 114.799 244.17 114.799C244.827 114.799 245.407 114.942 245.908 115.229C246.41 115.508 246.803 115.919 247.09 116.459ZM241.807 120.541C241.807 121.934 242.028 122.986 242.471 123.695C242.913 124.405 243.568 124.76 244.434 124.76C245.299 124.76 245.957 124.402 246.406 123.686C246.862 122.969 247.09 121.921 247.09 120.541C247.09 119.154 246.862 118.106 246.406 117.396C245.957 116.68 245.299 116.322 244.434 116.322C243.568 116.322 242.913 116.677 242.471 117.387C242.028 118.096 241.807 119.148 241.807 120.541ZM261.699 119.633V120.512H253.916V120.57C253.864 122.061 254.147 123.132 254.766 123.783C255.391 124.434 256.27 124.76 257.402 124.76C257.975 124.76 258.574 124.669 259.199 124.486C259.824 124.304 260.492 124.027 261.201 123.656V125.443C260.518 125.723 259.857 125.932 259.219 126.068C258.587 126.212 257.975 126.283 257.383 126.283C255.684 126.283 254.355 125.775 253.398 124.76C252.441 123.738 251.963 122.331 251.963 120.541C251.963 118.796 252.432 117.403 253.369 116.361C254.307 115.32 255.557 114.799 257.119 114.799C258.512 114.799 259.609 115.271 260.41 116.215C261.217 117.159 261.647 118.298 261.699 119.633ZM259.902 119.105C259.824 118.35 259.548 117.699 259.072 117.152C258.604 116.599 257.926 116.322 257.041 116.322C256.175 116.322 255.462 116.609 254.902 117.182C254.342 117.755 254.036 118.399 253.984 119.115L259.902 119.105ZM274.092 117.318C273.708 117.019 273.317 116.801 272.92 116.664C272.523 116.527 272.087 116.459 271.611 116.459C270.492 116.459 269.635 116.811 269.043 117.514C268.451 118.217 268.154 119.232 268.154 120.561V126H266.348V115.062H268.154V117.201C268.454 116.426 268.913 115.834 269.531 115.424C270.156 115.007 270.895 114.799 271.748 114.799C272.191 114.799 272.604 114.854 272.988 114.965C273.372 115.076 273.74 115.248 274.092 115.482V117.318ZM299.424 111.42H310.547V113.08H305.986V126H304.004V113.08H299.424V111.42ZM321.279 119.223V126H319.473V119.223C319.473 118.24 319.3 117.517 318.955 117.055C318.61 116.592 318.07 116.361 317.334 116.361C316.494 116.361 315.846 116.661 315.391 117.26C314.941 117.852 314.717 118.705 314.717 119.818V126H312.92V110.805H314.717V116.703C315.036 116.078 315.469 115.606 316.016 115.287C316.562 114.962 317.21 114.799 317.959 114.799C319.072 114.799 319.902 115.167 320.449 115.902C321.003 116.632 321.279 117.738 321.279 119.223ZM334.346 117.318C333.962 117.019 333.571 116.801 333.174 116.664C332.777 116.527 332.34 116.459 331.865 116.459C330.745 116.459 329.889 116.811 329.297 117.514C328.704 118.217 328.408 119.232 328.408 120.561V126H326.602V115.062H328.408V117.201C328.708 116.426 329.167 115.834 329.785 115.424C330.41 115.007 331.149 114.799 332.002 114.799C332.445 114.799 332.858 114.854 333.242 114.965C333.626 115.076 333.994 115.248 334.346 115.482V117.318ZM346.055 119.633V120.512H338.271V120.57C338.219 122.061 338.503 123.132 339.121 123.783C339.746 124.434 340.625 124.76 341.758 124.76C342.331 124.76 342.93 124.669 343.555 124.486C344.18 124.304 344.847 124.027 345.557 123.656V125.443C344.873 125.723 344.212 125.932 343.574 126.068C342.943 126.212 342.331 126.283 341.738 126.283C340.039 126.283 338.711 125.775 337.754 124.76C336.797 123.738 336.318 122.331 336.318 120.541C336.318 118.796 336.787 117.403 337.725 116.361C338.662 115.32 339.912 114.799 341.475 114.799C342.868 114.799 343.965 115.271 344.766 116.215C345.573 117.159 346.003 118.298 346.055 119.633ZM344.258 119.105C344.18 118.35 343.903 117.699 343.428 117.152C342.959 116.599 342.282 116.322 341.396 116.322C340.531 116.322 339.818 116.609 339.258 117.182C338.698 117.755 338.392 118.399 338.34 119.115L344.258 119.105ZM354.023 120.502H353.428C352.38 120.502 351.589 120.688 351.055 121.059C350.527 121.423 350.264 121.97 350.264 122.699C350.264 123.357 350.462 123.868 350.859 124.232C351.257 124.597 351.807 124.779 352.51 124.779C353.499 124.779 354.277 124.438 354.844 123.754C355.41 123.064 355.697 122.113 355.703 120.902V120.502H354.023ZM357.51 119.76V126H355.703V124.379C355.319 125.03 354.834 125.512 354.248 125.824C353.669 126.13 352.962 126.283 352.129 126.283C351.016 126.283 350.127 125.971 349.463 125.346C348.799 124.714 348.467 123.871 348.467 122.816C348.467 121.599 348.874 120.674 349.688 120.043C350.508 119.411 351.709 119.096 353.291 119.096H355.703V118.812C355.697 117.94 355.475 117.309 355.039 116.918C354.603 116.521 353.906 116.322 352.949 116.322C352.337 116.322 351.719 116.41 351.094 116.586C350.469 116.762 349.86 117.019 349.268 117.357V115.561C349.932 115.307 350.566 115.118 351.172 114.994C351.784 114.864 352.376 114.799 352.949 114.799C353.854 114.799 354.626 114.932 355.264 115.199C355.908 115.466 356.429 115.867 356.826 116.4C357.074 116.726 357.249 117.13 357.354 117.611C357.458 118.087 357.51 118.803 357.51 119.76ZM367.598 116.459V110.805H369.395V126H367.598V124.623C367.298 125.163 366.898 125.577 366.396 125.863C365.902 126.143 365.329 126.283 364.678 126.283C363.356 126.283 362.314 125.772 361.553 124.75C360.798 123.721 360.42 122.305 360.42 120.502C360.42 118.725 360.801 117.331 361.562 116.322C362.324 115.307 363.363 114.799 364.678 114.799C365.335 114.799 365.915 114.942 366.416 115.229C366.917 115.508 367.311 115.919 367.598 116.459ZM362.314 120.541C362.314 121.934 362.536 122.986 362.979 123.695C363.421 124.405 364.076 124.76 364.941 124.76C365.807 124.76 366.465 124.402 366.914 123.686C367.37 122.969 367.598 121.921 367.598 120.541C367.598 119.154 367.37 118.106 366.914 117.396C366.465 116.68 365.807 116.322 364.941 116.322C364.076 116.322 363.421 116.677 362.979 117.387C362.536 118.096 362.314 119.148 362.314 120.541Z" fill="#5995CC"/>
<path d="M164.434 126.498V127.904H163.809C162.188 127.904 161.1 127.663 160.547 127.182C160 126.7 159.727 125.74 159.727 124.301V122.348C159.727 121.638 159.525 121.026 159.121 120.512C158.724 119.997 158.105 119.74 157.266 119.74H156.074V118.344H157.266C158.184 118.344 158.822 118.126 159.18 117.689C159.544 117.253 159.727 116.612 159.727 115.766V113.227C159.727 111.788 160 110.831 160.547 110.355C161.1 109.874 162.188 109.633 163.809 109.633H164.434V111.029H163.75C162.839 111.029 162.243 111.173 161.963 111.459C161.689 111.739 161.553 112.341 161.553 113.266V115.883C161.553 117.029 161.328 117.8 160.879 118.197C160.43 118.588 159.554 118.871 158.252 119.047C159.515 119.197 160.381 119.486 160.85 119.916C161.318 120.339 161.553 121.107 161.553 122.221V124.262C161.553 125.193 161.689 125.798 161.963 126.078C162.243 126.358 162.839 126.498 163.75 126.498H164.434ZM279.18 122.475H282.227V125.062L280.059 129.271L278.105 129.281L279.18 125.062V122.475ZM386.143 126.498C387.054 126.498 387.646 126.358 387.92 126.078C388.2 125.798 388.34 125.193 388.34 124.262V122.221C388.34 121.107 388.574 120.339 389.043 119.916C389.512 119.486 390.378 119.197 391.641 119.047C390.339 118.871 389.463 118.588 389.014 118.197C388.564 117.8 388.34 117.029 388.34 115.883V113.266C388.34 112.341 388.2 111.739 387.92 111.459C387.646 111.173 387.054 111.029 386.143 111.029H385.459V109.633H386.084C387.705 109.633 388.789 109.874 389.336 110.355C389.889 110.831 390.166 111.788 390.166 113.227V115.766C390.166 116.612 390.345 117.253 390.703 117.689C391.068 118.126 391.709 118.344 392.627 118.344H393.818V119.74H392.627C391.787 119.74 391.165 119.997 390.762 120.512C390.365 121.026 390.166 121.638 390.166 122.348V124.301C390.166 125.74 389.889 126.7 389.336 127.182C388.789 127.663 387.705 127.904 386.084 127.904H385.459V126.498H386.143Z" fill="#CBCCCB"/>
<path d="M417.803 110.805V112.299H415.762C415.117 112.299 414.668 112.432 414.414 112.699C414.167 112.96 414.043 113.425 414.043 114.096V115.062H417.803V116.459H414.043V126H412.246V116.459H409.326V115.062H412.246V114.301C412.246 113.103 412.52 112.221 413.066 111.654C413.62 111.088 414.479 110.805 415.645 110.805H417.803ZM430.752 117.318C430.368 117.019 429.977 116.801 429.58 116.664C429.183 116.527 428.747 116.459 428.271 116.459C427.152 116.459 426.296 116.811 425.703 117.514C425.111 118.217 424.814 119.232 424.814 120.561V126H423.008V115.062H424.814V117.201C425.114 116.426 425.573 115.834 426.191 115.424C426.816 115.007 427.555 114.799 428.408 114.799C428.851 114.799 429.264 114.854 429.648 114.965C430.033 115.076 430.4 115.248 430.752 115.482V117.318ZM437.539 116.322C436.628 116.322 435.938 116.677 435.469 117.387C435 118.096 434.766 119.148 434.766 120.541C434.766 121.928 435 122.979 435.469 123.695C435.938 124.405 436.628 124.76 437.539 124.76C438.457 124.76 439.15 124.405 439.619 123.695C440.088 122.979 440.322 121.928 440.322 120.541C440.322 119.148 440.088 118.096 439.619 117.387C439.15 116.677 438.457 116.322 437.539 116.322ZM437.539 114.799C439.056 114.799 440.215 115.29 441.016 116.273C441.823 117.257 442.227 118.679 442.227 120.541C442.227 122.41 441.826 123.835 441.025 124.818C440.225 125.795 439.062 126.283 437.539 126.283C436.022 126.283 434.863 125.795 434.062 124.818C433.262 123.835 432.861 122.41 432.861 120.541C432.861 118.679 433.262 117.257 434.062 116.273C434.863 115.29 436.022 114.799 437.539 114.799ZM450.176 116.176C450.397 115.707 450.677 115.362 451.016 115.141C451.361 114.913 451.774 114.799 452.256 114.799C453.135 114.799 453.753 115.141 454.111 115.824C454.476 116.501 454.658 117.781 454.658 119.662V126H453.018V119.74C453.018 118.197 452.93 117.24 452.754 116.869C452.585 116.492 452.272 116.303 451.816 116.303C451.296 116.303 450.938 116.505 450.742 116.908C450.553 117.305 450.459 118.249 450.459 119.74V126H448.818V119.74C448.818 118.178 448.724 117.214 448.535 116.85C448.353 116.485 448.021 116.303 447.539 116.303C447.064 116.303 446.732 116.505 446.543 116.908C446.361 117.305 446.27 118.249 446.27 119.74V126H444.639V115.062H446.27V116C446.484 115.609 446.751 115.313 447.07 115.111C447.396 114.903 447.764 114.799 448.174 114.799C448.669 114.799 449.079 114.913 449.404 115.141C449.736 115.368 449.993 115.714 450.176 116.176Z" fill="#97959D"/>
<path d="M474.922 110.785V116.869H472.734V110.785H474.922ZM655.684 110.785V116.869H653.496V110.785H655.684Z" fill="#D7D5A5"/>
<path d="M489.863 120.678C489.863 119.838 489.655 119.167 489.238 118.666C488.822 118.158 488.265 117.904 487.568 117.904C486.872 117.904 486.312 118.158 485.889 118.666C485.472 119.167 485.264 119.838 485.264 120.678C485.264 121.524 485.472 122.201 485.889 122.709C486.312 123.21 486.872 123.461 487.568 123.461C488.265 123.461 488.822 123.21 489.238 122.709C489.655 122.201 489.863 121.524 489.863 120.678ZM491.23 124.682H489.824V123.598C489.583 124.008 489.248 124.324 488.818 124.545C488.395 124.766 487.917 124.877 487.383 124.877C486.335 124.877 485.465 124.483 484.775 123.695C484.092 122.908 483.75 121.902 483.75 120.678C483.75 119.454 484.092 118.448 484.775 117.66C485.465 116.872 486.335 116.479 487.383 116.479C487.904 116.479 488.382 116.592 488.818 116.82C489.255 117.048 489.59 117.361 489.824 117.758V117.143C489.824 116.127 489.538 115.31 488.965 114.691C488.392 114.073 487.633 113.764 486.689 113.764C485.088 113.764 483.812 114.389 482.861 115.639C481.917 116.882 481.445 118.568 481.445 120.697C481.445 122.839 481.982 124.545 483.057 125.814C484.131 127.084 485.602 127.722 487.471 127.729C487.822 127.781 488.317 127.807 488.955 127.807C489.593 127.807 490.163 127.794 490.664 127.768V129.174C490.241 129.206 489.694 129.223 489.023 129.223C488.359 129.229 487.842 129.203 487.471 129.145C485.212 129.125 483.398 128.357 482.031 126.84C480.671 125.323 479.99 123.275 479.99 120.697C479.99 118.158 480.602 116.137 481.826 114.633C483.05 113.129 484.691 112.377 486.748 112.377C488.109 112.377 489.196 112.81 490.01 113.676C490.824 114.542 491.23 115.704 491.23 117.162V124.682ZM502.139 125.443C501.657 125.723 501.159 125.932 500.645 126.068C500.137 126.212 499.616 126.283 499.082 126.283C497.389 126.283 496.064 125.775 495.107 124.76C494.157 123.744 493.682 122.338 493.682 120.541C493.682 118.744 494.157 117.338 495.107 116.322C496.064 115.307 497.389 114.799 499.082 114.799C499.609 114.799 500.124 114.867 500.625 115.004C501.126 115.141 501.631 115.352 502.139 115.639V117.523C501.663 117.1 501.185 116.794 500.703 116.605C500.228 116.417 499.688 116.322 499.082 116.322C497.956 116.322 497.09 116.687 496.484 117.416C495.879 118.145 495.576 119.187 495.576 120.541C495.576 121.889 495.879 122.93 496.484 123.666C497.096 124.395 497.962 124.76 499.082 124.76C499.707 124.76 500.267 124.665 500.762 124.477C501.257 124.281 501.715 123.982 502.139 123.578V125.443ZM509.844 116.322C508.932 116.322 508.242 116.677 507.773 117.387C507.305 118.096 507.07 119.148 507.07 120.541C507.07 121.928 507.305 122.979 507.773 123.695C508.242 124.405 508.932 124.76 509.844 124.76C510.762 124.76 511.455 124.405 511.924 123.695C512.393 122.979 512.627 121.928 512.627 120.541C512.627 119.148 512.393 118.096 511.924 117.387C511.455 116.677 510.762 116.322 509.844 116.322ZM509.844 114.799C511.361 114.799 512.52 115.29 513.32 116.273C514.128 117.257 514.531 118.679 514.531 120.541C514.531 122.41 514.131 123.835 513.33 124.818C512.529 125.795 511.367 126.283 509.844 126.283C508.327 126.283 507.168 125.795 506.367 124.818C505.566 123.835 505.166 122.41 505.166 120.541C505.166 118.679 505.566 117.257 506.367 116.273C507.168 115.29 508.327 114.799 509.844 114.799ZM522.9 122.045C522.9 122.852 523.047 123.461 523.34 123.871C523.639 124.281 524.079 124.486 524.658 124.486H526.758V126H524.482C523.408 126 522.575 125.658 521.982 124.975C521.396 124.285 521.104 123.308 521.104 122.045V112.152H518.223V110.746H522.9V122.045ZM534.951 122.045C534.951 122.852 535.098 123.461 535.391 123.871C535.69 124.281 536.13 124.486 536.709 124.486H538.809V126H536.533C535.459 126 534.626 125.658 534.033 124.975C533.447 124.285 533.154 123.308 533.154 122.045V112.152H530.273V110.746H534.951V122.045ZM546.836 120.502H546.24C545.192 120.502 544.401 120.688 543.867 121.059C543.34 121.423 543.076 121.97 543.076 122.699C543.076 123.357 543.275 123.868 543.672 124.232C544.069 124.597 544.619 124.779 545.322 124.779C546.312 124.779 547.09 124.438 547.656 123.754C548.223 123.064 548.509 122.113 548.516 120.902V120.502H546.836ZM550.322 119.76V126H548.516V124.379C548.132 125.03 547.646 125.512 547.061 125.824C546.481 126.13 545.775 126.283 544.941 126.283C543.828 126.283 542.939 125.971 542.275 125.346C541.611 124.714 541.279 123.871 541.279 122.816C541.279 121.599 541.686 120.674 542.5 120.043C543.32 119.411 544.521 119.096 546.104 119.096H548.516V118.812C548.509 117.94 548.288 117.309 547.852 116.918C547.415 116.521 546.719 116.322 545.762 116.322C545.15 116.322 544.531 116.41 543.906 116.586C543.281 116.762 542.673 117.019 542.08 117.357V115.561C542.744 115.307 543.379 115.118 543.984 114.994C544.596 114.864 545.189 114.799 545.762 114.799C546.667 114.799 547.438 114.932 548.076 115.199C548.721 115.466 549.242 115.867 549.639 116.4C549.886 116.726 550.062 117.13 550.166 117.611C550.27 118.087 550.322 118.803 550.322 119.76ZM560.996 120.541C560.996 119.148 560.775 118.096 560.332 117.387C559.889 116.677 559.235 116.322 558.369 116.322C557.497 116.322 556.836 116.68 556.387 117.396C555.938 118.106 555.713 119.154 555.713 120.541C555.713 121.921 555.938 122.969 556.387 123.686C556.836 124.402 557.497 124.76 558.369 124.76C559.235 124.76 559.889 124.405 560.332 123.695C560.775 122.986 560.996 121.934 560.996 120.541ZM555.713 116.459C555.999 115.925 556.393 115.515 556.895 115.229C557.402 114.942 557.988 114.799 558.652 114.799C559.967 114.799 561.003 115.307 561.758 116.322C562.513 117.331 562.891 118.725 562.891 120.502C562.891 122.305 562.51 123.721 561.748 124.75C560.993 125.772 559.954 126.283 558.633 126.283C557.982 126.283 557.406 126.143 556.904 125.863C556.41 125.577 556.012 125.163 555.713 124.623V126H553.916V110.805H555.713V116.459ZM566.387 110.805H568.242V119.604L572.959 115.062H575.146L570.84 119.184L575.82 126H573.623L569.58 120.355L568.242 121.615V126H566.387V110.805ZM579.219 115.102H583.818V124.604H587.383V126H578.457V124.604H582.021V116.498H579.219V115.102ZM582.021 110.854H583.818V113.119H582.021V110.854ZM594.18 111.957V115.062H598.262V116.459H594.18V122.396C594.18 123.204 594.333 123.767 594.639 124.086C594.945 124.405 595.479 124.564 596.24 124.564H598.262V126H596.064C594.717 126 593.766 125.73 593.213 125.189C592.66 124.649 592.383 123.718 592.383 122.396V116.459H589.463V115.062H592.383V111.957H594.18ZM608.916 111.42H610.771L603.096 127.855H601.23L608.916 111.42ZM613.262 115.062H615.127L618.301 124.242L621.484 115.062H623.35L619.463 126H617.148L613.262 115.062ZM626.24 121.859V115.082H628.037V121.859C628.037 122.842 628.21 123.565 628.555 124.027C628.906 124.49 629.447 124.721 630.176 124.721C631.022 124.721 631.67 124.424 632.119 123.832C632.568 123.233 632.793 122.377 632.793 121.264V115.082H634.6V126H632.793V124.359C632.474 124.991 632.038 125.469 631.484 125.795C630.938 126.12 630.296 126.283 629.561 126.283C628.441 126.283 627.607 125.919 627.061 125.189C626.514 124.454 626.24 123.344 626.24 121.859ZM647.324 119.633V120.512H639.541V120.57C639.489 122.061 639.772 123.132 640.391 123.783C641.016 124.434 641.895 124.76 643.027 124.76C643.6 124.76 644.199 124.669 644.824 124.486C645.449 124.304 646.117 124.027 646.826 123.656V125.443C646.143 125.723 645.482 125.932 644.844 126.068C644.212 126.212 643.6 126.283 643.008 126.283C641.309 126.283 639.98 125.775 639.023 124.76C638.066 123.738 637.588 122.331 637.588 120.541C637.588 118.796 638.057 117.403 638.994 116.361C639.932 115.32 641.182 114.799 642.744 114.799C644.137 114.799 645.234 115.271 646.035 116.215C646.842 117.159 647.272 118.298 647.324 119.633ZM645.527 119.105C645.449 118.35 645.173 117.699 644.697 117.152C644.229 116.599 643.551 116.322 642.666 116.322C641.8 116.322 641.087 116.609 640.527 117.182C639.967 117.755 639.661 118.399 639.609 119.115L645.527 119.105Z" fill="#C9EB59"/>
<path d="M80.2637 55.2227V62H78.457V55.2227C78.457 54.2396 78.2845 53.5169 77.9395 53.0547C77.5944 52.5924 77.054 52.3613 76.3184 52.3613C75.4785 52.3613 74.8307 52.6608 74.375 53.2598C73.9258 53.8522 73.7012 54.7051 73.7012 55.8184V62H71.9043V51.0625H73.7012V52.7031C74.0202 52.0781 74.4531 51.6061 75 51.2871C75.5469 50.9616 76.1947 50.7988 76.9434 50.7988C78.0566 50.7988 78.8867 51.1667 79.4336 51.9023C79.987 52.6315 80.2637 53.7383 80.2637 55.2227ZM85.7129 60.623V66.1602H83.9062V51.0625H85.7129V52.459C86.0124 51.9186 86.4095 51.5085 86.9043 51.2285C87.4056 50.9421 87.9818 50.7988 88.6328 50.7988C89.9544 50.7988 90.9896 51.3099 91.7383 52.332C92.4935 53.3542 92.8711 54.7702 92.8711 56.5801C92.8711 58.3574 92.4935 59.7539 91.7383 60.7695C90.9831 61.7786 89.9479 62.2832 88.6328 62.2832C87.9688 62.2832 87.3861 62.1432 86.8848 61.8633C86.39 61.5768 85.9993 61.1634 85.7129 60.623ZM90.9863 56.541C90.9863 55.1478 90.765 54.0964 90.3223 53.3867C89.8861 52.6771 89.235 52.3223 88.3691 52.3223C87.4967 52.3223 86.8359 52.6803 86.3867 53.3965C85.9375 54.1061 85.7129 55.1543 85.7129 56.541C85.7129 57.9212 85.9375 58.9694 86.3867 59.6855C86.8359 60.4017 87.4967 60.7598 88.3691 60.7598C89.235 60.7598 89.8861 60.4049 90.3223 59.6953C90.765 58.9857 90.9863 57.9342 90.9863 56.541ZM100.703 52.1758C100.924 51.707 101.204 51.362 101.543 51.1406C101.888 50.9128 102.301 50.7988 102.783 50.7988C103.662 50.7988 104.281 51.1406 104.639 51.8242C105.003 52.5013 105.186 53.7806 105.186 55.6621V62H103.545V55.7402C103.545 54.1973 103.457 53.2402 103.281 52.8691C103.112 52.4915 102.799 52.3027 102.344 52.3027C101.823 52.3027 101.465 52.5046 101.27 52.9082C101.081 53.3053 100.986 54.2493 100.986 55.7402V62H99.3457V55.7402C99.3457 54.1777 99.2513 53.2142 99.0625 52.8496C98.8802 52.485 98.5482 52.3027 98.0664 52.3027C97.5911 52.3027 97.2591 52.5046 97.0703 52.9082C96.888 53.3053 96.7969 54.2493 96.7969 55.7402V62H95.166V51.0625H96.7969V52C97.0117 51.6094 97.2786 51.3132 97.5977 51.1113C97.9232 50.903 98.291 50.7988 98.7012 50.7988C99.196 50.7988 99.6061 50.9128 99.9316 51.1406C100.264 51.3685 100.521 51.7135 100.703 52.1758ZM121.289 51.1016H125.889V60.6035H129.453V62H120.527V60.6035H124.092V52.498H121.289V51.1016ZM124.092 46.8535H125.889V49.1191H124.092V46.8535ZM140.518 55.2227V62H138.711V55.2227C138.711 54.2396 138.538 53.5169 138.193 53.0547C137.848 52.5924 137.308 52.3613 136.572 52.3613C135.732 52.3613 135.085 52.6608 134.629 53.2598C134.18 53.8522 133.955 54.7051 133.955 55.8184V62H132.158V51.0625H133.955V52.7031C134.274 52.0781 134.707 51.6061 135.254 51.2871C135.801 50.9616 136.449 50.7988 137.197 50.7988C138.311 50.7988 139.141 51.1667 139.688 51.9023C140.241 52.6315 140.518 53.7383 140.518 55.2227ZM151.807 51.4434V53.2012C151.292 52.9017 150.775 52.6771 150.254 52.5273C149.733 52.3776 149.202 52.3027 148.662 52.3027C147.848 52.3027 147.24 52.4362 146.836 52.7031C146.439 52.9635 146.24 53.3639 146.24 53.9043C146.24 54.3926 146.39 54.7572 146.689 54.998C146.989 55.2389 147.734 55.4733 148.926 55.7012L149.648 55.8379C150.54 56.0072 151.214 56.3457 151.67 56.8535C152.132 57.3613 152.363 58.0221 152.363 58.8359C152.363 59.9167 151.979 60.763 151.211 61.375C150.443 61.9805 149.375 62.2832 148.008 62.2832C147.467 62.2832 146.901 62.2246 146.309 62.1074C145.716 61.9967 145.075 61.8275 144.385 61.5996V59.7441C145.055 60.0892 145.697 60.3496 146.309 60.5254C146.921 60.6947 147.5 60.7793 148.047 60.7793C148.841 60.7793 149.456 60.6198 149.893 60.3008C150.329 59.9753 150.547 59.5228 150.547 58.9434C150.547 58.11 149.749 57.5339 148.154 57.2148L148.076 57.1953L147.402 57.0586C146.367 56.8568 145.612 56.5182 145.137 56.043C144.661 55.5612 144.424 54.9069 144.424 54.0801C144.424 53.0319 144.779 52.2246 145.488 51.6582C146.198 51.0853 147.21 50.7988 148.525 50.7988C149.111 50.7988 149.674 50.8542 150.215 50.9648C150.755 51.069 151.286 51.2285 151.807 51.4434ZM160.352 47.957V51.0625H164.434V52.459H160.352V58.3965C160.352 59.2038 160.505 59.7669 160.811 60.0859C161.117 60.4049 161.65 60.5645 162.412 60.5645H164.434V62H162.236C160.889 62 159.938 61.7298 159.385 61.1895C158.831 60.6491 158.555 59.7181 158.555 58.3965V52.459H155.635V51.0625H158.555V47.957H160.352ZM173.262 56.502H172.666C171.618 56.502 170.827 56.6875 170.293 57.0586C169.766 57.4232 169.502 57.9701 169.502 58.6992C169.502 59.3568 169.701 59.8678 170.098 60.2324C170.495 60.597 171.045 60.7793 171.748 60.7793C172.738 60.7793 173.516 60.4375 174.082 59.7539C174.648 59.0638 174.935 58.1133 174.941 56.9023V56.502H173.262ZM176.748 55.7598V62H174.941V60.3789C174.557 61.0299 174.072 61.5117 173.486 61.8242C172.907 62.1302 172.201 62.2832 171.367 62.2832C170.254 62.2832 169.365 61.9707 168.701 61.3457C168.037 60.7142 167.705 59.8711 167.705 58.8164C167.705 57.599 168.112 56.6745 168.926 56.043C169.746 55.4115 170.947 55.0957 172.529 55.0957H174.941V54.8125C174.935 53.9401 174.714 53.3086 174.277 52.918C173.841 52.5208 173.145 52.3223 172.188 52.3223C171.576 52.3223 170.957 52.4102 170.332 52.5859C169.707 52.7617 169.098 53.0189 168.506 53.3574V51.5605C169.17 51.3066 169.805 51.1178 170.41 50.9941C171.022 50.8639 171.615 50.7988 172.188 50.7988C173.092 50.7988 173.864 50.9323 174.502 51.1992C175.146 51.4661 175.667 51.8665 176.064 52.4004C176.312 52.7259 176.488 53.1296 176.592 53.6113C176.696 54.0866 176.748 54.8027 176.748 55.7598ZM185.479 58.0449C185.479 58.8522 185.625 59.4609 185.918 59.8711C186.217 60.2812 186.657 60.4863 187.236 60.4863H189.336V62H187.061C185.986 62 185.153 61.6582 184.561 60.9746C183.975 60.2845 183.682 59.3079 183.682 58.0449V48.1523H180.801V46.7461H185.479V58.0449ZM197.529 58.0449C197.529 58.8522 197.676 59.4609 197.969 59.8711C198.268 60.2812 198.708 60.4863 199.287 60.4863H201.387V62H199.111C198.037 62 197.204 61.6582 196.611 60.9746C196.025 60.2845 195.732 59.3079 195.732 58.0449V48.1523H192.852V46.7461H197.529V58.0449ZM224.746 56.6777C224.746 55.8379 224.538 55.1673 224.121 54.666C223.704 54.1582 223.148 53.9043 222.451 53.9043C221.755 53.9043 221.195 54.1582 220.771 54.666C220.355 55.1673 220.146 55.8379 220.146 56.6777C220.146 57.5241 220.355 58.2012 220.771 58.709C221.195 59.2103 221.755 59.4609 222.451 59.4609C223.148 59.4609 223.704 59.2103 224.121 58.709C224.538 58.2012 224.746 57.5241 224.746 56.6777ZM226.113 60.6816H224.707V59.5977C224.466 60.0078 224.131 60.3236 223.701 60.5449C223.278 60.7663 222.799 60.877 222.266 60.877C221.217 60.877 220.348 60.4831 219.658 59.6953C218.975 58.9076 218.633 57.9017 218.633 56.6777C218.633 55.4538 218.975 54.4479 219.658 53.6602C220.348 52.8724 221.217 52.4785 222.266 52.4785C222.786 52.4785 223.265 52.5924 223.701 52.8203C224.137 53.0482 224.473 53.3607 224.707 53.7578V53.1426C224.707 52.127 224.421 51.3099 223.848 50.6914C223.275 50.0729 222.516 49.7637 221.572 49.7637C219.971 49.7637 218.695 50.3887 217.744 51.6387C216.8 52.8822 216.328 54.5684 216.328 56.6973C216.328 58.8392 216.865 60.5449 217.939 61.8145C219.014 63.084 220.485 63.722 222.354 63.7285C222.705 63.7806 223.2 63.8066 223.838 63.8066C224.476 63.8066 225.046 63.7936 225.547 63.7676V65.1738C225.124 65.2064 224.577 65.2227 223.906 65.2227C223.242 65.2292 222.725 65.2031 222.354 65.1445C220.094 65.125 218.281 64.3568 216.914 62.8398C215.553 61.3229 214.873 59.2754 214.873 56.6973C214.873 54.1582 215.485 52.1367 216.709 50.6328C217.933 49.1289 219.574 48.377 221.631 48.377C222.992 48.377 224.079 48.8099 224.893 49.6758C225.706 50.5417 226.113 51.7038 226.113 53.1621V60.6816ZM237.021 61.4434C236.54 61.7233 236.042 61.9316 235.527 62.0684C235.02 62.2116 234.499 62.2832 233.965 62.2832C232.272 62.2832 230.947 61.7754 229.99 60.7598C229.04 59.7441 228.564 58.3379 228.564 56.541C228.564 54.7441 229.04 53.3379 229.99 52.3223C230.947 51.3066 232.272 50.7988 233.965 50.7988C234.492 50.7988 235.007 50.8672 235.508 51.0039C236.009 51.1406 236.514 51.3522 237.021 51.6387V53.5234C236.546 53.1003 236.068 52.7943 235.586 52.6055C235.111 52.4167 234.57 52.3223 233.965 52.3223C232.839 52.3223 231.973 52.6868 231.367 53.416C230.762 54.1452 230.459 55.1868 230.459 56.541C230.459 57.8887 230.762 58.9303 231.367 59.666C231.979 60.3952 232.845 60.7598 233.965 60.7598C234.59 60.7598 235.15 60.6654 235.645 60.4766C236.139 60.2812 236.598 59.9818 237.021 59.5781V61.4434ZM244.727 52.3223C243.815 52.3223 243.125 52.6771 242.656 53.3867C242.188 54.0964 241.953 55.1478 241.953 56.541C241.953 57.9277 242.188 58.9792 242.656 59.6953C243.125 60.4049 243.815 60.7598 244.727 60.7598C245.645 60.7598 246.338 60.4049 246.807 59.6953C247.275 58.9792 247.51 57.9277 247.51 56.541C247.51 55.1478 247.275 54.0964 246.807 53.3867C246.338 52.6771 245.645 52.3223 244.727 52.3223ZM244.727 50.7988C246.243 50.7988 247.402 51.2904 248.203 52.2734C249.01 53.2565 249.414 54.679 249.414 56.541C249.414 58.4095 249.014 59.8353 248.213 60.8184C247.412 61.7949 246.25 62.2832 244.727 62.2832C243.21 62.2832 242.051 61.7949 241.25 60.8184C240.449 59.8353 240.049 58.4095 240.049 56.541C240.049 54.679 240.449 53.2565 241.25 52.2734C242.051 51.2904 243.21 50.7988 244.727 50.7988ZM257.783 58.0449C257.783 58.8522 257.93 59.4609 258.223 59.8711C258.522 60.2812 258.962 60.4863 259.541 60.4863H261.641V62H259.365C258.291 62 257.458 61.6582 256.865 60.9746C256.279 60.2845 255.986 59.3079 255.986 58.0449V48.1523H253.105V46.7461H257.783V58.0449ZM269.834 58.0449C269.834 58.8522 269.98 59.4609 270.273 59.8711C270.573 60.2812 271.012 60.4863 271.592 60.4863H273.691V62H271.416C270.342 62 269.508 61.6582 268.916 60.9746C268.33 60.2845 268.037 59.3079 268.037 58.0449V48.1523H265.156V46.7461H269.834V58.0449ZM281.719 56.502H281.123C280.075 56.502 279.284 56.6875 278.75 57.0586C278.223 57.4232 277.959 57.9701 277.959 58.6992C277.959 59.3568 278.158 59.8678 278.555 60.2324C278.952 60.597 279.502 60.7793 280.205 60.7793C281.195 60.7793 281.973 60.4375 282.539 59.7539C283.105 59.0638 283.392 58.1133 283.398 56.9023V56.502H281.719ZM285.205 55.7598V62H283.398V60.3789C283.014 61.0299 282.529 61.5117 281.943 61.8242C281.364 62.1302 280.658 62.2832 279.824 62.2832C278.711 62.2832 277.822 61.9707 277.158 61.3457C276.494 60.7142 276.162 59.8711 276.162 58.8164C276.162 57.599 276.569 56.6745 277.383 56.043C278.203 55.4115 279.404 55.0957 280.986 55.0957H283.398V54.8125C283.392 53.9401 283.171 53.3086 282.734 52.918C282.298 52.5208 281.602 52.3223 280.645 52.3223C280.033 52.3223 279.414 52.4102 278.789 52.5859C278.164 52.7617 277.555 53.0189 276.963 53.3574V51.5605C277.627 51.3066 278.262 51.1178 278.867 50.9941C279.479 50.8639 280.072 50.7988 280.645 50.7988C281.549 50.7988 282.321 50.9323 282.959 51.1992C283.604 51.4661 284.124 51.8665 284.521 52.4004C284.769 52.7259 284.945 53.1296 285.049 53.6113C285.153 54.0866 285.205 54.8027 285.205 55.7598ZM295.879 56.541C295.879 55.1478 295.658 54.0964 295.215 53.3867C294.772 52.6771 294.118 52.3223 293.252 52.3223C292.38 52.3223 291.719 52.6803 291.27 53.3965C290.82 54.1061 290.596 55.1543 290.596 56.541C290.596 57.9212 290.82 58.9694 291.27 59.6855C291.719 60.4017 292.38 60.7598 293.252 60.7598C294.118 60.7598 294.772 60.4049 295.215 59.6953C295.658 58.9857 295.879 57.9342 295.879 56.541ZM290.596 52.459C290.882 51.9251 291.276 51.515 291.777 51.2285C292.285 50.9421 292.871 50.7988 293.535 50.7988C294.85 50.7988 295.885 51.3066 296.641 52.3223C297.396 53.3314 297.773 54.7246 297.773 56.502C297.773 58.3053 297.393 59.7214 296.631 60.75C295.876 61.7721 294.837 62.2832 293.516 62.2832C292.865 62.2832 292.288 62.1432 291.787 61.8633C291.292 61.5768 290.895 61.1634 290.596 60.623V62H288.799V46.8047H290.596V52.459ZM301.27 46.8047H303.125V55.6035L307.842 51.0625H310.029L305.723 55.1836L310.703 62H308.506L304.463 56.3555L303.125 57.6152V62H301.27V46.8047ZM314.102 51.1016H318.701V60.6035H322.266V62H313.34V60.6035H316.904V52.498H314.102V51.1016ZM316.904 46.8535H318.701V49.1191H316.904V46.8535ZM329.062 47.957V51.0625H333.145V52.459H329.062V58.3965C329.062 59.2038 329.215 59.7669 329.521 60.0859C329.827 60.4049 330.361 60.5645 331.123 60.5645H333.145V62H330.947C329.6 62 328.649 61.7298 328.096 61.1895C327.542 60.6491 327.266 59.7181 327.266 58.3965V52.459H324.346V51.0625H327.266V47.957H329.062ZM343.799 47.4199H345.654L337.979 63.8555H336.113L343.799 47.4199ZM348.145 51.0625H350.01L353.184 60.2422L356.367 51.0625H358.232L354.346 62H352.031L348.145 51.0625ZM361.123 57.8594V51.082H362.92V57.8594C362.92 58.8424 363.092 59.5651 363.438 60.0273C363.789 60.4896 364.329 60.7207 365.059 60.7207C365.905 60.7207 366.553 60.4245 367.002 59.832C367.451 59.2331 367.676 58.377 367.676 57.2637V51.082H369.482V62H367.676V60.3594C367.357 60.9909 366.921 61.4694 366.367 61.7949C365.82 62.1204 365.179 62.2832 364.443 62.2832C363.324 62.2832 362.49 61.9186 361.943 61.1895C361.396 60.4538 361.123 59.3438 361.123 57.8594ZM382.207 55.6328V56.5117H374.424V56.5703C374.372 58.0612 374.655 59.1322 375.273 59.7832C375.898 60.4342 376.777 60.7598 377.91 60.7598C378.483 60.7598 379.082 60.6686 379.707 60.4863C380.332 60.304 380.999 60.0273 381.709 59.6562V61.4434C381.025 61.7233 380.365 61.9316 379.727 62.0684C379.095 62.2116 378.483 62.2832 377.891 62.2832C376.191 62.2832 374.863 61.7754 373.906 60.7598C372.949 59.7376 372.471 58.3314 372.471 56.541C372.471 54.7962 372.939 53.403 373.877 52.3613C374.814 51.3197 376.064 50.7988 377.627 50.7988C379.02 50.7988 380.117 51.2708 380.918 52.2148C381.725 53.1589 382.155 54.2982 382.207 55.6328ZM380.41 55.1055C380.332 54.3503 380.055 53.6992 379.58 53.1523C379.111 52.599 378.434 52.3223 377.549 52.3223C376.683 52.3223 375.97 52.6087 375.41 53.1816C374.85 53.7546 374.544 54.3991 374.492 55.1152L380.41 55.1055Z" fill="#5995CC"/>
</svg>
