<svg width="812" height="310" viewBox="0 0 812 310" fill="none" xmlns="http://www.w3.org/2000/svg">
<rect width="812" height="310" rx="24" fill="#1F1530"/>
<path d="M42.6367 124.35H45.7031V113.334L42.0312 115.102V113.207L45.6836 111.469H47.6562V124.35H50.6836V126H42.6367V124.35ZM43.6426 158.34H50.3418V160H41.4844V158.34C42.7018 157.057 43.7663 155.924 44.6777 154.941C45.5892 153.958 46.2174 153.265 46.5625 152.861C47.2135 152.067 47.653 151.426 47.8809 150.938C48.1087 150.443 48.2227 149.938 48.2227 149.424C48.2227 148.61 47.9818 147.972 47.5 147.51C47.0247 147.048 46.3704 146.816 45.5371 146.816C44.9447 146.816 44.3229 146.924 43.6719 147.139C43.0208 147.354 42.3307 147.679 41.6016 148.115V146.123C42.2721 145.804 42.9297 145.563 43.5742 145.4C44.2253 145.238 44.8665 145.156 45.498 145.156C46.9238 145.156 48.0697 145.537 48.9355 146.299C49.8079 147.054 50.2441 148.047 50.2441 149.277C50.2441 149.902 50.0977 150.527 49.8047 151.152C49.5182 151.777 49.0495 152.467 48.3984 153.223C48.0339 153.646 47.5033 154.232 46.8066 154.98C46.1165 155.729 45.0618 156.849 43.6426 158.34ZM47.5781 186.197C48.5352 186.451 49.2676 186.904 49.7754 187.555C50.2832 188.199 50.5371 189.007 50.5371 189.977C50.5371 191.318 50.0846 192.372 49.1797 193.141C48.2812 193.902 47.0345 194.283 45.4395 194.283C44.7689 194.283 44.0853 194.221 43.3887 194.098C42.6921 193.974 42.0085 193.795 41.3379 193.561V191.598C42.002 191.943 42.6562 192.2 43.3008 192.369C43.9453 192.538 44.5866 192.623 45.2246 192.623C46.3053 192.623 47.1354 192.379 47.7148 191.891C48.2943 191.402 48.584 190.699 48.584 189.781C48.584 188.935 48.2943 188.264 47.7148 187.77C47.1354 187.268 46.3509 187.018 45.3613 187.018H43.8574V185.396H45.3613C46.2663 185.396 46.9727 185.198 47.4805 184.801C47.9883 184.404 48.2422 183.85 48.2422 183.141C48.2422 182.392 48.0046 181.819 47.5293 181.422C47.0605 181.018 46.39 180.816 45.5176 180.816C44.9382 180.816 44.3392 180.882 43.7207 181.012C43.1022 181.142 42.4544 181.337 41.7773 181.598V179.781C42.5651 179.573 43.265 179.417 43.877 179.312C44.4954 179.208 45.0423 179.156 45.5176 179.156C46.9368 179.156 48.0697 179.514 48.916 180.23C49.7689 180.94 50.1953 181.884 50.1953 183.062C50.1953 183.863 49.9707 184.531 49.5215 185.064C49.0788 185.598 48.431 185.976 47.5781 186.197ZM47.1777 215.217L42.5781 222.922H47.1777V215.217ZM46.8555 213.42H49.1406V222.922H51.084V224.523H49.1406V228H47.1777V224.523H40.9961V222.658L46.8555 213.42ZM42.0215 247.42H49.4043V249.08H43.8184V252.664C44.0983 252.56 44.3783 252.485 44.6582 252.439C44.9447 252.387 45.2311 252.361 45.5176 252.361C47.028 252.361 48.2259 252.807 49.1113 253.699C49.9967 254.591 50.4395 255.799 50.4395 257.322C50.4395 258.859 49.974 260.07 49.043 260.955C48.1185 261.84 46.8522 262.283 45.2441 262.283C44.4694 262.283 43.7598 262.231 43.1152 262.127C42.4772 262.023 41.9043 261.867 41.3965 261.658V259.656C41.9954 259.982 42.5977 260.226 43.2031 260.389C43.8086 260.545 44.4271 260.623 45.0586 260.623C46.1458 260.623 46.9824 260.337 47.5684 259.764C48.1608 259.191 48.457 258.377 48.457 257.322C48.457 256.281 48.151 255.47 47.5391 254.891C46.9336 254.311 46.0872 254.021 45 254.021C44.4727 254.021 43.9583 254.083 43.457 254.207C42.9557 254.324 42.4772 254.503 42.0215 254.744V247.42Z" fill="#7D7E7D"/>
<path d="M46.7578 56.3359V60.5742C47.474 60.5547 48.0339 60.3561 48.4375 59.9785C48.8411 59.6009 49.043 59.0866 49.043 58.4355C49.043 57.8301 48.8607 57.3613 48.4961 57.0293C48.1315 56.6908 47.5521 56.4596 46.7578 56.3359ZM45.7812 54.4805V50.4473C45.1042 50.4733 44.5736 50.6686 44.1895 51.0332C43.8118 51.3978 43.623 51.8861 43.623 52.498C43.623 53.0579 43.7988 53.5007 44.1504 53.8262C44.5085 54.1517 45.0521 54.3698 45.7812 54.4805ZM46.7578 64.9395H45.7812L45.7715 62C45.1074 61.9674 44.4466 61.8763 43.7891 61.7266C43.138 61.5768 42.4935 61.3685 41.8555 61.1016V59.3438C42.5065 59.7474 43.1608 60.0566 43.8184 60.2715C44.4824 60.4863 45.1367 60.6003 45.7812 60.6133V56.1406C44.4792 55.9388 43.4993 55.5417 42.8418 54.9492C42.1842 54.3568 41.8555 53.5723 41.8555 52.5957C41.8555 51.5736 42.1973 50.7598 42.8809 50.1543C43.571 49.5423 44.5378 49.1908 45.7812 49.0996V46.8047H46.7578L46.7676 49.0996C47.2819 49.1322 47.8027 49.1973 48.3301 49.2949C48.8574 49.3926 49.3945 49.526 49.9414 49.6953V51.3848C49.388 51.1048 48.8477 50.89 48.3203 50.7402C47.7995 50.584 47.2786 50.4928 46.7578 50.4668V54.6758C48.099 54.8776 49.1211 55.2943 49.8242 55.9258C50.5273 56.5573 50.8789 57.3743 50.8789 58.377C50.8789 59.3796 50.498 60.2161 49.7363 60.8867C48.9811 61.5573 47.9915 61.9219 46.7676 61.9805L46.7578 64.9395Z" fill="#7D7E7D"/>
<path d="M256.777 116.322C255.866 116.322 255.176 116.677 254.707 117.387C254.238 118.096 254.004 119.148 254.004 120.541C254.004 121.928 254.238 122.979 254.707 123.695C255.176 124.405 255.866 124.76 256.777 124.76C257.695 124.76 258.389 124.405 258.857 123.695C259.326 122.979 259.561 121.928 259.561 120.541C259.561 119.148 259.326 118.096 258.857 117.387C258.389 116.677 257.695 116.322 256.777 116.322ZM256.777 114.799C258.294 114.799 259.453 115.29 260.254 116.273C261.061 117.257 261.465 118.679 261.465 120.541C261.465 122.41 261.064 123.835 260.264 124.818C259.463 125.795 258.301 126.283 256.777 126.283C255.26 126.283 254.102 125.795 253.301 124.818C252.5 123.835 252.1 122.41 252.1 120.541C252.1 118.679 252.5 117.257 253.301 116.273C254.102 115.29 255.26 114.799 256.777 114.799ZM94.0039 161.855V163.516H82.0508V161.855H94.0039ZM98.418 156.475H101.465V159.062L99.2969 163.271L97.3438 163.281L98.418 159.062V156.475ZM130.156 161.855V163.516H118.203V161.855H130.156ZM142.207 161.855V163.516H130.254V161.855H142.207ZM166.309 161.855V163.516H154.355V161.855H166.309ZM190.41 161.855V163.516H178.457V161.855H190.41ZM214.512 161.855V163.516H202.559V161.855H214.512ZM243.027 156.475H246.074V159.062L243.906 163.271L241.953 163.281L243.027 159.062V156.475ZM286.816 161.855V163.516H274.863V161.855H286.816ZM310.918 161.855V163.516H298.965V161.855H310.918ZM359.121 161.855V163.516H347.168V161.855H359.121ZM363.535 156.475H366.582V159.062L364.414 163.271L362.461 163.281L363.535 159.062V156.475ZM427.822 143.848C426.956 145.332 426.309 146.813 425.879 148.291C425.456 149.762 425.244 151.247 425.244 152.744C425.244 154.235 425.456 155.719 425.879 157.197C426.309 158.675 426.956 160.163 427.822 161.66H426.26C425.277 160.111 424.544 158.604 424.062 157.139C423.581 155.667 423.34 154.202 423.34 152.744C423.34 151.292 423.581 149.831 424.062 148.359C424.544 146.888 425.277 145.384 426.26 143.848H427.822ZM479.629 161.855V163.516H467.676V161.855H479.629ZM491.68 161.855V163.516H479.727V161.855H491.68ZM515.781 161.855V163.516H503.828V161.855H515.781ZM527.832 161.855V163.516H515.879V161.855H527.832ZM551.934 161.855V163.516H539.98V161.855H551.934ZM576.035 161.855V163.516H564.082V161.855H576.035ZM78.3496 177.848C77.4837 179.332 76.8359 180.813 76.4062 182.291C75.9831 183.762 75.7715 185.247 75.7715 186.744C75.7715 188.235 75.9831 189.719 76.4062 191.197C76.8359 192.675 77.4837 194.163 78.3496 195.66H76.7871C75.804 194.111 75.0716 192.604 74.5898 191.139C74.1081 189.667 73.8672 188.202 73.8672 186.744C73.8672 185.292 74.1081 183.831 74.5898 182.359C75.0716 180.888 75.804 179.384 76.7871 177.848H78.3496ZM94.0039 195.855V197.516H82.0508V195.855H94.0039ZM106.055 195.855V197.516H94.1016V195.855H106.055ZM114.502 177.848C113.636 179.332 112.988 180.813 112.559 182.291C112.135 183.762 111.924 185.247 111.924 186.744C111.924 188.235 112.135 189.719 112.559 191.197C112.988 192.675 113.636 194.163 114.502 195.66H112.939C111.956 194.111 111.224 192.604 110.742 191.139C110.26 189.667 110.02 188.202 110.02 186.744C110.02 185.292 110.26 183.831 110.742 182.359C111.224 180.888 111.956 179.384 112.939 177.848H114.502ZM130.156 195.855V197.516H118.203V195.855H130.156ZM133.652 177.848H135.215C136.198 179.384 136.93 180.888 137.412 182.359C137.894 183.831 138.135 185.292 138.135 186.744C138.135 188.209 137.894 189.677 137.412 191.148C136.93 192.62 136.198 194.124 135.215 195.66H133.652C134.518 194.15 135.163 192.656 135.586 191.178C136.016 189.7 136.23 188.222 136.23 186.744C136.23 185.26 136.016 183.779 135.586 182.301C135.163 180.823 134.518 179.339 133.652 177.848ZM150.986 179.42H152.842L145.166 195.855H143.301L150.986 179.42ZM175.088 179.42H176.943L169.268 195.855H167.402L175.088 179.42ZM199.189 179.42H201.045L193.369 195.855H191.504L199.189 179.42ZM223.291 179.42H225.146L217.471 195.855H215.605L223.291 179.42ZM238.613 195.855V197.516H226.66V195.855H238.613ZM247.061 177.848C246.195 179.332 245.547 180.813 245.117 182.291C244.694 183.762 244.482 185.247 244.482 186.744C244.482 188.235 244.694 189.719 245.117 191.197C245.547 192.675 246.195 194.163 247.061 195.66H245.498C244.515 194.111 243.783 192.604 243.301 191.139C242.819 189.667 242.578 188.202 242.578 186.744C242.578 185.292 242.819 183.831 243.301 182.359C243.783 180.888 244.515 179.384 245.498 177.848H247.061ZM262.715 195.855V197.516H250.762V195.855H262.715ZM271.494 179.42H273.35L265.674 195.855H263.809L271.494 179.42ZM295.596 179.42H297.451L289.775 195.855H287.91L295.596 179.42ZM319.697 179.42H321.553L313.877 195.855H312.012L319.697 179.42ZM335.02 195.855V197.516H323.066V195.855H335.02ZM343.467 177.848C342.601 179.332 341.953 180.813 341.523 182.291C341.1 183.762 340.889 185.247 340.889 186.744C340.889 188.235 341.1 189.719 341.523 191.197C341.953 192.675 342.601 194.163 343.467 195.66H341.904C340.921 194.111 340.189 192.604 339.707 191.139C339.225 189.667 338.984 188.202 338.984 186.744C338.984 185.292 339.225 183.831 339.707 182.359C340.189 180.888 340.921 179.384 341.904 177.848H343.467ZM359.121 195.855V197.516H347.168V195.855H359.121ZM362.617 177.848H364.18C365.163 179.384 365.895 180.888 366.377 182.359C366.859 183.831 367.1 185.292 367.1 186.744C367.1 188.209 366.859 189.677 366.377 191.148C365.895 192.62 365.163 194.124 364.18 195.66H362.617C363.483 194.15 364.128 192.656 364.551 191.178C364.98 189.7 365.195 188.222 365.195 186.744C365.195 185.26 364.98 183.779 364.551 182.301C364.128 180.823 363.483 179.339 362.617 177.848ZM383.223 195.855V197.516H371.27V195.855H383.223ZM416.104 179.42H417.959L410.283 195.855H408.418L416.104 179.42ZM431.426 195.855V197.516H419.473V195.855H431.426ZM434.922 177.848H436.484C437.467 179.384 438.2 180.888 438.682 182.359C439.163 183.831 439.404 185.292 439.404 186.744C439.404 188.209 439.163 189.677 438.682 191.148C438.2 192.62 437.467 194.124 436.484 195.66H434.922C435.788 194.15 436.432 192.656 436.855 191.178C437.285 189.7 437.5 188.222 437.5 186.744C437.5 185.26 437.285 183.779 436.855 182.301C436.432 180.823 435.788 179.339 434.922 177.848ZM455.527 195.855V197.516H443.574V195.855H455.527ZM463.975 177.848C463.109 179.332 462.461 180.813 462.031 182.291C461.608 183.762 461.396 185.247 461.396 186.744C461.396 188.235 461.608 189.719 462.031 191.197C462.461 192.675 463.109 194.163 463.975 195.66H462.412C461.429 194.111 460.697 192.604 460.215 191.139C459.733 189.667 459.492 188.202 459.492 186.744C459.492 185.292 459.733 183.831 460.215 182.359C460.697 180.888 461.429 179.384 462.412 177.848H463.975ZM479.629 195.855V197.516H467.676V195.855H479.629ZM483.125 177.848H484.688C485.671 179.384 486.403 180.888 486.885 182.359C487.367 183.831 487.607 185.292 487.607 186.744C487.607 188.209 487.367 189.677 486.885 191.148C486.403 192.62 485.671 194.124 484.688 195.66H483.125C483.991 194.15 484.635 192.656 485.059 191.178C485.488 189.7 485.703 188.222 485.703 186.744C485.703 185.26 485.488 183.779 485.059 182.301C484.635 180.823 483.991 179.339 483.125 177.848ZM500.127 177.848C499.261 179.332 498.613 180.813 498.184 182.291C497.76 183.762 497.549 185.247 497.549 186.744C497.549 188.235 497.76 189.719 498.184 191.197C498.613 192.675 499.261 194.163 500.127 195.66H498.564C497.581 194.111 496.849 192.604 496.367 191.139C495.885 189.667 495.645 188.202 495.645 186.744C495.645 185.292 495.885 183.831 496.367 182.359C496.849 180.888 497.581 179.384 498.564 177.848H500.127ZM515.781 195.855V197.516H503.828V195.855H515.781ZM519.277 177.848H520.84C521.823 179.384 522.555 180.888 523.037 182.359C523.519 183.831 523.76 185.292 523.76 186.744C523.76 188.209 523.519 189.677 523.037 191.148C522.555 192.62 521.823 194.124 520.84 195.66H519.277C520.143 194.15 520.788 192.656 521.211 191.178C521.641 189.7 521.855 188.222 521.855 186.744C521.855 185.26 521.641 183.779 521.211 182.301C520.788 180.823 520.143 179.339 519.277 177.848ZM536.611 179.42H538.467L530.791 195.855H528.926L536.611 179.42ZM560.713 179.42H562.568L554.893 195.855H553.027L560.713 179.42ZM584.814 179.42H586.67L578.994 195.855H577.129L584.814 179.42ZM600.137 195.855V197.516H588.184V195.855H600.137ZM355.85 213.42H357.705L350.029 229.855H348.164L355.85 213.42ZM366.465 212.717V232.717H364.785V212.717H366.465ZM343.467 245.848C342.601 247.332 341.953 248.813 341.523 250.291C341.1 251.762 340.889 253.247 340.889 254.744C340.889 256.235 341.1 257.719 341.523 259.197C341.953 260.675 342.601 262.163 343.467 263.66H341.904C340.921 262.111 340.189 260.604 339.707 259.139C339.225 257.667 338.984 256.202 338.984 254.744C338.984 253.292 339.225 251.831 339.707 250.359C340.189 248.888 340.921 247.384 341.904 245.848H343.467ZM355.85 247.42H357.705L350.029 263.855H348.164L355.85 247.42Z" fill="#CBCCCB" fill-opacity="0.7"/>
<path d="M76.0156 49.1582L73.9355 56.6191H78.0957L76.0156 49.1582ZM74.8242 47.4199H77.2168L81.6797 62H79.6387L78.5645 58.2012H73.457L72.4023 62H70.3613L74.8242 47.4199ZM92.3145 55.2227V62H90.5078V55.2227C90.5078 54.2396 90.3353 53.5169 89.9902 53.0547C89.6452 52.5924 89.1048 52.3613 88.3691 52.3613C87.5293 52.3613 86.8815 52.6608 86.4258 53.2598C85.9766 53.8522 85.752 54.7051 85.752 55.8184V62H83.9551V51.0625H85.752V52.7031C86.071 52.0781 86.5039 51.6061 87.0508 51.2871C87.5977 50.9616 88.2454 50.7988 88.9941 50.7988C90.1074 50.7988 90.9375 51.1667 91.4844 51.9023C92.0378 52.6315 92.3145 53.7383 92.3145 55.2227ZM102.48 56.4434C102.48 55.0957 102.259 54.0736 101.816 53.377C101.38 52.6738 100.742 52.3223 99.9023 52.3223C99.0234 52.3223 98.3529 52.6738 97.8906 53.377C97.4284 54.0736 97.1973 55.0957 97.1973 56.4434C97.1973 57.791 97.4284 58.8197 97.8906 59.5293C98.3594 60.2324 99.0365 60.584 99.9219 60.584C100.749 60.584 101.38 60.2292 101.816 59.5195C102.259 58.8099 102.48 57.7845 102.48 56.4434ZM104.277 61.2969C104.277 62.9375 103.89 64.181 103.115 65.0273C102.34 65.8737 101.201 66.2969 99.6973 66.2969C99.2025 66.2969 98.6849 66.2513 98.1445 66.1602C97.6042 66.069 97.0638 65.9355 96.5234 65.7598V63.9824C97.1615 64.2819 97.7409 64.5033 98.2617 64.6465C98.7826 64.7897 99.2611 64.8613 99.6973 64.8613C100.667 64.8613 101.374 64.5977 101.816 64.0703C102.259 63.543 102.48 62.7064 102.48 61.5605V61.4824V60.2617C102.194 60.8737 101.803 61.3294 101.309 61.6289C100.814 61.9284 100.212 62.0781 99.502 62.0781C98.2259 62.0781 97.207 61.5671 96.4453 60.5449C95.6836 59.5228 95.3027 58.1556 95.3027 56.4434C95.3027 54.7246 95.6836 53.3542 96.4453 52.332C97.207 51.3099 98.2259 50.7988 99.502 50.7988C100.205 50.7988 100.801 50.9388 101.289 51.2188C101.777 51.4987 102.174 51.9316 102.48 52.5176V51.1016H104.277V61.2969ZM108.057 57.8594V51.082H109.854V57.8594C109.854 58.8424 110.026 59.5651 110.371 60.0273C110.723 60.4896 111.263 60.7207 111.992 60.7207C112.839 60.7207 113.486 60.4245 113.936 59.832C114.385 59.2331 114.609 58.377 114.609 57.2637V51.082H116.416V62H114.609V60.3594C114.29 60.9909 113.854 61.4694 113.301 61.7949C112.754 62.1204 112.113 62.2832 111.377 62.2832C110.257 62.2832 109.424 61.9186 108.877 61.1895C108.33 60.4538 108.057 59.3438 108.057 57.8594ZM125.225 58.0449C125.225 58.8522 125.371 59.4609 125.664 59.8711C125.964 60.2812 126.403 60.4863 126.982 60.4863H129.082V62H126.807C125.732 62 124.899 61.6582 124.307 60.9746C123.721 60.2845 123.428 59.3079 123.428 58.0449V48.1523H120.547V46.7461H125.225V58.0449ZM137.109 56.502H136.514C135.465 56.502 134.674 56.6875 134.141 57.0586C133.613 57.4232 133.35 57.9701 133.35 58.6992C133.35 59.3568 133.548 59.8678 133.945 60.2324C134.342 60.597 134.893 60.7793 135.596 60.7793C136.585 60.7793 137.363 60.4375 137.93 59.7539C138.496 59.0638 138.783 58.1133 138.789 56.9023V56.502H137.109ZM140.596 55.7598V62H138.789V60.3789C138.405 61.0299 137.92 61.5117 137.334 61.8242C136.755 62.1302 136.048 62.2832 135.215 62.2832C134.102 62.2832 133.213 61.9707 132.549 61.3457C131.885 60.7142 131.553 59.8711 131.553 58.8164C131.553 57.599 131.96 56.6745 132.773 56.043C133.594 55.4115 134.795 55.0957 136.377 55.0957H138.789V54.8125C138.783 53.9401 138.561 53.3086 138.125 52.918C137.689 52.5208 136.992 52.3223 136.035 52.3223C135.423 52.3223 134.805 52.4102 134.18 52.5859C133.555 52.7617 132.946 53.0189 132.354 53.3574V51.5605C133.018 51.3066 133.652 51.1178 134.258 50.9941C134.87 50.8639 135.462 50.7988 136.035 50.7988C136.94 50.7988 137.712 50.9323 138.35 51.1992C138.994 51.4661 139.515 51.8665 139.912 52.4004C140.16 52.7259 140.335 53.1296 140.439 53.6113C140.544 54.0866 140.596 54.8027 140.596 55.7598ZM153.584 53.3184C153.2 53.0189 152.809 52.8008 152.412 52.6641C152.015 52.5273 151.579 52.459 151.104 52.459C149.984 52.459 149.128 52.8105 148.535 53.5137C147.943 54.2168 147.646 55.2324 147.646 56.5605V62H145.84V51.0625H147.646V53.2012C147.946 52.4264 148.405 51.834 149.023 51.4238C149.648 51.0072 150.387 50.7988 151.24 50.7988C151.683 50.7988 152.096 50.8542 152.48 50.9648C152.865 51.0755 153.232 51.248 153.584 51.4824V53.3184ZM175.908 51.4434V53.2012C175.394 52.9017 174.876 52.6771 174.355 52.5273C173.835 52.3776 173.304 52.3027 172.764 52.3027C171.95 52.3027 171.341 52.4362 170.938 52.7031C170.54 52.9635 170.342 53.3639 170.342 53.9043C170.342 54.3926 170.492 54.7572 170.791 54.998C171.09 55.2389 171.836 55.4733 173.027 55.7012L173.75 55.8379C174.642 56.0072 175.316 56.3457 175.771 56.8535C176.234 57.3613 176.465 58.0221 176.465 58.8359C176.465 59.9167 176.081 60.763 175.312 61.375C174.544 61.9805 173.477 62.2832 172.109 62.2832C171.569 62.2832 171.003 62.2246 170.41 62.1074C169.818 61.9967 169.176 61.8275 168.486 61.5996V59.7441C169.157 60.0892 169.798 60.3496 170.41 60.5254C171.022 60.6947 171.602 60.7793 172.148 60.7793C172.943 60.7793 173.558 60.6198 173.994 60.3008C174.43 59.9753 174.648 59.5228 174.648 58.9434C174.648 58.11 173.851 57.5339 172.256 57.2148L172.178 57.1953L171.504 57.0586C170.469 56.8568 169.714 56.5182 169.238 56.043C168.763 55.5612 168.525 54.9069 168.525 54.0801C168.525 53.0319 168.88 52.2246 169.59 51.6582C170.299 51.0853 171.312 50.7988 172.627 50.7988C173.213 50.7988 173.776 50.8542 174.316 50.9648C174.857 51.069 175.387 51.2285 175.908 51.4434ZM180.361 57.8594V51.082H182.158V57.8594C182.158 58.8424 182.331 59.5651 182.676 60.0273C183.027 60.4896 183.568 60.7207 184.297 60.7207C185.143 60.7207 185.791 60.4245 186.24 59.832C186.689 59.2331 186.914 58.377 186.914 57.2637V51.082H188.721V62H186.914V60.3594C186.595 60.9909 186.159 61.4694 185.605 61.7949C185.059 62.1204 184.417 62.2832 183.682 62.2832C182.562 62.2832 181.729 61.9186 181.182 61.1895C180.635 60.4538 180.361 59.3438 180.361 57.8594ZM194.17 60.623V66.1602H192.363V51.0625H194.17V52.459C194.469 51.9186 194.867 51.5085 195.361 51.2285C195.863 50.9421 196.439 50.7988 197.09 50.7988C198.411 50.7988 199.447 51.3099 200.195 52.332C200.951 53.3542 201.328 54.7702 201.328 56.5801C201.328 58.3574 200.951 59.7539 200.195 60.7695C199.44 61.7786 198.405 62.2832 197.09 62.2832C196.426 62.2832 195.843 62.1432 195.342 61.8633C194.847 61.5768 194.456 61.1634 194.17 60.623ZM199.443 56.541C199.443 55.1478 199.222 54.0964 198.779 53.3867C198.343 52.6771 197.692 52.3223 196.826 52.3223C195.954 52.3223 195.293 52.6803 194.844 53.3965C194.395 54.1061 194.17 55.1543 194.17 56.541C194.17 57.9212 194.395 58.9694 194.844 59.6855C195.293 60.4017 195.954 60.7598 196.826 60.7598C197.692 60.7598 198.343 60.4049 198.779 59.6953C199.222 58.9857 199.443 57.9342 199.443 56.541ZM206.221 60.623V66.1602H204.414V51.0625H206.221V52.459C206.52 51.9186 206.917 51.5085 207.412 51.2285C207.913 50.9421 208.49 50.7988 209.141 50.7988C210.462 50.7988 211.497 51.3099 212.246 52.332C213.001 53.3542 213.379 54.7702 213.379 56.5801C213.379 58.3574 213.001 59.7539 212.246 60.7695C211.491 61.7786 210.456 62.2832 209.141 62.2832C208.477 62.2832 207.894 62.1432 207.393 61.8633C206.898 61.5768 206.507 61.1634 206.221 60.623ZM211.494 56.541C211.494 55.1478 211.273 54.0964 210.83 53.3867C210.394 52.6771 209.743 52.3223 208.877 52.3223C208.005 52.3223 207.344 52.6803 206.895 53.3965C206.445 54.1061 206.221 55.1543 206.221 56.541C206.221 57.9212 206.445 58.9694 206.895 59.6855C207.344 60.4017 208.005 60.7598 208.877 60.7598C209.743 60.7598 210.394 60.4049 210.83 59.6953C211.273 58.9857 211.494 57.9342 211.494 56.541ZM220.625 52.3223C219.714 52.3223 219.023 52.6771 218.555 53.3867C218.086 54.0964 217.852 55.1478 217.852 56.541C217.852 57.9277 218.086 58.9792 218.555 59.6953C219.023 60.4049 219.714 60.7598 220.625 60.7598C221.543 60.7598 222.236 60.4049 222.705 59.6953C223.174 58.9792 223.408 57.9277 223.408 56.541C223.408 55.1478 223.174 54.0964 222.705 53.3867C222.236 52.6771 221.543 52.3223 220.625 52.3223ZM220.625 50.7988C222.142 50.7988 223.301 51.2904 224.102 52.2734C224.909 53.2565 225.312 54.679 225.312 56.541C225.312 58.4095 224.912 59.8353 224.111 60.8184C223.311 61.7949 222.148 62.2832 220.625 62.2832C219.108 62.2832 217.949 61.7949 217.148 60.8184C216.348 59.8353 215.947 58.4095 215.947 56.541C215.947 54.679 216.348 53.2565 217.148 52.2734C217.949 51.2904 219.108 50.7988 220.625 50.7988ZM237.939 53.3184C237.555 53.0189 237.165 52.8008 236.768 52.6641C236.37 52.5273 235.934 52.459 235.459 52.459C234.339 52.459 233.483 52.8105 232.891 53.5137C232.298 54.2168 232.002 55.2324 232.002 56.5605V62H230.195V51.0625H232.002V53.2012C232.301 52.4264 232.76 51.834 233.379 51.4238C234.004 51.0072 234.743 50.7988 235.596 50.7988C236.038 50.7988 236.452 50.8542 236.836 50.9648C237.22 51.0755 237.588 51.248 237.939 51.4824V53.3184ZM244.707 47.957V51.0625H248.789V52.459H244.707V58.3965C244.707 59.2038 244.86 59.7669 245.166 60.0859C245.472 60.4049 246.006 60.5645 246.768 60.5645H248.789V62H246.592C245.244 62 244.294 61.7298 243.74 61.1895C243.187 60.6491 242.91 59.7181 242.91 58.3965V52.459H239.99V51.0625H242.91V47.957H244.707ZM265.898 51.1016H270.498V60.6035H274.062V62H265.137V60.6035H268.701V52.498H265.898V51.1016ZM268.701 46.8535H270.498V49.1191H268.701V46.8535ZM284.365 51.4434V53.2012C283.851 52.9017 283.333 52.6771 282.812 52.5273C282.292 52.3776 281.761 52.3027 281.221 52.3027C280.407 52.3027 279.798 52.4362 279.395 52.7031C278.997 52.9635 278.799 53.3639 278.799 53.9043C278.799 54.3926 278.949 54.7572 279.248 54.998C279.548 55.2389 280.293 55.4733 281.484 55.7012L282.207 55.8379C283.099 56.0072 283.773 56.3457 284.229 56.8535C284.691 57.3613 284.922 58.0221 284.922 58.8359C284.922 59.9167 284.538 60.763 283.77 61.375C283.001 61.9805 281.934 62.2832 280.566 62.2832C280.026 62.2832 279.46 62.2246 278.867 62.1074C278.275 61.9967 277.633 61.8275 276.943 61.5996V59.7441C277.614 60.0892 278.255 60.3496 278.867 60.5254C279.479 60.6947 280.059 60.7793 280.605 60.7793C281.4 60.7793 282.015 60.6198 282.451 60.3008C282.887 59.9753 283.105 59.5228 283.105 58.9434C283.105 58.11 282.308 57.5339 280.713 57.2148L280.635 57.1953L279.961 57.0586C278.926 56.8568 278.171 56.5182 277.695 56.043C277.22 55.5612 276.982 54.9069 276.982 54.0801C276.982 53.0319 277.337 52.2246 278.047 51.6582C278.757 51.0853 279.769 50.7988 281.084 50.7988C281.67 50.7988 282.233 50.8542 282.773 50.9648C283.314 51.069 283.844 51.2285 284.365 51.4434ZM302.051 51.1016H306.65V60.6035H310.215V62H301.289V60.6035H304.854V52.498H302.051V51.1016ZM304.854 46.8535H306.65V49.1191H304.854V46.8535ZM321.279 55.2227V62H319.473V55.2227C319.473 54.2396 319.3 53.5169 318.955 53.0547C318.61 52.5924 318.07 52.3613 317.334 52.3613C316.494 52.3613 315.846 52.6608 315.391 53.2598C314.941 53.8522 314.717 54.7051 314.717 55.8184V62H312.92V51.0625H314.717V52.7031C315.036 52.0781 315.469 51.6061 316.016 51.2871C316.562 50.9616 317.21 50.7988 317.959 50.7988C319.072 50.7988 319.902 51.1667 320.449 51.9023C321.003 52.6315 321.279 53.7383 321.279 55.2227ZM338.779 60.623V66.1602H336.973V51.0625H338.779V52.459C339.079 51.9186 339.476 51.5085 339.971 51.2285C340.472 50.9421 341.048 50.7988 341.699 50.7988C343.021 50.7988 344.056 51.3099 344.805 52.332C345.56 53.3542 345.938 54.7702 345.938 56.5801C345.938 58.3574 345.56 59.7539 344.805 60.7695C344.049 61.7786 343.014 62.2832 341.699 62.2832C341.035 62.2832 340.452 62.1432 339.951 61.8633C339.456 61.5768 339.066 61.1634 338.779 60.623ZM344.053 56.541C344.053 55.1478 343.831 54.0964 343.389 53.3867C342.952 52.6771 342.301 52.3223 341.436 52.3223C340.563 52.3223 339.902 52.6803 339.453 53.3965C339.004 54.1061 338.779 55.1543 338.779 56.541C338.779 57.9212 339.004 58.9694 339.453 59.6855C339.902 60.4017 340.563 60.7598 341.436 60.7598C342.301 60.7598 342.952 60.4049 343.389 59.6953C343.831 58.9857 344.053 57.9342 344.053 56.541ZM358.447 53.3184C358.063 53.0189 357.673 52.8008 357.275 52.6641C356.878 52.5273 356.442 52.459 355.967 52.459C354.847 52.459 353.991 52.8105 353.398 53.5137C352.806 54.2168 352.51 55.2324 352.51 56.5605V62H350.703V51.0625H352.51V53.2012C352.809 52.4264 353.268 51.834 353.887 51.4238C354.512 51.0072 355.251 50.7988 356.104 50.7988C356.546 50.7988 356.96 50.8542 357.344 50.9648C357.728 51.0755 358.096 51.248 358.447 51.4824V53.3184ZM362.305 51.1016H366.904V60.6035H370.469V62H361.543V60.6035H365.107V52.498H362.305V51.1016ZM365.107 46.8535H366.904V49.1191H365.107V46.8535ZM372.246 51.0625H374.111L377.285 60.2422L380.469 51.0625H382.334L378.447 62H376.133L372.246 51.0625ZM390.176 56.502H389.58C388.532 56.502 387.741 56.6875 387.207 57.0586C386.68 57.4232 386.416 57.9701 386.416 58.6992C386.416 59.3568 386.615 59.8678 387.012 60.2324C387.409 60.597 387.959 60.7793 388.662 60.7793C389.652 60.7793 390.43 60.4375 390.996 59.7539C391.562 59.0638 391.849 58.1133 391.855 56.9023V56.502H390.176ZM393.662 55.7598V62H391.855V60.3789C391.471 61.0299 390.986 61.5117 390.4 61.8242C389.821 62.1302 389.115 62.2832 388.281 62.2832C387.168 62.2832 386.279 61.9707 385.615 61.3457C384.951 60.7142 384.619 59.8711 384.619 58.8164C384.619 57.599 385.026 56.6745 385.84 56.043C386.66 55.4115 387.861 55.0957 389.443 55.0957H391.855V54.8125C391.849 53.9401 391.628 53.3086 391.191 52.918C390.755 52.5208 390.059 52.3223 389.102 52.3223C388.49 52.3223 387.871 52.4102 387.246 52.5859C386.621 52.7617 386.012 53.0189 385.42 53.3574V51.5605C386.084 51.3066 386.719 51.1178 387.324 50.9941C387.936 50.8639 388.529 50.7988 389.102 50.7988C390.007 50.7988 390.778 50.9323 391.416 51.1992C392.061 51.4661 392.581 51.8665 392.979 52.4004C393.226 52.7259 393.402 53.1296 393.506 53.6113C393.61 54.0866 393.662 54.8027 393.662 55.7598ZM401.367 47.957V51.0625H405.449V52.459H401.367V58.3965C401.367 59.2038 401.52 59.7669 401.826 60.0859C402.132 60.4049 402.666 60.5645 403.428 60.5645H405.449V62H403.252C401.904 62 400.954 61.7298 400.4 61.1895C399.847 60.6491 399.57 59.7181 399.57 58.3965V52.459H396.65V51.0625H399.57V47.957H401.367ZM418.359 55.6328V56.5117H410.576V56.5703C410.524 58.0612 410.807 59.1322 411.426 59.7832C412.051 60.4342 412.93 60.7598 414.062 60.7598C414.635 60.7598 415.234 60.6686 415.859 60.4863C416.484 60.304 417.152 60.0273 417.861 59.6562V61.4434C417.178 61.7233 416.517 61.9316 415.879 62.0684C415.247 62.2116 414.635 62.2832 414.043 62.2832C412.344 62.2832 411.016 61.7754 410.059 60.7598C409.102 59.7376 408.623 58.3314 408.623 56.541C408.623 54.7962 409.092 53.403 410.029 52.3613C410.967 51.3197 412.217 50.7988 413.779 50.7988C415.173 50.7988 416.27 51.2708 417.07 52.2148C417.878 53.1589 418.307 54.2982 418.359 55.6328ZM416.562 55.1055C416.484 54.3503 416.208 53.6992 415.732 53.1523C415.264 52.599 414.587 52.3223 413.701 52.3223C412.835 52.3223 412.122 52.6087 411.562 53.1816C411.003 53.7546 410.697 54.3991 410.645 55.1152L416.562 55.1055ZM440.488 56.541C440.488 55.1478 440.267 54.0964 439.824 53.3867C439.382 52.6771 438.727 52.3223 437.861 52.3223C436.989 52.3223 436.328 52.6803 435.879 53.3965C435.43 54.1061 435.205 55.1543 435.205 56.541C435.205 57.9212 435.43 58.9694 435.879 59.6855C436.328 60.4017 436.989 60.7598 437.861 60.7598C438.727 60.7598 439.382 60.4049 439.824 59.6953C440.267 58.9857 440.488 57.9342 440.488 56.541ZM435.205 52.459C435.492 51.9251 435.885 51.515 436.387 51.2285C436.895 50.9421 437.48 50.7988 438.145 50.7988C439.46 50.7988 440.495 51.3066 441.25 52.3223C442.005 53.3314 442.383 54.7246 442.383 56.502C442.383 58.3053 442.002 59.7214 441.24 60.75C440.485 61.7721 439.447 62.2832 438.125 62.2832C437.474 62.2832 436.898 62.1432 436.396 61.8633C435.902 61.5768 435.505 61.1634 435.205 60.623V62H433.408V46.8047H435.205V52.459ZM454.512 55.6328V56.5117H446.729V56.5703C446.676 58.0612 446.96 59.1322 447.578 59.7832C448.203 60.4342 449.082 60.7598 450.215 60.7598C450.788 60.7598 451.387 60.6686 452.012 60.4863C452.637 60.304 453.304 60.0273 454.014 59.6562V61.4434C453.33 61.7233 452.669 61.9316 452.031 62.0684C451.4 62.2116 450.788 62.2832 450.195 62.2832C448.496 62.2832 447.168 61.7754 446.211 60.7598C445.254 59.7376 444.775 58.3314 444.775 56.541C444.775 54.7962 445.244 53.403 446.182 52.3613C447.119 51.3197 448.369 50.7988 449.932 50.7988C451.325 50.7988 452.422 51.2708 453.223 52.2148C454.03 53.1589 454.46 54.2982 454.512 55.6328ZM452.715 55.1055C452.637 54.3503 452.36 53.6992 451.885 53.1523C451.416 52.599 450.739 52.3223 449.854 52.3223C448.988 52.3223 448.275 52.6087 447.715 53.1816C447.155 53.7546 446.849 54.3991 446.797 55.1152L452.715 55.1055ZM461.621 47.957V51.0625H465.703V52.459H461.621V58.3965C461.621 59.2038 461.774 59.7669 462.08 60.0859C462.386 60.4049 462.92 60.5645 463.682 60.5645H465.703V62H463.506C462.158 62 461.208 61.7298 460.654 61.1895C460.101 60.6491 459.824 59.7181 459.824 58.3965V52.459H456.904V51.0625H459.824V47.957H461.621ZM474.531 56.502H473.936C472.887 56.502 472.096 56.6875 471.562 57.0586C471.035 57.4232 470.771 57.9701 470.771 58.6992C470.771 59.3568 470.97 59.8678 471.367 60.2324C471.764 60.597 472.314 60.7793 473.018 60.7793C474.007 60.7793 474.785 60.4375 475.352 59.7539C475.918 59.0638 476.204 58.1133 476.211 56.9023V56.502H474.531ZM478.018 55.7598V62H476.211V60.3789C475.827 61.0299 475.342 61.5117 474.756 61.8242C474.176 62.1302 473.47 62.2832 472.637 62.2832C471.523 62.2832 470.635 61.9707 469.971 61.3457C469.307 60.7142 468.975 59.8711 468.975 58.8164C468.975 57.599 469.382 56.6745 470.195 56.043C471.016 55.4115 472.217 55.0957 473.799 55.0957H476.211V54.8125C476.204 53.9401 475.983 53.3086 475.547 52.918C475.111 52.5208 474.414 52.3223 473.457 52.3223C472.845 52.3223 472.227 52.4102 471.602 52.5859C470.977 52.7617 470.368 53.0189 469.775 53.3574V51.5605C470.439 51.3066 471.074 51.1178 471.68 50.9941C472.292 50.8639 472.884 50.7988 473.457 50.7988C474.362 50.7988 475.133 50.9323 475.771 51.1992C476.416 51.4661 476.937 51.8665 477.334 52.4004C477.581 52.7259 477.757 53.1296 477.861 53.6113C477.965 54.0866 478.018 54.8027 478.018 55.7598Z" fill="#5995CC"/>
</svg>
