<svg width="22" height="18" viewBox="0 0 22 18" fill="none" xmlns="http://www.w3.org/2000/svg">
<path fill-rule="evenodd" clip-rule="evenodd" d="M19.3875 2.76923C20.35 2.63077 21.175 2.49231 22 2.07692C21.45 3.04615 20.625 3.87692 19.6625 4.43077C19.9375 10.9385 15.2625 18 6.875 18C4.4 18 2.0625 17.1692 0 15.9231C2.3375 16.2 4.8125 15.5077 6.4625 14.2615C4.4 14.2615 2.75 12.8769 2.2 11.0769C2.8875 11.2154 3.575 11.0769 4.2625 10.9385C2.2 10.3846 0.6875 8.44615 0.6875 6.36923C1.375 6.64615 2.0625 6.92308 2.75 6.92308C0.825001 5.53846 0.137501 2.90769 1.375 0.830769C3.7125 3.6 7.0125 5.4 10.725 5.53846C10.0375 2.76923 12.2375 0 15.125 0C16.3625 0 17.6 0.553846 18.425 1.38462C19.525 1.10769 20.4875 0.830769 21.3125 0.276923C21.0375 1.38462 20.35 2.21539 19.3875 2.76923Z" fill="white"/>
</svg>
