<svg width="290" height="230" viewBox="0 0 290 230" fill="none" xmlns="http://www.w3.org/2000/svg">
<path d="M68.8008 93.3801C68.8008 93.3801 72.2988 75.5457 77.5457 75.5457C82.7927 75.5457 84.3959 85.961 87.3109 85.961C90.2259 85.961 92.4121 70.124 95.6186 70.124C98.8251 70.124 100.283 77.2578 102.323 77.2578C104.364 77.2578 107.716 48.5801 114.712 48.5801C121.708 48.5801 119.813 91.3826 128.704 91.3826C137.594 91.3826 134.679 65.8437 140.801 65.7011" stroke="#E55D59" stroke-width="4" stroke-linecap="round"/>
<rect x="166.145" y="44" width="84" height="105.6" rx="8" transform="rotate(4.57224 166.145 44)" fill="#EDF5F7"/>
<rect x="162.979" y="41.1531" width="80" height="101.6" rx="6" transform="rotate(4.57224 162.979 41.1531)" stroke="#222222" stroke-width="4"/>
<rect x="172.562" y="56.7668" width="16" height="3.2" rx="1.6" transform="rotate(4.57224 172.562 56.7668)" fill="#222222"/>
<rect x="171.926" y="64.7415" width="20.8" height="3.2" rx="1.6" transform="rotate(4.57224 171.926 64.7415)" fill="#222222"/>
<rect x="170.523" y="82.2854" width="54.4" height="3.2" rx="1.6" transform="rotate(4.57224 170.523 82.2854)" fill="#222222"/>
<rect x="169.949" y="89.4624" width="52.8" height="3.2" rx="1.6" transform="rotate(4.57224 169.949 89.4624)" fill="#222222"/>
<rect x="169.312" y="97.4373" width="54.4" height="3.2" rx="1.6" transform="rotate(4.57224 169.312 97.4373)" fill="#222222"/>
<rect x="168.676" y="105.412" width="40.8" height="3.2" rx="1.6" transform="rotate(4.57224 168.676 105.412)" fill="#222222"/>
<rect x="141.641" y="112.78" width="65.6" height="97.6" rx="8" transform="rotate(81.9559 141.641 112.78)" fill="#EDF5F7"/>
<rect x="134.94" y="110.04" width="61.6" height="93.6" rx="6" transform="rotate(81.9559 134.94 110.04)" stroke="#222222" stroke-width="4"/>
<rect x="56.0703" y="120.783" width="1.6" height="64" transform="rotate(-8.04409 56.0703 120.783)" fill="#222222"/>
<rect x="73.9258" y="132.802" width="1.6" height="49.6" transform="rotate(-8.04409 73.9258 132.802)" fill="#222222"/>
<rect x="89.7695" y="130.563" width="1.6" height="49.6" transform="rotate(-8.04409 89.7695 130.563)" fill="#222222"/>
<rect x="105.609" y="128.324" width="1.6" height="49.6" transform="rotate(-8.04409 105.609 128.324)" fill="#222222"/>
<rect x="121.453" y="126.085" width="1.6" height="49.6" transform="rotate(-8.04409 121.453 126.085)" fill="#222222"/>
<rect x="138.883" y="123.623" width="1.6" height="97.6" transform="rotate(81.9559 138.883 123.623)" fill="#222222"/>
<rect x="141.121" y="139.465" width="1.6" height="81.6" transform="rotate(81.9559 141.121 139.465)" fill="#222222"/>
<rect x="143.359" y="155.308" width="1.6" height="81.6" transform="rotate(81.9559 143.359 155.308)" fill="#222222"/>
</svg>
